<?xml version="1.0" encoding="UTF-8" standalone="no"?>
<!-- Creator: CorelDRAW X7 -->

<svg
   xmlns:dc="http://purl.org/dc/elements/1.1/"
   xmlns:cc="http://creativecommons.org/ns#"
   xmlns:rdf="http://www.w3.org/1999/02/22-rdf-syntax-ns#"
   xmlns:svg="http://www.w3.org/2000/svg"
   xmlns="http://www.w3.org/2000/svg"
   xmlns:sodipodi="http://sodipodi.sourceforge.net/DTD/sodipodi-0.dtd"
   xmlns:inkscape="http://www.inkscape.org/namespaces/inkscape"
   xml:space="preserve"
   width="34.4mm"
   height="20.9mm"
   version="1.0"
   style="shape-rendering:geometricPrecision; text-rendering:geometricPrecision; image-rendering:optimizeQuality; fill-rule:evenodd; clip-rule:evenodd"
   viewBox="0 0 3440 2090"
   id="svg4136"
   inkscape:version="0.91 r13725"
   sodipodi:docname="muestra1.svg"><metadata
     id="metadata4155"><rdf:RDF><cc:Work
         rdf:about=""><dc:format>image/svg+xml</dc:format><dc:type
           rdf:resource="http://purl.org/dc/dcmitype/StillImage" /><dc:title></dc:title></cc:Work></rdf:RDF></metadata><sodipodi:namedview
     pagecolor="#ffffff"
     bordercolor="#666666"
     borderopacity="1"
     objecttolerance="10"
     gridtolerance="10"
     guidetolerance="10"
     inkscape:pageopacity="0"
     inkscape:pageshadow="2"
     inkscape:window-width="1920"
     inkscape:window-height="1017"
     id="namedview4153"
     showgrid="false"
     inkscape:zoom="11.450931"
     inkscape:cx="60.944885"
     inkscape:cy="37.027558"
     inkscape:window-x="-8"
     inkscape:window-y="-8"
     inkscape:window-maximized="1"
     inkscape:current-layer="svg4136" /><defs
     id="defs4138"><style
       type="text/css"
       id="style4140"><![CDATA[
    .fil1 {fill:black;fill-opacity:0.200000}
    .fil0 {fill:#2B2A29;fill-rule:nonzero;fill-opacity:0.200000}
   ]]></style></defs><g
     id="Capa_x0020_1"><metadata
       id="CorelCorpID_0Corel-Layer" /><path
       class="fil0"
       d="M1366 547c-3,-12 -8,-27 -13,-45 -5,-18 -11,-37 -17,-58 -6,-21 -12,-43 -19,-65 -7,-22 -13,-43 -19,-63 -6,-19 -12,-37 -17,-53 -5,-15 -9,-27 -12,-35 -4,57 -7,119 -9,186 -2,67 -4,135 -6,203l-45 0c1,-44 3,-88 4,-133 2,-44 4,-88 6,-131 2,-43 4,-85 7,-126 2,-41 5,-80 7,-116l41 0c8,21 17,47 27,76 10,29 20,60 30,91 9,32 19,64 28,96 9,32 18,61 25,87 8,-26 16,-55 25,-87 10,-32 19,-64 29,-96 10,-31 19,-62 29,-91 10,-29 19,-55 28,-76l40 0c11,163 19,331 24,506l-45 0c-1,-68 -3,-136 -6,-203 -2,-67 -5,-129 -8,-186 -3,8 -7,20 -13,35 -5,16 -10,34 -16,53 -6,20 -13,41 -20,63 -6,22 -13,44 -19,65 -6,21 -12,40 -17,58 -5,18 -9,33 -12,45l-37 0zm388 81c-22,0 -40,-6 -56,-16 -16,-10 -29,-24 -39,-42 -10,-17 -18,-38 -23,-63 -5,-24 -7,-50 -7,-79l0 -317 46 0 0 309c0,51 7,88 22,111 14,22 33,34 57,34 11,0 22,-3 32,-9 9,-5 18,-14 25,-25 7,-12 12,-27 16,-45 3,-19 5,-40 5,-66l0 -309 46 0 0 317c0,29 -2,55 -7,79 -5,25 -12,46 -23,63 -10,18 -23,32 -39,42 -15,10 -34,16 -55,16zm204 -11l0 -506 200 0 0 61 -154 0 0 150 137 0 0 59 -137 0 0 175 166 0 0 61 -212 0zm347 -51c48,0 72,-25 72,-76 0,-15 -2,-28 -7,-39 -4,-11 -10,-21 -17,-29 -7,-8 -15,-15 -25,-21 -9,-5 -19,-11 -29,-17 -12,-6 -24,-14 -35,-22 -10,-8 -20,-17 -28,-28 -7,-11 -14,-24 -18,-39 -5,-15 -7,-33 -7,-55 0,-44 10,-79 29,-103 20,-25 47,-38 81,-38 20,0 38,4 55,10 16,7 28,14 35,22l-14 57c-7,-6 -17,-12 -30,-18 -13,-6 -28,-9 -46,-9 -9,0 -17,1 -24,4 -8,3 -15,7 -20,13 -6,6 -10,13 -14,22 -3,9 -5,20 -5,32 0,14 2,25 5,34 4,10 9,18 15,25 7,7 14,13 22,19 9,6 18,12 28,18 14,8 27,17 39,26 12,9 22,19 31,31 9,12 15,27 20,44 5,17 7,37 7,61 0,44 -10,78 -31,102 -21,24 -51,36 -89,36 -13,0 -25,-2 -36,-4 -11,-3 -21,-6 -29,-10 -9,-4 -16,-7 -22,-12 -6,-4 -11,-7 -15,-10l14 -59c7,7 18,14 33,22 15,7 33,11 55,11zm395 -455l0 61 -103 0 0 445 -46 0 0 -445 -104 0 0 -61 253 0zm209 294c5,10 12,23 20,38 7,16 15,34 24,53 8,19 16,39 24,60 8,21 15,41 21,61l-51 0c-6,-19 -13,-38 -20,-57 -8,-19 -15,-37 -23,-54 -7,-17 -15,-33 -22,-48 -8,-16 -14,-29 -20,-40 -5,1 -9,1 -13,1 -4,0 -9,0 -13,0l-41 0 0 198 -46 0 0 -499c13,-5 27,-8 43,-10 16,-1 31,-2 44,-2 46,0 81,13 105,40 25,27 37,67 37,120 0,33 -6,62 -18,86 -11,24 -28,41 -51,53zm-69 -237c-20,0 -35,1 -45,2l0 191 32 0c16,0 30,-2 43,-4 13,-3 23,-7 32,-14 9,-7 15,-16 20,-29 5,-12 7,-29 7,-49 0,-19 -2,-35 -7,-47 -5,-13 -11,-23 -19,-30 -8,-8 -18,-13 -28,-16 -11,-3 -23,-4 -35,-4zm440 449c-6,-22 -11,-44 -15,-65 -5,-21 -10,-43 -15,-65l-149 0 -30 130 -48 0c13,-54 25,-103 36,-149 11,-45 22,-89 32,-129 11,-41 21,-80 32,-117 10,-38 21,-75 33,-111l42 0c11,36 22,73 32,111 11,37 21,76 32,117 11,40 21,84 33,129 11,46 22,95 35,149l-50 0zm-43 -188c-10,-42 -20,-83 -30,-123 -10,-39 -21,-78 -32,-114 -11,36 -21,75 -31,114 -10,40 -20,81 -30,123l123 0z"
       id="path4144" /><path
       class="fil0"
       d="M1212 1005l0 -333 200 0 0 40 -154 0 0 99 137 0 0 39 -137 0 0 115 166 0 0 40 -212 0zm490 -333l0 40 -103 0 0 293 -46 0 0 -293 -104 0 0 -40 253 0zm49 0l46 0 0 333 -46 0 0 -333zm114 166c0,-28 4,-53 12,-75 9,-22 20,-40 35,-55 14,-14 31,-25 50,-33 19,-7 39,-11 61,-11 21,0 41,4 60,11 19,8 35,19 49,33 15,15 26,33 34,55 9,22 13,47 13,75 0,25 -3,48 -10,67 -6,20 -15,37 -26,51 -11,14 -24,26 -39,35 -15,8 -31,14 -48,18 0,7 3,13 9,19 6,6 14,10 24,14 9,4 20,7 31,10 12,2 24,4 36,6l-11 36c-17,-2 -33,-5 -48,-9 -15,-3 -28,-8 -40,-14 -12,-7 -23,-14 -31,-24 -8,-9 -14,-21 -16,-35 -20,-1 -39,-6 -57,-14 -18,-8 -33,-20 -46,-34 -13,-15 -23,-33 -31,-54 -7,-20 -11,-44 -11,-72zm48 0c0,21 3,39 8,55 5,17 12,31 21,42 10,12 21,21 35,27 13,6 28,10 45,10 17,0 32,-4 45,-10 13,-6 24,-15 34,-27 9,-11 16,-25 21,-42 5,-16 8,-34 8,-55 0,-20 -3,-38 -8,-55 -5,-16 -12,-30 -21,-42 -10,-11 -21,-20 -34,-26 -13,-7 -28,-10 -45,-10 -17,0 -32,3 -45,10 -14,6 -25,15 -35,26 -9,12 -16,26 -21,42 -5,17 -8,35 -8,55zm456 174c-21,0 -40,-3 -56,-10 -15,-6 -28,-16 -38,-27 -11,-12 -18,-26 -23,-42 -5,-16 -7,-33 -7,-52l0 -209 46 0 0 204c0,33 7,57 22,72 14,16 33,23 56,23 12,0 23,-2 32,-5 10,-4 18,-10 25,-18 7,-7 13,-17 16,-29 4,-12 6,-26 6,-43l0 -204 46 0 0 209c0,19 -2,36 -7,52 -5,16 -13,30 -23,42 -10,11 -23,21 -39,27 -15,7 -34,10 -56,10zm204 -7l0 -333 201 0 0 40 -155 0 0 99 138 0 0 39 -138 0 0 115 167 0 0 40 -213 0zm491 -333l0 40 -104 0 0 293 -46 0 0 -293 -103 0 0 -40 253 0zm237 333c-5,-14 -10,-28 -15,-42 -5,-14 -10,-28 -15,-43l-148 0 -30 85 -48 0c12,-35 24,-68 35,-98 11,-30 22,-58 33,-85 10,-27 21,-53 31,-77 11,-25 22,-49 33,-73l42 0c12,24 23,48 33,73 10,24 21,50 32,77 10,27 21,55 32,85 11,30 23,63 36,98l-51 0zm-43 -123c-10,-28 -20,-55 -30,-81 -10,-27 -20,-52 -31,-76 -11,24 -22,49 -32,76 -10,26 -19,53 -29,81l122 0z"
       id="path4146" /><path
       class="fil0"
       d="M368 372l-232 -42c27,-94 72,-164 136,-210 64,-46 159,-68 285,-68 114,0 200,13 256,40 56,27 95,62 118,103 23,42 34,119 34,230l-3 300c0,85 4,148 12,188 8,41 23,84 46,130l-255 0c-6,-16 -15,-41 -25,-74 -4,-16 -7,-26 -9,-30 -43,43 -90,75 -140,96 -50,22 -103,33 -159,33 -100,0 -178,-27 -236,-82 -57,-54 -86,-122 -86,-205 0,-55 13,-104 40,-147 26,-43 62,-76 110,-98 47,-23 115,-43 204,-60 119,-23 203,-44 249,-63l0 -26c0,-50 -12,-86 -37,-107 -24,-21 -71,-32 -138,-32 -46,0 -82,9 -107,28 -26,18 -47,50 -63,96zm345 207c-33,11 -85,24 -157,40 -71,15 -117,30 -139,44 -34,24 -50,54 -50,91 0,36 13,67 40,93 27,26 61,39 102,39 46,0 91,-15 133,-45 30,-24 51,-52 61,-85 6,-22 10,-64 10,-126l0 -51z"
       id="path4148" /></g><g
     id="Capa_x0020_1_0"><metadata
       id="CorelCorpID_1Corel-Layer" /><path
       id="_1"
       class="fil1"
       d="M246 1246l27 0 0 740 -27 0 0 -740zm66 0l24 0 0 740 -24 0 0 -740zm67 0l24 0 0 543 -24 0 0 -543zm131 0l59 0 0 543 -59 0 0 -543zm98 0l91 0 0 543 -91 0 0 -543zm166 0l24 0 0 543 -24 0 0 -543zm64 0l90 0 0 543 -90 0 0 -543zm133 0l56 0 0 543 -56 0 0 -543zm99 0l89 0 0 543 -89 0 0 -543zm162 0l25 0 0 543 -25 0 0 -543zm166 0l24 0 0 543 -24 0 0 -543zm66 0l25 0 0 543 -25 0 0 -543zm64 0l59 0 0 543 -59 0 0 -543zm166 0l25 0 0 543 -25 0 0 -543zm66 0l25 0 0 740 -25 0 0 -740zm64 0l25 0 0 740 -25 0 0 -740zm67 0l25 0 0 543 -25 0 0 -543zm99 0l90 0 0 543 -90 0 0 -543zm130 0l25 0 0 543 -25 0 0 -543zm67 0l25 0 0 543 -25 0 0 -543zm165 0l25 0 0 543 -25 0 0 -543zm64 0l25 0 0 543 -25 0 0 -543zm166 0l25 0 0 543 -25 0 0 -543zm66 0l25 0 0 543 -25 0 0 -543zm163 0l25 0 0 543 -25 0 0 -543zm67 0l25 0 0 543 -25 0 0 -543zm165 0l25 0 0 543 -25 0 0 -543zm163 0l25 0 0 543 -25 0 0 -543zm66 0l25 0 0 740 -25 0 0 -740zm67 0l25 0 0 740 -25 0 0 -740zm-3236 686c-14,7 -25,14 -31,20 -5,7 -9,16 -9,24 0,11 4,20 10,26 8,5 18,8 30,8 13,0 23,-3 29,-8 7,-6 11,-15 11,-26 0,-8 -3,-17 -9,-24 -6,-6 -16,-13 -31,-20l0 0zm0 -29c10,-4 18,-9 24,-15 4,-5 7,-11 7,-17 0,-8 -3,-13 -7,-17 -6,-4 -14,-6 -24,-6 -9,0 -17,2 -23,6 -6,4 -9,9 -9,16 0,7 3,14 9,18 5,6 13,11 23,15zm26 14c16,9 28,18 34,28 6,9 10,21 10,34 0,19 -6,32 -18,42 -13,10 -29,15 -52,15 -22,0 -39,-5 -52,-15 -12,-11 -17,-25 -17,-44 0,-12 3,-24 9,-32 7,-10 19,-19 33,-28 -10,-6 -19,-14 -25,-22 -5,-9 -8,-16 -8,-26 0,-13 5,-25 17,-34 10,-8 25,-12 43,-12 19,0 33,4 44,12 11,9 16,20 16,33 0,10 -3,18 -8,26 -6,9 -14,17 -26,23l0 0zm345 69l-80 0 0 -30 61 -131 30 0 -63 136 52 0 0 -44 28 0 0 44 27 0 0 25 -27 0 0 47 -28 0 0 -47zm165 -160l104 0 0 25 -78 0 -3 42c2,0 4,0 6,0 2,0 5,0 9,0 21,0 39,6 52,19 14,12 20,29 20,48 0,23 -9,42 -29,55 -19,14 -46,20 -80,20l-8 0 0 -26c1,0 2,0 4,0 2,1 4,1 7,1 24,0 44,-5 56,-13 14,-10 20,-22 20,-39 0,-12 -4,-22 -13,-29 -10,-8 -22,-11 -39,-11 -4,0 -8,0 -14,0 -6,1 -13,2 -21,3l7 -95 0 0zm243 180c0,-21 3,-41 10,-59 6,-18 16,-35 31,-52l14 -18c7,-8 12,-14 14,-17 2,-3 3,-6 3,-8l0 -1 -102 0 0 -25 136 0 0 9c0,16 -8,33 -25,53 -2,3 -4,4 -5,6l-13 17c-13,14 -21,29 -26,44 -6,15 -9,32 -9,50l0 28 -28 0 0 -27 0 0zm219 -180l103 0 0 25 -77 0 -3 42c2,0 4,0 6,0 2,0 4,0 8,0 22,0 39,6 53,19 13,12 20,29 20,48 0,23 -10,42 -29,55 -19,14 -47,20 -80,20l-8 0 0 -26c1,0 2,0 4,0 1,1 4,1 6,1 25,0 44,-5 57,-13 13,-10 20,-22 20,-39 0,-12 -5,-22 -14,-29 -9,-8 -22,-11 -38,-11 -4,0 -9,0 -15,0 -6,1 -12,2 -20,3l7 -95 0 0zm281 183c12,0 21,-4 29,-11 7,-8 10,-19 10,-32 0,-13 -3,-22 -11,-30 -7,-7 -16,-11 -29,-11 -12,0 -22,4 -29,12 -8,8 -11,17 -11,30 0,13 3,23 11,31 7,7 18,11 30,11zm13 -184l37 0c-12,10 -25,23 -36,35 -12,14 -24,28 -35,45 4,-2 9,-3 12,-4 5,0 9,-1 14,-1 18,0 33,7 45,18 13,13 19,29 19,48 0,20 -7,38 -20,50 -12,13 -29,19 -49,19 -21,0 -39,-6 -51,-20 -14,-12 -20,-30 -20,-52 0,-20 7,-43 21,-65 13,-22 34,-47 63,-73l0 0zm165 1l104 0 0 25 -79 0 -2 42c1,0 3,0 5,0 2,0 5,0 9,0 21,0 39,6 52,19 14,12 20,29 20,48 0,23 -9,42 -29,55 -19,14 -45,20 -80,20l-8 0 0 -26c1,0 3,0 4,0 2,1 4,1 7,1 24,0 44,-5 57,-13 14,-10 20,-22 20,-39 0,-12 -4,-22 -14,-29 -9,-8 -22,-11 -39,-11 -4,0 -9,0 -14,0 -6,1 -13,2 -20,3l7 -95 0 0zm362 0l104 0 0 25 -78 0 -2 42c1,0 3,0 5,0 2,0 5,0 9,0 21,0 38,6 52,19 13,12 20,29 20,48 0,23 -10,42 -29,55 -19,14 -46,20 -80,20l-8 0 0 -26c1,0 3,0 4,0 2,1 4,1 7,1 24,0 43,-5 57,-13 13,-10 19,-22 19,-39 0,-12 -4,-22 -13,-29 -9,-8 -23,-11 -39,-11 -4,0 -9,0 -15,0 -5,1 -12,2 -19,3l6 -95zm281 183c13,0 23,-4 29,-11 7,-8 11,-19 11,-32 0,-13 -4,-22 -11,-30 -7,-7 -17,-11 -30,-11 -11,0 -21,4 -29,12 -6,8 -10,17 -10,30 0,13 4,23 10,31 8,7 18,11 30,11zm13 -184l38 0c-13,10 -26,23 -36,35 -12,14 -23,28 -36,45 5,-2 9,-3 13,-4 4,0 8,-1 13,-1 19,0 34,7 46,18 12,13 18,29 18,48 0,20 -6,38 -18,50 -14,13 -30,19 -51,19 -21,0 -38,-6 -51,-20 -13,-12 -19,-30 -19,-52 0,-20 6,-43 20,-65 14,-22 35,-47 63,-73l0 0zm219 184c12,0 22,-4 30,-11 6,-8 9,-19 9,-32 0,-13 -3,-22 -10,-30 -7,-7 -17,-11 -29,-11 -13,0 -23,4 -29,12 -8,8 -11,17 -11,30 0,13 3,23 11,31 7,7 17,11 29,11zm13 -184l38 0c-13,10 -25,23 -37,35 -12,14 -23,28 -35,45 4,-2 9,-3 13,-4 5,0 8,-1 13,-1 19,0 34,7 46,18 12,13 18,29 18,48 0,20 -6,38 -19,50 -13,13 -29,19 -50,19 -21,0 -38,-6 -51,-20 -12,-12 -19,-30 -19,-52 0,-20 7,-43 20,-65 14,-22 34,-47 63,-73l0 0zm217 184c12,0 22,-4 29,-11 7,-8 10,-19 10,-32 0,-13 -3,-22 -10,-30 -8,-7 -18,-11 -30,-11 -12,0 -22,4 -29,12 -7,8 -11,17 -11,30 0,13 4,23 11,31 7,7 17,11 30,11zm12 -184l38 0c-13,10 -25,23 -37,35 -10,14 -22,28 -35,45 5,-2 9,-3 13,-4 5,0 9,-1 14,-1 18,0 33,7 45,18 13,13 18,29 18,48 0,20 -5,38 -19,50 -13,13 -29,19 -49,19 -22,0 -39,-6 -52,-20 -12,-12 -19,-30 -19,-52 0,-20 7,-43 20,-65 14,-22 35,-47 63,-73l0 0zm217 184c13,0 22,-4 29,-11 7,-8 11,-19 11,-32 0,-13 -4,-22 -11,-30 -8,-7 -17,-11 -30,-11 -12,0 -21,4 -29,12 -7,8 -11,17 -11,30 0,13 4,23 11,31 8,7 17,11 30,11zm13 -184l37 0c-12,10 -24,23 -35,35 -12,14 -24,28 -35,45 4,-2 7,-3 12,-4 4,0 9,-1 13,-1 18,0 34,7 46,18 12,13 19,29 19,48 0,20 -7,38 -20,50 -13,13 -30,19 -50,19 -21,0 -39,-6 -51,-20 -13,-12 -20,-30 -20,-52 0,-20 7,-43 21,-65 13,-22 34,-47 63,-73l0 0zm150 171c10,5 19,9 28,10 8,3 18,4 27,4 14,0 26,-4 34,-11 9,-9 13,-20 13,-32 0,-14 -4,-23 -14,-29 -9,-7 -24,-10 -44,-10 0,0 -2,0 -4,0 -2,0 -5,0 -7,1l0 -21 56 -57 -89 0 0 -25 125 0 0 29 -53 53c19,0 34,6 45,17 10,11 16,25 16,44 0,20 -8,36 -21,49 -15,12 -35,18 -59,18 -8,0 -17,-1 -25,-2 -9,-2 -18,-5 -28,-8l0 -30 0 0z" /></g></svg>