<?xml version="1.0" encoding="UTF-8"?>
<!DOCTYPE svg PUBLIC "-//W3C//DTD SVG 1.0//EN" "http://www.w3.org/TR/2001/REC-SVG-20010904/DTD/svg10.dtd">
<!-- Creator: CorelDRAW X7 -->
<svg xmlns="http://www.w3.org/2000/svg" xml:space="preserve" width="50mm" height="73.33mm" version="1.0" style="shape-rendering:geometricPrecision; text-rendering:geometricPrecision; image-rendering:optimizeQuality; fill-rule:evenodd; clip-rule:evenodd"
viewBox="0 0 5000 7333"
 xmlns:xlink="http://www.w3.org/1999/xlink">
 <defs>
  <style type="text/css">
   <![CDATA[
    .fil0 {fill:#2B2A29;fill-rule:nonzero}
   ]]>
  </style>
 </defs>
 <g id="Capa_x0020_1">
  <metadata id="CorelCorpID_0Corel-Layer"/>
  <path class="fil0" d="M440 2038c0,1 0,2 -1,3 0,1 -1,2 -3,3 -2,0 -4,1 -7,1 -2,1 -6,1 -10,1 -4,0 -7,0 -11,-1 -2,0 -5,-1 -6,-1 -2,-1 -3,-2 -4,-3 0,-1 -1,-2 -1,-3l0 -312c0,-1 1,-2 1,-3 1,-1 2,-2 4,-3 2,0 4,-1 7,-1 3,0 6,-1 10,-1 4,0 8,1 10,1 3,0 5,1 7,1 2,1 3,2 3,3 1,1 1,2 1,3l0 312zm417 0c0,1 -1,3 -1,3 -1,1 -2,2 -4,3 -1,0 -4,1 -6,1 -3,1 -6,1 -10,1 -4,0 -8,0 -10,-1 -3,0 -5,-1 -7,-1 -1,-1 -2,-2 -3,-3 -1,0 -1,-2 -1,-3l0 -137c0,-10 -1,-18 -2,-26 -3,-8 -5,-15 -9,-21 -3,-5 -8,-9 -13,-12 -6,-4 -13,-5 -21,-5 -9,0 -19,4 -28,11 -10,7 -21,18 -32,33l0 157c0,1 -1,3 -1,3 -1,1 -2,2 -4,3 -1,0 -3,1 -6,1 -2,1 -6,1 -10,1 -4,0 -7,0 -10,-1 -3,0 -5,-1 -7,-1 -1,-1 -2,-2 -3,-3 0,0 -1,-2 -1,-3l0 -137c0,-10 0,-18 -2,-26 -2,-8 -5,-15 -8,-21 -4,-5 -9,-9 -14,-12 -6,-4 -13,-5 -20,-5 -10,0 -19,4 -29,11 -10,7 -21,18 -32,33l0 157c0,1 0,3 -1,3 0,1 -1,2 -3,3 -2,0 -4,1 -6,1 -3,1 -6,1 -11,1 -4,0 -7,0 -10,-1 -2,0 -4,-1 -6,-1 -2,-1 -2,-2 -3,-3 -1,0 -1,-2 -1,-3l0 -226c0,-1 0,-2 1,-3 0,-1 1,-2 2,-2 2,-1 4,-2 6,-2 3,-1 6,-1 9,-1 5,0 8,0 10,1 2,0 4,1 5,2 2,0 3,1 3,2 1,1 1,2 1,3l0 30c13,-14 25,-25 37,-31 12,-7 24,-10 36,-10 10,0 18,1 26,3 7,3 13,6 20,9 5,4 10,9 14,15 4,5 7,11 10,18 7,-9 15,-15 21,-21 7,-6 14,-10 20,-14 6,-3 12,-6 18,-8 6,-1 12,-2 18,-2 14,0 27,2 37,8 9,5 18,11 24,20 6,9 10,19 13,30 2,12 4,24 4,37l0 142zm283 -116c0,20 -2,37 -7,53 -4,15 -10,29 -19,40 -8,11 -18,19 -30,25 -13,6 -27,9 -42,9 -7,0 -13,-1 -18,-2 -7,-1 -12,-3 -17,-6 -6,-3 -11,-6 -16,-11 -6,-4 -12,-9 -18,-15l0 112c0,2 0,3 -1,4 0,1 -1,2 -3,3 -1,0 -3,1 -6,1 -3,0 -6,1 -10,1 -4,0 -7,-1 -11,-1 -2,0 -4,-1 -6,-1 -1,-1 -2,-2 -3,-3 -1,-1 -1,-2 -1,-4l0 -315c0,-1 0,-2 1,-3 0,-1 1,-2 3,-2 1,-1 3,-2 5,-2 3,-1 6,-1 9,-1 4,0 6,0 9,1 2,0 4,1 6,2 1,0 2,1 3,2 0,1 1,2 1,3l0 31c6,-7 13,-13 19,-18 7,-6 13,-10 20,-13 6,-4 12,-6 19,-9 7,-1 14,-2 22,-2 16,0 30,3 41,10 12,6 21,15 29,26 7,11 12,23 15,38 4,15 6,30 6,47zm-44 4c0,-11 -1,-22 -3,-33 -1,-11 -4,-20 -9,-29 -4,-8 -10,-15 -17,-20 -7,-4 -16,-7 -27,-7 -5,0 -10,0 -15,2 -6,2 -11,4 -16,8 -5,3 -11,7 -17,13 -6,6 -12,13 -19,21l0 89c12,14 22,25 33,32 10,8 21,12 32,12 10,0 19,-3 27,-8 7,-5 13,-12 18,-20 4,-9 8,-18 10,-28 2,-11 3,-21 3,-32zm315 -3c0,18 -2,35 -7,51 -5,15 -12,28 -22,40 -9,11 -21,19 -36,26 -14,6 -31,9 -50,9 -18,0 -35,-3 -49,-8 -13,-6 -25,-14 -34,-24 -9,-11 -16,-24 -20,-39 -5,-15 -7,-32 -7,-51 0,-18 2,-35 7,-51 5,-15 12,-28 22,-40 9,-11 21,-20 35,-26 15,-6 32,-9 51,-9 18,0 35,3 49,8 13,6 25,14 34,24 9,11 16,24 21,39 4,15 6,32 6,51zm-43 2c0,-12 -1,-23 -4,-34 -2,-11 -6,-21 -11,-29 -5,-8 -12,-14 -21,-19 -9,-5 -20,-7 -33,-7 -12,0 -22,2 -32,6 -8,5 -16,11 -21,18 -6,9 -10,18 -13,29 -3,10 -4,22 -4,36 0,12 1,23 4,34 1,11 6,21 11,29 5,8 12,14 21,19 9,5 20,7 33,7 12,0 23,-2 31,-6 9,-5 16,-11 22,-19 6,-7 10,-17 13,-28 3,-11 4,-23 4,-36zm236 -98c0,4 0,7 0,9 0,3 -1,5 -1,7 -1,0 -1,2 -2,3 -1,0 -2,1 -4,1 -1,0 -2,-1 -4,-1 -2,-1 -4,-2 -7,-3 -2,0 -5,-1 -8,-2 -3,0 -6,-1 -10,-1 -4,0 -8,1 -12,3 -4,2 -8,4 -12,8 -5,4 -10,9 -14,15 -5,7 -11,15 -17,24l0 148c0,1 0,3 -1,3 0,1 -1,2 -3,3 -1,0 -3,1 -6,1 -2,1 -6,1 -10,1 -4,0 -7,0 -10,-1 -3,0 -5,-1 -7,-1 -1,-1 -2,-2 -3,-3 -1,0 -1,-2 -1,-3l0 -226c0,-1 0,-2 1,-3 0,-1 1,-2 3,-2 1,-1 3,-2 6,-2 2,-1 5,-1 9,-1 4,0 7,0 9,1 2,0 5,1 6,2 1,0 2,1 3,2 0,1 1,2 1,3l0 33c6,-9 12,-16 17,-22 5,-6 10,-10 15,-13 5,-3 10,-6 15,-7 5,-1 9,-2 14,-2 2,0 5,1 8,1 2,0 5,0 8,1 3,0 6,1 8,2 3,1 5,2 6,3 1,1 1,1 2,2 0,1 0,2 0,3 1,1 1,3 1,5 0,2 0,6 0,9zm164 194c0,5 0,9 0,12 -1,3 -2,5 -4,6 -1,2 -3,3 -5,4 -3,1 -6,2 -10,3 -3,1 -7,1 -10,2 -4,0 -8,0 -12,0 -12,0 -22,-1 -30,-4 -9,-3 -15,-8 -21,-14 -5,-6 -9,-14 -11,-24 -3,-9 -4,-21 -4,-34l0 -132 -32 0c-2,0 -4,-1 -5,-4 -2,-3 -3,-7 -3,-13 0,-3 1,-6 1,-8 0,-2 1,-4 2,-5 0,-2 1,-3 2,-3 1,-1 2,-1 4,-1l31 0 0 -54c0,-1 0,-2 1,-3 1,-1 2,-2 3,-2 2,-1 4,-2 6,-2 4,0 7,-1 11,-1 4,0 7,1 10,1 3,0 5,1 6,2 2,0 3,1 3,2 1,1 1,2 1,3l0 54 58 0c2,0 3,0 4,1 1,0 2,1 2,3 2,1 2,3 2,5 0,2 0,5 0,8 0,6 0,10 -2,13 -1,3 -3,4 -6,4l-58 0 0 126c0,16 3,27 7,35 5,8 13,12 25,12 4,0 7,0 10,-1 3,-1 6,-2 9,-2 2,-1 4,-2 5,-3 2,-1 3,-1 5,-1 1,0 1,0 2,1 1,0 1,1 2,2 1,1 1,3 1,5 0,2 0,5 0,7zm225 17c0,2 0,4 -2,5 -1,1 -3,2 -5,2 -3,1 -6,1 -11,1 -4,0 -7,0 -10,-1 -2,0 -5,-1 -6,-2 -1,-1 -1,-3 -1,-5l0 -22c-10,10 -21,19 -33,24 -12,6 -25,9 -39,9 -12,0 -23,-2 -32,-5 -10,-3 -18,-7 -24,-13 -7,-6 -13,-13 -16,-22 -4,-8 -6,-18 -6,-29 0,-12 2,-23 8,-33 5,-9 13,-17 22,-23 10,-6 22,-11 36,-14 14,-3 29,-5 47,-5l31 0 0 -17c0,-9 -1,-17 -3,-23 -1,-7 -5,-13 -9,-17 -4,-5 -9,-7 -15,-10 -7,-2 -15,-3 -25,-3 -10,0 -19,1 -27,3 -8,3 -15,5 -21,8 -6,3 -12,6 -16,8 -4,3 -6,4 -9,4 -1,0 -2,-1 -3,-1 -1,-1 -2,-2 -3,-3 -1,-1 -1,-3 -2,-5 0,-2 0,-4 0,-7 0,-4 0,-8 1,-10 0,-2 2,-5 4,-7 2,-2 6,-5 12,-8 5,-2 12,-5 19,-7 7,-3 15,-5 23,-7 9,-1 18,-2 26,-2 16,0 30,2 42,6 11,3 20,9 27,16 7,7 12,16 16,26 3,11 4,23 4,37l0 152zm-41 -102l-35 0c-12,0 -21,0 -30,2 -8,2 -15,5 -21,9 -5,3 -9,8 -12,13 -2,5 -3,11 -3,18 0,12 3,21 10,28 8,7 18,11 32,11 10,0 21,-3 30,-9 9,-5 19,-14 29,-25l0 -47zm310 102c0,1 0,3 0,4 -1,0 -2,1 -3,2 -2,0 -4,1 -6,1 -3,1 -5,1 -9,1 -3,0 -6,0 -8,-1 -3,0 -4,-1 -6,-1 -2,-1 -3,-2 -4,-2 0,-1 -1,-3 -1,-4l0 -30c-12,13 -24,23 -37,30 -12,7 -26,11 -41,11 -17,0 -31,-3 -43,-10 -12,-6 -21,-15 -28,-25 -7,-12 -13,-25 -16,-39 -4,-15 -5,-31 -5,-47 0,-19 2,-37 6,-53 4,-15 10,-28 18,-40 9,-10 19,-19 31,-25 12,-6 26,-9 42,-9 13,0 26,3 36,9 11,5 22,14 33,25l0 -131c0,-1 0,-2 1,-3 0,-1 1,-2 3,-3 2,0 4,-1 7,-1 2,-1 5,-1 9,-1 4,0 8,0 10,1 3,0 6,1 7,1 1,1 3,2 3,3 1,1 1,2 1,3l0 334zm-41 -158c-11,-14 -22,-25 -33,-32 -10,-7 -21,-11 -32,-11 -11,0 -20,3 -27,7 -7,5 -13,12 -18,20 -5,8 -8,18 -10,28 -2,10 -3,21 -3,32 0,11 1,22 3,33 1,11 4,20 8,29 5,8 11,15 18,20 7,5 16,8 27,8 6,0 11,-1 16,-3 5,-1 10,-4 15,-7 6,-4 11,-8 17,-14 6,-5 13,-13 19,-21l0 -89zm327 43c0,18 -2,35 -7,51 -5,15 -12,28 -22,40 -9,11 -21,19 -35,26 -15,6 -32,9 -51,9 -18,0 -35,-3 -49,-8 -13,-6 -25,-14 -34,-24 -9,-11 -16,-24 -20,-39 -5,-15 -7,-32 -7,-51 0,-18 2,-35 7,-51 5,-15 12,-28 22,-40 9,-11 21,-20 36,-26 14,-6 31,-9 50,-9 18,0 35,3 49,8 13,6 25,14 34,24 9,11 16,24 21,39 4,15 6,32 6,51zm-43 2c0,-12 -1,-23 -3,-34 -2,-11 -7,-21 -12,-29 -5,-8 -12,-14 -21,-19 -8,-5 -20,-7 -33,-7 -12,0 -22,2 -31,6 -9,5 -16,11 -22,18 -6,9 -10,18 -12,29 -3,10 -4,22 -4,36 0,12 1,23 3,34 2,11 6,21 11,29 5,8 12,14 21,19 9,5 20,7 33,7 12,0 23,-2 32,-6 8,-5 16,-11 21,-19 6,-7 10,-17 13,-28 3,-11 4,-23 4,-36zm428 -3c0,20 -2,37 -6,53 -5,15 -11,29 -19,40 -9,11 -19,19 -31,25 -12,6 -26,9 -42,9 -6,0 -13,-1 -18,-2 -6,-1 -12,-3 -17,-6 -6,-3 -11,-6 -16,-11 -6,-4 -11,-9 -18,-15l0 112c0,2 0,3 -1,4 0,1 -1,2 -3,3 -1,0 -3,1 -6,1 -2,0 -6,1 -10,1 -4,0 -7,-1 -10,-1 -3,0 -5,-1 -6,-1 -2,-1 -3,-2 -4,-3 -1,-1 -1,-2 -1,-4l0 -315c0,-1 0,-2 1,-3 0,-1 1,-2 3,-2 2,-1 3,-2 6,-2 2,-1 5,-1 8,-1 4,0 6,0 9,1 2,0 4,1 6,2 1,0 2,1 3,2 0,1 1,2 1,3l0 31c7,-7 13,-13 19,-18 7,-6 13,-10 20,-13 6,-4 13,-6 19,-9 7,-1 14,-2 22,-2 16,0 30,3 41,10 12,6 22,15 29,26 7,11 13,23 16,38 3,15 5,30 5,47zm-44 4c0,-11 -1,-22 -2,-33 -2,-11 -5,-20 -10,-29 -4,-8 -9,-15 -17,-20 -7,-4 -16,-7 -26,-7 -6,0 -11,0 -16,2 -5,2 -10,4 -16,8 -5,3 -11,7 -17,13 -6,6 -12,13 -19,21l0 89c12,14 22,25 33,32 10,8 21,12 32,12 10,0 19,-3 27,-8 7,-5 13,-12 18,-20 4,-9 8,-18 10,-28 2,-11 3,-21 3,-32zm315 -3c0,18 -2,35 -7,51 -4,15 -12,28 -21,40 -10,11 -22,19 -36,26 -15,6 -32,9 -51,9 -18,0 -35,-3 -48,-8 -14,-6 -26,-14 -35,-24 -9,-11 -16,-24 -20,-39 -5,-15 -7,-32 -7,-51 0,-18 3,-35 7,-51 5,-15 12,-28 22,-40 9,-11 21,-20 36,-26 14,-6 31,-9 50,-9 18,0 35,3 49,8 13,6 25,14 34,24 9,11 16,24 21,39 4,15 6,32 6,51zm-43 2c0,-12 -1,-23 -3,-34 -2,-11 -7,-21 -12,-29 -5,-8 -12,-14 -21,-19 -8,-5 -20,-7 -32,-7 -13,0 -23,2 -32,6 -9,5 -16,11 -22,18 -6,9 -10,18 -12,29 -3,10 -4,22 -4,36 0,12 1,23 3,34 2,11 6,21 11,29 5,8 12,14 21,19 9,5 20,7 33,7 12,0 23,-2 32,-6 9,-5 16,-11 21,-19 6,-7 11,-17 13,-28 3,-11 4,-23 4,-36zm236 -98c0,4 0,7 0,9 0,3 -1,5 -1,7 -1,0 -1,2 -2,3 -1,0 -2,1 -3,1 -1,0 -3,-1 -5,-1 -2,-1 -4,-2 -7,-3 -2,0 -5,-1 -8,-2 -3,0 -6,-1 -10,-1 -4,0 -8,1 -12,3 -3,2 -8,4 -12,8 -5,4 -9,9 -14,15 -5,7 -10,15 -16,24l0 148c0,1 0,3 -1,3 -1,1 -2,2 -4,3 -1,0 -3,1 -6,1 -2,1 -6,1 -10,1 -4,0 -7,0 -10,-1 -3,0 -5,-1 -6,-1 -2,-1 -3,-2 -3,-3 -1,0 -1,-2 -1,-3l0 -226c0,-1 0,-2 0,-3 1,-1 1,-2 3,-2 2,-1 4,-2 6,-2 2,-1 5,-1 9,-1 4,0 7,0 9,1 3,0 5,1 6,2 1,0 2,1 3,2 0,1 1,2 1,3l0 33c6,-9 12,-16 17,-22 5,-6 11,-10 16,-13 4,-3 9,-6 14,-7 5,-1 9,-2 14,-2 3,0 5,1 8,1 2,0 5,0 8,1 4,0 6,1 9,2 2,1 4,2 5,3 1,1 1,1 2,2 0,1 0,2 0,3 1,1 1,3 1,5 0,2 0,6 0,9zm109 16c0,6 -1,10 -1,14 -1,4 -2,7 -5,9 -2,2 -5,4 -8,5 -3,1 -7,1 -12,1 -6,0 -10,0 -14,-1 -3,-1 -5,-3 -8,-5 -2,-2 -3,-5 -4,-9 -1,-4 -1,-8 -1,-14 0,-5 0,-10 1,-13 1,-4 2,-7 4,-10 3,-2 5,-3 8,-4 4,-1 8,-2 14,-2 5,0 9,1 12,2 3,1 6,2 8,4 3,3 4,6 5,10 0,3 1,8 1,13zm0 175c0,5 -1,10 -1,13 -1,4 -2,7 -5,9 -2,3 -5,4 -8,5 -3,1 -7,1 -12,1 -6,0 -10,0 -14,-1 -3,-1 -5,-2 -8,-5 -2,-2 -3,-5 -4,-9 -1,-3 -1,-8 -1,-13 0,-6 0,-11 1,-14 1,-4 2,-7 4,-9 3,-3 5,-4 8,-5 4,-1 8,-1 14,-1 5,0 9,0 12,1 3,1 6,2 8,5 3,2 4,5 5,9 0,3 1,8 1,14z"/>
  <path class="fil0" d="M440 2497c0,2 0,3 -1,4 0,1 -1,2 -3,3 -2,0 -4,1 -7,1 -3,1 -6,1 -10,1 -4,0 -7,0 -11,-1 -2,0 -5,-1 -6,-1 -2,-1 -3,-2 -4,-3 0,-1 -1,-2 -1,-4l0 -311c0,-1 1,-2 1,-3 1,-1 2,-2 4,-3 2,0 4,-1 7,-1 3,0 6,-1 10,-1 4,0 7,1 10,1 3,0 5,1 7,1 2,1 3,2 3,3 1,1 1,2 1,3l0 311zm417 1c0,1 -1,2 -1,3 -1,1 -2,2 -4,3 -2,0 -4,1 -6,1 -3,1 -6,1 -10,1 -4,0 -8,0 -10,-1 -3,0 -5,-1 -7,-1 -1,-1 -2,-2 -3,-3 -1,-1 -1,-2 -1,-3l0 -137c0,-10 -1,-19 -2,-26 -3,-8 -5,-15 -9,-21 -3,-5 -8,-10 -13,-13 -6,-3 -13,-4 -21,-4 -9,0 -19,3 -28,11 -10,7 -21,18 -32,32l0 158c0,1 -1,2 -1,3 -1,1 -2,2 -4,3 -1,0 -3,1 -6,1 -2,1 -6,1 -10,1 -4,0 -7,0 -10,-1 -3,0 -5,-1 -7,-1 -1,-1 -2,-2 -3,-3 0,-1 -1,-2 -1,-3l0 -137c0,-10 0,-19 -2,-26 -2,-8 -5,-15 -8,-21 -4,-5 -9,-10 -14,-13 -6,-3 -13,-4 -20,-4 -10,0 -19,3 -29,11 -10,7 -21,18 -32,32l0 158c0,1 0,2 -1,3 0,1 -2,2 -3,3 -2,0 -4,1 -6,1 -3,1 -6,1 -11,1 -4,0 -7,0 -10,-1 -2,0 -4,-1 -6,-1 -2,-1 -2,-2 -3,-3 -1,-1 -1,-2 -1,-3l0 -226c0,-1 0,-2 1,-3 0,-1 1,-2 2,-3 2,-1 4,-1 6,-1 3,-1 6,-1 9,-1 5,0 8,0 10,1 2,0 4,0 5,1 2,1 3,2 3,3 1,1 1,2 1,3l0 30c13,-14 25,-25 37,-31 12,-7 24,-10 36,-10 10,0 18,1 26,3 7,2 13,6 19,9 6,4 11,9 15,14 4,6 7,12 10,18 7,-8 14,-14 21,-20 7,-6 14,-10 20,-14 6,-4 12,-6 18,-8 6,-1 12,-2 18,-2 14,0 27,2 37,7 9,6 17,12 24,21 6,9 10,19 13,30 2,12 4,23 4,36l0 143zm283 -117c0,20 -2,38 -7,54 -4,15 -10,29 -19,40 -8,11 -18,19 -30,25 -13,6 -27,9 -42,9 -7,0 -13,-1 -18,-2 -7,-1 -12,-3 -17,-7 -6,-2 -11,-6 -16,-10 -6,-4 -12,-9 -18,-16l0 113c0,2 0,3 -1,4 0,1 -1,2 -3,2 -2,1 -3,1 -6,2 -3,0 -6,0 -10,0 -4,0 -8,0 -11,0 -2,-1 -4,-1 -6,-2 -1,0 -2,-1 -3,-2 -1,-1 -1,-2 -1,-4l0 -315c0,-1 0,-2 1,-4 0,-1 1,-1 3,-2 1,-1 3,-1 5,-1 3,-1 6,-1 9,-1 4,0 6,0 9,1 2,0 4,0 6,1 1,1 2,1 2,2 1,2 2,3 2,4l0 30c6,-6 13,-13 19,-18 7,-5 13,-9 20,-13 6,-3 12,-6 19,-8 7,-1 14,-2 22,-2 16,0 30,3 41,10 12,6 21,14 28,26 8,11 13,23 16,38 4,15 6,30 6,46zm-44 5c0,-11 -1,-22 -3,-33 -1,-11 -4,-20 -9,-29 -4,-8 -10,-15 -17,-20 -7,-5 -16,-7 -27,-7 -5,0 -10,0 -15,2 -6,1 -11,4 -16,7 -5,4 -11,8 -17,14 -6,5 -12,13 -19,21l0 89c11,14 22,25 33,32 10,8 21,11 32,11 10,0 19,-2 27,-7 7,-6 13,-12 18,-21 4,-8 8,-17 10,-28 2,-10 3,-20 3,-31zm315 -4c0,19 -2,36 -7,51 -5,16 -12,29 -22,40 -9,12 -21,20 -36,26 -14,7 -31,10 -50,10 -18,0 -35,-3 -49,-9 -13,-5 -25,-13 -34,-24 -9,-10 -16,-23 -20,-38 -5,-15 -7,-32 -7,-51 0,-18 2,-35 7,-51 5,-15 12,-28 22,-40 9,-11 21,-20 35,-26 15,-6 32,-9 51,-9 18,0 35,3 49,8 13,6 25,14 34,24 9,11 16,24 21,39 4,15 6,32 6,50zm-43 3c0,-12 -1,-24 -4,-34 -2,-11 -6,-21 -11,-29 -5,-8 -12,-14 -21,-19 -9,-5 -20,-7 -33,-7 -12,0 -22,2 -32,6 -8,4 -16,11 -21,18 -6,8 -10,18 -13,29 -3,10 -4,22 -4,35 0,13 1,24 4,35 1,11 6,20 11,29 5,8 12,14 21,19 9,5 20,7 33,7 12,0 23,-2 31,-6 9,-5 16,-11 22,-19 6,-8 10,-17 13,-28 3,-11 4,-23 4,-36zm236 -98c0,4 0,7 0,9 0,3 -1,5 -1,6 -1,1 -1,2 -2,3 -1,1 -2,1 -4,1 -1,0 -2,0 -4,-1 -2,-1 -4,-1 -7,-2 -2,-1 -5,-1 -8,-2 -3,-1 -6,-1 -10,-1 -4,0 -8,1 -12,2 -4,2 -8,5 -12,9 -5,4 -10,9 -14,15 -5,7 -11,14 -17,24l0 148c0,1 0,2 -1,3 0,1 -1,2 -3,3 -1,0 -3,1 -6,1 -2,1 -6,1 -10,1 -4,0 -7,0 -10,-1 -3,0 -5,-1 -7,-1 -1,-1 -2,-2 -3,-3 -1,-1 -1,-2 -1,-3l0 -226c0,-1 0,-2 1,-3 0,-1 1,-2 3,-3 1,-1 3,-1 5,-1 3,-1 6,-1 10,-1 4,0 7,0 9,1 2,0 5,0 6,1 1,1 2,2 3,3 0,1 1,2 1,3l0 33c6,-9 12,-17 17,-22 5,-6 10,-11 15,-13 5,-4 10,-6 15,-7 5,-1 9,-2 14,-2 2,0 5,0 8,0 2,1 5,1 8,2 3,0 6,1 8,2 3,1 5,1 6,2 1,1 1,2 2,3 0,1 0,1 0,2 1,2 1,4 1,6 0,2 0,5 0,9zm164 194c0,5 0,9 -1,12 0,2 -1,5 -3,6 -1,1 -3,2 -5,4 -3,1 -6,2 -10,3 -3,1 -7,1 -10,2 -4,0 -8,0 -12,0 -12,0 -22,-1 -30,-4 -9,-4 -15,-8 -21,-14 -5,-6 -9,-15 -11,-24 -3,-10 -4,-21 -4,-34l0 -132 -32 0c-2,0 -4,-1 -5,-4 -2,-3 -3,-7 -3,-13 0,-3 1,-6 1,-8 0,-3 1,-4 2,-5 0,-2 1,-3 2,-4 1,0 2,0 4,0l31 0 0 -54c0,-1 0,-2 1,-3 1,-1 2,-2 3,-3 2,-1 4,-1 6,-2 4,0 7,0 11,0 4,0 7,0 10,0 2,1 5,1 6,2 2,1 3,2 3,3 1,1 1,2 1,3l0 54 58 0c2,0 3,0 4,0 1,1 2,2 2,4 1,1 2,2 2,5 0,2 0,5 0,8 0,6 0,10 -2,13 -1,3 -3,4 -6,4l-58 0 0 126c0,15 3,27 7,35 5,8 13,12 25,12 4,0 7,0 10,-1 3,-1 6,-2 9,-2 2,-1 4,-2 5,-3 2,-1 3,-1 5,-1 1,0 1,0 2,1 1,0 1,1 2,2 0,1 1,3 1,5 0,2 0,4 0,7zm225 17c0,2 0,3 -2,5 -1,1 -3,2 -5,2 -3,1 -6,1 -11,1 -4,0 -7,0 -10,-1 -3,0 -5,-1 -6,-2 -1,-2 -1,-3 -1,-5l0 -23c-10,11 -21,19 -33,25 -12,6 -25,9 -39,9 -12,0 -23,-2 -32,-5 -10,-3 -18,-8 -24,-13 -7,-6 -13,-13 -16,-22 -4,-9 -6,-18 -6,-29 0,-12 2,-24 8,-33 5,-9 12,-17 22,-23 10,-7 22,-11 36,-14 14,-4 29,-5 47,-5l31 0 0 -17c0,-9 -1,-17 -3,-23 -1,-7 -5,-13 -9,-17 -4,-5 -9,-8 -15,-10 -7,-2 -15,-3 -25,-3 -10,0 -19,1 -27,3 -8,3 -15,5 -21,8 -7,3 -12,5 -16,8 -4,3 -6,4 -9,4 -1,0 -2,-1 -3,-1 -1,-1 -2,-2 -3,-3 -1,-1 -1,-3 -2,-5 0,-3 0,-5 0,-7 0,-4 0,-8 1,-10 0,-3 2,-5 4,-7 2,-2 6,-5 12,-8 5,-2 12,-6 19,-7 7,-3 15,-5 23,-7 9,-1 18,-2 26,-2 16,0 30,2 41,5 12,4 21,10 28,17 7,6 12,16 16,26 3,11 4,23 4,37l0 152zm-41 -103l-35 0c-12,0 -21,1 -30,3 -8,2 -15,5 -21,8 -5,4 -9,9 -12,14 -2,5 -4,11 -4,18 0,12 4,21 11,28 8,7 18,10 32,10 10,0 21,-2 30,-8 9,-6 19,-14 29,-25l0 -48zm310 103c0,1 0,2 0,3 -1,1 -2,2 -3,3 -2,0 -4,1 -6,1 -3,1 -5,1 -9,1 -3,0 -6,0 -8,-1 -3,0 -5,-1 -6,-1 -2,-1 -3,-2 -4,-3 0,-1 -1,-2 -1,-3l0 -30c-12,13 -24,23 -37,30 -12,7 -26,11 -41,11 -17,0 -31,-3 -43,-10 -12,-6 -21,-15 -28,-26 -7,-11 -13,-24 -16,-39 -4,-14 -5,-30 -5,-46 0,-19 2,-37 6,-53 4,-15 10,-29 18,-40 9,-11 19,-19 31,-25 12,-6 26,-9 42,-9 13,0 26,3 36,9 11,5 22,14 33,25l0 -131c0,-1 0,-2 1,-3 0,-1 1,-2 3,-3 2,0 4,-1 6,-1 3,-1 6,-1 10,-1 4,0 8,0 10,1 3,0 6,1 7,1 1,1 3,2 3,3 1,1 1,2 1,3l0 334zm-41 -159c-11,-14 -22,-24 -33,-31 -10,-8 -21,-11 -32,-11 -11,0 -20,2 -27,7 -7,5 -13,12 -18,20 -5,8 -8,17 -10,28 -2,10 -3,21 -3,31 0,12 1,22 3,34 1,11 4,20 8,28 5,9 11,16 18,21 7,5 16,7 27,7 6,0 11,0 16,-2 5,-1 10,-4 15,-7 6,-4 11,-8 17,-14 6,-5 13,-13 19,-21l0 -90zm327 43c0,19 -2,36 -7,51 -5,16 -12,29 -22,40 -9,12 -21,20 -35,26 -15,7 -32,10 -51,10 -18,0 -35,-3 -49,-9 -13,-5 -25,-13 -34,-24 -9,-10 -16,-23 -20,-38 -5,-15 -7,-32 -7,-51 0,-18 2,-35 7,-51 5,-15 12,-28 22,-40 9,-11 21,-20 36,-26 14,-6 31,-9 50,-9 18,0 35,3 49,8 13,6 25,14 34,24 9,11 16,24 21,39 4,15 6,32 6,50zm-43 3c0,-12 -1,-24 -3,-34 -3,-11 -7,-21 -12,-29 -5,-8 -12,-14 -21,-19 -9,-5 -20,-7 -33,-7 -12,0 -22,2 -32,6 -8,4 -15,11 -21,18 -6,8 -10,18 -12,29 -3,10 -4,22 -4,35 0,13 1,24 3,35 2,11 6,20 11,29 5,8 12,14 21,19 9,5 20,7 33,7 12,0 23,-2 32,-6 8,-5 15,-11 21,-19 6,-8 10,-17 13,-28 3,-11 4,-23 4,-36zm428 -4c0,20 -2,38 -6,54 -5,15 -11,29 -19,40 -9,11 -19,19 -31,25 -12,6 -26,9 -42,9 -6,0 -13,-1 -18,-2 -6,-1 -12,-3 -17,-7 -6,-2 -11,-6 -16,-10 -6,-4 -11,-9 -18,-16l0 113c0,2 0,3 -1,4 0,1 -1,2 -3,2 -1,1 -3,1 -6,2 -2,0 -6,0 -10,0 -4,0 -7,0 -10,0 -3,-1 -5,-1 -6,-2 -2,0 -3,-1 -4,-2 -1,-1 -1,-2 -1,-4l0 -315c0,-1 0,-2 1,-4 0,-1 1,-1 3,-2 2,-1 3,-1 6,-1 2,-1 5,-1 8,-1 4,0 6,0 9,1 2,0 4,0 6,1 1,1 2,1 3,2 0,2 1,3 1,4l0 30c7,-6 13,-13 19,-18 7,-5 13,-9 20,-13 6,-3 13,-6 19,-8 7,-1 14,-2 22,-2 16,0 30,3 41,10 12,6 22,14 29,26 7,11 13,23 16,38 3,15 5,30 5,46zm-44 5c0,-11 -1,-22 -2,-33 -2,-11 -5,-20 -10,-29 -4,-8 -10,-15 -17,-20 -7,-5 -16,-7 -26,-7 -6,0 -11,0 -16,2 -5,1 -10,4 -16,7 -5,4 -11,8 -17,14 -6,5 -12,13 -19,21l0 89c12,14 22,25 33,32 10,8 21,11 32,11 10,0 19,-2 27,-7 7,-6 13,-12 18,-21 4,-8 8,-17 10,-28 2,-10 3,-20 3,-31zm315 -4c0,19 -2,36 -7,51 -4,16 -12,29 -21,40 -10,12 -22,20 -36,26 -15,7 -32,10 -51,10 -18,0 -35,-3 -49,-9 -13,-5 -25,-13 -34,-24 -9,-10 -16,-23 -20,-38 -5,-15 -7,-32 -7,-51 0,-18 3,-35 7,-51 5,-15 12,-28 22,-40 9,-11 21,-20 36,-26 14,-6 31,-9 50,-9 18,0 35,3 49,8 13,6 25,14 34,24 9,11 16,24 21,39 4,15 6,32 6,50zm-43 3c0,-12 -1,-24 -3,-34 -2,-11 -7,-21 -12,-29 -5,-8 -12,-14 -21,-19 -8,-5 -20,-7 -32,-7 -13,0 -23,2 -32,6 -9,4 -16,11 -22,18 -6,8 -10,18 -12,29 -3,10 -4,22 -4,35 0,13 1,24 3,35 2,11 6,20 11,29 5,8 12,14 21,19 9,5 20,7 33,7 12,0 23,-2 32,-6 9,-5 16,-11 21,-19 6,-8 11,-17 13,-28 3,-11 4,-23 4,-36zm236 -98c0,4 0,7 0,9 0,3 -1,5 -1,6 -1,1 -1,2 -2,3 -1,1 -2,1 -3,1 -1,0 -3,0 -5,-1 -2,-1 -4,-1 -7,-2 -2,-1 -5,-1 -8,-2 -3,-1 -6,-1 -10,-1 -4,0 -8,1 -12,2 -3,2 -8,5 -12,9 -5,4 -9,9 -14,15 -5,7 -10,14 -16,24l0 148c0,1 0,2 -1,3 -1,1 -2,2 -4,3 -1,0 -3,1 -6,1 -2,1 -6,1 -10,1 -4,0 -7,0 -10,-1 -3,0 -5,-1 -7,-1 -1,-1 -2,-2 -2,-3 -1,-1 -1,-2 -1,-3l0 -226c0,-1 0,-2 0,-3 1,-1 1,-2 3,-3 2,-1 4,-1 6,-1 2,-1 5,-1 9,-1 4,0 7,0 9,1 3,0 5,0 6,1 1,1 2,2 3,3 0,1 1,2 1,3l0 33c6,-9 12,-17 17,-22 5,-6 11,-11 16,-13 4,-4 9,-6 14,-7 5,-1 9,-2 14,-2 3,0 5,0 8,0 2,1 5,1 8,2 4,0 6,1 9,2 2,1 4,1 5,2 1,1 1,2 2,3 0,1 0,1 0,2 1,2 1,4 1,6 0,2 0,5 0,9zm109 16c0,6 -1,10 -1,14 -1,4 -2,7 -5,9 -2,2 -5,4 -8,5 -3,1 -7,1 -12,1 -6,0 -10,0 -14,-1 -3,-1 -5,-3 -8,-5 -2,-2 -3,-5 -4,-9 -1,-4 -1,-8 -1,-14 0,-5 0,-10 1,-14 1,-4 2,-6 4,-9 3,-2 5,-3 8,-4 4,-1 8,-2 14,-2 5,0 9,1 12,2 3,1 6,2 8,4 3,3 4,5 5,9 0,4 1,9 1,14zm0 174c0,6 -1,11 -1,14 -1,4 -2,7 -5,9 -2,3 -5,4 -8,5 -3,1 -7,1 -12,1 -6,0 -10,0 -14,-1 -3,-1 -5,-2 -8,-5 -2,-2 -3,-5 -4,-9 -1,-3 -1,-8 -1,-14 0,-5 0,-10 1,-13 1,-4 2,-7 4,-9 3,-3 5,-4 8,-5 4,-1 8,-1 14,-1 5,0 9,0 12,1 3,1 6,2 8,5 3,2 4,5 5,9 0,3 1,8 1,13z"/>
  <path class="fil0" d="M440 2957c0,2 0,3 -1,4 0,1 -1,2 -3,2 -2,1 -4,1 -7,2 -3,0 -6,0 -10,0 -4,0 -7,0 -11,0 -2,-1 -5,-1 -6,-2 -2,0 -3,-1 -4,-2 0,-1 -1,-2 -1,-4l0 -311c0,-1 1,-2 1,-3 1,-1 2,-3 4,-3 2,-1 4,-1 7,-2 3,0 6,0 10,0 4,0 7,0 10,0 3,1 5,1 7,2 2,0 3,2 3,3 1,1 1,2 1,3l0 311zm417 1c0,1 -1,2 -1,3 -1,1 -2,2 -4,2 -2,1 -4,1 -6,2 -3,0 -6,0 -10,0 -4,0 -8,0 -10,0 -3,-1 -5,-1 -7,-2 -1,0 -2,-1 -3,-2 -1,-1 -1,-2 -1,-3l0 -137c0,-10 -1,-19 -2,-27 -3,-7 -5,-15 -9,-20 -3,-6 -8,-10 -13,-13 -6,-3 -13,-5 -21,-5 -9,0 -19,4 -28,12 -10,7 -21,18 -32,32l0 158c0,1 -1,2 -1,3 -1,1 -2,2 -4,2 -1,1 -3,1 -6,2 -2,0 -6,0 -10,0 -4,0 -7,0 -10,0 -3,-1 -5,-1 -7,-2 -1,0 -2,-1 -3,-2 0,-1 -1,-2 -1,-3l0 -137c0,-10 0,-19 -2,-27 -2,-7 -5,-15 -8,-20 -4,-6 -9,-10 -14,-13 -6,-3 -13,-5 -20,-5 -10,0 -19,4 -29,12 -10,7 -21,18 -32,32l0 158c0,1 0,2 -1,3 0,1 -2,2 -3,2 -2,1 -4,1 -6,2 -3,0 -6,0 -11,0 -4,0 -7,0 -10,0 -2,-1 -4,-1 -6,-2 -2,0 -2,-1 -3,-2 -1,-1 -1,-2 -1,-3l0 -226c0,-1 0,-3 1,-3 0,-1 1,-2 2,-3 2,-1 4,-1 6,-1 3,-1 6,-1 9,-1 5,0 8,0 10,1 2,0 4,0 5,1 2,1 3,2 3,3 1,0 1,2 1,3l0 30c13,-14 25,-25 37,-31 12,-7 24,-10 36,-10 10,0 18,1 26,3 7,2 13,5 19,9 6,4 11,9 15,14 4,5 7,11 10,18 7,-8 14,-15 21,-20 7,-6 14,-11 20,-14 6,-4 12,-6 18,-8 6,-1 12,-2 18,-2 14,0 27,2 37,7 9,5 17,12 24,21 6,8 10,18 13,30 2,11 4,23 4,36l0 143zm283 -117c0,20 -2,38 -7,54 -4,15 -10,28 -19,40 -8,10 -18,19 -30,25 -13,6 -27,8 -42,8 -7,0 -13,0 -19,-1 -6,-2 -11,-4 -17,-7 -5,-2 -10,-6 -15,-10 -6,-5 -12,-10 -18,-16l0 113c0,2 0,3 -1,4 0,1 -1,2 -3,2 -2,1 -3,1 -6,2 -3,0 -6,0 -10,0 -4,0 -8,0 -11,0 -2,-1 -4,-1 -6,-2 -1,0 -2,-1 -3,-2 -1,-1 -1,-2 -1,-4l0 -315c0,-2 0,-3 1,-4 0,-1 1,-1 3,-2 1,-1 3,-1 5,-1 3,-1 6,-1 9,-1 4,0 6,0 9,1 2,0 4,0 6,1 1,1 2,1 2,2 1,1 2,2 2,4l0 30c6,-7 13,-13 19,-18 7,-5 13,-10 20,-13 6,-3 12,-6 19,-8 7,-1 14,-2 22,-2 16,0 30,3 41,9 12,7 21,15 28,26 8,11 13,24 16,39 4,14 6,30 6,46zm-44 5c0,-12 -1,-23 -3,-34 -1,-10 -4,-20 -9,-28 -4,-9 -10,-15 -17,-20 -7,-5 -16,-8 -27,-8 -5,0 -10,1 -15,2 -6,2 -11,5 -16,8 -5,4 -11,8 -17,13 -6,6 -12,13 -19,22l0 89c11,14 22,24 33,32 10,7 21,11 32,11 10,0 19,-3 27,-8 7,-5 13,-12 18,-20 4,-8 8,-17 10,-28 2,-10 3,-20 3,-31zm315 -4c0,19 -2,36 -7,51 -5,15 -12,29 -22,40 -9,11 -21,20 -36,26 -14,6 -31,9 -50,9 -18,0 -35,-2 -49,-8 -13,-5 -25,-13 -34,-24 -9,-10 -16,-23 -20,-38 -5,-15 -7,-32 -7,-51 0,-19 2,-36 7,-51 4,-15 12,-29 21,-40 10,-11 22,-20 36,-26 15,-6 32,-9 51,-9 18,0 35,3 49,8 13,5 25,14 34,24 9,11 16,24 20,38 5,15 7,32 7,51zm-43 3c0,-12 -1,-24 -4,-35 -2,-10 -6,-20 -11,-28 -5,-9 -12,-15 -21,-19 -9,-6 -20,-8 -33,-8 -12,0 -22,2 -32,7 -8,4 -16,10 -21,18 -6,8 -10,18 -13,28 -3,11 -4,23 -4,36 0,13 1,24 4,35 1,11 6,20 11,28 5,9 12,15 21,19 9,5 20,8 33,8 12,0 23,-3 31,-7 9,-4 16,-10 22,-18 6,-8 10,-18 13,-28 3,-11 4,-23 4,-36zm236 -98c0,3 0,6 0,9 0,2 -1,5 -1,6 -1,1 -1,2 -2,3 -1,1 -2,1 -4,1 -1,0 -2,0 -4,-1 -2,-1 -4,-1 -7,-2 -2,-1 -5,-1 -8,-2 -3,-1 -6,-1 -10,-1 -4,0 -8,1 -12,2 -4,2 -8,5 -12,8 -5,4 -10,9 -14,16 -5,6 -11,14 -17,23l0 149c0,1 0,2 -1,3 0,1 -1,2 -3,2 -1,1 -3,1 -6,2 -2,0 -6,0 -10,0 -4,0 -7,0 -11,0 -2,-1 -4,-1 -6,-2 -1,0 -2,-1 -3,-2 -1,-1 -1,-2 -1,-3l0 -226c0,-1 0,-3 1,-3 0,-1 1,-2 3,-3 1,-1 3,-1 5,-1 3,-1 6,-1 10,-1 4,0 7,0 9,1 2,0 5,0 6,1 1,1 2,2 3,3 0,0 1,2 1,3l0 33c6,-9 11,-17 17,-22 5,-6 10,-11 15,-14 5,-3 10,-5 15,-6 5,-1 9,-2 14,-2 2,0 5,0 8,0 2,1 5,1 8,2 3,0 6,1 8,2 3,1 4,1 6,2 1,1 1,2 2,3 0,0 0,1 0,2 1,2 1,3 1,6 0,2 0,5 0,9zm164 194c0,5 0,9 -1,12 0,2 -1,5 -3,6 -1,1 -3,2 -5,3 -3,2 -6,3 -10,3 -3,2 -7,2 -10,2 -4,1 -8,1 -12,1 -12,0 -22,-1 -30,-5 -9,-3 -15,-7 -21,-13 -5,-7 -9,-15 -11,-25 -3,-9 -4,-20 -4,-34l0 -131 -32 0c-2,0 -4,-2 -5,-4 -2,-3 -3,-7 -3,-13 0,-4 0,-6 0,-8 1,-3 2,-4 3,-6 0,-1 1,-2 2,-3 1,0 2,0 4,0l31 0 0 -54c0,-1 0,-2 1,-3 1,-1 2,-2 3,-3 2,-1 4,-1 6,-2 4,0 6,0 11,0 4,0 7,0 10,0 2,1 5,1 6,2 2,1 3,2 3,3 1,1 1,2 1,3l0 54 58 0c2,0 3,0 4,0 1,1 2,2 2,3 1,2 2,3 2,6 0,2 0,4 0,8 0,6 0,10 -2,13 -1,2 -3,4 -6,4l-58 0 0 126c0,15 3,27 7,35 5,8 13,12 25,12 4,0 7,0 10,-2 3,0 6,-1 9,-2 2,-1 4,-2 5,-2 2,-1 3,-1 5,-1 1,0 1,0 2,0 1,1 1,1 2,3 0,1 1,2 1,5 0,2 0,4 0,7zm248 -106c0,7 -2,11 -5,14 -3,2 -7,4 -11,4l-148 0c0,13 1,24 4,34 2,10 6,18 12,26 6,7 13,12 23,16 9,4 21,6 35,6 10,0 19,-1 28,-2 8,-3 16,-5 21,-7 7,-2 12,-4 16,-5 3,-2 6,-3 8,-3 1,0 2,0 3,1 2,0 2,1 3,2 0,2 1,3 1,5 0,2 0,5 0,8 0,2 0,4 0,6 0,1 0,3 0,4 -1,1 -1,2 -2,3 0,1 -2,3 -2,3 -1,1 -4,3 -8,5 -5,2 -11,4 -18,6 -7,2 -16,4 -25,6 -9,1 -19,1 -30,1 -19,0 -35,-2 -49,-7 -14,-5 -26,-13 -35,-23 -10,-11 -17,-24 -21,-39 -6,-15 -8,-33 -8,-53 0,-20 2,-37 8,-53 5,-15 12,-28 21,-39 10,-11 21,-19 35,-25 13,-5 28,-8 44,-8 18,0 33,3 46,8 12,6 22,14 30,23 8,10 14,21 18,34 4,13 6,27 6,41l0 8zm-42 -12c1,-22 -4,-39 -14,-52 -10,-12 -25,-18 -45,-18 -11,0 -19,2 -27,6 -8,4 -14,9 -19,15 -6,7 -10,14 -12,22 -3,9 -5,17 -5,27l122 0zm298 135c0,1 0,2 0,3 -1,1 -3,2 -4,2 -1,1 -3,1 -5,2 -3,0 -5,0 -9,0 -4,0 -6,0 -9,0 -2,-1 -4,-1 -5,-2 -2,0 -3,-1 -4,-2 0,-1 -1,-2 -1,-3l0 -30c-12,13 -24,23 -37,30 -12,7 -27,10 -42,10 -16,0 -30,-3 -42,-9 -12,-6 -21,-15 -28,-26 -8,-11 -13,-24 -16,-39 -4,-14 -5,-30 -5,-47 0,-19 2,-37 6,-52 4,-16 10,-29 18,-40 9,-11 19,-20 31,-25 12,-6 26,-9 42,-9 13,0 25,3 36,8 11,6 22,15 32,26l0 -132c0,-1 1,-2 1,-3 1,-1 2,-2 4,-2 2,-1 4,-1 6,-2 3,0 6,0 10,0 4,0 8,0 10,0 3,1 5,1 6,2 2,0 4,1 4,2 1,1 1,2 1,3l0 335zm-42 -159c-11,-14 -22,-25 -32,-32 -10,-7 -21,-11 -33,-11 -10,0 -19,3 -26,8 -8,5 -14,11 -18,20 -5,8 -8,17 -10,27 -3,11 -4,22 -4,32 0,12 1,22 3,34 2,10 5,20 9,28 5,8 10,16 18,20 7,5 16,8 27,8 5,0 10,0 16,-2 5,-2 10,-4 15,-8 6,-3 11,-7 17,-13 6,-6 12,-13 18,-21l0 -90zm442 43c0,19 -2,37 -6,53 -5,15 -11,28 -19,40 -9,10 -19,19 -31,25 -12,6 -26,8 -41,8 -7,0 -14,0 -20,-1 -6,-2 -12,-4 -18,-7 -6,-4 -11,-7 -18,-13 -5,-4 -11,-10 -18,-17l0 28c0,1 0,2 -1,3 -1,1 -2,2 -3,2 -2,1 -4,1 -6,2 -2,0 -5,0 -9,0 -3,0 -6,0 -8,0 -2,-1 -4,-1 -6,-2 -1,0 -3,-1 -3,-2 -1,-1 -1,-2 -1,-3l0 -336c0,-1 0,-2 1,-3 1,-1 2,-2 4,-2 1,-1 3,-2 6,-2 3,0 6,0 10,0 4,0 8,0 10,0 3,0 5,1 7,2 1,0 2,1 2,2 2,1 2,2 2,3l0 136c6,-7 13,-13 19,-18 6,-4 12,-8 19,-11 6,-3 12,-5 18,-6 6,-1 12,-2 19,-2 16,0 30,3 42,9 12,7 21,16 28,26 7,12 13,25 16,39 3,15 5,30 5,47zm-44 4c0,-11 -1,-22 -2,-33 -2,-11 -5,-21 -10,-29 -4,-8 -10,-15 -17,-20 -7,-5 -16,-8 -27,-8 -5,0 -10,1 -15,2 -6,2 -11,5 -16,8 -6,3 -11,8 -17,13 -6,6 -12,13 -18,22l0 89c11,14 22,24 32,32 11,7 21,11 33,11 10,0 19,-3 27,-8 7,-5 13,-11 17,-20 5,-8 8,-17 10,-27 2,-11 3,-21 3,-32zm209 118l-31 83c-1,3 -3,5 -7,6 -4,1 -11,2 -19,2 -4,0 -8,0 -10,0 -3,-1 -5,-2 -6,-3 -2,-1 -3,-2 -3,-3 0,-2 1,-4 1,-7l32 -78c-2,-1 -3,-2 -5,-3 -1,-2 -2,-3 -3,-5l-80 -216c-1,-3 -2,-6 -2,-8 0,-2 1,-4 2,-5 1,-1 3,-2 7,-2 3,0 7,-1 12,-1 5,0 8,0 12,1 2,0 5,0 6,1 2,1 3,2 4,3 0,1 1,3 2,5l65 181 1 0 62 -182c1,-3 2,-5 3,-6 1,-1 4,-2 7,-2 3,0 7,-1 12,-1 5,0 9,1 12,1 2,0 5,1 6,2 1,1 2,3 2,5 0,2 0,5 -1,7l-81 225z"/>
  <path class="fil0" d="M1103 4126c-1,4 -3,7 -4,9 -2,3 -5,4 -8,6 -3,1 -8,2 -14,3 -5,0 -12,0 -21,0 -9,0 -17,0 -23,0 -5,-1 -10,-2 -13,-3 -4,-2 -6,-3 -7,-6 -2,-2 -3,-5 -4,-9l-52 -206 0 0 -50 206c-1,4 -2,7 -3,9 -2,2 -4,4 -7,5 -3,2 -8,3 -14,4 -5,0 -13,0 -22,0 -10,0 -17,0 -23,0 -6,-1 -10,-2 -14,-3 -3,-2 -5,-3 -7,-6 -1,-2 -3,-5 -4,-9l-74 -283c-1,-7 -1,-11 -1,-15 -1,-3 0,-5 2,-7 2,-2 6,-3 10,-4 5,0 12,-1 20,-1 8,0 14,0 19,1 4,0 8,1 11,2 2,1 3,2 4,4 1,2 2,4 2,7l57 248 0 0 59 -246c1,-3 2,-6 3,-8 1,-2 3,-3 5,-4 3,-1 7,-2 11,-3 5,0 11,-1 18,-1 8,0 15,0 20,1 4,1 8,1 11,2 2,1 4,3 5,5 1,2 2,4 3,8l61 246 0 0 57 -247c1,-3 2,-5 2,-7 1,-2 3,-3 6,-4 2,-1 5,-2 9,-3 5,0 10,-1 19,-1 7,0 13,1 17,1 4,1 7,2 8,4 3,2 3,4 3,8 0,3 -1,8 -3,14l-74 283zm415 -149c0,26 -3,50 -9,72 -7,21 -17,39 -30,54 -14,14 -30,26 -49,33 -20,8 -43,12 -68,12 -25,0 -47,-3 -66,-10 -19,-6 -34,-17 -47,-30 -13,-13 -22,-31 -29,-52 -6,-20 -9,-45 -9,-74 0,-26 4,-50 11,-70 6,-22 16,-39 29,-54 13,-15 30,-26 49,-34 20,-8 42,-12 68,-12 25,0 46,3 65,10 19,7 34,17 47,30 13,14 22,31 29,51 6,21 9,45 9,74zm-69 3c0,-17 -1,-33 -4,-46 -2,-14 -7,-27 -13,-36 -7,-10 -15,-18 -26,-23 -11,-6 -24,-9 -40,-9 -17,0 -30,3 -41,10 -11,6 -19,14 -26,24 -7,10 -12,22 -14,36 -3,13 -4,28 -4,43 0,18 1,34 4,48 2,14 7,26 13,36 6,10 15,18 26,23 11,5 24,8 40,8 16,0 30,-3 41,-9 11,-6 19,-14 26,-25 7,-10 11,-22 14,-36 3,-14 4,-28 4,-44zm366 154c0,2 -1,3 -2,4 -1,2 -2,3 -5,4 -2,1 -6,1 -10,2 -5,0 -12,0 -20,0 -7,0 -13,0 -17,0 -4,-1 -7,-1 -10,-2 -2,-2 -4,-3 -5,-4 -1,-1 -2,-3 -3,-5l-28 -73c-4,-8 -8,-15 -11,-21 -3,-7 -7,-12 -11,-16 -4,-5 -9,-8 -14,-10 -6,-2 -12,-3 -19,-3l-21 0 0 123c0,2 0,4 -1,5 -1,1 -3,2 -5,3 -3,1 -6,2 -11,3 -4,0 -9,0 -15,0 -7,0 -12,0 -16,0 -4,-1 -8,-2 -10,-3 -3,-1 -5,-2 -6,-3 -1,-1 -1,-3 -1,-5l0 -294c0,-8 2,-13 5,-16 4,-3 9,-5 14,-5l84 0c9,0 16,0 22,1 5,0 10,1 14,1 13,2 25,5 36,9 10,5 19,11 26,18 7,7 13,16 17,26 3,10 6,21 6,34 0,11 -2,21 -4,30 -3,9 -7,17 -13,24 -5,7 -12,13 -19,18 -8,5 -17,9 -28,13 6,2 10,5 14,8 4,3 8,8 12,12 4,5 8,10 11,17 3,6 7,12 10,20l27 64c2,6 4,11 5,14 1,3 2,5 2,7zm-86 -220c0,-11 -2,-20 -7,-27 -5,-7 -13,-13 -23,-16 -4,-1 -8,-1 -12,-2 -4,0 -10,-1 -18,-1l-30 0 0 92 34 0c10,0 18,-1 25,-3 7,-2 13,-5 17,-10 5,-4 9,-8 11,-14 2,-6 3,-12 3,-19zm312 201c0,5 0,9 -1,13 0,3 -1,6 -2,8 0,2 -1,4 -3,5 -1,1 -2,2 -4,2l-149 0c-5,0 -10,-2 -14,-6 -3,-3 -5,-8 -5,-16l0 -294c0,-2 0,-3 1,-4 1,-2 3,-3 6,-3 2,-1 6,-2 10,-2 4,-1 9,-2 16,-2 6,0 11,1 16,2 4,0 7,1 10,2 2,0 5,1 6,3 1,1 1,2 1,4l0 261 102 0c2,0 3,1 4,2 2,0 3,2 3,4 1,2 2,5 2,9 1,2 1,7 1,12zm308 -139c0,29 -4,55 -11,76 -8,21 -19,38 -34,52 -14,13 -32,23 -53,29 -21,6 -45,10 -74,10l-77 0c-6,0 -11,-2 -14,-6 -4,-3 -6,-8 -6,-16l0 -282c0,-8 2,-13 6,-16 3,-3 8,-5 14,-5l83 0c28,0 53,4 73,10 21,7 37,17 51,30 14,13 24,30 32,49 7,20 10,43 10,69zm-68 2c0,-16 -1,-30 -5,-43 -3,-13 -10,-25 -17,-34 -9,-10 -18,-18 -31,-23 -13,-5 -29,-8 -49,-8l-33 0 0 220 34 0c18,0 33,-2 46,-7 12,-4 22,-11 31,-21 8,-9 14,-21 18,-35 4,-14 6,-30 6,-49zm473 67c0,12 -2,22 -5,31 -3,10 -7,18 -12,25 -6,8 -13,14 -21,19 -8,5 -16,9 -26,13 -9,3 -19,5 -29,7 -11,2 -23,3 -36,3l-86 0c-6,0 -10,-2 -14,-6 -4,-3 -6,-8 -6,-16l0 -282c0,-8 2,-13 6,-16 4,-3 8,-5 14,-5l82 0c19,0 36,2 50,5 14,3 25,8 35,15 9,7 16,15 21,26 5,11 8,22 8,37 0,7 -1,15 -3,22 -2,7 -5,13 -9,19 -4,5 -8,11 -14,15 -6,4 -12,7 -19,10 9,2 17,5 26,9 7,4 14,9 20,16 5,7 10,14 13,23 3,9 5,19 5,30zm-85 -137c0,-6 -1,-12 -3,-17 -2,-5 -5,-9 -9,-13 -4,-3 -9,-6 -15,-8 -6,-2 -14,-3 -25,-3l-33 0 0 85 37 0c9,0 17,-2 23,-4 5,-2 10,-5 14,-9 4,-4 6,-9 8,-14 2,-5 3,-10 3,-17zm17 140c0,-8 -1,-15 -4,-21 -3,-6 -6,-11 -11,-15 -5,-3 -11,-7 -19,-9 -7,-2 -16,-3 -29,-3l-39 0 0 92 48 0c9,0 17,-1 23,-3 6,-2 12,-4 16,-8 5,-4 8,-9 11,-15 3,-5 4,-11 4,-18zm387 70c2,6 3,11 4,14 1,4 0,6 -2,8 -2,2 -5,3 -10,4 -4,0 -11,0 -19,0 -9,0 -15,0 -20,0 -5,0 -9,-1 -11,-2 -3,0 -4,-2 -5,-3 -1,-2 -2,-3 -3,-5l-21 -65 -123 0 -20 63c-1,2 -2,4 -3,6 -1,1 -2,2 -5,4 -2,1 -6,1 -10,2 -5,0 -10,0 -18,0 -7,0 -13,0 -18,0 -4,-1 -7,-2 -9,-5 -1,-1 -2,-4 -1,-8 0,-3 1,-8 3,-14l100 -287c1,-3 2,-5 4,-7 1,-2 4,-3 6,-4 3,-1 7,-2 13,-2 5,-1 11,-1 20,-1 10,0 17,0 24,1 5,0 10,1 13,2 4,1 6,2 7,4 2,2 3,4 4,7l100 288zm-149 -238l0 0 -46 138 92 0 -46 -138zm455 -12c0,6 -1,10 -1,13 0,3 -1,6 -2,8 0,2 -1,4 -2,5 -1,1 -3,1 -4,1 -2,0 -6,-2 -11,-5 -5,-3 -11,-6 -19,-9 -8,-4 -18,-7 -29,-10 -11,-3 -24,-5 -38,-5 -16,0 -31,3 -43,9 -13,5 -24,13 -33,23 -9,9 -16,22 -21,36 -5,13 -7,29 -7,46 0,18 2,35 7,49 6,14 12,26 21,35 9,10 20,17 32,22 13,5 27,7 41,7 8,0 15,-1 22,-2 7,-2 14,-4 20,-8l0 -75 -61 0c-3,0 -6,-2 -7,-6 -2,-4 -3,-10 -3,-19 0,-5 1,-8 1,-12 0,-3 1,-6 2,-7 1,-2 2,-4 3,-5 1,-1 2,-1 4,-1l109 0c3,0 5,0 8,1 2,1 4,3 5,4 2,2 3,4 4,7 0,3 1,6 1,9l0 129c0,5 -1,9 -3,13 -1,4 -5,7 -11,9 -5,2 -12,5 -20,7 -8,2 -16,5 -25,6 -8,1 -17,3 -26,4 -9,1 -17,1 -26,1 -26,0 -49,-4 -70,-11 -20,-8 -37,-19 -52,-33 -14,-14 -25,-31 -32,-51 -8,-20 -11,-43 -11,-69 0,-27 4,-50 11,-72 9,-21 20,-39 35,-54 14,-14 32,-26 53,-34 21,-8 44,-12 69,-12 14,0 27,1 39,3 11,3 22,5 30,8 8,2 16,5 21,8 6,4 10,6 12,9 3,2 4,5 5,9 1,5 2,11 2,19zm259 177c0,17 -4,32 -10,45 -6,13 -14,24 -25,32 -12,9 -24,15 -39,20 -14,4 -30,6 -46,6 -11,0 -22,0 -31,-3 -10,-1 -18,-3 -26,-6 -7,-3 -13,-5 -19,-8 -4,-3 -8,-5 -10,-8 -2,-2 -4,-5 -5,-9 0,-4 -1,-10 -1,-18 0,-5 0,-9 1,-13 0,-4 0,-6 1,-8 1,-3 2,-4 3,-5 1,-1 3,-1 4,-1 3,0 6,1 11,4 4,2 9,5 16,9 7,3 14,6 24,9 9,3 20,4 32,4 8,0 15,-1 21,-3 7,-2 12,-4 17,-8 4,-4 8,-8 10,-13 2,-5 3,-11 3,-17 0,-7 -2,-14 -6,-19 -3,-5 -9,-10 -15,-14 -7,-4 -14,-8 -22,-12 -9,-4 -17,-7 -26,-11 -8,-4 -17,-9 -25,-14 -8,-5 -16,-11 -22,-18 -6,-7 -12,-16 -16,-25 -4,-10 -5,-22 -5,-35 0,-16 2,-30 8,-41 6,-12 14,-22 24,-29 9,-8 21,-14 34,-18 13,-4 28,-6 43,-6 7,0 14,1 22,2 8,1 15,3 22,5 6,2 13,4 18,7 5,2 8,4 10,6 1,1 3,3 3,4 1,1 1,3 2,5 0,2 1,4 1,7 0,3 0,6 0,11 0,5 0,9 0,12 0,4 -1,6 -2,9 0,2 -1,3 -2,4 -1,1 -3,2 -5,2 -1,0 -4,-1 -8,-4 -4,-2 -9,-4 -15,-7 -6,-3 -13,-6 -20,-8 -8,-2 -17,-3 -26,-3 -7,0 -13,1 -19,2 -5,2 -9,4 -13,8 -3,2 -6,6 -8,11 -2,4 -3,8 -3,14 0,7 2,13 6,18 4,5 9,10 16,14 7,5 14,8 23,12 8,3 17,7 25,11 9,4 17,9 26,14 8,5 15,11 22,18 7,7 12,16 16,25 4,10 6,21 6,34zm358 0c0,17 -3,32 -9,45 -6,13 -15,24 -25,32 -12,9 -24,15 -39,20 -14,4 -30,6 -46,6 -11,0 -22,0 -32,-3 -9,-1 -17,-3 -25,-6 -7,-3 -14,-5 -19,-8 -4,-3 -8,-5 -10,-8 -3,-2 -4,-5 -4,-9 -2,-4 -2,-10 -2,-18 0,-5 0,-9 0,-13 0,-4 2,-6 2,-8 1,-3 1,-4 3,-5 1,-1 3,-1 4,-1 3,0 6,1 10,4 4,2 10,5 17,9 7,3 14,6 23,9 10,3 20,4 33,4 8,0 15,-1 21,-3 7,-2 12,-4 17,-8 4,-4 7,-8 9,-13 3,-5 4,-11 4,-17 0,-7 -2,-14 -6,-19 -4,-5 -9,-10 -15,-14 -7,-4 -14,-8 -23,-12 -8,-4 -16,-7 -25,-11 -8,-4 -17,-9 -25,-14 -8,-5 -16,-11 -22,-18 -7,-7 -12,-16 -16,-25 -4,-10 -6,-22 -6,-35 0,-16 3,-30 9,-41 6,-12 14,-22 23,-29 10,-8 21,-14 35,-18 13,-4 27,-6 42,-6 8,0 15,1 23,2 8,1 15,3 22,5 6,2 12,4 18,7 5,2 8,4 10,6 1,1 3,3 3,4 1,1 1,3 2,5 0,2 0,4 0,7 1,3 1,6 1,11 0,5 0,9 -1,12 0,4 0,6 -1,9 0,2 -1,3 -2,4 -1,1 -3,2 -5,2 -1,0 -5,-1 -8,-4 -5,-2 -9,-4 -15,-7 -6,-3 -13,-6 -20,-8 -8,-2 -17,-3 -26,-3 -7,0 -13,1 -19,2 -5,2 -9,4 -13,8 -4,2 -6,6 -8,11 -2,4 -3,8 -3,14 0,7 2,13 6,18 4,5 9,10 16,14 6,5 14,8 22,12 9,3 17,7 26,11 9,4 17,9 26,14 8,5 15,11 22,18 6,7 12,16 16,25 4,10 5,21 5,34zm122 61c0,16 -3,26 -9,32 -5,5 -14,7 -29,7 -14,0 -24,-2 -29,-7 -5,-5 -8,-16 -8,-30 0,-16 3,-27 8,-32 6,-5 16,-8 30,-8 14,0 23,3 29,8 5,5 8,16 8,30zm332 12c2,6 3,11 4,14 0,4 0,6 -2,8 -2,2 -5,3 -10,4 -5,0 -11,0 -20,0 -8,0 -14,0 -19,0 -5,0 -9,-1 -11,-2 -3,0 -4,-2 -5,-3 -1,-2 -2,-3 -3,-5l-21 -65 -123 0 -20 63c-1,2 -2,4 -3,6 -1,1 -2,2 -5,4 -3,1 -6,1 -10,2 -5,0 -11,0 -18,0 -8,0 -14,0 -18,0 -4,-1 -7,-2 -9,-5 -1,-1 -2,-4 -1,-8 0,-3 1,-8 3,-14l100 -287c1,-3 2,-5 4,-7 1,-2 3,-3 6,-4 3,-1 7,-2 12,-2 5,-1 12,-1 21,-1 10,0 17,0 23,1 6,0 11,1 14,2 3,1 5,2 7,4 2,2 3,4 4,7l100 288zm-149 -238l0 0 -46 138 92 0 -46 -138zm265 226c0,16 -3,26 -8,32 -6,5 -15,7 -30,7 -14,0 -23,-2 -29,-7 -5,-5 -8,-16 -8,-30 0,-16 3,-27 8,-32 6,-5 16,-8 30,-8 14,0 23,3 29,8 5,5 8,16 8,30z"/>
  <path class="fil0" d="M1172 4932c1,3 2,7 2,9 0,2 -1,4 -2,5 -1,1 -3,2 -6,2 -3,1 -8,1 -13,1 -5,0 -10,0 -13,-1 -3,0 -5,0 -6,-1 -2,0 -3,-1 -4,-2 -1,-1 -1,-2 -2,-4l-28 -79 -135 0 -26 78c-1,2 -1,3 -2,4 -1,1 -2,2 -4,3 -2,0 -4,1 -7,1 -3,1 -6,1 -11,1 -5,0 -9,0 -12,-1 -3,0 -5,-1 -6,-2 -2,-1 -2,-3 -2,-5 0,-2 1,-6 2,-9l109 -302c0,-2 1,-3 2,-4 1,-1 3,-2 5,-3 2,-1 5,-1 8,-1 3,-1 8,-1 13,-1 5,0 9,0 13,1 3,0 6,0 8,1 2,1 4,2 5,3 1,1 2,3 3,4l109 302zm-140 -266l0 0 -56 162 113 0 -57 -162zm374 49c0,1 0,1 0,2 0,1 0,1 0,2 0,1 -1,2 -1,3 0,1 0,2 -1,3l-77 215c0,2 -1,3 -2,4 -1,1 -3,2 -5,3 -2,1 -5,1 -8,1 -4,1 -8,1 -13,1 -5,0 -9,0 -12,-1 -4,0 -6,-1 -9,-1 -2,-1 -3,-2 -5,-3 -1,-1 -2,-2 -2,-4l-77 -215c-1,-2 -1,-4 -2,-5 0,-1 0,-3 0,-3 0,-1 0,-2 0,-2 0,-1 0,-3 1,-4 0,-1 1,-1 3,-2 1,-1 3,-1 6,-1 3,-1 6,-1 10,-1 5,0 8,0 12,1 3,0 5,0 6,2 2,0 3,1 4,2 0,1 1,2 2,4l64 186 1 3 1 -3 62 -186c1,-2 1,-3 2,-4 1,-1 2,-2 4,-2 1,-2 3,-2 6,-2 3,-1 7,-1 11,-1 4,0 7,0 10,1 2,0 4,0 6,1 1,1 2,2 2,3 1,0 1,2 1,3zm241 226c0,1 0,3 -1,4 -1,0 -2,1 -3,2 -2,0 -4,1 -6,1 -2,1 -5,1 -8,1 -4,0 -7,0 -9,-1 -3,0 -4,-1 -6,-1 -1,-1 -2,-2 -3,-2 -1,-1 -1,-3 -1,-4l0 -30c-12,13 -25,23 -37,30 -13,7 -27,11 -42,11 -17,0 -31,-3 -43,-10 -11,-6 -21,-15 -28,-25 -7,-12 -13,-25 -16,-39 -3,-15 -5,-31 -5,-47 0,-19 2,-37 6,-53 4,-15 11,-28 19,-40 8,-10 18,-19 31,-25 11,-6 25,-9 41,-9 14,0 26,3 37,9 10,5 21,14 32,25l0 -131c0,-1 1,-2 1,-3 1,-1 2,-2 4,-3 1,0 3,-1 6,-1 2,-1 5,-1 10,-1 4,0 7,0 10,1 2,0 5,1 6,1 2,1 3,2 4,3 1,1 1,2 1,3l0 334zm-42 -158c-11,-14 -22,-25 -32,-32 -11,-7 -22,-11 -33,-11 -10,0 -20,2 -27,7 -7,5 -13,12 -18,20 -4,8 -8,18 -10,28 -2,10 -3,21 -3,32 0,11 1,22 3,33 2,11 4,20 9,29 4,8 10,15 17,20 7,5 17,8 27,8 6,0 11,-1 16,-3 5,-1 11,-4 16,-7 5,-4 11,-8 17,-14 5,-5 12,-13 18,-21l0 -89zm288 158c0,2 -1,4 -2,5 -2,1 -3,2 -6,2 -2,1 -5,1 -10,1 -4,0 -8,0 -10,-1 -3,0 -5,-1 -6,-2 -1,-1 -1,-3 -1,-5l0 -22c-11,10 -22,18 -34,24 -12,6 -24,9 -38,9 -12,0 -23,-2 -32,-5 -10,-3 -18,-7 -25,-13 -6,-6 -12,-13 -16,-22 -3,-8 -5,-18 -5,-29 0,-12 2,-24 7,-33 6,-9 13,-17 23,-23 9,-7 22,-11 35,-14 14,-3 30,-5 48,-5l31 0 0 -17c0,-9 -1,-17 -3,-23 -2,-7 -5,-13 -9,-17 -4,-5 -9,-7 -16,-10 -6,-2 -14,-3 -24,-3 -10,0 -19,1 -27,3 -8,3 -16,5 -22,8 -6,3 -11,6 -15,8 -4,3 -7,4 -9,4 -1,0 -2,-1 -3,-1 -1,-1 -2,-2 -3,-3 -1,-1 -2,-3 -2,-5 0,-2 -1,-5 -1,-7 0,-4 1,-8 1,-10 1,-2 3,-5 5,-7 2,-2 6,-5 11,-8 6,-2 12,-5 20,-7 7,-3 15,-5 23,-7 9,-1 17,-2 26,-2 16,0 30,2 41,6 12,3 21,9 28,16 7,7 12,16 16,26 2,11 4,23 4,37l0 152zm-41 -102l-35 0c-12,0 -22,0 -30,2 -8,2 -15,5 -21,9 -5,3 -10,8 -12,13 -3,5 -4,11 -4,18 0,12 4,21 11,28 8,7 18,11 31,11 11,0 21,-3 31,-9 9,-5 19,-14 29,-25l0 -47zm170 81c0,12 -2,20 -6,24 -3,4 -11,5 -21,5 -10,0 -17,-1 -21,-5 -4,-4 -5,-12 -5,-24 0,-11 1,-19 5,-23 4,-4 11,-6 22,-6 10,0 17,2 21,6 3,4 5,11 5,23zm276 -54c0,13 -1,24 -4,35 -2,10 -6,19 -12,27 -5,7 -13,14 -22,18 -10,4 -21,6 -35,6 -4,0 -9,-1 -14,-1 -4,-1 -8,-2 -12,-3 -4,-2 -7,-3 -10,-4 -3,-2 -5,-3 -6,-4 -1,-1 -1,-2 -2,-3 -1,-1 -1,-2 -1,-4 -1,-1 -1,-3 -1,-5 0,-2 0,-4 0,-8 0,-3 0,-6 0,-9 0,-2 1,-4 1,-5 1,-2 2,-3 3,-3 0,-1 2,-1 3,-1 1,0 3,0 5,2 2,1 5,2 7,4 4,1 7,2 11,4 3,1 8,1 13,1 6,0 10,0 15,-2 4,-1 7,-4 10,-7 2,-4 4,-10 6,-16 1,-7 1,-16 1,-27l0 -232c0,-1 1,-2 1,-3 2,-1 3,-2 4,-3 2,0 4,-1 7,-1 3,-1 6,-1 10,-1 4,0 8,0 10,1 3,0 5,1 7,1 1,1 3,2 4,3 1,1 1,2 1,3l0 237zm251 75c0,2 -1,4 -3,5 -1,1 -2,2 -5,2 -2,1 -6,1 -10,1 -4,0 -8,0 -11,-1 -2,0 -4,-1 -5,-2 -1,-1 -2,-3 -2,-5l0 -22c-10,10 -21,18 -33,24 -12,6 -25,9 -39,9 -11,0 -22,-2 -31,-5 -10,-3 -18,-7 -25,-13 -7,-6 -13,-13 -16,-22 -4,-8 -6,-18 -6,-29 0,-12 3,-24 8,-33 5,-9 13,-17 23,-23 9,-7 21,-11 35,-14 14,-3 30,-5 47,-5l31 0 0 -17c0,-9 -1,-17 -3,-23 -1,-7 -4,-13 -8,-17 -4,-5 -9,-7 -16,-10 -7,-2 -15,-3 -24,-3 -11,0 -19,1 -28,3 -8,3 -15,5 -21,8 -6,3 -11,6 -15,8 -5,3 -7,4 -9,4 -2,0 -3,-1 -4,-1 -1,-1 -2,-2 -2,-3 -1,-1 -2,-3 -2,-5 0,-2 -1,-5 -1,-7 0,-4 1,-8 1,-10 1,-2 2,-5 5,-7 2,-2 5,-5 11,-8 6,-2 12,-5 19,-7 7,-3 15,-5 24,-7 8,-1 17,-2 26,-2 16,0 30,2 41,6 11,3 20,9 28,16 6,7 11,16 15,26 3,11 5,23 5,37l0 152zm-42 -102l-35 0c-11,0 -21,0 -30,2 -8,2 -15,5 -20,9 -6,3 -10,8 -12,13 -3,5 -4,11 -4,18 0,12 4,21 11,28 7,7 18,11 31,11 11,0 21,-3 30,-9 10,-5 19,-14 29,-25l0 -47zm159 102c0,1 0,3 -1,3 -1,1 -2,2 -3,3 -2,0 -4,1 -7,1 -2,1 -6,1 -10,1 -4,0 -7,0 -10,-1 -3,0 -5,-1 -6,-1 -2,-1 -3,-2 -3,-3 -2,0 -2,-2 -2,-3l0 -226c0,-1 0,-2 2,-3 0,-1 1,-2 3,-2 1,-1 3,-2 6,-2 3,-1 6,-1 10,-1 4,0 8,0 10,1 3,0 5,1 7,2 1,0 2,1 3,2 1,1 1,2 1,3l0 226zm5 -302c0,10 -2,17 -6,20 -3,3 -10,5 -20,5 -10,0 -16,-2 -20,-5 -3,-3 -6,-10 -6,-19 0,-10 3,-17 6,-20 4,-4 10,-5 20,-5 10,0 17,1 20,5 4,3 6,9 6,19zm406 302c0,1 0,3 -1,3 -1,1 -2,2 -3,3 -2,0 -4,1 -6,1 -3,1 -7,1 -10,1 -5,0 -8,0 -10,-1 -4,0 -6,-1 -7,-1 -2,-1 -3,-2 -3,-3 -1,0 -1,-2 -1,-3l0 -137c0,-10 -1,-18 -3,-26 -2,-8 -4,-15 -8,-21 -4,-5 -8,-10 -14,-12 -5,-4 -12,-5 -20,-5 -10,0 -19,4 -29,11 -9,7 -20,18 -31,33l0 157c0,1 -1,3 -1,3 -1,1 -2,2 -4,3 -2,0 -4,1 -6,1 -3,1 -6,1 -11,1 -3,0 -6,0 -9,-1 -3,0 -5,-1 -7,-1 -1,-1 -2,-2 -3,-3 0,0 -1,-2 -1,-3l0 -137c0,-10 0,-18 -3,-26 -2,-8 -4,-15 -8,-21 -3,-5 -8,-10 -14,-12 -5,-4 -12,-5 -20,-5 -9,0 -19,4 -28,11 -10,7 -21,18 -32,33l0 157c0,1 0,3 -1,3 -1,1 -2,2 -3,3 -2,0 -4,1 -7,1 -2,1 -6,1 -10,1 -4,0 -7,0 -10,-1 -3,0 -5,-1 -6,-1 -2,-1 -3,-2 -3,-3 -1,0 -1,-2 -1,-3l0 -226c0,-1 0,-2 0,-3 1,-1 2,-2 3,-2 2,-2 4,-2 6,-2 3,-1 6,-1 9,-1 4,0 7,0 9,1 3,0 5,0 6,2 2,0 3,1 3,2 1,1 1,2 1,3l0 30c12,-14 25,-25 37,-31 12,-7 24,-10 36,-10 9,0 18,1 25,3 8,3 14,6 20,9 6,4 10,9 15,15 4,5 7,11 9,18 8,-9 15,-15 22,-21 7,-6 13,-10 19,-14 7,-3 13,-6 19,-8 5,-1 12,-2 18,-2 14,0 26,2 36,8 10,5 18,11 24,20 7,9 11,19 13,30 3,12 4,24 4,36l0 143zm268 -123c0,7 -1,12 -5,14 -3,3 -7,4 -10,4l-149 0c0,13 2,24 4,34 3,10 7,19 13,26 6,7 13,13 23,17 9,4 20,6 34,6 10,0 20,-1 28,-3 9,-2 16,-4 22,-6 6,-2 11,-4 15,-6 4,-2 7,-2 9,-2 1,0 2,0 3,0 1,1 1,2 2,3 1,1 1,3 2,5 0,2 0,4 0,8 0,2 0,4 0,5 -1,2 -1,3 -1,4 0,2 -1,3 -2,4 0,1 -1,2 -1,2 -1,1 -4,3 -9,5 -4,2 -10,4 -17,6 -7,2 -16,4 -25,6 -10,1 -20,2 -31,2 -18,0 -35,-3 -48,-8 -14,-5 -26,-13 -35,-23 -10,-10 -17,-23 -22,-38 -5,-16 -8,-33 -8,-54 0,-19 3,-37 8,-52 5,-16 13,-29 22,-40 9,-10 21,-19 34,-24 13,-6 28,-9 45,-9 18,0 33,3 46,9 12,5 22,13 30,23 8,9 14,20 18,33 3,14 5,27 5,42l0 7zm-41 -12c0,-21 -5,-39 -15,-51 -10,-13 -25,-19 -45,-19 -10,0 -19,2 -26,6 -8,4 -15,9 -20,15 -5,7 -9,14 -12,22 -3,9 -4,18 -5,27l123 0zm268 135c0,1 0,2 -1,3 0,1 -1,2 -3,3 -2,0 -4,1 -7,1 -2,1 -6,1 -10,1 -4,0 -7,0 -11,-1 -2,0 -5,-1 -6,-1 -2,-1 -3,-2 -4,-3 0,-1 -1,-2 -1,-3l0 -312c0,-1 1,-2 1,-3 1,-1 2,-2 4,-3 2,0 4,-1 7,-1 3,0 6,-1 10,-1 4,0 8,1 10,1 3,0 5,1 7,1 2,1 3,2 3,3 1,1 1,2 1,3l0 312zm136 -30c0,6 0,10 0,15 -1,4 -2,8 -3,12 -1,4 -2,8 -4,11 -2,4 -5,8 -7,12l-35 52c-1,1 -2,2 -3,3 -1,1 -2,2 -4,2 -1,1 -3,1 -5,2 -2,0 -5,0 -8,0 -3,0 -6,0 -7,0 -2,-1 -4,-1 -4,-1 -1,-1 -2,-2 -2,-3 0,-1 0,-2 1,-3l33 -69 0 -33c0,-4 1,-8 2,-10 1,-3 2,-5 4,-7 2,-1 5,-2 7,-2 4,-1 7,-1 12,-1 4,0 8,0 10,1 4,0 6,1 8,2 2,2 3,4 4,7 1,2 1,6 1,10zm388 -270c0,3 0,6 0,9 0,2 0,4 -1,7 0,2 -1,4 -2,6 -1,2 -2,4 -3,6l-116 270c-1,2 -2,4 -3,5 -2,1 -3,2 -5,3 -2,1 -4,1 -8,1 -3,1 -6,1 -11,1 -6,0 -10,0 -13,-1 -3,0 -5,-1 -7,-2 -2,-1 -2,-3 -2,-4 0,-2 1,-4 2,-6l123 -275 -156 0c-3,0 -5,-2 -7,-5 -2,-4 -3,-9 -3,-14 0,-3 1,-6 1,-8 0,-3 1,-5 2,-7 1,-1 2,-2 3,-3 1,-1 3,-1 4,-1l189 0c3,0 5,0 6,1 2,0 3,1 4,2 2,2 2,4 3,7 0,2 0,5 0,8zm267 144c0,24 -3,47 -6,67 -4,21 -11,39 -20,54 -9,14 -21,26 -36,34 -15,8 -32,12 -54,12 -21,0 -38,-4 -51,-11 -14,-7 -26,-18 -34,-32 -9,-14 -15,-31 -18,-52 -4,-21 -6,-44 -6,-71 0,-25 2,-48 6,-68 4,-21 10,-39 20,-54 9,-14 21,-26 35,-34 15,-8 33,-12 55,-12 20,0 37,4 51,11 14,7 26,18 34,32 9,14 15,32 18,52 4,21 6,44 6,72zm-45 2c0,-16 0,-31 -1,-43 -1,-13 -3,-25 -5,-34 -3,-10 -5,-19 -9,-26 -4,-7 -8,-13 -13,-18 -5,-4 -11,-7 -17,-9 -7,-2 -14,-3 -22,-3 -14,0 -26,3 -34,9 -10,7 -16,16 -21,28 -6,12 -9,25 -11,41 -2,16 -3,32 -3,51 0,24 2,45 4,62 2,17 6,30 12,41 5,11 12,19 21,23 8,5 19,8 30,8 10,0 18,-2 25,-5 7,-3 13,-7 19,-13 5,-5 9,-12 12,-20 4,-8 6,-16 8,-26 2,-9 4,-20 4,-31 1,-11 1,-23 1,-35z"/>
  <path class="fil0" d="M1082 5244c0,25 -2,48 -6,68 -4,21 -10,39 -19,53 -9,15 -21,27 -36,35 -15,8 -33,12 -55,12 -20,0 -37,-4 -51,-11 -14,-7 -25,-18 -34,-32 -8,-14 -14,-32 -18,-52 -3,-21 -5,-44 -5,-72 0,-24 2,-47 6,-67 4,-21 10,-39 19,-54 10,-14 21,-26 36,-34 15,-8 33,-12 54,-12 21,0 38,4 52,11 14,7 25,18 34,32 8,14 14,31 18,52 3,20 5,44 5,71zm-44 3c0,-16 -1,-31 -2,-44 -1,-13 -3,-24 -5,-34 -2,-9 -5,-18 -9,-25 -3,-7 -8,-13 -12,-18 -5,-4 -11,-7 -18,-9 -6,-3 -13,-4 -21,-4 -15,0 -26,4 -35,10 -9,7 -16,16 -21,28 -5,12 -9,25 -10,41 -2,16 -3,32 -3,51 0,24 1,44 4,61 2,17 6,31 12,42 5,11 12,18 20,23 9,5 19,7 31,7 9,0 18,-1 25,-4 7,-3 13,-8 18,-13 5,-5 9,-12 13,-20 3,-8 6,-17 8,-26 2,-10 3,-20 4,-31 1,-12 1,-23 1,-35zm291 67c0,15 -3,28 -8,41 -5,11 -12,22 -22,30 -10,9 -21,15 -36,20 -14,5 -30,7 -48,7 -11,0 -21,-1 -30,-3 -10,-1 -18,-4 -25,-6 -8,-3 -14,-5 -19,-8 -5,-2 -8,-4 -9,-5 -1,-2 -2,-2 -3,-4 -1,-1 -1,-3 -2,-4 0,-2 0,-4 -1,-6 0,-3 0,-5 0,-9 0,-6 1,-10 2,-13 1,-2 2,-3 5,-3 1,0 4,1 9,4 4,3 10,5 17,8 7,3 14,7 24,9 10,3 20,4 31,4 11,0 20,-1 29,-4 8,-3 15,-7 21,-12 5,-5 10,-12 13,-19 3,-7 4,-15 4,-23 0,-9 -2,-17 -5,-24 -4,-8 -9,-14 -16,-19 -7,-6 -16,-10 -26,-13 -10,-3 -22,-4 -34,-4l-31 0c-1,0 -3,0 -4,-1 -1,0 -2,-1 -3,-3 -1,-1 -2,-3 -2,-5 -1,-2 -1,-5 -1,-9 0,-3 0,-5 1,-8 0,-2 1,-3 2,-5 1,-1 2,-2 3,-2 1,-1 2,-1 4,-1l28 0c11,0 21,-2 30,-4 8,-3 16,-7 22,-13 6,-5 11,-11 14,-19 3,-7 5,-15 5,-25 0,-6 -1,-13 -3,-19 -2,-6 -6,-12 -10,-16 -5,-4 -10,-8 -17,-10 -6,-3 -14,-5 -23,-5 -10,0 -19,2 -27,5 -8,3 -15,6 -22,9 -6,4 -11,7 -15,9 -4,4 -7,5 -9,5 -2,0 -2,0 -3,0 -1,-1 -2,-2 -3,-3 0,-2 -1,-3 -1,-6 0,-2 0,-5 0,-8 0,-3 0,-5 0,-7 0,-2 0,-4 1,-5 0,-1 2,-3 2,-4 1,-1 2,-2 3,-4 2,-1 5,-4 10,-7 5,-3 11,-6 18,-9 7,-3 15,-5 24,-7 10,-2 19,-3 30,-3 16,0 28,2 40,6 11,4 21,9 28,16 8,7 14,15 17,25 4,10 6,21 6,33 0,10 -1,19 -4,28 -3,9 -7,17 -12,23 -5,7 -11,13 -19,18 -7,4 -16,8 -26,10l0 0c11,1 21,4 31,8 9,5 17,11 24,17 7,7 12,15 15,23 4,10 6,19 6,29zm268 -213c0,3 -1,6 -1,8 0,3 0,5 -1,8 0,2 -1,4 -2,6 0,2 -1,4 -2,6l-117 270c-1,2 -2,3 -3,4 -1,2 -3,3 -5,4 -2,1 -4,1 -7,1 -3,1 -7,1 -12,1 -5,0 -9,0 -12,-1 -4,0 -6,-1 -7,-3 -2,-1 -3,-2 -2,-4 0,-1 1,-3 2,-5l122 -275 -155 0c-3,0 -6,-2 -7,-6 -2,-3 -3,-8 -3,-13 0,-4 0,-7 1,-9 0,-2 1,-4 2,-6 1,-1 2,-2 3,-3 1,-1 2,-1 4,-1l189 0c2,0 4,0 6,1 2,0 3,1 4,2 1,2 1,4 2,6 0,2 1,5 1,9zm253 202c0,17 -2,33 -8,46 -6,13 -14,25 -25,34 -11,10 -23,17 -38,21 -15,6 -31,8 -50,8 -9,0 -19,-1 -28,-2 -9,-2 -17,-3 -24,-6 -7,-2 -13,-4 -17,-6 -5,-2 -8,-3 -9,-4 -1,-2 -2,-3 -3,-4 0,-1 -1,-2 -1,-3 0,-2 -1,-4 -1,-6 0,-2 0,-5 0,-8 0,-2 0,-5 0,-7 1,-3 1,-4 2,-6 0,-1 1,-2 2,-3 1,-1 2,-1 3,-1 2,0 5,1 8,3 4,2 8,4 14,7 6,3 13,5 22,7 9,2 20,3 31,3 12,0 22,-1 31,-4 9,-2 18,-7 24,-12 7,-6 13,-13 16,-22 4,-8 6,-19 6,-31 0,-11 -2,-20 -5,-28 -3,-8 -8,-14 -15,-19 -7,-6 -15,-9 -25,-12 -11,-3 -23,-4 -38,-4 -10,0 -19,0 -26,1 -7,1 -14,2 -21,2 -4,0 -8,-1 -10,-3 -1,-3 -2,-7 -2,-13l0 -132c0,-6 1,-10 3,-12 3,-3 6,-4 12,-4l143 0c1,0 3,0 4,1 1,1 2,2 3,3 1,2 2,4 2,6 1,2 1,5 1,8 0,6 -1,11 -3,14 -2,4 -4,5 -7,5l-121 0 0 92c6,-2 12,-2 18,-2 6,-1 13,-1 21,-1 19,0 35,3 49,7 14,5 25,11 34,19 10,8 17,18 21,29 6,12 7,24 7,39zm273 -59c0,25 -2,48 -6,68 -4,21 -10,39 -19,53 -9,15 -21,27 -36,35 -15,8 -33,12 -54,12 -21,0 -38,-4 -52,-11 -14,-7 -25,-18 -34,-32 -8,-14 -14,-32 -18,-52 -3,-21 -5,-44 -5,-72 0,-24 2,-47 6,-67 4,-21 10,-39 20,-54 9,-14 20,-26 35,-34 15,-8 33,-12 54,-12 21,0 38,4 52,11 14,7 25,18 34,32 8,14 15,31 18,52 4,20 5,44 5,71zm-44 3c0,-16 -1,-31 -2,-44 -1,-13 -3,-24 -5,-34 -2,-9 -5,-18 -8,-25 -4,-7 -9,-13 -13,-18 -5,-4 -11,-7 -18,-9 -6,-3 -13,-4 -21,-4 -15,0 -26,4 -35,10 -9,7 -16,16 -21,28 -5,12 -8,25 -10,41 -2,16 -3,32 -3,51 0,24 1,44 4,61 2,17 6,31 12,42 5,11 12,18 20,23 9,5 19,7 31,7 10,0 18,-1 25,-4 7,-3 13,-8 18,-13 6,-5 10,-12 13,-20 3,-8 6,-17 8,-26 2,-10 3,-20 4,-31 1,-12 1,-23 1,-35zm421 -69c0,16 -3,30 -8,44 -6,13 -14,24 -23,33 -10,9 -22,16 -37,21 -14,5 -32,8 -52,8l-36 0 0 116c0,2 -1,3 -2,4 -1,1 -2,2 -3,3 -2,0 -4,1 -7,1 -2,1 -6,1 -10,1 -4,0 -8,0 -10,-1 -4,0 -6,-1 -7,-1 -2,-1 -3,-2 -4,-3 0,-1 -1,-2 -1,-4l0 -299c0,-7 2,-11 5,-14 4,-3 8,-4 12,-4l70 0c7,0 13,0 20,1 6,0 14,1 23,3 8,2 18,6 27,11 9,5 16,12 23,20 6,7 11,16 14,26 4,11 6,21 6,34zm-46 3c0,-13 -2,-24 -7,-33 -5,-9 -11,-16 -18,-20 -7,-4 -15,-7 -23,-8 -8,-1 -15,-2 -22,-2l-40 0 0 130 39 0c12,0 23,-1 32,-5 9,-3 16,-7 21,-14 6,-6 11,-12 14,-21 3,-8 4,-17 4,-27zm300 97c0,7 -2,12 -6,14 -3,3 -6,4 -10,4l-149 0c0,13 2,24 4,34 3,10 7,18 13,26 6,7 13,13 23,17 9,3 20,5 34,5 11,0 20,-1 28,-2 9,-2 16,-4 22,-6 6,-2 11,-5 16,-6 3,-2 6,-3 8,-3 1,0 2,0 3,1 1,0 2,1 2,2 1,2 1,4 2,6 0,2 0,4 0,7 0,2 0,4 0,6 -1,2 -1,3 -1,4 0,1 -1,3 -1,4 -1,1 -2,2 -2,2 -1,1 -4,3 -9,5 -4,2 -10,4 -17,6 -7,2 -16,4 -25,6 -9,1 -20,2 -30,2 -19,0 -35,-3 -49,-8 -14,-5 -26,-13 -35,-23 -10,-10 -17,-23 -22,-39 -5,-15 -7,-33 -7,-53 0,-20 2,-37 7,-52 5,-16 13,-29 22,-40 10,-11 21,-19 34,-24 14,-6 29,-9 45,-9 18,0 33,3 46,9 12,5 22,13 30,23 8,9 14,20 18,33 4,13 6,27 6,41l0 8zm-42 -12c1,-22 -5,-39 -14,-52 -11,-12 -25,-18 -46,-18 -10,0 -18,2 -26,6 -8,4 -15,9 -20,15 -5,7 -9,14 -11,22 -4,9 -5,18 -6,27l123 0zm298 135c0,1 0,2 -1,3 -1,1 -2,2 -3,3 -1,0 -3,1 -6,1 -2,1 -5,1 -8,1 -4,0 -6,0 -9,-1 -2,0 -4,-1 -6,-1 -1,-1 -2,-2 -3,-3 -1,-1 -1,-2 -1,-3l0 -30c-12,13 -24,23 -37,30 -12,7 -27,11 -42,11 -17,0 -30,-3 -42,-10 -12,-6 -21,-15 -28,-26 -8,-11 -13,-24 -16,-39 -4,-14 -6,-30 -6,-46 0,-20 2,-37 7,-53 4,-15 10,-29 18,-40 8,-11 19,-19 31,-25 12,-6 25,-9 41,-9 14,0 26,3 37,9 11,5 22,14 32,25l0 -131c0,-1 1,-2 1,-3 1,-1 2,-2 4,-3 1,0 3,-1 6,-2 3,0 6,0 10,0 4,0 8,0 10,0 3,1 5,2 6,2 2,1 3,2 4,3 1,1 1,2 1,3l0 334zm-42 -159c-11,-14 -22,-24 -32,-32 -10,-7 -22,-10 -33,-10 -10,0 -20,2 -27,7 -7,5 -13,12 -18,20 -4,8 -7,17 -9,28 -3,10 -4,21 -4,31 0,12 1,22 3,34 2,11 5,20 9,28 4,9 10,16 17,21 7,5 17,7 28,7 5,0 10,0 15,-2 5,-1 11,-4 16,-8 5,-3 11,-7 17,-13 5,-5 12,-13 18,-21l0 -90zm250 -52c0,3 0,7 0,9 0,3 -1,5 -1,6 -1,1 -1,2 -2,3 -1,1 -2,1 -3,1 -1,0 -3,0 -5,-1 -2,-1 -4,-1 -7,-2 -2,-1 -5,-1 -8,-2 -3,-1 -6,-1 -10,-1 -4,0 -8,1 -12,2 -4,2 -8,5 -12,9 -5,4 -10,9 -14,15 -5,7 -11,14 -17,24l0 148c0,1 0,2 -1,3 0,1 -1,2 -3,3 -1,0 -3,1 -6,1 -2,1 -6,1 -10,1 -4,0 -7,0 -10,-1 -3,0 -5,-1 -7,-1 -1,-1 -2,-2 -3,-3 -1,-1 -1,-2 -1,-3l0 -226c0,-1 0,-2 1,-3 0,-1 1,-2 3,-3 1,-1 3,-1 5,-1 3,-1 6,-1 10,-1 4,0 7,0 9,1 3,0 5,0 6,1 1,1 2,2 3,3 0,1 1,2 1,3l0 33c6,-9 12,-17 17,-22 5,-6 10,-11 16,-13 4,-4 9,-6 14,-7 5,-1 9,-2 14,-2 2,0 5,0 8,0 2,1 5,1 8,2 3,0 6,1 9,2 2,1 4,1 5,2 1,1 1,2 2,3 0,1 0,1 0,2 1,2 1,4 1,6 0,2 0,5 0,9zm240 88c0,7 -2,12 -5,14 -3,3 -7,4 -11,4l-148 0c0,13 1,24 4,34 2,10 7,18 12,26 6,7 13,13 23,17 9,3 21,5 35,5 10,0 20,-1 28,-2 8,-2 16,-4 21,-6 7,-2 12,-5 16,-6 3,-2 7,-3 8,-3 1,0 3,0 4,1 1,0 1,1 2,2 0,2 1,4 1,6 0,2 0,4 0,7 0,2 0,4 0,6 0,2 0,3 0,4 -1,1 -1,3 -2,4 0,1 -1,2 -2,2 -1,1 -4,3 -8,5 -5,2 -10,4 -18,6 -7,2 -16,4 -25,6 -9,1 -19,2 -30,2 -18,0 -35,-3 -49,-8 -14,-5 -25,-13 -35,-23 -9,-10 -17,-23 -21,-39 -5,-15 -8,-33 -8,-53 0,-20 3,-37 8,-52 5,-16 12,-29 21,-40 10,-11 21,-19 35,-24 13,-6 28,-9 44,-9 18,0 33,3 46,9 12,5 23,13 30,23 8,9 14,20 18,33 4,13 6,27 6,41l0 8zm-42 -12c1,-22 -4,-39 -14,-52 -10,-12 -25,-18 -45,-18 -10,0 -19,2 -27,6 -8,4 -14,9 -19,15 -5,7 -10,14 -12,22 -3,9 -5,18 -5,27l122 0zm293 -81c0,6 -1,11 -2,13 -2,3 -4,4 -6,4l-33 0c7,6 11,12 13,20 2,7 3,15 3,23 0,13 -2,24 -6,34 -4,10 -10,19 -18,25 -7,8 -17,13 -28,16 -10,4 -22,6 -35,6 -9,0 -18,-1 -26,-4 -8,-2 -15,-5 -20,-9 -2,3 -5,7 -7,10 -2,4 -3,9 -3,14 0,6 3,11 8,15 6,3 13,5 22,6l59 2c11,0 22,2 31,5 9,3 17,7 24,12 7,5 12,11 16,18 4,8 6,17 6,26 0,11 -2,20 -7,30 -4,9 -10,18 -19,25 -10,6 -21,12 -35,16 -14,4 -30,6 -49,6 -18,0 -33,-1 -46,-4 -13,-3 -24,-7 -32,-13 -8,-5 -14,-11 -17,-19 -4,-7 -6,-15 -6,-24 0,-6 0,-11 2,-16 1,-5 3,-10 6,-15 3,-5 6,-9 10,-13 5,-5 9,-9 14,-13 -8,-4 -14,-9 -18,-16 -4,-6 -5,-13 -5,-21 0,-10 2,-19 6,-27 4,-8 9,-15 15,-21 -5,-6 -9,-14 -12,-21 -3,-8 -5,-17 -5,-29 0,-12 3,-24 7,-34 4,-10 10,-19 18,-26 8,-7 17,-12 28,-16 11,-4 22,-6 35,-6 7,0 13,1 19,1 6,1 11,2 17,4l68 0c3,0 5,1 7,4 1,2 1,7 1,12zm-64 60c0,-16 -4,-27 -13,-36 -8,-9 -20,-13 -36,-13 -8,0 -15,1 -21,4 -6,3 -11,6 -14,11 -4,4 -8,10 -9,16 -2,6 -3,13 -3,19 0,15 4,27 13,35 8,9 20,13 35,13 8,0 16,-1 21,-3 6,-3 11,-7 15,-11 4,-5 7,-11 9,-16 2,-6 3,-12 3,-19zm21 179c0,-10 -4,-17 -12,-23 -8,-5 -19,-8 -32,-8l-59 -2c-5,4 -10,8 -13,11 -3,5 -6,8 -8,12 -2,3 -3,6 -5,10 0,3 -1,6 -1,10 0,10 6,19 17,24 11,6 27,9 46,9 13,0 23,-1 31,-3 9,-3 16,-6 21,-10 5,-4 9,-9 11,-14 2,-5 4,-11 4,-16zm290 -23c0,1 0,2 -1,3 -1,1 -2,2 -3,3 -1,0 -3,1 -6,1 -2,1 -5,1 -9,1 -4,0 -7,0 -9,-1 -2,0 -4,-1 -6,-1 -1,-1 -2,-2 -3,-3 0,-1 0,-2 0,-3l0 -30c-13,14 -26,24 -38,31 -13,7 -26,10 -39,10 -15,0 -27,-3 -38,-8 -10,-5 -18,-11 -25,-20 -6,-9 -10,-19 -14,-30 -2,-12 -4,-25 -4,-42l0 -137c0,-1 1,-2 1,-3 1,-1 2,-2 4,-3 2,-1 4,-1 6,-1 3,-1 6,-1 10,-1 5,0 8,0 10,1 3,0 5,0 7,1 1,1 3,2 3,3 1,1 1,2 1,3l0 132c0,13 1,23 3,31 2,8 5,15 9,20 4,6 9,11 15,14 6,3 13,4 21,4 10,0 20,-3 31,-11 10,-7 21,-18 32,-32l0 -158c0,-1 1,-2 1,-3 1,-1 2,-2 4,-3 2,-1 3,-1 6,-1 3,-1 6,-1 10,-1 4,0 8,0 10,1 3,0 5,0 6,1 2,1 3,2 4,3 1,1 1,2 1,3l0 226zm269 -123c0,7 -2,12 -5,14 -3,3 -7,4 -11,4l-148 0c0,13 1,24 4,34 2,10 6,18 12,26 6,7 13,13 23,17 9,3 21,5 35,5 10,0 20,-1 28,-2 8,-2 16,-4 21,-6 6,-2 12,-5 16,-6 3,-2 6,-3 9,-3 1,0 2,0 3,1 1,0 1,1 2,2 0,2 1,4 1,6 0,2 0,4 0,7 0,2 0,4 0,6 0,2 0,3 0,4 -1,1 -1,3 -2,4 0,1 -1,2 -2,2 -1,1 -4,3 -8,5 -5,2 -10,4 -18,6 -7,2 -15,4 -25,6 -9,1 -19,2 -30,2 -19,0 -35,-3 -49,-8 -14,-5 -25,-13 -35,-23 -9,-10 -17,-23 -21,-39 -5,-15 -8,-33 -8,-53 0,-20 3,-37 8,-52 5,-16 12,-29 21,-40 10,-11 21,-19 35,-24 13,-6 28,-9 44,-9 18,0 33,3 46,9 12,5 23,13 30,23 9,9 14,20 18,33 4,13 6,27 6,41l0 8zm-42 -12c1,-22 -4,-39 -14,-52 -10,-12 -25,-18 -45,-18 -10,0 -19,2 -27,6 -8,4 -14,9 -19,15 -6,7 -10,14 -12,22 -3,9 -5,18 -5,27l122 0zm237 -76c0,3 -1,7 -1,9 0,3 0,5 -1,6 0,1 -1,2 -1,3 -1,1 -2,1 -4,1 -1,0 -2,0 -4,-1 -2,-1 -4,-1 -7,-2 -2,-1 -5,-1 -8,-2 -3,-1 -6,-1 -10,-1 -4,0 -8,1 -12,2 -4,2 -9,5 -12,9 -5,4 -10,9 -14,15 -6,7 -11,14 -17,24l0 148c0,1 0,2 -1,3 0,1 -1,2 -3,3 -2,0 -3,1 -6,1 -3,1 -6,1 -10,1 -4,0 -8,0 -11,-1 -2,0 -4,-1 -6,-1 -1,-1 -2,-2 -3,-3 -1,-1 -1,-2 -1,-3l0 -226c0,-1 0,-2 1,-3 0,-1 1,-2 3,-3 1,-1 3,-1 5,-1 3,-1 6,-1 10,-1 4,0 7,0 9,1 2,0 5,0 6,1 1,1 2,2 2,3 1,1 2,2 2,3l0 33c6,-9 11,-17 17,-22 5,-6 10,-11 15,-13 5,-4 10,-6 15,-7 4,-1 9,-2 14,-2 2,0 5,0 7,0 3,1 6,1 9,2 3,0 6,1 8,2 3,1 4,1 6,2 0,1 1,2 1,3 0,1 1,1 1,2 0,2 0,4 0,6 1,2 1,5 1,9z"/>
  <path class="fil0" d="M1308 5851c1,4 2,7 2,9 0,3 -1,4 -2,5 -1,2 -3,2 -7,3 -2,0 -7,0 -12,0 -5,0 -10,0 -13,0 -3,0 -5,-1 -6,-1 -2,-1 -3,-2 -4,-3 -1,-1 -1,-2 -2,-3l-28 -79 -135 0 -26 78c-1,1 -2,2 -2,3 -1,1 -2,2 -4,3 -2,1 -4,1 -7,2 -3,0 -6,0 -11,0 -5,0 -9,0 -12,0 -3,-1 -6,-2 -6,-3 -2,-1 -2,-3 -2,-5 0,-2 1,-5 2,-9l108 -301c1,-2 2,-3 3,-4 1,-1 3,-3 5,-3 2,-1 5,-2 8,-2 3,0 8,0 13,0 5,0 9,0 13,0 3,0 6,1 8,2 2,0 4,2 5,3 1,1 2,2 3,4l109 301zm-140 -265l0 0 -56 161 113 0 -57 -161zm231 275c0,1 0,2 -2,3 0,1 -1,2 -3,2 -1,1 -3,1 -6,2 -2,0 -6,0 -10,0 -4,0 -7,0 -10,0 -3,-1 -5,-1 -6,-2 -2,0 -3,-1 -4,-2 -1,-1 -1,-2 -1,-3l0 -336c0,-1 0,-2 1,-3 1,-1 2,-2 4,-2 1,-1 3,-2 6,-2 3,0 6,0 10,0 4,0 8,0 10,0 3,0 5,1 6,2 2,0 3,1 3,2 2,1 2,2 2,3l0 336zm118 0c0,1 0,2 -1,3 -1,1 -2,2 -3,2 -2,1 -4,1 -7,2 -2,0 -6,0 -10,0 -4,0 -7,0 -10,0 -3,-1 -5,-1 -6,-2 -2,0 -3,-1 -3,-2 -2,-1 -2,-2 -2,-3l0 -226c0,-1 0,-2 2,-3 0,-1 1,-2 3,-3 1,0 3,-1 6,-1 3,-1 6,-1 10,-1 4,0 8,0 10,1 3,0 5,1 7,1 1,1 2,2 3,3 1,1 1,2 1,3l0 226zm5 -302c0,10 -2,16 -6,19 -3,4 -10,6 -20,6 -10,0 -16,-2 -20,-5 -3,-4 -6,-10 -6,-20 0,-9 3,-16 6,-20 4,-3 10,-5 20,-5 10,0 17,2 20,5 4,4 6,10 6,20zm234 267c0,3 0,5 -1,7 0,3 0,5 0,6 -1,1 -1,3 -2,4 -1,1 -2,2 -4,4 -2,2 -6,5 -11,8 -5,3 -10,6 -17,8 -6,3 -12,5 -20,6 -7,2 -15,2 -23,2 -16,0 -30,-2 -43,-7 -13,-6 -23,-14 -31,-24 -9,-10 -15,-23 -20,-38 -4,-15 -6,-32 -6,-52 0,-22 2,-41 8,-57 5,-16 13,-29 22,-39 10,-10 21,-18 33,-23 13,-4 27,-7 42,-7 7,0 14,1 21,2 7,1 13,3 19,5 5,2 10,5 15,8 4,3 8,5 10,7 2,2 3,4 4,5 0,1 1,2 1,4 1,1 1,3 1,5 1,2 1,5 1,8 0,6 -1,11 -3,14 -1,2 -3,3 -5,3 -2,0 -5,-1 -9,-4 -3,-3 -7,-6 -12,-9 -5,-3 -11,-6 -18,-9 -7,-3 -16,-4 -26,-4 -20,0 -34,8 -45,23 -11,15 -16,37 -16,66 0,15 1,28 4,38 3,12 7,21 12,28 5,7 12,13 20,16 7,4 17,6 27,6 9,0 18,-2 25,-5 7,-3 13,-6 18,-10 6,-3 10,-6 14,-10 3,-2 6,-4 8,-4 1,0 2,0 3,1 1,1 1,2 2,3 1,2 1,4 1,7 0,2 1,5 1,8zm225 35c0,2 -1,3 -2,4 -2,1 -3,2 -6,3 -2,0 -6,0 -10,0 -4,0 -8,0 -10,0 -3,-1 -5,-2 -6,-3 -1,-1 -2,-2 -2,-4l0 -23c-10,11 -21,19 -33,25 -12,6 -25,8 -38,8 -12,0 -23,-1 -32,-4 -10,-3 -18,-8 -25,-13 -7,-6 -12,-13 -16,-22 -4,-9 -6,-18 -6,-29 0,-13 3,-24 8,-33 5,-9 13,-17 23,-23 9,-7 21,-11 35,-15 14,-3 30,-4 47,-4l32 0 0 -18c0,-8 -1,-16 -3,-23 -2,-6 -5,-12 -9,-16 -4,-5 -9,-8 -16,-11 -7,-2 -14,-3 -24,-3 -11,0 -19,1 -27,4 -9,3 -16,5 -22,8 -6,3 -11,5 -15,8 -4,3 -7,4 -9,4 -2,0 -3,-1 -4,-1 -1,-1 -2,-2 -2,-4 -1,-1 -2,-3 -2,-5 0,-2 -1,-4 -1,-6 0,-5 1,-8 1,-10 1,-3 2,-5 5,-7 2,-2 6,-5 11,-8 6,-3 12,-6 19,-8 7,-2 16,-4 24,-6 9,-1 17,-2 26,-2 16,0 30,2 41,5 11,4 21,9 28,17 6,6 11,15 15,26 3,10 5,22 5,37l0 152zm-41 -103l-36 0c-11,0 -21,1 -29,3 -9,2 -15,4 -21,8 -6,4 -10,8 -12,14 -3,5 -4,11 -4,18 0,11 4,21 11,28 8,7 18,10 31,10 11,0 21,-2 30,-8 10,-6 19,-14 30,-25l0 -48zm311 103c0,1 0,2 -1,3 -1,1 -2,2 -3,2 -2,1 -4,1 -7,2 -3,0 -6,0 -10,0 -4,0 -7,0 -10,0 -3,-1 -5,-1 -6,-2 -2,0 -3,-1 -3,-2 -1,-1 -1,-2 -1,-3l0 -133c0,-13 -1,-23 -3,-31 -2,-7 -6,-15 -9,-20 -4,-6 -9,-10 -15,-13 -6,-3 -13,-5 -22,-5 -10,0 -20,4 -30,12 -11,7 -22,18 -33,32l0 158c0,1 0,2 -1,3 -1,1 -2,2 -3,2 -2,1 -4,1 -6,2 -3,0 -7,0 -11,0 -4,0 -7,0 -10,0 -3,-1 -5,-1 -6,-2 -2,0 -3,-1 -3,-2 -1,-1 -1,-2 -1,-3l0 -226c0,-1 0,-3 0,-3 1,-1 2,-2 3,-3 2,-1 4,-1 6,-1 3,-1 6,-1 9,-1 4,0 7,0 9,1 3,0 5,0 6,1 2,1 3,2 3,3 1,0 1,2 1,3l0 30c12,-14 25,-25 38,-31 12,-7 25,-10 38,-10 15,0 28,2 38,7 10,5 19,12 25,21 6,8 11,18 14,30 3,11 4,25 4,41l0 138zm192 -17c0,5 0,9 -1,12 0,2 -1,5 -3,6 -1,1 -3,2 -5,3 -3,2 -6,3 -10,3 -3,1 -7,2 -11,2 -4,1 -7,1 -11,1 -12,0 -22,-2 -30,-5 -9,-3 -15,-7 -21,-13 -5,-7 -9,-15 -11,-25 -3,-9 -4,-20 -4,-34l0 -131 -32 0c-2,0 -4,-2 -5,-4 -2,-3 -3,-7 -3,-13 0,-4 0,-6 0,-8 1,-3 1,-4 3,-6 0,-1 1,-2 2,-3 1,0 2,0 4,0l31 0 0 -54c0,-1 0,-2 1,-3 1,-1 2,-2 3,-3 2,-1 4,-1 6,-2 3,0 6,0 11,0 4,0 7,0 10,0 2,1 4,1 6,2 1,1 3,2 3,3 1,1 1,2 1,3l0 54 58 0c2,0 3,0 4,0 1,1 2,2 2,3 1,2 2,3 2,6 0,2 0,4 0,8 0,6 0,10 -2,13 -1,2 -3,4 -6,4l-58 0 0 126c0,15 3,27 7,35 5,8 13,12 25,12 3,0 7,0 10,-2 3,0 6,-1 8,-2 2,-1 4,-2 6,-2 2,-1 3,-1 5,-1 1,0 1,0 2,0 1,1 1,1 2,3 0,1 1,2 1,5 0,2 0,4 0,7zm248 -106c0,7 -2,11 -5,14 -4,2 -7,4 -11,4l-149 0c0,13 2,24 5,34 2,10 6,18 12,26 6,7 13,12 23,16 9,4 20,6 34,6 11,0 20,-1 29,-2 8,-3 16,-5 21,-7 6,-2 12,-4 15,-5 4,-2 7,-3 9,-3 1,0 2,0 3,1 1,0 2,1 2,2 1,2 1,3 2,5 0,2 0,5 0,8 0,2 0,4 0,6 -1,1 -1,3 -1,4 0,1 -1,2 -1,3 -1,1 -2,3 -2,3 -1,1 -4,3 -8,5 -5,2 -11,4 -18,6 -7,2 -16,4 -25,5 -9,2 -19,2 -30,2 -19,0 -35,-2 -49,-7 -14,-5 -26,-13 -35,-23 -10,-11 -17,-23 -21,-39 -6,-15 -8,-33 -8,-53 0,-20 2,-37 8,-53 5,-15 12,-28 21,-39 10,-11 21,-19 34,-25 14,-5 29,-8 45,-8 18,0 33,3 46,8 12,6 22,14 30,23 8,10 14,21 18,34 4,13 6,27 6,41l0 8zm-42 -12c1,-22 -4,-39 -14,-52 -11,-12 -25,-18 -45,-18 -11,0 -19,2 -27,6 -8,4 -15,9 -20,15 -5,7 -9,14 -12,22 -2,9 -4,17 -5,27l123 0zm323 14c0,7 -1,11 -3,14 -2,3 -4,4 -7,4l-104 0c-4,0 -6,-1 -7,-5 -2,-2 -2,-6 -2,-13 0,-6 0,-11 2,-13 1,-2 3,-4 7,-4l104 0c2,0 3,1 4,1 1,1 2,1 3,3 1,1 2,3 2,5 0,2 1,5 1,8zm350 36c0,15 -3,29 -9,40 -5,12 -13,22 -23,31 -10,8 -21,14 -35,18 -13,4 -28,6 -43,6 -12,0 -21,0 -30,-2 -10,-2 -18,-4 -26,-7 -7,-3 -13,-5 -18,-8 -5,-3 -8,-6 -10,-8 -2,-2 -3,-4 -5,-7 0,-3 -1,-8 -1,-13 0,-3 0,-6 1,-9 0,-2 0,-4 2,-6 0,-1 1,-2 2,-3 1,0 2,-1 3,-1 3,0 6,2 10,4 5,4 10,7 17,10 7,3 14,6 24,9 9,3 20,4 32,4 10,0 18,-1 27,-3 7,-3 14,-6 20,-11 5,-4 9,-10 12,-17 3,-6 5,-14 5,-22 0,-10 -3,-17 -7,-24 -4,-7 -9,-12 -16,-17 -7,-5 -14,-10 -24,-14 -8,-4 -17,-8 -26,-12 -10,-4 -18,-9 -27,-15 -9,-5 -17,-11 -24,-17 -6,-8 -12,-16 -16,-26 -4,-9 -7,-20 -7,-33 0,-14 3,-26 8,-36 5,-11 12,-20 21,-27 8,-7 18,-13 31,-17 11,-4 25,-5 39,-5 7,0 14,0 22,1 7,2 14,3 20,6 7,2 12,4 17,7 5,2 8,4 10,6 2,1 3,3 3,4 1,0 1,2 2,3 0,2 0,3 0,5 1,2 1,5 1,8 0,3 0,6 -1,8 0,3 0,4 -1,6 0,2 -1,3 -2,3 -1,1 -2,2 -3,2 -2,0 -5,-2 -9,-4 -4,-2 -8,-5 -14,-8 -6,-3 -12,-6 -21,-8 -7,-2 -16,-3 -26,-3 -9,0 -17,1 -23,3 -7,2 -12,6 -17,10 -4,4 -8,9 -10,14 -2,6 -3,11 -3,18 0,9 2,16 7,23 4,7 9,12 17,17 6,5 14,10 23,14 9,4 18,9 27,13 9,4 18,9 27,13 9,6 17,12 24,19 7,7 12,15 17,24 4,10 6,21 6,34zm265 -32c0,20 -2,38 -7,54 -4,15 -10,28 -19,40 -8,10 -18,19 -30,25 -13,6 -27,8 -42,8 -7,0 -13,0 -18,-2 -7,-1 -12,-3 -17,-6 -6,-2 -11,-6 -16,-10 -6,-5 -12,-10 -18,-16l0 113c0,2 0,3 -1,4 0,1 -1,2 -3,2 -1,1 -3,1 -6,2 -3,0 -6,0 -10,0 -4,0 -8,0 -11,0 -2,-1 -4,-1 -6,-2 -1,0 -2,-1 -3,-2 -1,-1 -1,-2 -1,-4l0 -315c0,-2 0,-3 1,-4 0,-1 1,-1 3,-2 1,-1 3,-1 5,-1 3,-1 6,-1 9,-1 4,0 6,0 9,1 2,0 4,0 6,1 1,1 2,1 3,2 0,1 1,2 1,4l0 30c6,-7 13,-13 19,-18 7,-5 13,-10 20,-13 6,-3 12,-6 19,-8 7,-1 14,-2 22,-2 16,0 30,3 41,9 12,7 21,15 28,26 8,11 13,24 16,39 4,14 6,30 6,46zm-44 5c0,-12 -1,-23 -3,-34 -1,-10 -4,-20 -9,-28 -4,-9 -10,-15 -17,-20 -7,-5 -16,-8 -27,-8 -5,0 -10,1 -15,2 -5,2 -11,5 -16,8 -5,4 -11,8 -17,13 -6,6 -12,13 -19,22l0 89c12,14 22,25 33,32 10,7 21,11 32,11 10,0 19,-3 27,-8 7,-5 13,-12 18,-20 4,-8 8,-17 10,-28 2,-10 3,-20 3,-31zm276 112c0,2 -1,3 -3,4 -1,1 -2,2 -5,3 -2,0 -6,0 -10,0 -4,0 -8,0 -11,0 -2,-1 -4,-2 -5,-3 -1,-1 -2,-2 -2,-4l0 -23c-10,11 -21,19 -33,25 -12,6 -25,8 -39,8 -12,0 -22,-1 -31,-4 -10,-3 -18,-8 -25,-13 -7,-6 -13,-13 -16,-22 -4,-9 -6,-18 -6,-29 0,-13 3,-24 8,-33 5,-9 13,-17 23,-23 9,-7 21,-11 35,-15 14,-3 30,-4 47,-4l31 0 0 -18c0,-8 -1,-16 -2,-23 -2,-6 -5,-12 -9,-16 -4,-5 -9,-8 -16,-11 -7,-2 -15,-3 -24,-3 -11,0 -19,1 -28,4 -8,3 -15,5 -21,8 -6,3 -11,5 -15,8 -5,3 -7,4 -9,4 -2,0 -3,-1 -4,-1 -1,-1 -2,-2 -2,-4 -1,-1 -2,-3 -2,-5 0,-2 -1,-4 -1,-6 0,-5 1,-8 1,-10 1,-3 2,-5 5,-7 2,-2 5,-5 11,-8 6,-3 12,-6 19,-8 7,-2 15,-4 24,-6 8,-1 17,-2 26,-2 16,0 30,2 41,5 11,4 20,9 28,17 6,6 11,15 15,26 3,10 5,22 5,37l0 152zm-42 -103l-35 0c-11,0 -21,1 -30,3 -8,2 -15,4 -20,8 -6,4 -10,8 -12,14 -3,5 -4,11 -4,18 0,11 4,21 11,28 7,7 18,10 31,10 11,0 21,-2 30,-8 10,-6 19,-14 29,-25l0 -48zm159 103c0,1 0,2 -1,3 -1,1 -2,2 -3,2 -2,1 -4,1 -7,2 -2,0 -6,0 -10,0 -4,0 -7,0 -10,0 -3,-1 -5,-1 -6,-2 -2,0 -3,-1 -3,-2 -1,-1 -1,-2 -1,-3l0 -226c0,-1 0,-2 1,-3 0,-1 1,-2 3,-3 1,0 3,-1 6,-1 3,-1 6,-1 10,-1 4,0 8,0 10,1 3,0 5,1 7,1 1,1 2,2 3,3 1,1 1,2 1,3l0 226zm5 -302c0,10 -2,16 -6,19 -3,4 -10,6 -20,6 -10,0 -16,-2 -20,-5 -3,-4 -6,-10 -6,-20 0,-9 3,-16 6,-20 4,-3 10,-5 20,-5 10,0 17,2 20,5 4,4 6,10 6,20zm266 302c0,1 0,2 -1,3 -1,1 -2,2 -3,2 -2,1 -4,1 -7,2 -3,0 -6,0 -10,0 -4,0 -8,0 -10,0 -3,-1 -5,-1 -6,-2 -2,0 -3,-1 -3,-2 -1,-1 -1,-2 -1,-3l0 -133c0,-13 -1,-23 -3,-31 -2,-7 -6,-15 -9,-20 -4,-6 -9,-10 -15,-13 -6,-3 -13,-5 -22,-5 -10,0 -20,4 -30,12 -11,7 -22,18 -33,32l0 158c0,1 0,2 -1,3 -1,1 -2,2 -3,2 -2,1 -4,1 -7,2 -2,0 -6,0 -10,0 -4,0 -7,0 -10,0 -3,-1 -5,-1 -6,-2 -2,0 -3,-1 -3,-2 -1,-1 -1,-2 -1,-3l0 -226c0,-1 0,-3 0,-3 1,-1 2,-2 3,-3 2,-1 4,-1 6,-1 3,-1 6,-1 9,-1 4,0 7,0 9,1 3,0 5,0 6,1 2,1 3,2 3,3 1,0 1,2 1,3l0 30c12,-14 25,-25 38,-31 12,-7 25,-10 38,-10 15,0 28,2 38,7 10,5 19,12 25,21 6,8 11,18 14,30 3,11 4,25 4,41l0 138z"/>
  <path class="fil0" d="M1199 6281c0,3 0,5 -1,7 0,2 0,4 0,5 -1,1 -2,3 -2,4 -1,1 -2,2 -3,4 -3,2 -6,5 -11,8 -5,3 -12,7 -20,10 -8,3 -17,6 -28,8 -10,3 -21,4 -33,4 -21,0 -41,-4 -57,-11 -17,-7 -32,-17 -44,-31 -11,-14 -21,-31 -27,-51 -7,-20 -10,-43 -10,-69 0,-27 3,-51 11,-72 6,-21 16,-39 29,-54 12,-14 27,-25 45,-33 17,-8 37,-12 58,-12 9,0 18,1 27,3 9,2 17,4 25,6 7,3 14,7 20,10 6,3 10,6 12,8 2,3 3,5 4,5 1,2 1,3 2,5 0,1 0,3 1,5 0,3 1,5 1,8 0,4 -1,6 -1,9 -1,2 -1,4 -2,6 -1,1 -1,2 -2,3 -1,1 -2,2 -4,2 -2,0 -5,-3 -9,-6 -4,-3 -10,-6 -16,-10 -7,-5 -15,-8 -24,-11 -10,-3 -21,-5 -34,-5 -15,0 -28,3 -40,8 -12,7 -21,15 -30,26 -8,11 -15,25 -19,41 -5,16 -7,34 -7,55 0,21 2,39 6,55 5,15 11,29 19,39 9,11 19,19 31,25 12,5 26,8 41,8 13,0 24,-2 34,-5 9,-3 18,-7 24,-11 7,-4 13,-7 17,-10 4,-3 7,-6 10,-6 1,0 2,1 3,1 1,1 1,2 2,4 1,1 1,3 1,5 1,3 1,6 1,10zm100 39c0,2 -1,3 -1,4 -1,1 -2,2 -4,2 -1,1 -4,1 -7,2 -2,0 -6,0 -10,0 -4,0 -7,0 -10,0 -3,-1 -5,-1 -7,-2 -1,0 -3,-1 -3,-2 -1,-1 -1,-2 -1,-4l0 -311c0,-2 0,-3 1,-4 1,-1 2,-2 4,-2 1,-1 3,-1 6,-2 3,0 6,0 10,0 4,0 8,0 10,0 3,1 6,1 7,2 2,0 3,1 4,2 0,1 1,2 1,4l0 311zm256 -299c0,3 0,6 0,8 -1,2 -1,5 -2,6 -1,1 -2,2 -3,3 -1,1 -2,1 -3,1l-119 0 0 110 113 0c0,0 1,1 3,1 1,1 2,2 3,3 1,1 1,3 1,5 1,2 1,6 1,9 0,3 0,6 -1,8 0,2 0,4 -1,5 -1,2 -2,3 -3,4 -2,1 -3,1 -3,1l-113 0 0 135c0,1 0,3 -1,4 0,1 -2,2 -4,2 -1,1 -3,1 -6,2 -3,0 -6,0 -10,0 -5,0 -8,0 -11,0 -2,-1 -5,-1 -6,-2 -2,0 -4,-1 -4,-2 -1,-1 -1,-3 -1,-4l0 -300c0,-6 1,-11 5,-14 4,-2 7,-4 11,-4l146 0c1,0 2,1 3,1 1,1 2,2 3,3 1,2 1,4 2,7 0,2 0,5 0,8zm115 278c0,12 -2,20 -6,24 -4,4 -11,6 -21,6 -11,0 -17,-2 -21,-6 -4,-3 -6,-11 -6,-23 0,-12 2,-19 6,-24 4,-4 11,-5 21,-5 10,0 17,1 21,5 4,4 6,12 6,23zm440 12c1,4 2,7 2,9 0,3 -1,4 -2,5 -1,2 -3,2 -6,3 -3,0 -7,0 -13,0 -5,0 -9,0 -13,0 -2,0 -5,-1 -6,-1 -2,-1 -3,-2 -4,-3 -1,-1 -1,-2 -2,-3l-28 -79 -135 0 -26 78c-1,1 -1,2 -2,3 -1,1 -2,2 -4,3 -1,1 -3,1 -7,2 -3,0 -6,0 -11,0 -5,0 -9,0 -12,0 -3,-1 -5,-2 -6,-3 -2,-1 -2,-3 -2,-5 0,-2 1,-5 2,-9l108 -301c1,-2 2,-4 4,-5 1,-1 2,-2 4,-2 2,-1 5,-2 8,-2 4,0 8,0 13,0 5,0 10,0 13,0 3,0 6,1 8,2 2,0 4,1 5,2 1,2 2,3 3,5l109 301zm-140 -266l0 0 -56 162 113 0 -57 -162zm291 155c0,7 -1,11 -2,14 -2,2 -4,3 -7,3l-105 0c-3,0 -5,-1 -6,-4 -2,-2 -2,-6 -2,-13 0,-6 0,-11 2,-13 1,-2 3,-4 6,-4l105 0c2,0 3,0 4,1 1,1 2,1 3,3 0,1 1,3 1,5 1,2 1,5 1,8zm247 22c0,18 -2,33 -8,47 -6,13 -14,25 -25,34 -11,9 -24,17 -39,21 -14,5 -30,7 -49,7 -10,0 -19,0 -28,-2 -9,-1 -17,-3 -24,-5 -7,-2 -13,-4 -18,-6 -4,-2 -7,-4 -8,-5 -2,-1 -3,-2 -3,-3 -1,-1 -1,-2 -1,-4 -1,-1 -1,-3 -1,-5 0,-3 -1,-5 -1,-8 0,-3 1,-5 1,-7 0,-3 1,-4 1,-6 1,-2 2,-3 2,-3 2,-1 3,-1 4,-1 2,0 4,1 8,3 3,2 8,4 14,7 6,2 13,4 22,7 8,2 19,3 31,3 11,0 22,-2 31,-4 9,-3 17,-7 24,-13 7,-5 12,-12 16,-21 4,-9 6,-19 6,-31 0,-11 -2,-20 -5,-28 -3,-8 -8,-14 -15,-20 -7,-5 -15,-9 -26,-11 -10,-3 -23,-4 -37,-4 -10,0 -19,0 -26,1 -8,1 -15,1 -21,1 -4,0 -8,-1 -10,-2 -2,-3 -3,-7 -3,-13l0 -132c0,-6 1,-10 4,-13 3,-2 6,-4 11,-4l144 0c1,0 3,1 4,1 1,1 2,2 3,4 1,1 1,3 2,6 0,2 0,5 0,8 0,6 0,10 -2,14 -2,3 -4,5 -7,5l-121 0 0 91c5,-1 12,-1 18,-1 6,-1 13,-1 21,-1 18,0 35,2 49,7 14,4 25,11 34,19 9,7 16,18 21,29 5,12 7,24 7,38zm260 12c0,15 -3,28 -8,40 -5,12 -13,22 -22,31 -10,8 -22,15 -36,20 -15,4 -30,6 -49,6 -10,0 -20,0 -30,-2 -10,-2 -18,-4 -25,-6 -8,-3 -13,-6 -18,-8 -5,-3 -8,-4 -10,-6 -1,-1 -2,-2 -2,-3 -1,-1 -2,-3 -2,-5 -1,-1 -1,-3 -1,-6 0,-2 -1,-5 -1,-8 0,-6 1,-11 2,-13 1,-2 3,-3 5,-3 1,0 4,1 9,3 5,3 10,6 17,9 7,3 15,6 24,9 10,2 20,4 31,4 11,0 21,-2 29,-4 9,-3 16,-7 21,-13 6,-5 11,-11 13,-18 3,-7 5,-15 5,-23 0,-9 -2,-18 -6,-25 -4,-8 -9,-14 -16,-19 -7,-5 -15,-9 -25,-12 -10,-3 -22,-5 -35,-5l-31 0c-1,0 -2,0 -3,0 -2,-1 -3,-2 -4,-3 0,-2 -1,-3 -2,-5 0,-3 -1,-5 -1,-9 0,-3 1,-6 1,-8 1,-2 1,-3 2,-5 1,-1 2,-2 3,-3 1,0 3,-1 4,-1l29 0c11,0 21,-1 29,-4 9,-3 16,-7 22,-12 7,-6 11,-12 15,-19 3,-8 4,-16 4,-25 0,-7 -1,-13 -3,-20 -2,-5 -5,-11 -9,-16 -5,-4 -10,-7 -17,-10 -7,-2 -15,-4 -24,-4 -9,0 -18,2 -26,5 -8,2 -16,5 -22,9 -6,4 -11,7 -16,9 -4,3 -7,5 -8,5 -2,0 -3,-1 -3,-1 -1,0 -3,-1 -3,-2 -1,-2 -1,-3 -1,-6 -1,-2 -1,-5 -1,-9 0,-2 0,-4 0,-6 1,-2 1,-4 1,-6 1,-1 2,-2 3,-3 0,-1 1,-3 3,-4 1,-2 5,-4 9,-7 6,-3 11,-6 18,-9 7,-3 16,-5 25,-7 9,-2 19,-3 30,-3 15,0 28,2 39,5 12,4 21,10 29,17 8,6 13,15 17,25 4,10 6,20 6,32 0,10 -2,20 -5,28 -2,10 -6,17 -11,24 -6,7 -12,12 -19,18 -8,4 -16,7 -27,9l0 1c12,1 22,4 31,8 9,5 18,10 24,17 7,7 12,14 16,23 4,9 6,19 6,29zm263 76c0,3 0,5 -1,7 0,3 -1,5 -2,6 0,1 -1,2 -2,3 -1,0 -3,1 -4,1l-169 0c-1,0 -2,-1 -3,-1 -1,-1 -2,-2 -3,-3 -1,-1 -2,-3 -2,-6 -1,-2 -2,-4 -2,-7 0,-3 1,-6 2,-8 0,-3 1,-4 2,-6 0,-1 1,-2 2,-3 1,-1 2,-1 4,-1l67 0 0 -247 -62 38c-3,1 -6,2 -8,3 -2,0 -3,0 -4,-2 -1,-1 -3,-2 -3,-5 -1,-2 -1,-5 -1,-9 0,-3 0,-6 1,-8 0,-2 0,-3 1,-4 1,-2 1,-3 2,-4 1,-1 2,-2 4,-3l75 -48c0,0 1,-1 2,-1 1,-1 2,-1 4,-1 1,-1 3,-1 5,-1 2,0 5,0 8,0 4,0 7,0 9,1 3,0 6,0 7,1 1,0 2,1 3,2 0,1 1,2 1,3l0 285 58 0c2,0 3,0 4,1 1,1 2,2 3,3 1,2 1,3 2,6 0,2 0,5 0,8zm268 -89c0,15 -2,29 -6,42 -5,13 -12,25 -20,35 -10,10 -21,18 -35,24 -14,6 -30,9 -49,9 -13,0 -26,-1 -36,-5 -10,-3 -20,-8 -27,-14 -8,-6 -14,-14 -19,-23 -5,-8 -9,-19 -13,-31 -2,-11 -5,-24 -6,-38 -1,-13 -2,-28 -2,-44 0,-14 1,-27 2,-42 2,-14 5,-28 8,-41 4,-13 9,-25 16,-37 7,-12 15,-22 25,-30 10,-9 22,-16 36,-21 13,-5 29,-7 48,-7 6,0 12,0 19,1 6,1 12,2 17,3 5,1 10,2 14,4 3,1 6,3 7,3 1,1 2,3 2,4 1,1 2,2 2,3 0,2 0,3 1,4 0,2 0,4 0,6 0,4 0,6 0,8 0,2 -1,4 -1,5 -1,2 -2,3 -2,3 -1,1 -3,1 -4,1 -2,0 -4,0 -8,-1 -2,-2 -7,-3 -11,-4 -4,-2 -10,-3 -17,-4 -6,-2 -14,-2 -22,-2 -16,0 -29,3 -40,10 -11,6 -20,15 -28,26 -7,10 -12,23 -15,36 -3,15 -6,29 -6,45 4,-3 9,-6 14,-8 6,-2 12,-5 18,-7 7,-2 14,-3 21,-4 7,-2 15,-3 23,-3 17,0 32,3 44,8 12,4 22,11 29,20 8,8 13,18 16,30 3,11 5,23 5,36zm-44 5c0,-10 0,-19 -2,-27 -2,-8 -5,-14 -10,-20 -5,-5 -11,-10 -18,-13 -8,-2 -17,-4 -28,-4 -6,0 -12,0 -18,2 -7,0 -13,2 -18,4 -6,2 -12,4 -17,7 -5,2 -10,5 -15,8 0,21 2,39 4,54 4,15 8,27 13,35 5,9 12,15 19,19 8,4 17,5 28,5 11,0 20,-2 28,-5 7,-4 14,-10 19,-17 5,-6 10,-14 12,-22 2,-9 3,-18 3,-26zm294 -4c0,18 -2,33 -8,47 -6,13 -14,25 -25,34 -11,9 -24,17 -38,21 -15,5 -31,7 -50,7 -10,0 -19,0 -28,-2 -9,-1 -17,-3 -24,-5 -7,-2 -13,-4 -18,-6 -4,-2 -7,-4 -8,-5 -1,-1 -2,-2 -3,-3 0,-1 -1,-2 -1,-4 0,-1 -1,-3 -1,-5 0,-3 0,-5 0,-8 0,-3 0,-5 0,-7 1,-3 1,-4 2,-6 0,-2 1,-3 2,-3 1,-1 2,-1 3,-1 2,0 4,1 8,3 4,2 8,4 14,7 6,2 13,4 22,7 9,2 19,3 31,3 12,0 22,-2 31,-4 9,-3 17,-7 24,-13 7,-5 12,-12 16,-21 4,-9 6,-19 6,-31 0,-11 -2,-20 -5,-28 -3,-8 -8,-14 -15,-20 -7,-5 -15,-9 -26,-11 -10,-3 -23,-4 -37,-4 -10,0 -19,0 -26,1 -7,1 -15,1 -21,1 -4,0 -8,-1 -10,-2 -2,-3 -3,-7 -3,-13l0 -132c0,-6 1,-10 4,-13 3,-2 6,-4 11,-4l144 0c1,0 3,1 4,1 1,1 2,2 3,4 1,1 1,3 2,6 0,2 0,5 0,8 0,6 0,10 -2,14 -2,3 -4,5 -7,5l-121 0 0 91c6,-1 12,-1 18,-1 6,-1 13,-1 21,-1 18,0 35,2 49,7 14,4 25,11 34,19 9,7 17,18 21,29 5,12 7,24 7,38zm270 22c0,13 -3,26 -8,37 -5,11 -12,20 -21,28 -10,7 -21,13 -35,17 -14,4 -30,5 -48,5 -16,0 -32,-1 -45,-5 -13,-3 -24,-9 -34,-15 -9,-7 -15,-16 -21,-26 -4,-10 -7,-21 -7,-34 0,-10 2,-20 5,-28 3,-9 9,-16 15,-24 6,-7 14,-13 23,-20 9,-6 19,-12 31,-18 -10,-5 -19,-10 -27,-16 -7,-6 -14,-12 -19,-19 -6,-7 -9,-14 -12,-22 -3,-7 -4,-16 -4,-25 0,-11 2,-22 6,-32 4,-10 10,-18 18,-26 8,-7 19,-13 32,-17 13,-4 28,-6 45,-6 16,0 30,2 42,5 12,4 22,10 30,17 7,6 13,14 17,23 4,10 5,19 5,30 0,8 -1,16 -4,25 -2,7 -7,15 -12,22 -5,7 -12,14 -20,19 -8,6 -16,12 -26,18 11,5 22,12 31,18 10,6 17,13 24,20 6,7 11,14 14,22 3,8 5,17 5,27zm-55 -167c0,-7 -1,-13 -3,-19 -2,-6 -6,-11 -10,-15 -5,-4 -11,-7 -18,-9 -7,-2 -15,-3 -24,-3 -18,0 -31,4 -41,12 -9,9 -13,20 -13,34 0,6 1,12 3,18 2,6 5,11 10,16 5,5 11,10 18,15 8,5 16,10 26,15 17,-9 30,-19 39,-29 9,-11 13,-23 13,-35zm11 171c0,-8 -1,-15 -4,-21 -3,-6 -7,-12 -13,-17 -6,-6 -13,-11 -21,-16 -9,-5 -19,-11 -30,-16 -11,5 -20,10 -28,15 -8,5 -15,11 -20,16 -5,6 -8,11 -11,18 -3,6 -4,12 -4,20 0,16 6,29 17,38 11,8 28,13 49,13 22,0 38,-5 49,-13 11,-10 16,-21 16,-37zm295 -26c0,18 -3,33 -9,47 -5,13 -14,25 -24,34 -11,9 -24,17 -39,21 -14,5 -31,7 -49,7 -10,0 -20,0 -28,-2 -10,-1 -17,-3 -25,-5 -7,-2 -12,-4 -17,-6 -5,-2 -7,-4 -9,-5 -1,-1 -2,-2 -2,-3 -1,-1 -1,-2 -1,-4 -1,-1 -1,-3 -1,-5 0,-3 -1,-5 -1,-8 0,-3 1,-5 1,-7 0,-3 1,-4 1,-6 1,-2 2,-3 2,-3 1,-1 2,-1 4,-1 1,0 4,1 8,3 3,2 8,4 13,7 7,2 14,4 22,7 9,2 20,3 32,3 11,0 21,-2 31,-4 9,-3 17,-7 24,-13 6,-5 12,-12 16,-21 4,-9 5,-19 5,-31 0,-11 -1,-20 -4,-28 -4,-8 -9,-14 -15,-20 -7,-5 -16,-9 -26,-11 -11,-3 -23,-4 -37,-4 -11,0 -19,0 -27,1 -7,1 -14,1 -20,1 -5,0 -8,-1 -10,-2 -2,-3 -3,-7 -3,-13l0 -132c0,-6 1,-10 4,-13 2,-2 6,-4 11,-4l144 0c1,0 2,1 3,1 2,1 3,2 3,4 1,1 2,3 2,6 1,2 1,5 1,8 0,6 -1,10 -3,14 -1,3 -3,5 -6,5l-121 0 0 91c5,-1 11,-1 17,-1 7,-1 13,-1 22,-1 18,0 34,2 48,7 14,4 25,11 35,19 9,7 16,18 21,29 5,12 7,24 7,38zm269 22c0,13 -2,26 -7,37 -5,11 -12,20 -22,28 -9,7 -21,13 -35,17 -14,4 -30,5 -47,5 -17,0 -32,-1 -45,-5 -13,-3 -25,-9 -34,-15 -9,-7 -16,-16 -21,-26 -5,-10 -7,-21 -7,-34 0,-10 1,-20 5,-28 3,-9 8,-16 14,-24 7,-7 14,-13 23,-20 10,-6 20,-12 32,-18 -11,-5 -19,-10 -27,-16 -8,-6 -14,-12 -19,-19 -6,-7 -10,-14 -13,-22 -2,-7 -4,-16 -4,-25 0,-11 2,-22 6,-32 4,-10 11,-18 19,-26 8,-7 19,-13 32,-17 12,-4 27,-6 44,-6 17,0 31,2 43,5 12,4 21,10 29,17 8,6 14,14 18,23 3,10 5,19 5,30 0,8 -1,16 -5,25 -2,7 -6,15 -11,22 -6,7 -12,14 -20,19 -8,6 -17,12 -27,18 12,5 23,12 32,18 9,6 17,13 24,20 6,7 10,14 13,22 4,8 5,17 5,27zm-54 -167c0,-7 -1,-13 -3,-19 -3,-6 -6,-11 -11,-15 -5,-4 -11,-7 -17,-9 -7,-2 -15,-3 -24,-3 -18,0 -32,4 -41,12 -9,9 -14,20 -14,34 0,6 1,12 3,18 3,6 6,11 11,16 5,5 11,10 18,15 7,5 16,10 26,15 17,-9 29,-19 39,-29 9,-11 13,-23 13,-35zm11 171c0,-8 -2,-15 -4,-21 -3,-6 -8,-12 -14,-17 -5,-6 -12,-11 -21,-16 -8,-5 -19,-11 -30,-16 -10,5 -19,10 -28,15 -7,5 -14,11 -19,16 -5,6 -9,11 -11,18 -3,6 -5,12 -5,20 0,16 6,29 17,38 11,8 28,13 50,13 21,0 38,-5 48,-13 11,-10 17,-21 17,-37z"/>
 </g>
</svg>
