<?xml version="1.0" encoding="UTF-8"?>
<!DOCTYPE svg PUBLIC "-//W3C//DTD SVG 1.0//EN" "http://www.w3.org/TR/2001/REC-SVG-20010904/DTD/svg10.dtd">
<!-- Creator: CorelDRAW X7 -->
<svg xmlns="http://www.w3.org/2000/svg" xml:space="preserve" width="80mm" height="36.6598mm" version="1.0" style="shape-rendering:geometricPrecision; text-rendering:geometricPrecision; image-rendering:optimizeQuality; fill-rule:evenodd; clip-rule:evenodd"
viewBox="0 0 8000 3666"
 xmlns:xlink="http://www.w3.org/1999/xlink">
 <defs>
  <style type="text/css">
   <![CDATA[
    .str0 {stroke:#E31E24;stroke-width:20;stroke-dasharray:84.660000 84.660000}
    .fil1 {fill:none;fill-rule:nonzero}
    .fil0 {fill:#2B2A29;fill-rule:nonzero}
   ]]>
  </style>
 </defs>
 <g id="Capa_x0020_1">
  <metadata id="CorelCorpID_0Corel-Layer"/>
  <path class="fil0" d="M764 825c-1,4 -2,7 -3,9 -1,2 -3,3 -5,5 -3,0 -6,1 -10,2 -4,0 -8,0 -15,0 -6,0 -11,0 -16,0 -4,-1 -7,-2 -9,-2 -3,-2 -4,-3 -5,-5 -1,-2 -2,-5 -3,-9l-36 -174 0 0 -35 174c-1,4 -1,7 -2,9 -2,1 -3,3 -6,4 -2,1 -5,2 -9,3 -3,0 -9,0 -15,0 -7,0 -13,0 -17,0 -4,-1 -7,-2 -9,-2 -2,-2 -4,-3 -5,-5 -1,-2 -2,-5 -3,-9l-52 -240c0,-5 -1,-9 -1,-12 0,-3 0,-5 2,-7 1,-1 4,-2 7,-3 3,0 8,0 14,0 5,0 10,0 13,0 3,0 6,1 7,2 2,1 3,2 4,3 0,2 1,4 1,7l40 210 0 0 41 -209c1,-3 2,-5 3,-7 0,-1 1,-3 3,-3 2,-1 5,-2 8,-3 3,0 7,0 12,0 6,0 10,0 14,0 3,1 6,1 8,2 1,1 3,2 4,4 0,2 1,4 1,7l44 209 0 0 40 -210c0,-2 1,-4 1,-6 1,-1 2,-3 4,-3 1,-1 4,-2 6,-3 4,0 8,0 13,0 5,0 9,0 12,0 3,1 5,2 6,3 2,2 3,4 2,7 0,3 -1,7 -2,13l-52 239zm291 -126c0,23 -2,43 -6,61 -5,18 -12,34 -21,46 -10,12 -21,22 -35,29 -14,7 -29,10 -47,10 -18,0 -33,-3 -46,-9 -14,-5 -25,-14 -34,-25 -8,-12 -15,-27 -19,-44 -5,-18 -7,-39 -7,-63 0,-22 3,-43 7,-60 5,-18 12,-34 21,-46 9,-12 21,-22 34,-29 14,-7 30,-10 48,-10 17,0 32,3 46,9 13,5 24,14 33,25 8,12 15,26 20,44 4,17 6,38 6,62zm-48 3c0,-15 -1,-28 -3,-40 -1,-11 -5,-22 -9,-30 -5,-8 -11,-15 -18,-20 -8,-4 -17,-7 -28,-7 -12,0 -21,3 -29,8 -7,5 -14,12 -18,21 -5,9 -9,19 -10,30 -2,12 -3,24 -3,37 0,15 1,29 3,41 1,11 5,22 9,30 4,9 10,16 18,20 8,4 17,6 28,6 12,0 21,-2 29,-7 7,-5 14,-12 18,-21 5,-9 8,-19 10,-31 2,-12 3,-24 3,-37zm256 130c0,2 0,3 -1,4 0,2 -1,3 -3,3 -2,1 -4,1 -8,2 -3,0 -8,0 -14,0 -4,0 -8,0 -11,0 -3,-1 -6,-1 -7,-2 -2,-1 -3,-2 -4,-3 -1,-1 -1,-3 -2,-4l-20 -62c-3,-7 -5,-13 -7,-18 -3,-6 -5,-10 -8,-14 -3,-4 -6,-6 -10,-8 -4,-2 -8,-3 -13,-3l-15 0 0 105c0,2 0,3 -1,4 0,1 -1,2 -3,3 -2,0 -5,1 -7,2 -3,0 -7,0 -12,0 -4,0 -8,0 -11,0 -3,-1 -5,-2 -7,-2 -2,-1 -3,-2 -4,-3 0,-1 -1,-2 -1,-4l0 -250c0,-6 2,-11 4,-13 3,-3 6,-5 10,-5l59 0c6,0 11,0 15,1 3,0 7,1 10,1 9,1 18,4 25,8 7,4 13,9 18,15 5,6 9,13 12,22 3,8 4,18 4,29 0,9 -1,18 -3,25 -1,8 -4,14 -8,20 -4,7 -9,11 -14,16 -6,5 -12,8 -19,11 4,2 7,4 10,7 3,3 5,6 8,10 3,4 5,9 8,14 2,5 4,11 6,17l19 55c2,5 4,9 4,12 1,2 1,4 1,5zm-60 -186c0,-9 -1,-17 -5,-23 -3,-6 -9,-11 -16,-13 -3,-1 -5,-2 -8,-2 -3,-1 -7,-1 -13,-1l-21 0 0 78 24 0c7,0 12,-1 17,-3 5,-2 9,-4 13,-8 3,-3 5,-7 7,-12 2,-5 2,-11 2,-16zm219 170c0,5 0,8 0,11 -1,3 -1,5 -2,7 0,2 -1,4 -2,5 -1,0 -2,1 -3,1l-104 0c-4,0 -8,-1 -10,-5 -3,-2 -4,-6 -4,-13l0 -250c0,-2 0,-3 1,-4 1,-1 2,-2 4,-2 1,-1 4,-2 7,-2 3,-1 7,-1 11,-1 5,0 8,0 12,1 2,0 5,1 6,2 2,0 4,1 4,2 1,1 1,2 1,4l0 222 72 0c1,0 2,0 3,1 1,0 2,2 2,3 1,3 1,5 2,8 0,2 0,6 0,10zm216 -118c0,25 -3,47 -8,65 -5,18 -13,32 -23,44 -10,11 -23,19 -37,25 -15,5 -33,8 -53,8l-54 0c-4,0 -7,-1 -10,-5 -2,-2 -4,-6 -4,-13l0 -240c0,-6 2,-11 4,-13 3,-3 6,-5 10,-5l58 0c20,0 38,3 52,9 14,6 26,14 36,25 9,12 17,26 22,42 5,17 7,36 7,58zm-48 2c0,-13 -1,-25 -3,-36 -3,-12 -7,-21 -12,-30 -6,-8 -13,-14 -22,-19 -9,-5 -20,-7 -34,-7l-24 0 0 187 24 0c13,0 24,-1 33,-5 8,-4 15,-10 21,-19 6,-7 10,-18 13,-29 3,-12 4,-26 4,-42zm295 -113c0,5 0,8 0,11 -1,3 -1,5 -2,7 0,2 -1,3 -2,4 -1,1 -2,1 -3,1l-74 0 0 74 70 0c1,0 2,1 2,1 1,1 2,2 3,4 0,2 1,4 1,6 0,4 1,7 1,11 0,5 -1,8 -1,11 0,3 -1,5 -1,7 -1,2 -2,3 -3,4 0,1 -1,1 -2,1l-70 0 0 103c0,1 0,3 -1,4 -1,1 -2,2 -4,3 -2,0 -4,1 -7,2 -3,0 -7,0 -12,0 -4,0 -7,0 -11,0 -3,-1 -5,-2 -7,-2 -1,-1 -3,-2 -3,-3 -1,-1 -2,-3 -2,-4l0 -250c0,-6 2,-11 4,-13 3,-3 6,-5 10,-5l107 0c1,0 2,1 3,2 1,0 2,1 2,3 1,2 1,4 2,7 0,3 0,7 0,11zm224 232c1,5 2,9 3,12 0,3 0,5 -2,7 -1,1 -3,2 -7,3 -3,0 -8,0 -13,0 -6,0 -11,0 -14,0 -4,0 -6,-1 -8,-2 -2,0 -3,-1 -3,-2 -1,-2 -2,-3 -2,-5l-15 -55 -86 0 -14 54c-1,2 -2,4 -2,5 -1,1 -2,2 -4,3 -2,1 -4,1 -7,2 -3,0 -7,0 -12,0 -6,0 -10,0 -13,0 -3,-1 -5,-2 -6,-4 -1,-1 -2,-4 -1,-7 0,-2 1,-7 2,-12l70 -244c1,-2 2,-4 3,-6 0,-1 2,-2 4,-3 2,-1 5,-2 9,-2 3,0 8,0 14,0 7,0 12,0 17,0 4,0 7,1 9,2 3,1 4,2 5,3 1,2 2,4 3,7l70 244zm-105 -202l0 0 -32 117 65 0 -33 -117zm402 215c0,2 -1,3 -1,4 -1,1 -2,2 -4,3 -1,0 -3,1 -6,2 -3,0 -7,0 -11,0 -4,0 -8,0 -11,0 -2,-1 -5,-2 -6,-2 -2,-1 -3,-2 -4,-3 0,-1 -1,-2 -1,-4l0 -224 0 0 -66 224c-1,2 -1,3 -3,4 -1,2 -2,3 -4,3 -2,1 -4,2 -7,2 -3,0 -6,0 -10,0 -4,0 -7,0 -10,0 -3,-1 -5,-1 -7,-2 -2,-1 -3,-2 -4,-3 -1,-1 -2,-3 -3,-4l-63 -224 0 0 0 224c0,2 -1,3 -1,4 -1,1 -2,2 -4,3 -2,0 -4,1 -7,2 -3,0 -6,0 -11,0 -4,0 -7,0 -10,0 -3,-1 -5,-2 -7,-2 -1,-1 -3,-2 -3,-3 -1,-1 -1,-2 -1,-4l0 -246c0,-7 1,-12 5,-16 3,-4 7,-6 12,-6l30 0c6,0 10,1 14,2 4,1 8,3 10,5 3,3 6,6 7,10 2,4 4,9 5,15l50 164 0 0 51 -164c2,-6 3,-10 5,-15 2,-4 4,-7 7,-10 2,-2 5,-4 8,-5 3,-1 7,-2 11,-2l31 0c4,0 7,1 9,2 2,1 4,2 5,4 2,2 3,4 4,7 0,3 1,6 1,9l0 246zm96 0c0,2 0,3 -1,4 -1,1 -2,2 -4,3 -2,0 -4,1 -7,2 -3,0 -7,0 -11,0 -5,0 -8,0 -12,0 -3,-1 -5,-2 -6,-2 -2,-1 -4,-2 -4,-3 -1,-1 -2,-2 -2,-4l0 -260c0,-2 1,-3 2,-4 0,-1 2,-2 4,-2 1,-1 3,-2 7,-2 3,-1 6,-1 11,-1 4,0 8,0 11,1 3,0 5,1 7,2 2,0 3,1 4,2 1,1 1,2 1,4l0 260zm175 -16c0,5 0,8 -1,11 0,3 -1,5 -1,7 -1,2 -1,4 -2,5 -1,0 -2,1 -3,1l-105 0c-4,0 -7,-1 -9,-5 -3,-2 -4,-6 -4,-13l0 -250c0,-2 0,-3 1,-4 0,-1 2,-2 4,-2 1,-1 4,-2 6,-2 4,-1 7,-1 12,-1 4,0 8,0 11,1 3,0 5,1 7,2 2,0 3,1 4,2 1,1 1,2 1,4l0 222 72 0c1,0 2,0 3,1 1,0 1,2 2,3 0,3 1,5 1,8 1,2 1,6 1,10zm119 -81l0 97c0,2 -1,3 -1,4 -1,1 -2,2 -4,3 -2,0 -4,1 -7,2 -3,0 -7,0 -11,0 -5,0 -9,0 -12,0 -3,-1 -5,-2 -7,-2 -2,-1 -3,-2 -4,-3 0,-1 -1,-2 -1,-4l0 -97 -62 -150c-2,-5 -4,-9 -4,-12 -1,-3 0,-5 1,-7 1,-1 4,-2 7,-3 4,0 9,0 15,0 6,0 10,0 13,0 4,1 6,1 8,2 2,1 3,2 4,3 1,1 2,3 3,5l25 68c2,6 5,13 8,20 2,7 4,15 7,23l0 0c2,-8 4,-15 7,-22 2,-8 5,-14 7,-21l25 -67c0,-2 1,-4 2,-5 1,-2 2,-3 4,-4 2,-1 4,-1 7,-2 3,0 7,0 12,0 7,0 12,0 16,0 3,1 6,2 7,3 2,2 2,4 1,7 0,3 -2,7 -4,12l-62 150zm223 97c0,2 -1,3 -1,4 -1,1 -2,2 -4,3 -2,0 -4,1 -7,2 -3,0 -7,0 -12,0 -4,0 -7,0 -11,0 -3,-1 -5,-2 -7,-2 -1,-1 -3,-2 -3,-3 -1,-1 -2,-2 -2,-4l0 -260c0,-2 1,-3 2,-4 0,-1 2,-2 3,-2 2,-1 4,-2 8,-2 3,-1 6,-1 10,-1 5,0 9,0 12,1 3,0 5,1 7,2 2,0 3,1 4,2 0,1 1,2 1,4l0 260zm214 -75c0,10 -1,19 -3,27 -2,8 -6,15 -9,21 -4,6 -9,11 -15,16 -5,4 -11,8 -18,11 -6,2 -13,4 -20,6 -8,1 -16,2 -25,2l-61 0c-4,0 -7,-1 -9,-5 -3,-2 -4,-6 -4,-13l0 -240c0,-6 1,-11 4,-13 2,-3 5,-5 9,-5l57 0c14,0 26,2 36,5 9,2 18,7 24,12 7,6 12,13 15,22 4,9 6,19 6,31 0,7 -1,13 -2,19 -2,6 -4,12 -7,16 -2,5 -6,9 -10,13 -4,4 -8,6 -13,9 7,1 12,4 18,8 5,3 10,7 14,13 4,6 7,12 10,20 2,8 3,16 3,25zm-60 -116c0,-5 0,-11 -2,-15 -1,-4 -3,-8 -6,-11 -3,-3 -6,-5 -11,-6 -4,-2 -9,-3 -17,-3l-23 0 0 72 26 0c6,0 12,-1 16,-3 4,-2 7,-5 10,-8 2,-3 4,-7 5,-12 2,-4 2,-9 2,-14zm12 118c0,-6 -1,-12 -2,-17 -2,-5 -5,-9 -8,-13 -4,-3 -8,-6 -13,-8 -5,-2 -12,-2 -21,-2l-27 0 0 78 33 0c7,0 12,-1 17,-3 4,-1 8,-3 11,-6 3,-4 6,-8 8,-13 1,-5 2,-10 2,-16zm132 73c0,2 0,3 -1,4 -1,1 -2,2 -4,3 -2,0 -4,1 -7,2 -3,0 -7,0 -11,0 -5,0 -8,0 -12,0 -2,-1 -5,-2 -6,-2 -2,-1 -4,-2 -4,-3 -1,-1 -1,-2 -1,-4l0 -260c0,-2 0,-3 1,-4 0,-1 2,-2 4,-2 1,-1 4,-2 7,-2 3,-1 6,-1 11,-1 4,0 8,0 11,1 3,0 5,1 7,2 2,0 3,1 4,2 1,1 1,2 1,4l0 260zm189 -14c0,4 0,7 0,10 0,3 -1,5 -1,7 -1,2 -2,3 -3,4 0,0 -1,1 -3,1l-133 0c-5,0 -9,-2 -12,-5 -2,-3 -3,-8 -3,-14l0 -10c0,-3 0,-5 0,-7 1,-3 1,-5 2,-8 0,-2 1,-5 3,-8 1,-2 3,-6 5,-10l88 -169 -87 0c-2,0 -3,-1 -4,-2 -1,0 -2,-1 -3,-3 0,-2 -1,-4 -1,-7 0,-3 0,-6 0,-10 0,-4 0,-8 0,-11 0,-3 1,-5 1,-7 1,-2 2,-3 3,-3 1,-1 2,-2 4,-2l125 0c5,0 8,2 11,5 2,3 3,7 3,12l0 11c0,4 0,7 0,10 0,2 -1,5 -2,8 -1,2 -2,5 -3,8 -1,2 -3,6 -5,10l-87 167 95 0c3,0 4,2 6,5 1,3 1,9 1,18zm219 1c1,5 2,9 3,12 0,3 0,5 -2,7 -1,1 -3,2 -7,3 -3,0 -8,0 -13,0 -6,0 -11,0 -14,0 -4,0 -6,-1 -8,-2 -2,0 -3,-1 -3,-2 -1,-2 -2,-3 -2,-5l-15 -55 -86 0 -14 54c-1,2 -2,4 -2,5 -1,1 -2,2 -4,3 -2,1 -4,1 -7,2 -3,0 -7,0 -12,0 -6,0 -10,0 -13,0 -3,-1 -5,-2 -6,-4 -1,-1 -2,-4 -1,-7 0,-2 1,-7 2,-12l70 -244c1,-2 2,-4 3,-6 1,-1 2,-2 4,-3 2,-1 5,-2 9,-2 3,0 8,0 14,0 7,0 12,0 17,0 4,0 7,1 9,2 3,1 4,2 5,3 1,2 2,4 3,7l70 244zm-105 -202l0 0 -32 117 65 0 -33 -117zm186 184c0,5 0,10 -1,15 0,5 -1,9 -2,13 -1,4 -2,8 -4,12 -1,4 -4,8 -6,12l-24 41c0,2 -1,3 -2,4 -1,1 -3,2 -4,2 -1,1 -3,1 -5,1 -2,1 -4,1 -8,1 -3,0 -6,0 -8,-1 -2,0 -3,-1 -4,-1 -1,-1 -2,-2 -2,-3 0,-1 0,-2 1,-4l21 -59 0 -33c0,-5 1,-9 2,-12 1,-3 2,-5 4,-7 2,-1 5,-2 8,-3 3,-1 6,-1 11,-1 4,0 7,0 10,1 3,1 6,2 8,3 2,2 3,4 4,7 1,3 1,7 1,12zm260 -44c0,15 -2,27 -7,38 -4,11 -10,20 -18,28 -8,7 -16,12 -27,16 -10,4 -21,6 -32,6 -8,0 -16,-1 -22,-3 -7,-1 -13,-3 -18,-5 -5,-2 -9,-5 -13,-7 -3,-3 -6,-5 -7,-7 -2,-1 -3,-4 -4,-8 0,-3 -1,-8 -1,-14 0,-5 0,-9 1,-12 0,-3 0,-5 1,-7 0,-2 1,-3 2,-4 1,-1 2,-1 3,-1 2,0 4,1 7,4 3,2 7,4 12,7 4,3 10,6 16,8 7,2 14,4 23,4 6,0 11,-1 15,-3 4,-2 8,-4 11,-7 3,-3 6,-6 7,-11 2,-4 3,-9 3,-15 0,-6 -2,-11 -4,-16 -3,-4 -7,-8 -11,-12 -5,-3 -10,-6 -16,-10 -6,-3 -11,-6 -17,-9 -6,-4 -13,-8 -18,-11 -6,-5 -11,-10 -16,-16 -4,-6 -8,-13 -11,-22 -3,-8 -4,-18 -4,-29 0,-13 2,-25 6,-35 4,-10 10,-18 17,-25 7,-7 14,-11 24,-15 9,-3 19,-5 30,-5 5,0 10,1 16,2 5,1 10,2 15,4 4,1 9,4 12,6 4,2 6,4 7,5 2,1 3,3 3,3 0,2 1,3 1,4 0,2 0,4 0,7 1,2 1,5 1,9 0,4 0,8 -1,11 0,2 0,4 0,7 -1,1 -1,3 -2,3 -1,1 -2,2 -3,2 -1,0 -4,-1 -6,-3 -3,-2 -7,-4 -11,-7 -4,-2 -9,-4 -14,-6 -5,-2 -11,-3 -18,-3 -5,0 -9,1 -13,2 -4,2 -7,4 -9,6 -3,3 -5,6 -6,10 -1,3 -2,7 -2,12 0,6 2,11 4,15 3,5 7,9 11,13 5,3 10,6 16,9 6,3 12,6 18,10 6,3 12,7 18,12 6,4 11,9 16,15 4,6 8,13 11,21 3,8 4,18 4,29zm85 52c0,13 -2,22 -6,27 -4,4 -11,6 -21,6 -9,0 -16,-2 -20,-6 -4,-4 -6,-13 -6,-25 0,-14 2,-23 6,-27 4,-5 11,-7 21,-7 9,0 16,2 20,7 4,4 6,13 6,25zm171 7c0,5 0,8 0,11 0,3 -1,5 -1,7 -1,2 -1,4 -3,5 0,0 -1,1 -2,1l-105 0c-4,0 -7,-1 -10,-5 -2,-2 -3,-6 -3,-13l0 -250c0,-2 0,-3 1,-4 0,-1 2,-2 4,-2 1,-1 3,-2 6,-2 4,-1 7,-1 12,-1 4,0 8,0 11,1 3,0 5,1 7,2 2,0 3,1 4,2 1,1 1,2 1,4l0 222 72 0c1,0 2,0 2,1 2,0 2,2 3,3 0,3 1,5 1,8 0,2 0,6 0,10zm77 -7c0,13 -2,22 -6,27 -3,4 -10,6 -20,6 -10,0 -17,-2 -20,-6 -4,-4 -6,-13 -6,-25 0,-14 2,-23 6,-27 4,-5 10,-7 20,-7 10,0 17,2 21,7 3,4 5,13 5,25z"/>
  <path class="fil0" d="M670 1025c0,14 -2,26 -6,37 -4,11 -9,21 -16,28 -7,8 -15,14 -25,18 -11,5 -23,7 -37,7l-26 0 0 99c0,1 0,2 0,3 -1,1 -2,2 -3,2 -1,1 -2,1 -5,1 -1,1 -4,1 -7,1 -3,0 -5,0 -7,-1 -2,0 -4,0 -5,-1 -1,0 -2,-1 -2,-2 -1,-1 -1,-2 -1,-3l0 -254c0,-6 1,-10 4,-13 2,-2 5,-3 8,-3l49 0c5,0 9,0 14,1 4,0 10,1 16,3 6,2 12,5 19,9 6,4 11,10 16,17 4,6 8,14 10,22 3,9 4,18 4,29zm-32 3c0,-12 -2,-21 -5,-28 -4,-8 -8,-14 -13,-17 -5,-4 -10,-6 -16,-7 -5,-1 -11,-2 -16,-2l-28 0 0 111 28 0c9,0 16,-1 22,-5 6,-2 11,-6 15,-11 5,-6 8,-11 10,-19 2,-7 3,-14 3,-22zm222 88c0,16 -2,30 -5,43 -3,14 -9,25 -15,34 -7,10 -15,17 -26,23 -10,5 -22,8 -35,8 -13,0 -24,-3 -34,-7 -9,-5 -18,-12 -24,-21 -7,-9 -11,-20 -15,-33 -3,-12 -4,-27 -4,-43 0,-16 2,-30 5,-43 3,-13 8,-24 15,-34 7,-10 15,-17 25,-22 10,-6 22,-8 35,-8 13,0 25,2 35,7 9,5 17,12 24,20 6,10 11,20 14,33 3,13 5,27 5,43zm-30 2c0,-10 -2,-20 -3,-29 -1,-9 -4,-17 -8,-24 -3,-7 -9,-12 -15,-16 -6,-5 -14,-6 -23,-6 -8,0 -16,1 -22,5 -6,4 -11,9 -15,15 -4,7 -7,15 -9,24 -2,10 -3,20 -3,31 0,10 1,20 3,29 1,10 4,18 7,25 4,7 9,12 15,16 7,4 14,6 24,6 8,0 15,-2 22,-5 6,-4 11,-10 15,-16 4,-7 7,-15 9,-24 1,-9 3,-19 3,-31zm101 96c0,1 0,3 0,3 -1,1 -1,2 -2,2 -2,1 -3,1 -5,1 -2,1 -4,1 -7,1 -3,0 -5,0 -7,-1 -2,0 -3,0 -4,-1 -2,0 -2,-1 -3,-2 0,0 0,-2 0,-3l0 -284c0,-1 0,-3 0,-3 1,-1 1,-2 3,-2 1,-1 2,-2 4,-2 2,0 4,0 7,0 3,0 5,0 7,0 2,0 3,1 5,2 1,0 1,1 2,2 0,0 0,2 0,3l0 284zm83 0c0,1 0,3 0,3 -1,1 -2,2 -3,2 -1,1 -2,1 -4,1 -2,1 -4,1 -7,1 -3,0 -5,0 -7,-1 -2,0 -4,0 -5,-1 -1,0 -1,-1 -2,-2 -1,0 -1,-2 -1,-3l0 -192c0,0 0,-2 1,-2 1,-1 1,-2 2,-2 1,-1 3,-2 5,-2 2,0 4,0 7,0 3,0 5,0 7,0 2,0 3,1 4,2 1,0 2,1 3,2 0,0 0,2 0,2l0 192zm-3 -285c1,-2 2,-3 3,-4 1,-1 2,-2 3,-2 2,-1 3,-1 5,-2 2,0 5,0 7,0 4,0 6,0 9,1 1,0 3,1 4,2 1,1 1,2 1,3 0,1 -1,3 -2,4l-31 50c-2,1 -2,2 -3,3 -1,1 -2,1 -3,2 -1,0 -2,1 -3,1 -2,0 -4,0 -7,0 -2,0 -4,0 -6,0 -1,-1 -2,-2 -3,-2 -1,-1 -1,-2 -1,-3 1,-1 1,-2 2,-4l25 -49zm189 102c0,5 0,9 -1,11 -2,2 -3,4 -5,4l-22 0c4,4 7,10 8,16 2,6 3,13 3,20 0,11 -2,20 -5,29 -2,8 -7,16 -12,21 -6,6 -12,11 -20,14 -7,3 -15,5 -24,5 -7,0 -13,-1 -19,-3 -6,-3 -10,-5 -14,-8 -1,2 -3,5 -5,9 -1,3 -2,6 -2,11 0,5 2,9 6,13 4,3 9,4 15,5l42 2c7,0 15,1 21,4 7,2 12,6 17,10 5,4 9,9 12,16 2,6 4,14 4,22 0,9 -2,17 -5,25 -3,8 -8,15 -14,21 -6,6 -14,11 -24,14 -10,3 -21,5 -34,5 -13,0 -24,-1 -33,-4 -9,-2 -16,-6 -22,-10 -6,-5 -10,-10 -12,-17 -3,-6 -4,-13 -4,-20 0,-5 0,-9 1,-14 1,-4 2,-8 4,-12 2,-4 5,-8 8,-12 2,-4 6,-7 9,-11 -5,-3 -9,-7 -12,-13 -3,-5 -4,-11 -4,-18 0,-8 1,-16 4,-23 3,-7 7,-13 11,-18 -4,-5 -7,-11 -9,-18 -2,-6 -3,-14 -3,-24 0,-11 2,-20 5,-29 3,-9 7,-16 12,-22 6,-6 12,-10 20,-14 7,-3 16,-5 25,-5 4,0 9,1 13,1 4,1 8,2 12,3l47 0c2,0 4,1 5,4 1,2 1,5 1,10zm-45 51c0,-13 -3,-23 -9,-31 -6,-7 -14,-11 -25,-11 -6,0 -11,1 -15,4 -4,2 -8,5 -10,9 -3,4 -5,9 -6,14 -2,5 -2,10 -2,16 0,13 3,23 9,30 5,7 14,11 25,11 5,0 10,-1 14,-3 5,-3 8,-6 11,-10 3,-3 5,-8 6,-13 1,-5 2,-11 2,-16zm15 152c0,-9 -3,-15 -9,-20 -5,-4 -13,-6 -22,-7l-41 -1c-4,3 -7,7 -10,10 -2,3 -4,6 -5,9 -2,3 -3,6 -3,9 -1,3 -1,5 -1,8 0,9 4,17 12,21 7,5 18,8 32,8 9,0 16,-2 22,-3 6,-3 11,-5 14,-9 4,-3 7,-7 8,-11 2,-5 3,-10 3,-14zm215 -118c0,16 -2,30 -5,43 -4,14 -9,25 -15,34 -7,10 -16,17 -26,23 -10,5 -22,8 -35,8 -13,0 -24,-3 -34,-7 -10,-5 -18,-12 -24,-21 -7,-9 -11,-20 -15,-33 -3,-12 -4,-27 -4,-43 0,-16 1,-30 5,-43 3,-13 8,-24 15,-34 7,-10 15,-17 25,-22 10,-6 22,-8 35,-8 13,0 25,2 34,7 10,5 18,12 25,20 6,10 11,20 14,33 3,13 5,27 5,43zm-31 2c0,-10 -1,-20 -2,-29 -2,-9 -4,-17 -8,-24 -4,-7 -9,-12 -15,-16 -6,-5 -14,-6 -23,-6 -8,0 -16,1 -22,5 -6,4 -11,9 -15,15 -4,7 -7,15 -9,24 -2,10 -3,20 -3,31 0,10 1,20 2,29 2,10 5,18 8,25 4,7 9,12 15,16 7,4 14,6 23,6 9,0 16,-2 22,-5 7,-4 12,-10 16,-16 4,-7 7,-15 9,-24 1,-9 2,-19 2,-31zm210 96c0,1 0,3 -1,3 0,1 -1,2 -2,2 -1,1 -3,1 -5,1 -2,1 -4,1 -7,1 -3,0 -5,0 -7,-1 -2,0 -3,0 -4,-1 -1,0 -2,-1 -2,-2 -1,0 -1,-2 -1,-3l0 -112c0,-11 -1,-20 -2,-26 -2,-7 -4,-13 -6,-18 -3,-5 -7,-8 -11,-11 -4,-2 -9,-4 -15,-4 -7,0 -14,3 -22,10 -7,6 -15,15 -23,27l0 134c0,1 0,3 0,3 -1,1 -1,2 -3,2 -1,1 -2,1 -4,1 -2,1 -4,1 -7,1 -3,0 -5,0 -7,-1 -2,0 -4,0 -5,-1 -1,0 -1,-1 -2,-2 0,0 0,-2 0,-3l0 -192c0,0 0,-2 0,-2 0,-1 1,-2 2,-2 1,-1 3,-2 4,-2 2,0 4,0 6,0 3,0 6,0 7,0 2,0 3,1 4,2 1,0 2,1 2,2 0,0 1,2 1,2l0 26c8,-12 17,-21 26,-26 9,-6 18,-9 27,-9 11,0 20,2 27,6 7,5 13,10 17,18 5,7 8,16 10,25 2,10 3,22 3,35l0 117zm199 -98c0,16 -1,30 -5,43 -3,14 -8,25 -15,34 -7,10 -15,17 -25,23 -10,5 -22,8 -35,8 -13,0 -25,-3 -34,-7 -10,-5 -18,-12 -25,-21 -6,-9 -11,-20 -14,-33 -3,-12 -5,-27 -5,-43 0,-16 2,-30 5,-43 4,-13 9,-24 16,-34 6,-10 15,-17 25,-22 10,-6 22,-8 35,-8 13,0 24,2 34,7 10,5 18,12 24,20 7,10 11,20 15,33 3,13 4,27 4,43zm-30 2c0,-10 -1,-20 -2,-29 -2,-9 -5,-17 -8,-24 -4,-7 -9,-12 -15,-16 -6,-5 -14,-6 -23,-6 -9,0 -16,1 -22,5 -7,4 -12,9 -16,15 -3,7 -6,15 -8,24 -2,10 -3,20 -3,31 0,10 1,20 2,29 2,10 4,18 8,25 4,7 9,12 15,16 6,4 14,6 23,6 8,0 16,-2 22,-5 6,-4 11,-10 15,-16 4,-7 7,-15 9,-24 2,-9 3,-19 3,-31zm288 23c0,12 -2,24 -5,34 -4,10 -9,19 -16,26 -7,7 -15,13 -25,17 -10,4 -21,6 -34,6 -7,0 -15,-1 -21,-3 -7,-1 -13,-3 -18,-5 -5,-2 -9,-4 -13,-6 -3,-3 -5,-4 -6,-5 -1,-1 -2,-2 -2,-3 -1,-1 -1,-2 -1,-4 -1,-1 -1,-3 -1,-5 0,-2 0,-4 0,-7 0,-6 0,-9 1,-11 1,-2 2,-3 4,-3 0,0 3,1 6,3 3,3 7,5 12,8 5,2 10,5 17,7 6,2 14,3 22,3 7,0 14,-1 20,-3 6,-3 10,-6 14,-11 4,-4 8,-9 9,-15 3,-6 4,-13 4,-20 0,-8 -2,-15 -4,-21 -3,-6 -6,-12 -11,-16 -5,-5 -11,-8 -18,-10 -7,-3 -16,-4 -25,-4l-21 0c-1,0 -2,0 -3,-1 -1,0 -1,-1 -2,-2 -1,-2 -1,-3 -2,-5 0,-1 0,-4 0,-7 0,-3 0,-5 0,-7 1,-1 1,-3 2,-4 1,-1 1,-2 2,-2 1,-1 2,-1 3,-1l20 0c8,0 14,-1 21,-4 6,-2 11,-6 15,-10 4,-5 8,-10 10,-17 2,-6 3,-13 3,-21 0,-5 0,-11 -2,-16 -1,-5 -4,-10 -7,-14 -3,-3 -7,-6 -12,-8 -4,-3 -10,-4 -16,-4 -7,0 -13,1 -18,4 -6,2 -11,5 -16,8 -4,3 -8,6 -11,8 -3,2 -5,4 -6,4 -1,0 -2,-1 -2,-1 -1,0 -1,-1 -2,-2 0,-1 -1,-3 -1,-5 0,-1 0,-4 0,-7 0,-2 0,-4 0,-6 0,-2 0,-3 1,-4 0,-1 1,-2 1,-3 1,-1 1,-2 2,-4 1,-1 4,-3 7,-6 4,-2 8,-5 13,-7 5,-3 11,-5 17,-6 7,-2 13,-3 21,-3 11,0 20,2 28,5 8,3 14,8 20,14 5,5 9,13 12,21 2,8 4,18 4,28 0,8 -1,16 -3,24 -2,7 -5,14 -8,20 -4,5 -8,10 -14,15 -5,3 -11,6 -18,8l0 0c8,1 15,4 21,7 7,4 13,9 17,15 5,5 9,12 11,19 3,8 4,16 4,25zm267 73c0,1 0,3 -1,3 -1,1 -1,2 -2,2 -1,1 -3,1 -5,1 -2,1 -4,1 -7,1 -3,0 -5,0 -7,-1 -2,0 -3,0 -4,-1 -1,0 -2,-1 -3,-2 0,0 0,-2 0,-3l0 -112c0,-11 -1,-20 -2,-26 -2,-7 -4,-13 -7,-18 -2,-5 -6,-8 -10,-11 -4,-2 -9,-4 -15,-4 -7,0 -14,3 -22,10 -7,6 -15,15 -23,27l0 134c0,1 0,3 0,3 -1,1 -2,2 -3,2 -1,1 -2,1 -4,1 -2,1 -4,1 -7,1 -3,0 -5,0 -7,-1 -2,0 -4,0 -5,-1 -1,0 -1,-1 -2,-2 -1,0 -1,-2 -1,-3l0 -192c0,0 0,-2 1,-2 0,-1 1,-2 2,-2 1,-1 3,-2 4,-2 2,0 4,0 6,0 3,0 5,0 7,0 2,0 3,1 4,2 1,0 2,1 2,2 0,0 1,2 1,2l0 26c8,-12 17,-21 26,-26 9,-6 18,-9 27,-9 10,0 19,2 27,6 7,5 13,10 17,18 5,7 8,16 10,25 2,10 3,22 3,35l0 117zm159 -200c0,11 -1,22 -4,31 -2,9 -6,17 -11,24 -5,6 -11,11 -18,15 -7,4 -16,6 -25,6 -10,0 -19,-2 -26,-5 -7,-4 -13,-8 -18,-15 -5,-6 -8,-14 -11,-23 -2,-9 -3,-20 -3,-32 0,-10 1,-20 4,-30 2,-9 6,-17 11,-24 5,-6 11,-11 18,-15 7,-4 16,-6 26,-6 10,0 18,2 25,6 7,3 13,8 18,15 5,6 8,13 10,23 3,9 4,19 4,30zm-6 119c0,5 -1,8 -2,10 -1,2 -2,3 -4,3l-91 0c-2,0 -4,-1 -5,-3 -1,-2 -2,-5 -2,-10 0,-5 1,-8 2,-11 1,-1 3,-3 5,-3l91 0c2,0 3,2 4,3 1,3 2,6 2,11zm-22 -118c0,-6 0,-12 -1,-18 -2,-6 -3,-11 -6,-16 -2,-4 -5,-8 -9,-10 -3,-3 -8,-4 -14,-4 -5,0 -10,1 -13,3 -4,3 -7,6 -10,10 -2,4 -4,9 -5,15 -1,6 -1,13 -1,20 0,7 0,13 1,19 1,6 3,11 5,16 2,3 5,7 9,10 4,2 8,3 14,3 5,0 9,-1 13,-3 4,-1 7,-4 9,-8 3,-4 5,-9 6,-15 1,-6 2,-13 2,-22zm300 126c0,5 -1,8 -2,11 -1,3 -3,4 -5,4l-26 0 0 58c0,1 0,3 0,3 -1,1 -1,2 -3,2 -1,1 -2,1 -4,1 -2,1 -4,1 -7,1 -3,0 -6,0 -8,-1 -1,0 -3,0 -4,-1 -1,0 -2,-1 -2,-2 -1,0 -1,-2 -1,-3l0 -58 -94 0c-1,0 -2,0 -3,-1 -1,0 -2,0 -3,-2 -1,-1 -1,-2 -1,-4 -1,-3 -1,-5 -1,-9 0,-2 0,-5 0,-7 0,-2 1,-4 1,-6 0,-2 1,-3 2,-5 0,-2 1,-4 2,-5l81 -168c1,-1 2,-2 3,-3 1,-1 2,-1 4,-2 2,0 4,-1 7,-1 3,0 6,0 9,0 4,0 7,0 10,0 3,1 5,1 7,2 2,0 3,1 4,2 1,1 1,2 1,3l0 176 26 0c2,0 4,1 5,4 1,2 2,6 2,11zm-62 -166l0 0 -74 151 74 0 0 -151zm238 -15c0,2 0,4 0,7 0,2 0,4 -1,6 0,1 -1,3 -1,5 -1,2 -1,4 -2,6l-82 229c-1,1 -1,3 -2,4 -1,1 -2,2 -4,2 -1,1 -2,1 -5,1 -2,1 -4,1 -8,1 -3,0 -6,0 -9,-1 -2,0 -3,-1 -5,-2 -1,-1 -1,-2 -1,-3 0,-2 1,-3 1,-5l86 -234 -109 0c-2,0 -4,-1 -5,-4 -1,-3 -1,-7 -1,-12 0,-3 0,-5 0,-7 0,-2 1,-4 1,-5 1,-1 2,-2 3,-3 0,-1 1,-1 2,-1l133 0c2,0 3,0 4,1 2,0 2,1 3,2 1,1 1,3 2,5 0,2 0,5 0,8z"/>
  <path class="fil0" d="M670 1461c0,21 -2,40 -4,58 -3,17 -8,32 -14,45 -7,12 -15,22 -25,29 -11,7 -23,10 -38,10 -15,0 -27,-3 -36,-9 -10,-6 -18,-15 -24,-27 -6,-12 -10,-27 -13,-44 -2,-18 -4,-38 -4,-61 0,-21 2,-40 5,-58 2,-17 7,-32 13,-45 7,-12 15,-22 25,-29 11,-7 23,-10 38,-10 15,0 27,3 37,9 9,6 17,15 23,27 6,12 10,27 13,44 3,18 4,38 4,61zm-31 2c0,-13 -1,-26 -1,-37 -1,-11 -3,-20 -4,-29 -2,-8 -4,-15 -6,-21 -3,-6 -6,-11 -9,-15 -4,-4 -8,-7 -12,-8 -5,-2 -10,-3 -15,-3 -11,0 -19,3 -25,8 -6,6 -11,14 -14,24 -4,10 -6,21 -8,35 -1,13 -2,27 -2,43 0,20 1,38 3,52 2,15 4,26 8,35 4,10 9,16 15,20 6,4 13,6 21,6 7,0 13,-1 18,-3 5,-3 9,-7 13,-12 3,-4 6,-10 8,-17 3,-6 5,-14 6,-22 1,-8 3,-16 3,-26 1,-10 1,-19 1,-30zm209 -124c0,3 0,5 0,7 -1,3 -1,4 -1,7 0,1 -1,3 -1,5 -1,2 -1,4 -2,5l-82 229c-1,2 -1,3 -2,4 -1,2 -2,3 -4,3 -1,1 -3,1 -5,1 -2,1 -4,1 -8,1 -4,0 -6,0 -9,-1 -2,0 -4,-1 -5,-2 -1,-1 -1,-2 -1,-3 0,-2 1,-3 1,-5l86 -234 -109 0c-2,0 -4,-1 -5,-4 -1,-3 -1,-7 -1,-12 0,-3 0,-5 0,-7 0,-2 1,-4 1,-5 1,-2 2,-3 2,-3 1,-1 2,-1 3,-1l133 0c2,0 3,0 4,1 2,0 2,0 3,2 1,1 1,3 1,5 1,2 1,4 1,7zm184 190c0,11 -1,22 -5,32 -4,9 -9,17 -15,23 -7,6 -15,11 -25,15 -9,3 -20,4 -33,4 -12,0 -22,-1 -31,-4 -10,-3 -18,-7 -24,-13 -7,-6 -11,-13 -15,-22 -3,-8 -5,-18 -5,-29 0,-8 1,-17 4,-24 2,-7 6,-14 10,-20 4,-6 10,-12 16,-17 7,-5 14,-10 22,-15 -7,-4 -13,-9 -19,-14 -5,-5 -10,-10 -13,-16 -4,-6 -7,-12 -9,-18 -2,-7 -3,-14 -3,-22 0,-9 2,-19 4,-27 3,-9 8,-16 13,-22 6,-6 14,-11 23,-15 9,-3 19,-5 31,-5 11,0 21,2 30,5 8,3 15,7 20,14 6,5 10,12 13,20 2,7 3,16 3,25 0,7 -1,14 -3,21 -1,6 -4,13 -8,19 -4,6 -8,11 -14,16 -5,5 -12,10 -19,15 9,5 16,10 23,15 6,6 11,11 16,17 4,6 8,13 10,19 2,7 3,14 3,23zm-38 -142c0,-6 0,-11 -2,-16 -2,-5 -4,-9 -7,-12 -4,-4 -8,-6 -13,-8 -5,-2 -10,-3 -16,-3 -13,0 -23,4 -29,11 -6,7 -10,16 -10,28 0,6 1,11 2,16 2,4 4,9 8,13 3,5 8,8 13,13 5,4 11,8 18,13 11,-8 21,-16 27,-25 6,-9 9,-19 9,-30zm8 146c0,-7 -1,-13 -3,-18 -2,-5 -5,-11 -9,-15 -4,-5 -9,-9 -15,-14 -6,-4 -13,-8 -21,-13 -8,4 -14,9 -20,13 -5,4 -10,9 -13,14 -4,4 -7,9 -8,14 -2,6 -3,11 -3,18 0,13 4,24 12,32 7,7 19,11 34,11 15,0 27,-4 34,-11 8,-8 12,-18 12,-31zm217 -12c0,5 0,8 -1,11 -2,3 -3,4 -5,4l-26 0 0 58c0,1 0,2 -1,3 0,1 -1,2 -2,2 -1,0 -3,1 -5,1 -1,1 -4,1 -7,1 -3,0 -5,0 -7,-1 -2,0 -3,-1 -4,-1 -1,0 -2,-1 -3,-2 0,-1 0,-2 0,-3l0 -58 -94 0c-2,0 -3,0 -4,-1 0,0 -2,-1 -2,-2 -1,-1 -1,-3 -2,-5 0,-2 0,-5 0,-8 0,-3 0,-5 0,-7 0,-3 0,-4 1,-6 0,-2 0,-4 1,-5 0,-2 1,-4 2,-6l82 -167c1,-1 1,-2 2,-3 2,-1 3,-1 5,-2 2,-1 4,-1 6,-1 3,-1 6,-1 10,-1 4,0 7,1 10,1 3,0 5,1 7,2 1,0 3,1 3,2 2,1 2,2 2,3l0 176 26 0c2,0 3,1 5,4 1,2 1,6 1,11zm-61 -166l-1 0 -74 151 75 0 0 -151zm242 106c0,21 -2,40 -4,58 -3,17 -8,32 -14,45 -6,12 -15,22 -25,29 -11,7 -23,10 -38,10 -15,0 -27,-3 -36,-9 -10,-6 -18,-15 -24,-27 -6,-12 -10,-27 -13,-44 -2,-18 -4,-38 -4,-61 0,-21 2,-40 5,-58 3,-17 7,-32 13,-45 7,-12 15,-22 25,-29 11,-7 23,-10 38,-10 15,0 27,3 37,9 9,6 17,15 23,27 6,12 11,27 13,44 3,18 4,38 4,61zm-31 2c0,-13 -1,-26 -1,-37 -1,-11 -2,-20 -4,-29 -2,-8 -4,-15 -6,-21 -3,-6 -6,-11 -9,-15 -4,-4 -8,-7 -12,-8 -5,-2 -10,-3 -15,-3 -11,0 -18,3 -25,8 -6,6 -11,14 -14,24 -4,10 -6,21 -7,35 -2,13 -3,27 -3,43 0,20 1,38 3,52 2,15 5,26 9,35 3,10 8,16 14,20 6,4 13,6 21,6 7,0 13,-1 18,-3 5,-3 9,-7 13,-12 3,-4 6,-10 8,-17 3,-6 5,-14 6,-22 2,-8 3,-16 3,-26 1,-10 1,-19 1,-30zm277 59c0,13 -2,25 -6,35 -4,10 -9,18 -16,25 -7,7 -15,13 -25,16 -9,4 -19,5 -30,5 -8,0 -15,0 -21,-2 -7,-2 -13,-3 -18,-6 -5,-2 -9,-4 -13,-7 -3,-2 -6,-4 -7,-6 -1,-2 -2,-4 -3,-7 0,-2 -1,-6 -1,-10 0,-3 0,-6 1,-8 0,-2 0,-3 1,-5 0,-1 1,-2 1,-2 1,-1 2,-1 3,-1 1,0 4,1 7,3 3,3 7,6 11,9 5,2 10,5 17,7 7,3 14,4 23,4 7,0 13,-1 18,-3 6,-2 10,-5 14,-9 4,-4 7,-9 9,-15 3,-5 4,-11 4,-19 0,-8 -2,-14 -5,-20 -3,-6 -7,-10 -12,-14 -4,-5 -10,-9 -16,-12 -6,-4 -12,-7 -19,-11 -6,-3 -12,-7 -19,-12 -6,-4 -11,-9 -16,-15 -5,-6 -9,-13 -12,-21 -3,-8 -4,-18 -4,-29 0,-12 1,-22 5,-31 3,-9 8,-16 14,-22 7,-7 14,-11 22,-14 9,-4 18,-5 28,-5 5,0 10,0 15,1 5,1 10,3 15,4 4,2 8,4 12,7 3,2 5,4 6,5 1,1 2,2 3,3 0,1 0,2 1,3 0,1 0,3 0,4 0,2 0,4 0,7 0,2 0,5 0,7 0,2 0,3 -1,5 0,1 -1,2 -1,3 -1,1 -2,1 -2,1 -2,0 -4,-1 -6,-3 -3,-2 -7,-4 -11,-7 -4,-2 -8,-5 -14,-7 -5,-2 -11,-3 -18,-3 -6,0 -12,1 -17,3 -5,2 -8,5 -11,9 -3,3 -6,7 -7,11 -2,5 -2,10 -2,16 0,7 1,14 4,19 3,6 7,11 12,15 4,4 10,8 16,12 7,3 13,7 19,10 7,4 13,8 19,12 6,5 12,10 17,16 5,6 9,13 12,20 3,9 4,18 4,29zm159 72c0,2 0,3 -1,4 -1,1 -2,2 -4,2 -1,1 -4,1 -7,1 -3,0 -6,0 -7,-1 -2,0 -4,-1 -4,-2 -1,-1 -1,-2 -1,-4l0 -19c-8,9 -15,16 -24,21 -8,5 -17,7 -27,7 -8,0 -16,-1 -22,-4 -7,-2 -13,-6 -17,-11 -5,-5 -9,-11 -12,-18 -2,-8 -4,-16 -4,-25 0,-11 2,-20 6,-28 3,-8 9,-14 16,-20 6,-5 15,-9 25,-12 9,-3 20,-4 33,-4l22 0 0 -15c0,-7 -1,-14 -3,-19 -1,-6 -3,-11 -6,-14 -3,-4 -6,-7 -11,-9 -5,-2 -10,-3 -17,-3 -7,0 -13,1 -19,3 -6,3 -11,5 -15,7 -4,3 -8,5 -11,7 -3,2 -4,3 -6,3 -1,0 -2,0 -2,-1 -1,0 -2,-1 -2,-2 -1,-1 -1,-3 -2,-5 0,-2 0,-3 0,-5 0,-4 0,-7 1,-9 0,-2 1,-4 3,-6 1,-2 4,-4 8,-6 4,-3 8,-5 13,-7 5,-2 11,-4 17,-5 6,-1 12,-2 18,-2 11,0 21,1 29,4 8,3 14,8 19,14 5,6 9,14 11,23 2,9 3,19 3,31l0 129zm-28 -87l-25 0c-8,0 -15,0 -21,2 -6,2 -11,4 -14,8 -4,3 -7,6 -9,11 -2,4 -3,9 -3,15 0,10 3,18 8,24 5,6 13,9 22,9 7,0 15,-2 21,-7 7,-5 13,-12 21,-22l0 -40zm218 87c0,1 0,2 -1,3 0,1 -1,2 -2,2 -1,0 -3,1 -4,1 -3,1 -5,1 -8,1 -3,0 -5,0 -7,-1 -2,0 -3,-1 -4,-1 -1,0 -2,-1 -2,-2 -1,-1 -1,-2 -1,-3l0 -112c0,-11 -1,-20 -2,-27 -2,-6 -4,-12 -6,-17 -3,-5 -6,-8 -11,-11 -4,-3 -9,-4 -15,-4 -7,0 -14,3 -21,10 -8,6 -16,15 -23,27l0 134c0,1 0,2 -1,3 -1,1 -1,2 -2,2 -1,0 -3,1 -5,1 -1,1 -4,1 -7,1 -3,0 -5,0 -7,-1 -2,0 -3,-1 -4,-1 -1,0 -2,-1 -3,-2 0,-1 0,-2 0,-3l0 -192c0,-1 0,-2 0,-2 0,-1 1,-2 2,-3 1,0 3,-1 4,-1 2,0 4,0 7,0 3,0 5,0 6,0 2,0 3,1 4,1 1,1 2,2 2,3 1,0 1,1 1,2l0 26c9,-12 18,-21 27,-27 8,-5 17,-8 26,-8 11,0 20,2 27,6 7,5 13,10 18,18 4,7 7,15 9,25 2,10 3,21 3,35l0 117zm135 -14c0,4 0,7 -1,10 0,2 -1,4 -2,5 -1,1 -2,2 -4,3 -2,1 -4,2 -7,3 -2,1 -5,1 -7,1 -3,1 -5,1 -8,1 -9,0 -16,-1 -21,-4 -6,-3 -11,-7 -15,-12 -4,-5 -6,-12 -8,-20 -2,-8 -2,-18 -2,-29l0 -112 -23 0c-2,0 -3,-1 -4,-3 -1,-3 -2,-6 -2,-12 0,-2 1,-4 1,-6 0,-2 1,-4 1,-5 1,-1 1,-2 2,-3 1,0 2,0 3,0l22 0 0 -46c0,-1 0,-2 0,-2 1,-1 1,-2 2,-3 1,0 3,-1 5,-1 2,0 4,-1 7,-1 3,0 5,1 7,1 2,0 3,1 4,1 2,1 2,2 3,3 0,0 0,1 0,2l0 46 41 0c1,0 2,0 3,0 0,1 1,2 1,3 1,1 1,3 1,5 1,2 1,4 1,6 0,6 -1,9 -2,12 -1,2 -2,3 -4,3l-41 0 0 107c0,13 2,23 5,30 4,7 9,10 18,10 2,0 5,0 7,-1 2,-1 4,-1 6,-2 1,-1 2,-2 4,-2 1,-1 2,-1 3,-1 1,0 1,0 2,1 0,0 0,0 1,2 0,1 0,2 0,4 1,1 1,4 1,6zm157 14c0,2 0,3 -1,4 -1,1 -2,2 -4,2 -1,1 -4,1 -7,1 -3,0 -6,0 -7,-1 -2,0 -4,-1 -4,-2 -1,-1 -1,-2 -1,-4l0 -19c-8,9 -15,16 -24,21 -8,5 -17,7 -27,7 -8,0 -16,-1 -22,-4 -7,-2 -13,-6 -17,-11 -5,-5 -9,-11 -12,-18 -2,-8 -3,-16 -3,-25 0,-11 1,-20 5,-28 4,-8 9,-14 16,-20 6,-5 15,-9 25,-12 9,-3 20,-4 33,-4l22 0 0 -15c0,-7 -1,-14 -2,-19 -2,-6 -4,-11 -7,-14 -2,-4 -6,-7 -11,-9 -4,-2 -10,-3 -17,-3 -7,0 -13,1 -19,3 -6,3 -11,5 -15,7 -4,3 -8,5 -11,7 -3,2 -4,3 -6,3 -1,0 -2,0 -2,-1 -1,0 -2,-1 -2,-2 -1,-1 -1,-3 -2,-5 0,-2 0,-3 0,-5 0,-4 0,-7 1,-9 0,-2 1,-4 3,-6 1,-2 4,-4 8,-6 4,-3 8,-5 13,-7 5,-2 11,-4 17,-5 6,-1 12,-2 18,-2 11,0 21,1 29,4 8,3 14,8 19,14 5,6 9,14 11,23 2,9 3,19 3,31l0 129zm-28 -87l-25 0c-8,0 -15,0 -21,2 -6,2 -11,4 -14,8 -4,3 -7,6 -9,11 -2,4 -3,9 -3,15 0,10 3,18 8,24 5,6 13,9 22,9 7,0 15,-2 21,-7 7,-5 13,-12 21,-22l0 -40zm293 77c0,3 0,5 0,7 -1,2 -1,4 -2,5 0,1 -1,2 -2,3 0,0 -1,0 -2,0l-110 0c-2,0 -5,-1 -7,-3 -3,-2 -4,-6 -4,-11l0 -246c0,-6 1,-10 4,-12 2,-2 5,-3 7,-3l109 0c1,0 1,0 2,1 1,0 1,1 2,2 1,2 1,3 1,5 0,2 1,4 1,7 0,3 -1,5 -1,7 0,2 0,3 -1,5 -1,1 -1,2 -2,2 -1,1 -1,1 -2,1l-89 0 0 87 76 0c1,0 2,0 2,1 1,0 2,1 2,2 1,1 1,3 2,5 0,2 0,4 0,7 0,3 0,5 0,6 -1,3 -1,4 -2,5 0,1 -1,2 -2,2 0,1 -1,1 -2,1l-76 0 0 99 90 0c1,0 2,0 2,1 1,0 2,1 2,2 1,2 1,3 2,5 0,2 0,5 0,7zm181 10c0,1 0,2 0,3 -1,1 -2,2 -3,2 0,0 -2,1 -4,1 -2,1 -4,1 -6,1 -3,0 -5,0 -7,-1 -1,0 -3,-1 -4,-1 -1,0 -1,-1 -2,-2 0,-1 0,-2 0,-3l0 -25c-9,12 -18,20 -27,26 -9,6 -17,8 -26,8 -11,0 -20,-2 -27,-6 -7,-4 -13,-10 -18,-17 -4,-8 -7,-16 -9,-26 -2,-10 -3,-21 -3,-35l0 -117c0,-1 0,-2 0,-2 1,-1 2,-2 3,-3 1,0 2,-1 4,-1 2,0 5,0 7,0 3,0 6,0 7,0 2,0 4,1 5,1 1,1 2,2 2,3 1,0 1,1 1,2l0 112c0,11 1,20 2,27 1,6 3,13 6,17 3,5 6,9 11,11 4,3 9,4 14,4 8,0 15,-3 22,-9 8,-6 15,-16 23,-28l0 -134c0,-1 0,-2 1,-2 0,-1 1,-2 2,-3 1,0 3,-1 5,-1 1,0 4,0 7,0 3,0 5,0 7,0 1,0 3,1 4,1 1,1 2,2 2,3 1,0 1,1 1,2l0 192zm83 0c0,1 0,2 -1,3 0,1 -1,2 -2,2 -1,0 -3,1 -5,1 -1,1 -4,1 -7,1 -3,0 -5,0 -7,-1 -2,0 -3,-1 -4,-1 -1,0 -2,-1 -2,-2 -1,-1 -1,-2 -1,-3l0 -285c0,-1 0,-2 1,-2 0,-1 1,-2 2,-2 1,-1 2,-2 4,-2 2,0 4,0 7,0 3,0 6,0 7,0 2,0 4,1 5,2 1,0 2,1 2,2 1,0 1,1 1,2l0 285zm173 0c0,2 -1,3 -2,4 -1,1 -2,2 -4,2 -1,1 -4,1 -7,1 -3,0 -5,0 -7,-1 -2,0 -3,-1 -4,-2 -1,-1 -1,-2 -1,-4l0 -19c-7,9 -15,16 -23,21 -9,5 -18,7 -27,7 -9,0 -16,-1 -23,-4 -7,-2 -12,-6 -17,-11 -5,-5 -9,-11 -11,-18 -3,-8 -4,-16 -4,-25 0,-11 2,-20 5,-28 4,-8 9,-14 16,-20 7,-5 15,-9 25,-12 10,-3 21,-4 33,-4l22 0 0 -15c0,-7 -1,-14 -2,-19 -1,-6 -3,-11 -6,-14 -3,-4 -7,-7 -11,-9 -5,-2 -11,-3 -17,-3 -8,0 -14,1 -19,3 -6,3 -11,5 -16,7 -4,3 -8,5 -10,7 -3,2 -5,3 -7,3 -1,0 -1,0 -2,-1 -1,0 -1,-1 -2,-2 -1,-1 -1,-3 -1,-5 0,-2 -1,-3 -1,-5 0,-4 1,-7 1,-9 0,-2 2,-4 3,-6 2,-2 4,-4 8,-6 4,-3 9,-5 14,-7 5,-2 10,-4 16,-5 6,-1 12,-2 18,-2 12,0 21,1 29,4 8,3 15,8 20,14 4,6 8,14 11,23 2,9 3,19 3,31l0 129zm-29 -87l-25 0c-8,0 -15,0 -21,2 -6,2 -10,4 -14,8 -4,3 -7,6 -9,11 -2,4 -2,9 -2,15 0,10 2,18 7,24 6,6 13,9 22,9 8,0 15,-2 21,-7 7,-5 14,-12 21,-22l0 -40zm-18 -199c1,-1 2,-2 3,-3 1,-1 2,-2 3,-3 2,0 3,-1 5,-1 2,0 5,0 8,0 3,0 5,0 8,0 2,1 3,2 4,3 1,1 1,1 1,3 0,1 -1,2 -2,4l-31 49c-2,2 -2,3 -3,3 -1,1 -2,2 -3,3 -1,0 -2,0 -3,0 -2,1 -4,1 -6,1 -3,0 -5,0 -7,-1 -1,0 -2,-1 -3,-1 0,-1 -1,-2 -1,-3 1,-1 1,-2 2,-4l25 -50zm129 286c0,1 0,2 -1,3 0,1 -1,2 -2,2 -1,0 -3,1 -4,1 -2,1 -5,1 -8,1 -2,0 -5,0 -7,-1 -2,0 -3,-1 -4,-1 -1,0 -2,-1 -2,-2 -1,-1 -1,-2 -1,-3l0 -285c0,-1 0,-2 1,-2 0,-1 1,-2 2,-2 1,-1 2,-2 4,-2 2,0 5,0 7,0 3,0 6,0 8,0 1,0 3,1 4,2 1,0 2,1 2,2 1,0 1,1 1,2l0 285zm83 0c0,1 0,2 -1,3 0,1 -1,2 -2,2 -1,0 -3,1 -5,1 -1,1 -4,1 -7,1 -3,0 -5,0 -7,-1 -2,0 -3,-1 -4,-1 -1,0 -2,-1 -2,-2 -1,-1 -1,-2 -1,-3l0 -192c0,-1 0,-2 1,-2 0,-1 1,-2 2,-3 1,0 2,0 4,-1 2,0 4,0 7,0 3,0 6,0 7,0 2,1 4,1 5,1 1,1 2,2 2,3 1,0 1,1 1,2l0 192zm3 -256c0,8 -1,14 -4,16 -2,3 -7,5 -14,5 -7,0 -11,-2 -14,-4 -2,-3 -4,-9 -4,-17 0,-8 2,-14 4,-17 3,-3 7,-4 14,-4 7,0 12,1 14,4 3,3 4,8 4,17zm170 256c0,2 -1,3 -2,4 -1,1 -2,2 -4,2 -1,1 -4,1 -7,1 -3,0 -5,0 -7,-1 -2,0 -3,-1 -4,-2 -1,-1 -1,-2 -1,-4l0 -19c-7,9 -15,16 -23,21 -9,5 -18,7 -27,7 -9,0 -16,-1 -23,-4 -7,-2 -12,-6 -17,-11 -5,-5 -9,-11 -11,-18 -3,-8 -4,-16 -4,-25 0,-11 2,-20 5,-28 4,-8 9,-14 16,-20 7,-5 15,-9 25,-12 10,-3 21,-4 33,-4l22 0 0 -15c0,-7 -1,-14 -2,-19 -1,-6 -3,-11 -6,-14 -3,-4 -7,-7 -11,-9 -5,-2 -11,-3 -17,-3 -8,0 -14,1 -19,3 -6,3 -11,5 -16,7 -4,3 -7,5 -10,7 -3,2 -5,3 -6,3 -2,0 -2,0 -3,-1 -1,0 -1,-1 -2,-2 -1,-1 -1,-3 -1,-5 0,-2 -1,-3 -1,-5 0,-4 1,-7 1,-9 0,-2 2,-4 3,-6 2,-2 4,-4 8,-6 4,-3 9,-5 14,-7 5,-2 10,-4 16,-5 6,-1 12,-2 19,-2 11,0 20,1 28,4 8,3 15,8 20,14 4,6 8,14 11,23 2,9 3,19 3,31l0 129zm-29 -87l-25 0c-8,0 -15,0 -21,2 -5,2 -10,4 -14,8 -4,3 -7,6 -9,11 -2,4 -2,9 -2,15 0,10 2,18 7,24 6,6 13,9 22,9 8,0 15,-2 21,-7 7,-5 14,-12 21,-22l0 -40zm299 87c0,1 0,2 -1,3 0,1 -1,2 -2,2 -1,0 -2,1 -4,1 -1,1 -3,1 -6,1 -2,0 -4,0 -6,-1 -2,0 -3,-1 -4,-1 -1,0 -2,-1 -2,-2 -1,-1 -1,-2 -1,-3l0 -25c-8,11 -17,19 -26,25 -9,6 -19,9 -29,9 -12,0 -22,-2 -30,-8 -8,-5 -15,-13 -20,-22 -5,-9 -9,-20 -11,-33 -3,-12 -4,-26 -4,-40 0,-16 2,-31 5,-44 3,-13 7,-25 13,-34 5,-9 13,-17 21,-22 9,-5 18,-7 29,-7 10,0 18,2 26,7 8,5 15,12 23,22l0 -112c0,-1 0,-2 0,-2 1,-1 1,-2 3,-3 1,0 2,0 4,-1 2,0 4,0 7,0 3,0 5,0 7,0 2,1 4,1 5,1 1,1 2,2 2,3 1,0 1,1 1,2l0 284zm-29 -135c-8,-11 -16,-21 -23,-27 -7,-6 -15,-9 -23,-9 -7,0 -14,2 -19,6 -5,5 -9,10 -12,17 -4,7 -6,15 -7,24 -2,9 -3,18 -3,27 0,9 1,19 2,28 1,9 4,17 7,25 3,7 7,13 12,17 5,4 11,6 19,6 4,0 7,0 11,-2 4,-1 7,-3 11,-6 4,-3 8,-7 12,-11 4,-5 8,-11 13,-18l0 -77zm217 31c0,6 -1,10 -3,12 -2,2 -5,3 -8,3l-104 0c0,11 1,20 3,29 2,9 5,16 9,22 4,6 9,11 16,14 6,3 14,5 24,5 7,0 14,-1 20,-2 6,-2 11,-4 15,-5 4,-2 8,-4 11,-5 2,-2 4,-2 6,-2 1,0 1,0 2,0 1,0 1,1 2,2 0,1 0,3 1,5 0,1 0,3 0,6 0,2 0,4 0,5 -1,1 -1,3 -1,3 0,2 0,3 -1,3 0,1 -1,2 -1,3 -1,0 -3,2 -6,4 -3,1 -7,3 -12,5 -5,2 -11,3 -18,5 -6,1 -14,1 -21,1 -13,0 -25,-2 -34,-6 -10,-5 -18,-11 -25,-20 -7,-9 -12,-19 -15,-33 -4,-13 -5,-27 -5,-45 0,-17 1,-31 5,-44 4,-13 9,-25 15,-34 7,-9 15,-16 24,-21 10,-5 20,-7 32,-7 12,0 23,2 32,7 8,5 15,11 21,20 6,8 10,17 12,28 3,11 4,23 4,35l0 7zm-29 -11c1,-18 -3,-33 -10,-43 -7,-11 -17,-16 -31,-16 -8,0 -14,2 -19,5 -6,3 -10,8 -14,13 -3,6 -6,12 -8,19 -2,7 -3,15 -4,22l86 0zm173 63c0,10 -1,19 -5,26 -2,8 -7,14 -12,20 -6,5 -12,9 -20,11 -8,3 -16,4 -25,4 -6,0 -11,0 -16,-1 -5,-1 -10,-3 -14,-4 -4,-2 -7,-3 -10,-5 -3,-2 -5,-4 -6,-5 -2,-2 -2,-3 -3,-6 -1,-3 -1,-6 -1,-11 0,-2 0,-4 0,-7 0,-1 1,-3 1,-4 1,-1 1,-2 2,-2 0,-1 1,-1 2,-1 1,0 3,1 6,3 2,2 5,4 9,6 4,2 8,5 13,6 5,3 11,3 18,3 4,0 9,0 13,-2 4,-1 7,-3 10,-5 3,-3 5,-6 7,-10 2,-4 2,-8 2,-14 0,-5 -1,-9 -3,-13 -2,-4 -5,-7 -9,-10 -4,-3 -8,-5 -13,-8 -5,-2 -9,-4 -14,-6 -5,-3 -10,-5 -15,-8 -5,-3 -9,-7 -13,-12 -3,-4 -7,-9 -9,-15 -2,-7 -3,-14 -3,-22 0,-8 1,-15 3,-22 3,-7 6,-13 11,-18 5,-5 11,-10 18,-13 7,-3 16,-4 26,-4 4,0 8,0 12,1 4,1 8,2 11,3 4,1 7,3 9,4 3,2 4,3 6,4 1,2 2,2 2,3 1,1 1,2 1,3 0,1 0,3 0,4 1,2 1,4 1,6 0,2 0,4 -1,6 0,2 0,4 0,4 -1,2 -1,3 -2,3 0,1 -1,1 -2,1 -1,0 -2,-1 -4,-3 -2,-1 -5,-3 -8,-4 -3,-2 -7,-4 -11,-6 -5,-1 -9,-2 -15,-2 -5,0 -9,1 -13,2 -4,2 -7,3 -9,6 -3,2 -4,5 -5,9 -2,3 -2,7 -2,11 0,5 1,10 3,14 3,3 5,7 9,10 4,2 8,5 13,7 5,3 10,5 15,7 5,3 10,5 15,8 5,3 9,7 12,11 4,5 7,10 9,15 3,7 4,14 4,22zm278 52c0,1 0,2 -1,3 0,1 -1,2 -2,2 -1,0 -3,1 -5,1 -2,1 -5,1 -8,1 -3,0 -6,0 -8,-1 -2,0 -3,-1 -4,-1 -2,-1 -3,-2 -3,-3 -1,-1 -1,-2 -2,-4l-21 -65c-2,-7 -5,-14 -8,-21 -2,-6 -5,-11 -9,-15 -4,-5 -8,-9 -13,-11 -5,-2 -11,-4 -18,-4l-20 0 0 118c0,1 0,2 0,3 -1,1 -2,2 -3,2 -1,0 -2,1 -5,1 -1,1 -4,1 -7,1 -3,0 -5,0 -7,-1 -2,0 -4,-1 -5,-1 -1,0 -2,-1 -2,-2 -1,-1 -1,-2 -1,-3l0 -255c0,-6 1,-10 4,-12 2,-2 5,-3 7,-3l49 0c6,0 10,0 14,0 4,1 7,1 10,1 9,2 17,5 24,9 6,4 12,9 17,15 4,7 8,14 10,21 2,8 3,17 3,27 0,9 -1,17 -3,24 -2,7 -5,14 -9,20 -4,5 -8,10 -14,14 -5,4 -11,8 -18,10 4,3 8,5 10,8 4,3 6,7 9,11 3,5 5,9 8,15 2,5 4,11 7,18l20 61c1,5 3,9 3,11 1,2 1,4 1,5zm-46 -194c0,-10 -2,-20 -6,-27 -4,-7 -10,-13 -20,-16 -3,-1 -6,-2 -10,-2 -3,-1 -8,-1 -14,-1l-26 0 0 93 30 0c8,0 15,-1 20,-4 6,-2 11,-5 15,-9 4,-5 7,-10 8,-15 2,-6 3,-12 3,-19zm115 194c0,1 0,2 -1,3 0,1 -1,2 -2,2 -1,0 -2,1 -4,1 -2,1 -4,1 -7,1 -3,0 -5,0 -7,-1 -2,0 -4,-1 -5,-1 -1,0 -2,-1 -2,-2 -1,-1 -1,-2 -1,-3l0 -192c0,-1 0,-2 1,-2 0,-1 1,-2 2,-3 1,0 3,0 5,-1 2,0 4,0 7,0 3,0 5,0 7,0 2,1 3,1 4,1 1,1 2,2 2,3 1,0 1,1 1,2l0 192zm4 -256c0,8 -2,14 -4,16 -3,3 -7,5 -15,5 -6,0 -11,-2 -13,-4 -3,-3 -4,-9 -4,-17 0,-8 1,-14 4,-17 2,-3 7,-4 14,-4 7,0 11,1 14,4 2,3 4,8 4,17zm197 158c0,16 -1,30 -5,43 -3,13 -8,25 -15,34 -7,10 -15,17 -25,22 -10,6 -22,8 -36,8 -13,0 -24,-2 -34,-7 -9,-4 -17,-11 -24,-20 -6,-9 -11,-20 -14,-33 -4,-13 -5,-27 -5,-43 0,-16 2,-30 5,-43 3,-13 8,-25 15,-34 7,-10 15,-17 25,-23 10,-5 22,-7 36,-7 13,0 24,2 34,7 9,4 17,11 24,20 6,9 11,20 14,33 4,12 5,27 5,43zm-30 2c0,-10 -1,-20 -3,-29 -1,-9 -4,-17 -8,-24 -3,-7 -8,-13 -14,-17 -7,-4 -14,-6 -23,-6 -9,0 -16,2 -23,6 -6,3 -11,9 -15,15 -4,7 -7,15 -9,24 -2,9 -2,19 -2,31 0,10 0,20 2,29 1,10 4,17 8,24 3,7 8,13 14,17 7,4 14,6 24,6 8,0 16,-2 22,-6 6,-4 11,-9 15,-15 4,-7 7,-15 9,-24 2,-9 3,-19 3,-31z"/>
  <path class="fil0" d="M560 1974c0,1 0,2 -1,3 0,0 -1,1 -2,2 -1,0 -3,1 -5,1 -2,0 -4,0 -7,0 -3,0 -5,0 -7,0 -2,0 -4,-1 -5,-1 -1,-1 -2,-2 -2,-2 -1,-1 -1,-2 -1,-3l0 -265c0,-1 0,-2 1,-3 0,-1 1,-2 2,-2 1,0 3,-1 5,-1 2,0 4,-1 7,-1 3,0 5,1 7,1 2,0 4,1 5,1 1,0 2,1 2,2 1,1 1,2 1,3l0 265zm203 -99c0,17 -2,32 -5,45 -3,13 -7,25 -13,34 -6,9 -13,17 -21,22 -9,5 -19,7 -29,7 -5,0 -10,0 -14,-2 -5,-1 -9,-3 -13,-5 -4,-3 -8,-6 -12,-11 -4,-4 -8,-9 -13,-15l0 24c0,1 -1,2 -1,3 0,0 -1,1 -2,2 -1,0 -3,1 -4,1 -2,0 -4,0 -6,0 -3,0 -4,0 -6,0 -2,0 -3,-1 -4,-1 -1,-1 -2,-2 -2,-2 -1,-1 -1,-2 -1,-3l0 -285c0,-1 0,-2 1,-2 0,-1 1,-2 2,-3 1,-1 3,-1 4,-1 3,0 5,0 8,0 3,0 5,0 7,0 2,0 3,0 4,1 1,1 2,2 2,3 1,0 1,1 1,2l0 115c5,-6 9,-11 14,-15 4,-3 8,-7 13,-9 4,-3 8,-5 12,-6 5,-1 9,-2 14,-2 11,0 21,3 29,9 8,5 15,13 20,22 5,10 9,20 11,33 3,12 4,25 4,39zm-31 4c0,-9 -1,-19 -2,-28 -1,-9 -3,-17 -6,-24 -3,-7 -7,-14 -12,-17 -5,-5 -12,-7 -19,-7 -4,0 -7,0 -11,2 -4,1 -7,3 -11,6 -4,3 -8,7 -12,12 -4,4 -8,10 -13,17l0 77c8,12 16,20 23,27 7,6 15,9 23,9 7,0 13,-2 18,-7 6,-4 10,-9 13,-17 3,-7 6,-14 7,-23 1,-9 2,-18 2,-27zm103 95c0,1 0,2 -1,3 0,0 -1,1 -2,2 -1,0 -2,1 -4,1 -2,0 -4,0 -7,0 -3,0 -5,0 -8,0 -1,0 -3,-1 -4,-1 -1,-1 -2,-2 -2,-2 -1,-1 -1,-2 -1,-3l0 -192c0,-1 0,-2 1,-3 0,0 1,-1 2,-2 1,0 3,-1 4,-1 3,-1 5,-1 8,-1 3,0 5,0 7,1 2,0 3,1 4,1 1,1 2,2 2,2 1,1 1,2 1,3l0 192zm4 -257c0,9 -2,14 -4,17 -3,3 -7,5 -15,5 -7,0 -11,-2 -13,-4 -3,-4 -4,-9 -4,-17 0,-8 1,-14 4,-17 2,-3 7,-4 14,-4 7,0 11,1 14,4 2,3 4,8 4,16zm151 247c0,3 0,5 0,7 -1,2 -2,4 -2,5 0,1 -1,2 -2,2 0,1 -2,1 -3,1l-97 0c-2,0 -4,-1 -6,-3 -1,-2 -2,-5 -2,-10l0 -7c0,-2 0,-4 0,-6 0,-1 1,-3 1,-4 1,-2 1,-3 2,-5 1,-2 2,-4 3,-6l70 -132 -68 0c-2,0 -3,-1 -4,-3 -2,-3 -2,-7 -2,-12 0,-2 0,-5 0,-6 1,-3 1,-4 2,-5 0,-1 1,-2 1,-3 1,0 2,0 3,0l91 0c1,0 2,0 3,0 1,1 2,2 3,2 0,1 1,3 1,4 1,2 1,4 1,6l0 7c0,2 0,4 0,6 -1,1 -1,3 -1,4 -1,2 -1,4 -2,6 -1,1 -2,4 -3,6l-70 132 74 0c1,0 2,0 3,0 1,1 1,2 2,3 0,1 1,2 2,4 0,2 0,5 0,7zm160 10c0,2 0,3 -1,4 -1,1 -2,2 -4,2 -1,0 -4,0 -7,0 -3,0 -6,0 -7,0 -2,0 -4,-1 -4,-2 -1,-1 -1,-2 -1,-4l0 -19c-8,9 -15,16 -24,21 -8,5 -17,7 -27,7 -8,0 -16,-1 -22,-4 -7,-2 -13,-6 -17,-11 -5,-5 -9,-11 -12,-18 -2,-8 -4,-16 -4,-25 0,-11 2,-20 6,-28 3,-8 9,-15 16,-20 6,-6 15,-9 25,-12 9,-3 20,-4 33,-4l22 0 0 -15c0,-7 -1,-14 -3,-19 -1,-6 -3,-11 -6,-14 -3,-4 -6,-7 -11,-9 -4,-2 -10,-3 -17,-3 -7,0 -13,1 -19,3 -6,2 -11,5 -15,7 -4,2 -8,5 -11,7 -3,2 -4,3 -6,3 -1,0 -2,-1 -2,-1 -1,0 -2,-1 -2,-3 -1,-1 -1,-2 -2,-4 0,-2 0,-3 0,-6 0,-3 0,-6 1,-8 0,-2 1,-4 3,-6 1,-2 4,-4 8,-7 4,-2 8,-4 13,-6 5,-2 11,-4 17,-5 6,-2 12,-3 18,-3 11,0 21,2 29,5 8,3 14,8 19,14 5,6 9,14 11,22 2,10 3,20 3,32l0 129zm-28 -87l-25 0c-8,0 -15,0 -21,2 -6,2 -11,4 -14,7 -4,3 -7,7 -9,12 -2,4 -3,9 -3,15 0,10 3,18 8,24 5,6 13,9 22,9 7,0 15,-3 21,-7 7,-5 13,-12 21,-22l0 -40zm234 -16c0,6 0,10 -1,12 -2,2 -3,3 -5,3l-74 0c-2,0 -3,-1 -4,-3 -1,-2 -2,-6 -2,-12 0,-5 1,-9 2,-11 1,-2 2,-3 4,-3l74 0c1,0 2,0 3,1 0,0 1,1 2,2 0,1 1,3 1,5 0,2 0,4 0,6zm251 93c0,3 -1,5 -1,7 0,2 -1,3 -1,5 -1,1 -1,2 -2,2 -1,1 -2,1 -3,1l-109 0c-3,0 -5,-1 -8,-3 -2,-2 -3,-6 -3,-12l0 -246c0,-5 1,-9 3,-11 3,-2 5,-3 8,-3l108 0c1,0 2,0 3,0 0,1 1,2 1,3 1,1 1,3 2,5 0,2 0,4 0,7 0,3 0,5 0,7 -1,2 -1,3 -2,5 0,1 -1,2 -1,2 -1,1 -2,1 -3,1l-89 0 0 86 76 0c1,0 2,1 3,1 1,1 1,2 2,3 0,1 1,3 1,5 0,2 1,4 1,7 0,2 -1,4 -1,6 0,2 -1,4 -1,5 -1,1 -1,2 -2,2 -1,1 -2,1 -3,1l-76 0 0 99 90 0c1,0 2,0 3,1 1,0 1,1 2,2 0,1 1,3 1,5 0,2 1,4 1,7zm145 -42c0,10 -2,18 -5,26 -3,8 -7,14 -13,19 -5,6 -12,10 -19,12 -8,3 -16,4 -26,4 -5,0 -10,0 -15,-1 -6,-2 -10,-3 -14,-5 -4,-1 -8,-3 -11,-4 -2,-3 -5,-4 -6,-5 -1,-2 -2,-4 -3,-6 0,-3 0,-6 0,-11 0,-2 0,-5 0,-7 0,-1 0,-3 1,-4 0,-1 0,-2 1,-3 1,0 2,0 2,0 2,0 4,1 6,3 3,2 6,4 9,6 4,2 8,4 13,6 5,2 12,3 18,3 5,0 9,-1 13,-2 4,-1 8,-3 11,-6 3,-2 5,-5 6,-9 2,-4 3,-9 3,-14 0,-5 -1,-9 -3,-13 -3,-4 -6,-7 -10,-10 -3,-3 -8,-6 -12,-8 -5,-2 -10,-4 -15,-6 -5,-3 -9,-6 -15,-9 -4,-3 -9,-7 -12,-11 -4,-4 -7,-10 -9,-16 -2,-6 -4,-13 -4,-21 0,-8 2,-15 4,-22 2,-7 6,-13 11,-18 5,-5 10,-10 18,-13 7,-3 16,-5 25,-5 4,0 9,1 13,2 4,1 8,2 11,3 4,1 6,3 9,4 2,1 4,3 5,4 1,1 2,2 3,3 0,1 1,2 1,3 0,1 0,2 0,4 0,1 0,4 0,6 0,2 0,4 0,6 0,2 0,3 -1,4 0,2 0,2 -1,3 -1,0 -2,0 -2,0 -1,0 -3,0 -5,-2 -2,-1 -4,-3 -8,-5 -2,-1 -6,-3 -11,-5 -4,-1 -9,-2 -14,-2 -5,0 -9,0 -13,2 -4,1 -7,3 -9,6 -3,2 -5,5 -6,8 -1,4 -2,7 -2,11 0,6 1,11 4,14 2,4 5,7 9,10 4,3 8,6 13,8 5,2 9,5 14,7 5,2 10,5 15,8 5,3 9,7 13,11 4,4 7,10 9,15 2,6 4,13 4,22zm186 -47c0,17 -1,32 -4,45 -3,13 -7,25 -13,34 -6,9 -13,16 -22,22 -8,5 -18,7 -29,7 -5,0 -9,0 -13,-2 -4,-1 -8,-2 -12,-5 -4,-2 -7,-5 -11,-9 -4,-4 -8,-8 -12,-13l0 96c0,1 0,2 -1,3 0,1 -1,2 -2,2 -1,1 -3,1 -4,1 -2,0 -5,1 -8,1 -2,0 -5,-1 -7,-1 -2,0 -3,0 -4,-1 -1,0 -2,-1 -2,-2 -1,-1 -1,-2 -1,-3l0 -268c0,-1 0,-2 0,-3 1,-1 1,-1 3,-2 1,-1 2,-1 4,-1 1,-1 3,-1 6,-1 2,0 4,0 6,1 1,0 3,0 4,1 1,1 2,1 2,2 0,1 1,2 1,3l0 26c4,-6 9,-11 13,-15 5,-5 9,-9 14,-11 4,-3 9,-6 14,-7 4,-2 9,-3 15,-3 11,0 21,3 29,9 8,5 15,12 20,22 5,9 9,20 11,33 2,12 3,25 3,39zm-30 4c0,-10 -1,-19 -2,-28 -1,-10 -3,-17 -6,-25 -3,-7 -7,-13 -12,-17 -5,-4 -11,-6 -19,-6 -4,0 -8,0 -11,2 -4,1 -7,3 -11,6 -4,3 -8,7 -12,12 -4,4 -8,11 -13,17l0 76c8,12 15,21 23,27 7,7 14,10 22,10 7,0 14,-2 19,-7 5,-4 9,-10 13,-17 3,-7 5,-14 7,-24 1,-8 2,-17 2,-26zm193 95c0,2 0,3 -1,4 -1,1 -2,2 -4,2 -2,0 -4,0 -7,0 -3,0 -6,0 -8,0 -1,0 -3,-1 -4,-2 0,-1 -1,-2 -1,-4l0 -19c-7,9 -14,16 -23,21 -8,5 -17,7 -27,7 -8,0 -16,-1 -22,-4 -7,-2 -13,-6 -18,-11 -4,-5 -8,-11 -11,-18 -2,-8 -4,-16 -4,-25 0,-11 2,-20 6,-28 3,-8 9,-15 15,-20 7,-6 16,-9 25,-12 10,-3 21,-4 33,-4l22 0 0 -15c0,-7 0,-14 -2,-19 -1,-6 -3,-11 -6,-14 -3,-4 -6,-7 -11,-9 -5,-2 -10,-3 -17,-3 -7,0 -13,1 -19,3 -6,2 -11,5 -15,7 -4,2 -8,5 -11,7 -3,2 -5,3 -6,3 -1,0 -2,-1 -3,-1 0,0 -1,-1 -1,-3 -1,-1 -1,-2 -2,-4 0,-2 0,-3 0,-6 0,-3 0,-6 1,-8 0,-2 1,-4 3,-6 1,-2 4,-4 8,-7 4,-2 8,-4 13,-6 5,-2 11,-4 17,-5 6,-2 12,-3 18,-3 11,0 21,2 29,5 8,3 14,8 19,14 5,6 8,14 11,22 2,10 3,20 3,32l0 129zm-29 -87l-24 0c-8,0 -15,0 -21,2 -6,2 -11,4 -15,7 -4,3 -7,7 -8,12 -2,4 -3,9 -3,15 0,10 3,18 8,24 5,6 12,9 22,9 7,0 14,-3 21,-7 6,-5 13,-12 20,-22l0 -40zm219 87c0,1 0,2 -1,3 -1,0 -1,1 -2,2 -1,0 -3,1 -5,1 -2,0 -4,0 -7,0 -3,0 -5,0 -7,0 -2,0 -3,-1 -4,-1 -1,-1 -2,-2 -3,-2 0,-1 0,-2 0,-3l0 -113c0,-10 -1,-19 -2,-26 -2,-6 -4,-12 -7,-17 -2,-5 -6,-8 -10,-11 -4,-3 -9,-4 -15,-4 -7,0 -14,3 -22,10 -7,6 -15,15 -23,27l0 134c0,1 0,2 0,3 -1,0 -2,1 -3,2 -1,0 -2,1 -4,1 -2,0 -4,0 -7,0 -3,0 -5,0 -7,0 -2,0 -4,-1 -5,-1 -1,-1 -1,-2 -2,-2 -1,-1 -1,-2 -1,-3l0 -192c0,-1 0,-2 1,-3 0,0 1,-1 2,-2 1,-1 3,-1 4,-1 2,-1 4,-1 6,-1 3,0 6,0 7,1 2,0 3,0 4,1 1,1 2,2 2,2 0,1 1,2 1,3l0 25c8,-11 17,-21 26,-26 9,-6 18,-9 27,-9 10,0 19,3 27,7 7,4 13,10 17,17 5,8 8,16 10,26 2,10 3,21 3,35l0 117zm-10 -275c0,15 -3,27 -9,35 -6,8 -15,12 -25,12 -4,0 -8,-1 -12,-2 -3,-2 -6,-3 -9,-6 -3,-2 -5,-4 -8,-6 -2,-3 -4,-5 -7,-7 -2,-2 -4,-4 -6,-5 -3,-2 -5,-3 -8,-3 -4,0 -8,3 -9,7 -3,4 -3,9 -3,16 0,1 0,2 -1,3 0,1 0,1 -1,2 -1,0 -2,0 -4,0 -1,1 -3,1 -5,1 -2,0 -4,0 -5,-1 -1,0 -2,0 -3,-1 -1,0 -1,-1 -1,-3 -1,-1 -1,-3 -1,-4 0,-14 3,-26 9,-34 6,-8 14,-13 25,-13 6,0 12,2 16,5 5,3 9,6 12,9 4,4 8,7 11,10 3,3 7,5 10,5 5,0 8,-2 10,-6 2,-4 3,-9 3,-17 0,-2 1,-3 2,-4 1,-1 4,-2 8,-2 4,0 7,1 9,2 1,1 2,4 2,7zm182 275c0,2 -1,3 -2,4 -1,1 -2,2 -4,2 -1,0 -4,0 -7,0 -3,0 -5,0 -7,0 -2,0 -3,-1 -4,-2 -1,-1 -1,-2 -1,-4l0 -19c-7,9 -15,16 -24,21 -8,5 -17,7 -27,7 -8,0 -15,-1 -22,-4 -7,-2 -13,-6 -17,-11 -5,-5 -9,-11 -11,-18 -3,-8 -4,-16 -4,-25 0,-11 1,-20 5,-28 4,-8 9,-15 16,-20 6,-6 15,-9 25,-12 10,-3 21,-4 33,-4l22 0 0 -15c0,-7 -1,-14 -2,-19 -1,-6 -4,-11 -6,-14 -3,-4 -7,-7 -12,-9 -4,-2 -10,-3 -17,-3 -7,0 -13,1 -19,3 -5,2 -10,5 -15,7 -4,2 -8,5 -11,7 -2,2 -4,3 -6,3 -1,0 -1,-1 -2,-1 -1,0 -2,-1 -2,-3 -1,-1 -1,-2 -1,-4 0,-2 -1,-3 -1,-6 0,-3 1,-6 1,-8 0,-2 1,-4 3,-6 2,-2 4,-4 8,-7 4,-2 8,-4 13,-6 5,-2 11,-4 17,-5 6,-2 12,-3 18,-3 12,0 21,2 29,5 8,3 15,8 20,14 4,6 8,14 10,22 3,10 4,20 4,32l0 129zm-29 -87l-25 0c-8,0 -15,0 -21,2 -6,2 -10,4 -14,7 -4,3 -7,7 -9,12 -2,4 -2,9 -2,15 0,10 2,18 7,24 6,6 13,9 22,9 8,0 15,-3 21,-7 7,-5 14,-12 21,-22l0 -40z"/>
  <path class="fil0" d="M682 2320c0,2 0,4 -1,6 0,2 0,3 0,4 0,1 -1,3 -1,4 -1,1 -2,2 -3,4 -1,1 -3,3 -7,6 -4,3 -9,6 -14,8 -6,3 -12,6 -19,7 -8,3 -16,3 -24,3 -15,0 -28,-3 -40,-9 -12,-5 -22,-15 -30,-26 -9,-12 -15,-26 -20,-43 -4,-17 -7,-37 -7,-59 0,-23 3,-44 8,-61 5,-18 11,-34 20,-46 9,-12 20,-22 32,-28 12,-7 26,-10 40,-10 7,0 13,1 20,2 6,2 12,3 17,6 5,2 10,5 14,8 4,3 7,5 8,7 2,2 3,3 4,4 0,2 0,2 1,4 0,1 0,3 1,5 0,2 0,4 0,6 0,3 0,5 0,8 -1,2 -1,3 -2,5 0,1 -1,2 -1,2 -1,1 -2,2 -3,2 -1,0 -4,-2 -7,-5 -3,-2 -6,-5 -11,-9 -5,-3 -10,-6 -17,-9 -6,-3 -14,-4 -24,-4 -10,0 -19,2 -27,7 -9,5 -15,12 -21,22 -6,9 -11,21 -14,35 -3,13 -5,29 -5,46 0,18 2,34 5,47 3,13 7,25 13,34 6,8 13,15 22,20 8,5 18,7 28,7 9,0 17,-2 24,-4 7,-3 13,-6 17,-9 5,-3 9,-6 12,-9 3,-3 5,-4 7,-4 1,0 1,0 2,0 1,1 1,2 2,3 0,1 0,3 0,5 1,2 1,5 1,8zm70 33c0,2 -1,2 -1,3 0,1 -1,2 -2,3 -2,0 -3,0 -5,1 -2,0 -4,0 -7,0 -3,0 -5,0 -8,0 -1,-1 -3,-1 -4,-1 -1,-1 -2,-2 -3,-3 0,-1 0,-1 0,-3l0 -264c0,-1 0,-2 0,-3 1,-1 2,-2 3,-2 1,-1 3,-1 5,-2 2,0 4,0 7,0 3,0 5,0 7,0 2,1 3,1 5,2 1,0 2,1 2,2 0,1 1,2 1,3l0 264zm180 -254c0,3 0,5 -1,7 0,2 0,4 -1,5 0,1 -1,2 -2,2 -1,1 -1,1 -2,1l-83 0 0 94 78 0c1,0 2,0 3,1 1,0 1,1 2,3 0,0 1,2 1,4 0,2 0,4 0,7 0,3 0,5 0,7 0,2 -1,4 -1,5 -1,1 -1,2 -2,3 -1,0 -2,1 -3,1l-78 0 0 114c0,1 -1,2 -1,3 -1,1 -1,2 -3,3 -1,0 -2,0 -4,1 -2,0 -4,0 -8,0 -2,0 -5,0 -7,0 -2,-1 -3,-1 -4,-1 -2,-1 -3,-2 -3,-3 0,-1 -1,-2 -1,-3l0 -255c0,-5 1,-9 4,-11 2,-2 5,-4 7,-4l103 0c1,0 1,1 2,1 1,1 2,1 2,3 1,1 1,3 1,5 1,2 1,4 1,7zm85 89c0,5 0,9 0,12 -1,3 -2,6 -3,8 -2,1 -4,3 -6,4 -2,0 -5,1 -9,1 -4,0 -7,-1 -9,-1 -2,-1 -4,-3 -6,-4 -1,-2 -2,-5 -3,-8 0,-3 -1,-7 -1,-12 0,-4 1,-8 1,-11 1,-4 2,-6 3,-8 2,-2 4,-3 6,-4 2,-1 5,-1 9,-1 4,0 7,0 9,1 2,1 4,2 6,4 1,2 2,4 3,8 0,3 0,7 0,11zm0 148c0,5 0,9 0,12 -1,3 -2,6 -3,7 -2,3 -4,4 -6,5 -2,1 -5,1 -9,1 -4,0 -7,0 -9,-1 -2,-1 -4,-2 -6,-5 -1,-1 -2,-4 -3,-7 0,-3 -1,-7 -1,-12 0,-5 1,-8 1,-11 1,-4 2,-6 3,-8 2,-2 4,-3 6,-4 2,-1 5,-1 9,-1 4,0 7,0 9,1 2,1 4,2 6,4 1,2 2,4 3,8 0,3 0,6 0,11zm289 -56c0,9 -1,17 -3,24 -2,7 -4,14 -8,20 -3,5 -7,11 -11,15 -5,4 -11,8 -16,11 -6,3 -12,5 -19,7 -7,1 -14,2 -23,2l-59 0c-3,0 -5,-1 -8,-4 -2,-2 -3,-6 -3,-11l0 -246c0,-5 1,-9 3,-11 3,-2 5,-4 8,-4l52 0c13,0 25,2 33,5 9,3 16,8 22,14 6,6 10,13 13,21 3,9 4,19 4,30 0,7 0,13 -2,19 -1,6 -3,11 -5,16 -3,5 -6,10 -10,14 -4,4 -8,7 -13,10 6,1 12,3 17,7 6,4 11,9 15,15 3,5 7,12 9,20 2,8 4,16 4,26zm-46 -123c0,-7 -1,-13 -2,-18 -1,-6 -4,-10 -7,-14 -3,-4 -8,-7 -13,-9 -6,-2 -12,-3 -21,-3l-31 0 0 89 34 0c8,0 14,-1 19,-4 5,-2 9,-5 12,-9 3,-4 6,-9 7,-15 1,-6 2,-11 2,-17zm14 125c0,-8 -1,-16 -3,-22 -3,-6 -6,-11 -10,-15 -4,-5 -9,-8 -16,-10 -6,-3 -14,-3 -23,-3l-36 0 0 97 44 0c6,0 12,-1 18,-3 5,-2 9,-5 13,-9 4,-4 7,-9 10,-15 2,-5 3,-12 3,-20zm209 -12c0,15 -2,28 -7,40 -3,11 -9,21 -17,29 -7,8 -16,14 -27,18 -10,4 -21,6 -34,6 -7,0 -14,-1 -20,-2 -7,-1 -12,-2 -17,-4 -5,-2 -9,-4 -12,-5 -4,-2 -5,-4 -6,-4 -1,-2 -2,-3 -2,-3 -1,-1 -1,-2 -1,-3 0,-2 -1,-3 -1,-5 0,-2 0,-4 0,-7 0,-2 0,-4 0,-6 1,-2 1,-3 1,-5 1,-1 1,-2 2,-2 1,-1 1,-1 2,-1 1,0 3,1 6,2 2,2 6,4 9,6 5,2 10,4 16,6 6,2 14,3 22,3 8,0 15,-2 22,-4 6,-2 12,-5 16,-10 5,-5 9,-11 12,-18 2,-8 4,-17 4,-27 0,-9 -2,-17 -4,-24 -2,-6 -5,-12 -10,-16 -5,-5 -11,-8 -18,-10 -8,-2 -16,-4 -26,-4 -8,0 -14,1 -19,2 -5,0 -10,1 -14,1 -3,0 -6,-1 -7,-3 -1,-2 -2,-5 -2,-11l0 -112c0,-5 1,-8 2,-10 2,-2 5,-4 8,-4l101 0c1,0 2,1 3,1 1,1 1,2 2,3 0,2 1,3 1,5 1,2 1,4 1,7 0,5 -1,9 -2,12 -1,3 -3,4 -5,4l-85 0 0 78c4,-1 8,-2 13,-2 4,0 9,0 14,0 13,0 25,2 35,6 9,4 17,9 24,16 6,6 11,15 15,25 3,10 5,20 5,32zm187 -171c0,3 -1,5 -1,7 0,2 0,4 0,6 -1,2 -1,4 -2,5 0,3 -1,4 -2,6l-81 229c-1,2 -2,3 -2,4 -1,1 -3,2 -4,3 -1,0 -3,1 -5,1 -2,0 -5,0 -8,0 -4,0 -7,0 -9,0 -2,-1 -4,-1 -5,-2 -1,-1 -1,-3 -1,-4 0,-1 0,-3 1,-5l86 -233 -109 0c-2,0 -4,-2 -5,-5 -1,-2 -2,-7 -2,-12 0,-2 0,-5 1,-7 0,-2 1,-3 1,-5 1,-1 1,-2 2,-3 1,0 2,-1 3,-1l132 0c2,0 4,1 5,1 1,1 2,1 3,2 0,2 1,3 1,6 0,1 1,4 1,7zm182 0c0,3 0,5 0,7 0,2 0,4 -1,6 0,2 0,4 -1,5 -1,3 -1,4 -2,6l-82 229c0,2 -1,3 -2,4 -1,1 -2,2 -3,3 -2,0 -3,1 -6,1 -2,0 -4,0 -7,0 -4,0 -7,0 -9,0 -3,-1 -4,-1 -5,-2 -2,-1 -2,-3 -2,-4 0,-1 1,-3 2,-5l86 -233 -110 0c-2,0 -3,-2 -5,-5 -1,-2 -1,-7 -1,-12 0,-2 0,-5 0,-7 0,-2 1,-3 1,-5 1,-1 2,-2 3,-3 0,0 1,-1 2,-1l133 0c2,0 3,1 4,1 2,1 2,1 3,2 1,2 1,3 2,6 0,1 0,4 0,7zm185 189c0,12 -2,23 -6,32 -3,9 -8,17 -15,24 -6,6 -15,11 -24,14 -10,4 -21,5 -34,5 -11,0 -22,-1 -31,-4 -10,-4 -17,-8 -24,-14 -6,-6 -11,-13 -15,-21 -3,-9 -5,-18 -5,-30 0,-8 1,-16 4,-23 2,-8 6,-14 10,-20 4,-6 10,-12 16,-17 7,-6 14,-11 22,-15 -7,-5 -13,-10 -19,-14 -5,-6 -10,-11 -13,-17 -4,-5 -7,-11 -9,-18 -2,-6 -3,-13 -3,-21 0,-10 2,-19 5,-27 2,-9 7,-16 12,-23 6,-6 14,-10 23,-14 9,-4 19,-6 31,-6 12,0 21,2 30,5 8,4 15,8 21,14 5,6 9,12 12,20 2,8 3,16 3,25 0,7 0,14 -3,21 -1,7 -4,13 -8,19 -4,6 -8,12 -14,17 -5,5 -11,10 -19,15 9,4 16,10 23,15 6,5 12,11 16,17 5,6 8,12 10,19 3,7 4,14 4,22zm-39 -141c0,-6 0,-11 -2,-17 -1,-4 -4,-8 -7,-12 -4,-3 -8,-6 -12,-8 -6,-1 -11,-2 -17,-2 -13,0 -22,3 -29,10 -6,7 -10,17 -10,29 0,5 1,10 3,15 1,5 4,9 7,14 3,4 8,8 13,12 5,4 11,9 18,13 12,-7 21,-16 27,-25 7,-9 9,-19 9,-29zm8 145c0,-6 -1,-12 -3,-18 -2,-5 -5,-10 -9,-14 -4,-5 -9,-10 -15,-14 -6,-4 -13,-9 -21,-14 -7,5 -14,9 -20,14 -5,4 -10,9 -13,13 -4,5 -6,10 -8,15 -2,5 -3,11 -3,17 0,14 4,25 12,32 7,8 19,12 34,12 15,0 27,-4 35,-12 7,-8 11,-18 11,-31zm206 -12c0,13 -2,24 -5,34 -4,11 -9,19 -16,26 -7,8 -15,13 -25,17 -10,4 -21,6 -34,6 -8,0 -15,-1 -21,-2 -7,-2 -13,-3 -18,-6 -5,-2 -9,-4 -13,-6 -3,-2 -5,-4 -6,-5 -1,-1 -2,-2 -2,-3 -1,-1 -1,-2 -2,-3 0,-2 0,-3 0,-6 0,-2 -1,-4 -1,-7 0,-5 1,-9 2,-11 1,-2 2,-3 3,-3 1,0 3,1 7,3 3,3 7,5 11,8 5,3 11,5 17,7 7,2 14,4 22,4 8,0 15,-2 20,-4 7,-2 11,-6 15,-10 4,-5 7,-10 9,-16 2,-6 3,-13 3,-19 0,-8 -1,-15 -3,-21 -3,-7 -7,-12 -12,-17 -4,-4 -10,-8 -17,-10 -7,-3 -16,-4 -25,-4l-21 0c-1,0 -2,0 -3,0 -1,-1 -2,-2 -2,-3 -1,-1 -1,-3 -2,-4 0,-2 -1,-5 -1,-8 0,-2 1,-5 1,-6 1,-2 1,-3 2,-5 0,-1 1,-1 2,-2 0,0 2,-1 3,-1l19 0c8,0 15,-1 21,-3 6,-3 11,-6 16,-11 4,-4 7,-10 10,-16 2,-6 3,-13 3,-21 0,-6 -1,-12 -2,-17 -1,-5 -4,-9 -7,-13 -3,-4 -7,-7 -12,-9 -4,-2 -10,-4 -16,-4 -7,0 -13,2 -19,4 -5,3 -10,5 -15,8 -4,3 -8,6 -11,8 -3,3 -5,4 -6,4 -1,0 -2,0 -2,0 -1,-1 -2,-2 -2,-3 0,-1 -1,-2 -1,-4 0,-2 0,-5 0,-8 0,-2 0,-4 0,-5 0,-2 0,-4 1,-5 0,-1 1,-2 1,-3 0,-1 1,-2 2,-3 1,-2 4,-4 7,-6 4,-3 8,-5 13,-8 5,-3 10,-4 17,-6 6,-2 13,-3 21,-3 11,0 20,2 28,5 8,4 14,8 20,14 5,6 9,13 12,22 2,8 4,17 4,27 0,9 -2,17 -3,24 -2,8 -5,14 -9,20 -3,6 -8,11 -13,15 -5,4 -11,6 -18,8l0 1c8,0 15,3 21,7 7,3 13,8 17,14 5,6 8,12 11,20 3,7 4,15 4,24zm188 -181c0,3 0,5 0,7 -1,2 -1,4 -1,6 -1,2 -1,4 -2,5 0,3 -1,4 -1,6l-82 229c-1,2 -2,3 -2,4 -1,1 -2,2 -4,3 -1,0 -3,1 -5,1 -2,0 -5,0 -8,0 -4,0 -7,0 -9,0 -2,-1 -4,-1 -5,-2 -1,-1 -1,-3 -1,-4 0,-1 0,-3 1,-5l86 -233 -109 0c-2,0 -4,-2 -5,-5 -1,-2 -2,-7 -2,-12 0,-2 1,-5 1,-7 0,-2 1,-3 1,-5 1,-1 1,-2 2,-3 1,0 2,-1 3,-1l133 0c1,0 3,1 4,1 1,1 2,1 3,2 0,2 1,3 1,6 1,1 1,4 1,7zm185 171c0,12 -2,24 -5,35 -3,11 -8,21 -14,30 -6,8 -14,15 -24,20 -10,5 -21,8 -34,8 -10,0 -18,-1 -26,-4 -7,-3 -13,-7 -19,-12 -5,-5 -9,-12 -13,-20 -4,-7 -7,-16 -9,-26 -2,-10 -3,-21 -4,-32 -1,-12 -2,-24 -2,-38 0,-12 1,-23 2,-36 1,-11 3,-23 5,-34 3,-11 7,-22 12,-32 4,-10 10,-19 17,-26 7,-7 15,-13 25,-17 10,-4 21,-7 34,-7 4,0 8,1 13,1 4,1 8,2 12,3 4,1 7,2 10,3 2,2 4,3 5,3 1,1 1,2 2,3 0,1 1,2 1,3 0,1 0,2 0,4 0,1 0,3 0,5 0,2 0,5 0,6 0,2 0,4 0,5 -1,1 -1,2 -2,2 0,1 -2,1 -3,1 -1,0 -3,0 -5,-1 -2,-1 -5,-2 -8,-4 -3,-1 -7,-2 -11,-3 -5,-1 -10,-1 -16,-1 -11,0 -20,2 -28,8 -8,5 -14,13 -19,22 -6,8 -9,19 -12,31 -2,12 -3,25 -4,38 3,-3 7,-5 10,-6 4,-3 9,-5 13,-7 5,-1 9,-3 14,-4 6,-1 11,-1 17,-1 12,0 22,2 31,6 8,4 15,9 20,17 6,7 9,16 11,25 2,10 4,20 4,32zm-31 3c0,-8 0,-16 -2,-22 -1,-7 -3,-13 -7,-18 -3,-4 -7,-8 -12,-11 -6,-2 -12,-3 -20,-3 -4,0 -8,0 -13,1 -4,1 -8,2 -12,4 -5,1 -8,4 -12,6 -4,2 -7,4 -10,7 0,18 1,33 3,46 2,12 5,22 8,30 4,7 9,12 14,15 5,4 12,5 19,5 8,0 14,-2 20,-5 5,-3 10,-8 14,-14 3,-5 6,-12 7,-19 2,-7 3,-15 3,-22zm206 7c0,13 -2,24 -6,34 -3,11 -9,19 -15,26 -7,8 -15,13 -26,17 -10,4 -21,6 -33,6 -8,0 -15,-1 -22,-2 -6,-2 -12,-3 -17,-6 -6,-2 -10,-4 -13,-6 -3,-2 -6,-4 -7,-5 0,-1 -1,-2 -2,-3 0,-1 -1,-2 -1,-3 0,-2 0,-3 -1,-6 0,-2 0,-4 0,-7 0,-5 1,-9 1,-11 1,-2 2,-3 4,-3 1,0 3,1 6,3 3,3 7,5 12,8 5,3 10,5 17,7 7,2 14,4 22,4 7,0 14,-2 20,-4 6,-2 11,-6 15,-10 4,-5 7,-10 9,-16 2,-6 3,-13 3,-19 0,-8 -1,-15 -4,-21 -2,-7 -6,-12 -11,-17 -5,-4 -11,-8 -18,-10 -7,-3 -15,-4 -24,-4l-22 0c-1,0 -2,0 -2,0 -1,-1 -2,-2 -3,-3 0,-1 -1,-3 -1,-4 -1,-2 -1,-5 -1,-8 0,-2 0,-5 1,-6 0,-2 0,-3 1,-5 1,-1 2,-1 2,-2 1,0 2,-1 3,-1l20 0c8,0 15,-1 21,-3 6,-3 11,-6 15,-11 5,-4 8,-10 10,-16 3,-6 4,-13 4,-21 0,-6 -1,-12 -2,-17 -2,-5 -4,-9 -7,-13 -4,-4 -7,-7 -12,-9 -5,-2 -10,-4 -16,-4 -7,0 -13,2 -19,4 -6,3 -11,5 -16,8 -4,3 -8,6 -10,8 -3,3 -5,4 -7,4 -1,0 -1,0 -2,0 0,-1 -1,-2 -1,-3 -1,-1 -1,-2 -1,-4 -1,-2 -1,-5 -1,-8 0,-2 0,-4 0,-5 1,-2 1,-4 1,-5 1,-1 1,-2 2,-3 0,-1 1,-2 2,-3 1,-2 3,-4 7,-6 3,-3 7,-5 12,-8 5,-3 11,-4 17,-6 7,-2 14,-3 21,-3 11,0 20,2 28,5 8,4 15,8 20,14 6,6 10,13 12,22 3,8 4,17 4,27 0,9 -1,17 -3,24 -2,8 -4,14 -8,20 -4,6 -8,11 -13,15 -5,4 -12,6 -19,8l0 1c8,0 15,3 22,7 6,3 12,8 17,14 4,6 8,12 11,20 2,7 4,15 4,24z"/>
  <path class="fil0" d="M748 2541c0,1 -1,2 -1,4 0,1 0,3 -1,5l-46 182c-1,2 -2,3 -2,4 -1,1 -2,2 -4,2 -1,1 -3,2 -5,2 -2,0 -5,0 -9,0 -4,0 -6,0 -9,0 -2,-1 -4,-1 -6,-2 -1,0 -2,-1 -3,-2 -1,-1 -1,-2 -2,-4l-33 -139 0 -2 -1 2 -30 139c-1,2 -1,3 -2,4 -1,1 -2,2 -3,2 -2,1 -4,2 -6,2 -3,0 -6,0 -9,0 -4,0 -7,0 -9,0 -3,-1 -4,-1 -6,-2 -1,0 -2,-1 -3,-2 -1,-1 -1,-2 -1,-4l-47 -182c0,-2 -1,-4 -1,-5 0,-2 0,-3 0,-4 0,-1 0,-2 0,-3 1,-1 1,-1 3,-2 1,0 2,-1 4,-1 2,0 5,0 7,0 3,0 6,0 8,0 2,0 4,1 5,1 1,1 1,2 2,3 0,0 1,2 1,3l38 158 0 2 1 -2 35 -158c0,-1 0,-3 1,-3 1,-1 1,-2 2,-3 1,0 3,-1 5,-1 1,0 4,0 7,0 3,0 5,0 7,0 1,0 3,1 4,1 1,1 2,2 3,3 0,0 0,1 1,3l37 158 1 2 0 -2 37 -158c1,-1 1,-3 2,-3 0,-1 1,-2 2,-3 1,0 3,-1 4,-1 3,0 5,0 8,0 3,0 5,0 7,0 1,0 3,1 4,1 1,1 2,2 2,2 0,1 1,2 1,3zm257 0c0,1 0,2 0,4 -1,1 -1,3 -2,5l-46 182c0,2 -1,3 -2,4 -1,1 -2,2 -3,2 -1,1 -3,2 -6,2 -2,0 -5,0 -8,0 -4,0 -7,0 -10,0 -2,-1 -4,-1 -5,-2 -2,0 -3,-1 -4,-2 0,-1 -1,-2 -1,-4l-33 -139 -1 -2 0 2 -31 139c0,2 -1,3 -2,4 0,1 -1,2 -3,2 -2,1 -3,2 -6,2 -2,0 -5,0 -9,0 -4,0 -6,0 -9,0 -2,-1 -4,-1 -5,-2 -2,0 -3,-1 -4,-2 0,-1 -1,-2 -1,-4l-46 -182c-1,-2 -1,-4 -2,-5 0,-2 0,-3 0,-4 0,-1 0,-2 1,-3 0,-1 1,-1 2,-2 1,0 3,-1 5,-1 1,0 4,0 7,0 3,0 5,0 7,0 3,0 4,1 5,1 1,1 2,2 2,3 1,0 1,2 1,3l38 158 1 2 0 -2 35 -158c0,-1 1,-3 2,-3 0,-1 1,-2 2,-3 1,0 2,-1 4,-1 2,0 4,0 7,0 3,0 5,0 7,0 2,0 3,1 4,1 1,1 2,2 3,3 0,0 1,1 1,3l38 158 0 2 0 -2 38 -158c0,-1 0,-3 1,-3 0,-1 1,-2 2,-3 2,0 3,-1 5,-1 2,0 4,0 7,0 3,0 6,0 7,0 2,0 3,1 4,1 1,1 2,2 2,2 1,1 1,2 1,3zm258 0c0,1 -1,2 -1,4 0,1 -1,3 -1,5l-47 182c0,2 -1,3 -2,4 0,1 -1,2 -3,2 -1,1 -3,2 -5,2 -3,0 -6,0 -9,0 -4,0 -7,0 -9,0 -3,-1 -4,-1 -6,-2 -1,0 -2,-1 -3,-2 -1,-1 -2,-2 -2,-4l-33 -139 0 -2 -1 2 -30 139c-1,2 -1,3 -2,4 -1,1 -2,2 -3,2 -2,1 -4,2 -7,2 -2,0 -5,0 -9,0 -3,0 -6,0 -8,0 -3,-1 -5,-1 -6,-2 -1,0 -2,-1 -3,-2 -1,-1 -1,-2 -2,-4l-46 -182c0,-2 -1,-4 -1,-5 -1,-2 -1,-3 -1,-4 0,-1 1,-2 1,-3 1,-1 1,-1 3,-2 1,0 2,-1 4,-1 2,0 4,0 7,0 3,0 6,0 8,0 2,0 3,1 4,1 2,1 2,2 3,3 0,0 0,2 1,3l38 158 0 2 1 -2 35 -158c0,-1 0,-3 1,-3 0,-1 1,-2 2,-3 1,0 3,-1 4,-1 2,0 5,0 8,0 3,0 5,0 6,0 2,0 4,1 5,1 1,1 2,2 2,3 1,0 1,1 1,3l38 158 1 2 0 -2 37 -158c0,-1 1,-3 1,-3 1,-1 2,-2 3,-3 1,0 2,-1 4,-1 2,0 5,0 8,0 3,0 5,0 7,0 1,0 3,1 4,1 1,1 1,2 2,2 0,1 1,2 1,3zm73 175c0,10 -1,16 -4,20 -3,3 -8,4 -15,4 -7,0 -12,-1 -15,-4 -2,-3 -4,-10 -4,-20 0,-10 2,-17 4,-20 3,-3 8,-5 15,-5 7,0 12,2 15,5 3,3 4,10 4,20zm275 -175c0,1 0,2 0,4 -1,1 -1,3 -2,5l-46 182c-1,2 -1,3 -2,4 -1,1 -2,2 -3,2 -1,1 -4,2 -6,2 -2,0 -5,0 -8,0 -4,0 -7,0 -10,0 -2,-1 -4,-1 -5,-2 -2,0 -3,-1 -4,-2 0,-1 -1,-2 -1,-4l-34 -139 0 -2 0 2 -31 139c0,2 -1,3 -2,4 0,1 -2,2 -3,2 -2,1 -4,2 -6,2 -3,0 -5,0 -9,0 -4,0 -7,0 -9,0 -2,-1 -4,-1 -5,-2 -2,0 -3,-1 -4,-2 0,-1 -1,-2 -1,-4l-47 -182c0,-2 0,-4 -1,-5 0,-2 0,-3 0,-4 0,-1 0,-2 1,-3 0,-1 1,-1 2,-2 1,0 3,-1 5,-1 1,0 4,0 6,0 4,0 6,0 8,0 2,0 4,1 5,1 1,1 2,2 2,3 0,0 1,2 1,3l38 158 1 2 0 -2 35 -158c0,-1 1,-3 1,-3 1,-1 2,-2 3,-3 1,0 2,-1 4,-1 2,0 4,0 7,0 3,0 5,0 7,0 2,0 3,1 4,1 1,1 2,2 3,3 0,0 1,1 1,3l38 158 0 2 0 -2 37 -158c1,-1 1,-3 2,-3 0,-1 1,-2 2,-3 2,0 3,-1 5,-1 2,0 4,0 7,0 3,0 5,0 7,0 2,0 3,1 4,1 1,1 2,2 2,2 1,1 1,2 1,3zm183 94c0,16 -2,30 -5,44 -3,13 -8,24 -15,34 -7,9 -15,17 -25,22 -11,5 -22,8 -36,8 -13,0 -24,-3 -34,-7 -9,-5 -18,-12 -24,-21 -7,-9 -11,-19 -14,-33 -4,-12 -5,-27 -5,-43 0,-15 2,-30 5,-43 3,-13 8,-24 15,-34 7,-9 15,-17 25,-22 10,-5 22,-8 35,-8 13,0 25,3 35,7 9,5 17,12 24,20 6,10 11,21 14,33 3,13 5,27 5,43zm-30 3c0,-10 -1,-21 -3,-30 -1,-9 -4,-17 -8,-24 -3,-7 -8,-12 -15,-16 -6,-5 -14,-6 -23,-6 -8,0 -15,1 -22,5 -6,4 -11,9 -15,16 -4,7 -7,14 -9,24 -2,9 -3,19 -3,30 0,11 1,20 3,29 1,10 4,18 8,25 3,7 8,12 14,16 7,4 14,6 24,6 8,0 16,-2 22,-5 6,-4 11,-9 15,-16 4,-6 7,-15 9,-24 2,-9 3,-19 3,-30zm165 -84c0,3 0,6 0,8 0,2 0,4 -1,5 0,1 -1,2 -1,3 -1,0 -1,1 -2,1 -1,0 -2,-1 -4,-1 -1,-1 -3,-1 -4,-2 -2,-1 -4,-1 -6,-2 -2,0 -4,-1 -7,-1 -3,0 -6,1 -9,2 -2,2 -5,4 -8,7 -3,4 -7,8 -10,13 -4,6 -7,13 -11,20l0 127c0,0 0,2 -1,2 -1,1 -1,2 -2,2 -1,1 -3,1 -5,2 -1,0 -4,0 -7,0 -3,0 -5,0 -7,0 -2,-1 -3,-1 -4,-2 -1,0 -2,-1 -3,-2 0,0 0,-2 0,-2l0 -192c0,-1 0,-3 0,-3 0,-1 1,-2 2,-2 1,-1 3,-2 4,-2 2,0 4,0 7,0 3,0 5,0 6,0 2,0 3,1 4,2 1,0 2,1 2,2 1,0 1,2 1,3l0 28c4,-8 8,-14 12,-19 4,-5 7,-9 11,-12 3,-2 7,-4 10,-5 3,-1 7,-2 10,-2 2,0 3,0 5,0 2,1 4,1 6,2 3,0 4,1 6,1 2,1 3,2 4,3 0,1 1,1 1,2 0,0 1,1 1,2 0,1 0,3 0,4 0,3 0,5 0,8zm62 180c0,0 0,2 -1,2 0,1 -1,2 -2,2 -1,1 -2,1 -4,2 -2,0 -4,0 -7,0 -3,0 -5,0 -7,0 -2,-1 -4,-1 -5,-2 -1,0 -2,-1 -2,-2 -1,0 -1,-2 -1,-2l0 -285c0,-1 0,-2 1,-3 0,-1 1,-2 2,-2 1,-1 3,-1 5,-1 2,-1 4,-1 7,-1 3,0 5,0 7,1 2,0 3,0 4,1 1,0 2,1 2,2 1,1 1,2 1,3l0 285zm190 0c0,0 0,2 -1,3 -1,0 -1,1 -2,1 -1,1 -3,1 -4,2 -2,0 -4,0 -6,0 -3,0 -4,0 -6,0 -2,-1 -3,-1 -4,-2 -1,0 -2,-1 -3,-1 0,-1 0,-3 0,-3l0 -26c-9,11 -17,19 -26,26 -9,6 -19,9 -29,9 -12,0 -22,-3 -30,-9 -9,-5 -15,-12 -20,-21 -5,-10 -9,-21 -11,-34 -3,-12 -4,-25 -4,-39 0,-16 2,-32 4,-45 3,-13 8,-24 13,-34 6,-9 13,-16 22,-21 8,-5 18,-8 29,-8 9,0 18,3 26,7 7,5 15,13 22,22l0 -111c0,-1 1,-2 1,-3 0,-1 1,-2 3,-2 1,-1 2,-1 4,-2 2,0 4,0 7,0 3,0 5,0 7,0 2,1 4,1 4,2 1,0 2,1 3,2 1,1 1,2 1,3l0 284zm-30 -135c-8,-12 -15,-21 -22,-27 -8,-6 -15,-9 -23,-9 -8,0 -14,2 -19,6 -5,4 -9,10 -13,17 -3,7 -5,14 -7,23 -1,9 -2,18 -2,27 0,10 1,19 2,29 1,9 3,17 6,24 3,7 7,13 12,17 6,4 12,7 20,7 4,0 7,-1 11,-2 3,-1 7,-4 11,-7 3,-3 7,-6 11,-11 4,-5 9,-11 13,-18l0 -76zm170 -136c0,3 0,5 0,6 -1,2 -1,3 -2,5 0,0 0,1 -1,1 0,1 -1,1 -1,1 -1,0 -2,0 -3,-1 -2,-1 -3,-1 -5,-2 -2,-1 -4,-2 -6,-2 -3,-1 -5,-1 -8,-1 -5,0 -9,1 -12,2 -2,2 -5,5 -7,8 -2,4 -3,8 -4,15 -1,5 -1,12 -1,20l0 21 35 0c1,0 2,0 3,1 0,0 1,1 1,2 1,2 1,3 2,5 0,2 0,4 0,7 0,5 0,8 -2,11 -1,2 -2,3 -4,3l-35 0 0 169c0,0 0,2 -1,2 0,1 -1,2 -2,2 -1,1 -3,1 -5,2 -1,0 -4,0 -7,0 -2,0 -5,0 -7,0 -2,-1 -3,-1 -4,-2 -1,0 -2,-1 -3,-2 0,0 0,-2 0,-2l0 -169 -23 0c-1,0 -3,-1 -4,-3 -1,-3 -1,-6 -1,-11 0,-3 0,-5 0,-7 0,-2 1,-3 1,-5 0,-1 1,-2 2,-2 1,-1 1,-1 2,-1l23 0 0 -20c0,-13 1,-25 3,-34 2,-10 5,-18 9,-24 4,-6 10,-10 16,-13 6,-3 14,-5 22,-5 5,0 9,1 13,2 3,1 7,2 8,3 3,1 4,2 5,3 0,1 1,2 1,3 1,2 1,3 2,5 0,2 0,4 0,7zm142 271c0,1 0,3 -1,3 -1,1 -2,2 -4,3 -2,0 -4,0 -7,0 -3,0 -6,0 -8,0 -1,-1 -3,-2 -4,-3 0,0 -1,-2 -1,-3l0 -20c-7,9 -14,16 -23,21 -8,5 -17,8 -27,8 -8,0 -16,-2 -22,-4 -7,-3 -13,-7 -18,-12 -4,-4 -8,-11 -11,-18 -2,-7 -4,-15 -4,-25 0,-10 2,-20 6,-28 3,-8 9,-14 15,-19 7,-6 16,-10 25,-13 10,-2 21,-3 33,-3l22 0 0 -15c0,-8 0,-14 -2,-20 -1,-6 -3,-10 -6,-14 -3,-4 -6,-6 -11,-9 -5,-1 -10,-2 -17,-2 -7,0 -13,1 -19,3 -6,2 -11,4 -15,6 -5,3 -8,5 -11,7 -3,3 -5,3 -6,3 -1,0 -2,0 -3,0 0,-1 -1,-2 -1,-3 -1,-1 -2,-3 -2,-4 0,-2 0,-4 0,-6 0,-4 0,-7 0,-8 1,-3 2,-5 4,-6 1,-2 4,-4 8,-7 4,-2 8,-5 13,-7 5,-2 11,-4 16,-5 7,-1 13,-2 19,-2 11,0 21,2 29,5 8,3 14,8 19,14 5,5 8,13 11,22 2,9 3,19 3,31l0 130zm-29 -88l-25 0c-7,0 -14,1 -20,2 -6,2 -11,4 -15,8 -4,3 -7,7 -8,11 -2,5 -3,10 -3,15 0,11 3,18 8,24 5,6 12,9 22,9 7,0 14,-2 21,-7 6,-5 13,-12 20,-21l0 -41zm317 88c0,0 0,2 -1,2 0,1 -1,2 -2,2 -1,1 -3,1 -4,2 -2,0 -5,0 -7,0 -4,0 -6,0 -7,0 -3,-1 -4,-1 -5,-2 -1,0 -2,-1 -2,-2 -1,0 -1,-2 -1,-2l0 -117c0,-8 -1,-16 -2,-22 -1,-7 -3,-13 -6,-18 -2,-4 -5,-8 -9,-11 -4,-2 -9,-3 -14,-3 -7,0 -14,3 -21,9 -6,6 -14,15 -22,28l0 134c0,0 0,2 -1,2 0,1 -1,2 -2,2 -1,1 -3,1 -4,2 -2,0 -5,0 -8,0 -2,0 -4,0 -6,0 -2,-1 -4,-1 -5,-2 -1,0 -2,-1 -2,-2 -1,0 -1,-2 -1,-2l0 -117c0,-8 0,-16 -2,-22 -1,-7 -3,-13 -6,-18 -2,-4 -5,-8 -9,-11 -4,-2 -9,-3 -14,-3 -7,0 -14,3 -20,9 -7,6 -15,15 -23,28l0 134c0,0 0,2 -1,2 0,1 -1,2 -2,2 -1,1 -2,1 -4,2 -2,0 -4,0 -7,0 -3,0 -5,0 -7,0 -2,-1 -4,-1 -5,-2 -1,0 -2,-1 -2,-2 -1,0 -1,-2 -1,-2l0 -192c0,-1 0,-3 1,-3 0,-1 1,-2 2,-2 1,-1 2,-2 4,-2 2,0 4,0 6,0 3,0 5,0 7,0 2,0 3,1 4,2 1,0 2,1 2,2 0,0 1,2 1,3l0 25c8,-12 17,-21 26,-26 8,-6 16,-9 25,-9 6,0 12,1 17,3 6,2 10,4 14,7 4,4 8,8 11,13 2,4 5,9 6,15 6,-7 11,-13 16,-17 4,-5 9,-9 13,-12 5,-3 9,-6 13,-7 4,-1 8,-2 13,-2 10,0 18,2 25,7 7,4 13,10 17,17 5,7 7,16 9,25 2,10 3,20 3,31l0 122zm82 0c0,0 0,2 -1,2 0,1 -1,2 -2,2 -1,1 -3,1 -4,2 -2,0 -5,0 -8,0 -2,0 -5,0 -7,0 -2,-1 -3,-1 -4,-2 -1,0 -2,-1 -2,-2 -1,0 -1,-2 -1,-2l0 -192c0,-1 0,-2 1,-3 0,-1 1,-2 2,-2 1,-1 2,-1 4,-2 2,0 5,0 7,0 3,0 6,0 8,0 1,1 3,1 4,2 1,0 2,1 2,2 1,1 1,2 1,3l0 192zm3 -257c0,8 -1,14 -4,17 -2,3 -7,4 -14,4 -7,0 -11,-1 -14,-4 -2,-3 -4,-9 -4,-17 0,-8 2,-13 4,-17 3,-3 8,-4 14,-4 7,0 12,1 14,4 3,4 4,9 4,17zm80 257c0,0 0,2 -1,2 0,1 -1,2 -2,2 -1,1 -3,1 -5,2 -1,0 -4,0 -7,0 -3,0 -5,0 -7,0 -2,-1 -3,-1 -4,-2 -1,0 -2,-1 -2,-2 -1,0 -1,-2 -1,-2l0 -285c0,-1 0,-2 1,-3 0,-1 1,-2 2,-2 1,-1 2,-1 4,-1 2,-1 4,-1 7,-1 3,0 6,0 7,1 2,0 4,0 5,1 1,0 2,1 2,2 1,1 1,2 1,3l0 285zm126 5l-22 70c0,3 -2,4 -5,6 -3,1 -7,1 -13,1 -3,0 -5,0 -7,0 -2,0 -4,-1 -4,-2 -2,-1 -2,-2 -2,-3 0,-2 0,-4 0,-6l22 -66c-1,-1 -2,-2 -2,-3 -2,-1 -2,-2 -3,-4l-56 -183c-1,-3 -1,-6 -1,-7 0,-2 0,-3 1,-4 1,-1 2,-2 5,-3 2,0 5,0 8,0 3,0 6,0 8,0 2,0 4,1 5,2 1,0 2,1 3,2 0,1 1,3 1,4l45 154 1 0 44 -155c0,-2 1,-4 2,-5 1,-1 3,-1 5,-2 2,0 5,0 8,0 3,0 6,0 8,0 2,1 4,2 5,3 1,1 2,2 2,4 0,1 -1,4 -1,6l-57 191zm120 -5c0,0 0,2 -1,2 -1,1 -1,2 -2,2 -1,1 -3,1 -5,2 -1,0 -4,0 -7,0 -3,0 -5,0 -7,0 -2,-1 -3,-1 -4,-2 -1,0 -2,-1 -3,-2 0,0 0,-2 0,-2l0 -192c0,-1 0,-2 0,-3 1,-1 2,-2 3,-2 1,-1 2,-1 4,-2 2,0 4,0 7,0 3,0 6,0 7,0 2,1 4,1 5,2 1,0 1,1 2,2 1,1 1,2 1,3l0 192zm3 -257c0,8 -1,14 -4,17 -2,3 -7,4 -14,4 -7,0 -11,-1 -14,-4 -2,-3 -4,-9 -4,-17 0,-8 2,-13 4,-17 3,-3 7,-4 14,-4 7,0 12,1 14,4 3,4 4,9 4,17zm196 158c0,17 -1,31 -4,45 -4,13 -8,24 -14,34 -5,9 -13,16 -21,21 -9,5 -18,8 -29,8 -5,0 -10,-1 -14,-2 -4,-1 -8,-3 -13,-6 -4,-3 -8,-6 -12,-10 -4,-4 -8,-9 -13,-15l0 24c0,0 0,2 -1,3 0,0 -1,1 -2,1 -1,1 -2,1 -4,2 -2,0 -3,0 -6,0 -2,0 -4,0 -6,0 -1,-1 -3,-1 -4,-2 -1,0 -2,-1 -2,-1 0,-1 0,-3 0,-3l0 -285c0,-1 0,-2 0,-3 1,-1 1,-2 2,-2 1,-1 3,-1 5,-1 2,-1 4,-1 7,-1 3,0 5,0 7,1 2,0 3,0 4,1 2,0 2,1 3,2 0,1 0,2 0,3l0 115c5,-6 10,-11 14,-15 4,-4 9,-7 13,-10 4,-2 9,-4 13,-5 4,-1 8,-2 13,-2 11,0 22,3 29,8 9,6 15,13 20,23 5,9 9,20 11,32 3,13 4,26 4,40zm-31 4c0,-10 0,-19 -1,-28 -2,-10 -4,-18 -7,-25 -3,-7 -7,-13 -12,-17 -5,-4 -11,-6 -19,-6 -3,0 -7,0 -11,1 -4,2 -7,4 -11,7 -4,2 -8,6 -12,11 -4,5 -8,11 -13,18l0 76c8,12 16,21 23,27 8,7 15,10 23,10 7,0 13,-3 19,-7 5,-4 9,-10 12,-17 3,-7 6,-15 7,-24 2,-8 2,-17 2,-26zm103 95c0,0 0,2 0,2 -1,1 -1,2 -3,2 -1,1 -2,1 -4,2 -2,0 -4,0 -7,0 -3,0 -5,0 -7,0 -2,-1 -4,-1 -5,-2 -1,0 -1,-1 -2,-2 0,0 0,-2 0,-2l0 -192c0,-1 0,-2 0,-3 1,-1 1,-2 2,-2 1,-1 3,-1 5,-2 2,0 4,0 7,0 3,0 5,0 7,0 2,1 3,1 4,2 2,0 2,1 3,2 0,1 0,2 0,3l0 192zm4 -257c0,8 -2,14 -4,17 -3,3 -7,4 -14,4 -7,0 -12,-1 -14,-4 -3,-3 -4,-9 -4,-17 0,-8 1,-13 4,-17 2,-3 7,-4 14,-4 7,0 11,1 14,4 2,4 4,9 4,17zm151 247c0,3 0,5 0,7 -1,2 -1,3 -2,4 0,2 -1,2 -1,3 -1,0 -2,1 -3,1l-98 0c-2,0 -4,-1 -6,-3 -1,-2 -2,-6 -2,-10l0 -7c0,-3 0,-4 1,-6 0,-1 0,-3 0,-4 1,-2 2,-4 2,-6 1,-1 2,-4 3,-6l70 -131 -68 0c-1,0 -3,-1 -4,-4 -1,-2 -2,-6 -2,-11 0,-3 0,-5 1,-7 0,-2 0,-3 1,-5 0,-1 1,-2 2,-2 1,-1 1,-1 2,-1l91 0c2,0 3,0 3,1 1,0 3,1 3,2 1,1 1,2 2,4 0,1 0,3 0,6l0 7c0,2 0,3 0,5 0,2 -1,3 -1,5 0,2 -1,4 -2,5 -1,2 -2,4 -3,6l-69 132 74 0c1,0 1,1 3,1 0,0 1,1 1,2 1,1 1,3 2,5 0,2 0,4 0,7zm161 10c0,1 -1,3 -2,3 -1,1 -2,2 -4,3 -1,0 -4,0 -7,0 -3,0 -5,0 -7,0 -2,-1 -3,-2 -4,-3 -1,0 -1,-2 -1,-3l0 -20c-7,9 -15,16 -24,21 -8,5 -17,8 -27,8 -8,0 -15,-2 -22,-4 -7,-3 -12,-7 -17,-12 -5,-4 -9,-11 -11,-18 -3,-7 -4,-15 -4,-25 0,-10 2,-20 5,-28 4,-8 9,-14 16,-19 6,-6 15,-10 25,-13 10,-2 21,-3 33,-3l22 0 0 -15c0,-8 -1,-14 -2,-20 -1,-6 -4,-10 -6,-14 -3,-4 -7,-6 -12,-9 -4,-1 -10,-2 -16,-2 -8,0 -14,1 -20,3 -5,2 -10,4 -15,6 -4,3 -8,5 -10,7 -3,3 -5,3 -7,3 -1,0 -1,0 -2,0 -1,-1 -2,-2 -2,-3 -1,-1 -1,-3 -1,-4 0,-2 -1,-4 -1,-6 0,-4 1,-7 1,-8 0,-3 1,-5 3,-6 2,-2 4,-4 8,-7 4,-2 8,-5 13,-7 6,-2 11,-4 17,-5 6,-1 12,-2 18,-2 12,0 21,2 29,5 8,3 15,8 20,14 4,5 8,13 10,22 3,9 4,19 4,31l0 130zm-29 -88l-25 0c-8,0 -15,1 -21,2 -6,2 -10,4 -14,8 -4,3 -7,7 -9,11 -2,5 -2,10 -2,15 0,11 2,18 7,24 6,6 13,9 22,9 8,0 15,-2 21,-7 7,-5 14,-12 21,-21l0 -41zm119 70c0,10 -1,16 -4,20 -2,3 -7,4 -15,4 -7,0 -12,-1 -14,-4 -3,-3 -4,-10 -4,-20 0,-10 1,-17 4,-20 2,-3 8,-5 15,-5 7,0 12,2 14,5 3,3 4,10 4,20zm168 -12c0,2 0,5 -1,6 0,2 0,4 0,5 0,1 -1,2 -1,3 -1,1 -1,2 -3,4 -1,2 -4,4 -7,7 -4,2 -8,5 -12,7 -5,2 -9,4 -15,5 -5,1 -10,2 -16,2 -11,0 -21,-3 -30,-7 -9,-5 -16,-11 -22,-20 -6,-9 -10,-20 -13,-32 -4,-13 -5,-28 -5,-44 0,-19 2,-35 6,-49 3,-13 9,-25 15,-33 7,-9 15,-15 24,-19 9,-4 18,-7 29,-7 5,0 10,1 14,2 5,1 9,3 13,5 4,1 8,3 11,6 3,2 6,4 7,6 1,2 2,3 3,4 0,1 1,2 1,4 0,1 1,3 1,4 0,2 0,4 0,7 0,5 -1,9 -2,11 -1,2 -2,3 -3,3 -2,0 -4,-1 -6,-3 -3,-2 -6,-5 -9,-8 -4,-3 -8,-5 -13,-7 -5,-3 -11,-4 -18,-4 -14,0 -24,7 -32,19 -7,13 -11,32 -11,57 0,12 1,23 3,32 2,10 5,18 9,24 3,6 8,11 13,14 6,3 12,4 19,4 7,0 13,-1 18,-3 5,-3 9,-6 13,-9 4,-3 6,-6 9,-8 3,-3 5,-4 6,-4 1,0 2,0 2,1 1,0 1,1 2,3 0,1 0,3 0,5 0,2 1,4 1,7zm185 -69c0,16 -1,30 -5,44 -3,13 -8,24 -15,34 -7,9 -15,17 -25,22 -10,5 -22,8 -35,8 -13,0 -25,-3 -35,-7 -9,-5 -17,-12 -24,-21 -6,-9 -11,-19 -14,-33 -3,-12 -5,-27 -5,-43 0,-15 2,-30 5,-43 3,-13 8,-24 15,-34 7,-9 15,-17 26,-22 10,-5 21,-8 35,-8 13,0 24,3 34,7 9,5 18,12 24,20 7,10 11,21 15,33 3,13 4,27 4,43zm-30 3c0,-10 -1,-21 -3,-30 -1,-9 -4,-17 -7,-24 -4,-7 -9,-12 -15,-16 -6,-5 -14,-6 -23,-6 -9,0 -16,1 -23,5 -6,4 -11,9 -15,16 -4,7 -7,14 -8,24 -2,9 -3,19 -3,30 0,11 1,20 2,29 1,10 4,18 8,25 3,7 8,12 15,16 6,4 14,6 23,6 8,0 16,-2 22,-5 6,-4 11,-9 15,-16 4,-6 7,-15 9,-24 2,-9 3,-19 3,-30zm308 96c0,0 -1,2 -1,2 -1,1 -1,2 -2,2 -2,1 -3,1 -5,2 -2,0 -4,0 -7,0 -3,0 -5,0 -7,0 -2,-1 -3,-1 -5,-2 -1,0 -1,-1 -2,-2 0,0 0,-2 0,-2l0 -117c0,-8 -1,-16 -2,-22 -2,-7 -3,-13 -6,-18 -2,-4 -6,-8 -10,-11 -4,-2 -8,-3 -14,-3 -7,0 -13,3 -20,9 -7,6 -14,15 -22,28l0 134c0,0 -1,2 -1,2 0,1 -1,2 -2,2 -2,1 -3,1 -5,2 -2,0 -4,0 -7,0 -2,0 -5,0 -7,0 -2,-1 -3,-1 -4,-2 -2,0 -2,-1 -3,-2 0,0 0,-2 0,-2l0 -117c0,-8 -1,-16 -2,-22 -2,-7 -3,-13 -6,-18 -2,-4 -6,-8 -10,-11 -4,-2 -8,-3 -14,-3 -7,0 -13,3 -20,9 -7,6 -14,15 -22,28l0 134c0,0 0,2 -1,2 0,1 -1,2 -2,2 -1,1 -3,1 -4,2 -2,0 -5,0 -8,0 -2,0 -5,0 -7,0 -2,-1 -3,-1 -4,-2 -1,0 -2,-1 -2,-2 -1,0 -1,-2 -1,-2l0 -192c0,-1 0,-3 0,-3 1,-1 1,-2 3,-2 1,-1 2,-2 4,-2 1,0 3,0 6,0 3,0 5,0 6,0 2,0 4,1 4,2 2,0 2,1 3,2 0,0 0,2 0,3l0 25c9,-12 18,-21 26,-26 9,-6 17,-9 25,-9 7,0 13,1 18,3 5,2 10,4 14,7 4,4 7,8 10,13 3,4 5,9 7,15 5,-7 10,-13 15,-17 5,-5 10,-9 14,-12 4,-3 8,-6 13,-7 4,-1 8,-2 12,-2 10,0 19,2 26,7 7,4 13,10 17,17 4,7 7,16 9,25 2,10 3,20 3,31l0 122z"/>
  <path class="fil0" d="M555 3113c0,1 0,2 -1,3 0,1 -1,2 -2,2 -1,1 -2,1 -4,1 -2,1 -5,1 -7,1 -3,0 -5,0 -8,-1 -1,0 -3,0 -4,-1 -1,0 -2,-1 -2,-2 -1,-1 -1,-2 -1,-3l0 -192c0,0 0,-1 1,-2 0,-1 1,-2 2,-2 1,-1 3,-1 4,-2 3,0 5,0 8,0 2,0 5,0 7,0 2,1 3,1 4,2 1,0 2,1 2,2 1,1 1,2 1,2l0 192zm4 -256c0,8 -2,14 -4,16 -3,3 -8,5 -15,5 -7,0 -11,-2 -13,-4 -3,-3 -4,-9 -4,-17 0,-8 1,-14 4,-17 2,-3 7,-4 14,-4 6,0 11,1 14,4 2,3 4,9 4,17zm186 256c0,1 0,2 -1,3 0,1 -1,2 -2,2 -1,1 -2,1 -4,1 -2,1 -4,1 -7,1 -3,0 -6,0 -8,-1 -1,0 -3,0 -4,-1 -1,0 -2,-1 -2,-2 -1,-1 -1,-2 -1,-3l0 -112c0,-11 0,-20 -2,-26 -1,-7 -4,-13 -6,-18 -3,-5 -6,-8 -10,-11 -5,-2 -10,-4 -16,-4 -7,0 -14,3 -21,10 -7,6 -15,15 -23,27l0 134c0,1 0,2 -1,3 0,1 -1,2 -2,2 -1,1 -3,1 -4,1 -2,1 -5,1 -8,1 -3,0 -5,0 -7,-1 -2,0 -3,0 -4,-1 -1,0 -2,-1 -2,-2 -1,-1 -1,-2 -1,-3l0 -192c0,0 0,-2 0,-2 1,-1 1,-2 2,-2 2,-1 3,-2 4,-2 2,0 4,0 7,0 3,0 5,0 6,0 2,0 4,1 4,2 1,0 2,1 3,2 0,0 0,2 0,2l0 26c9,-12 18,-21 27,-26 9,-6 18,-9 27,-9 10,0 19,2 26,6 7,5 13,10 18,18 4,7 7,15 9,25 2,10 3,21 3,35l0 117zm140 -270c0,3 -1,5 -1,6 0,2 0,3 -1,4 0,1 0,2 -1,2 0,1 -1,1 -2,1 0,0 -1,0 -2,-1 -2,-1 -3,-2 -5,-3 -2,0 -4,-1 -6,-2 -3,0 -5,-1 -9,-1 -4,0 -8,1 -11,3 -3,2 -5,4 -7,8 -2,4 -3,8 -4,14 -1,6 -1,13 -1,21l0 21 35 0c1,0 2,0 2,1 1,0 2,1 2,2 1,2 1,3 1,5 1,2 1,4 1,7 0,5 -1,8 -2,11 -1,2 -2,3 -4,3l-35 0 0 168c0,1 -1,2 -1,3 0,1 -1,2 -3,2 -1,1 -2,1 -4,1 -2,1 -4,1 -7,1 -3,0 -5,0 -7,-1 -2,0 -4,0 -5,-1 -1,0 -1,-1 -2,-2 0,-1 0,-2 0,-3l0 -168 -23 0c-2,0 -3,-1 -4,-3 -1,-3 -2,-6 -2,-11 0,-3 0,-5 1,-7 0,-2 1,-3 1,-5 0,-1 1,-2 2,-2 0,-1 1,-1 2,-1l23 0 0 -20c0,-13 1,-25 2,-34 3,-10 6,-18 10,-24 4,-6 9,-10 16,-13 6,-3 14,-5 22,-5 5,0 9,1 13,2 3,1 6,2 8,3 2,1 4,2 4,3 1,0 2,1 2,3 1,1 1,3 1,5 0,2 1,4 1,7zm170 172c0,16 -2,30 -5,43 -4,13 -9,25 -16,34 -6,10 -15,17 -25,23 -10,5 -22,7 -35,7 -13,0 -24,-2 -34,-7 -10,-4 -18,-11 -24,-20 -7,-9 -11,-20 -15,-33 -3,-12 -4,-27 -4,-43 0,-16 1,-30 5,-43 3,-13 8,-25 15,-34 7,-10 15,-17 25,-22 10,-6 22,-8 35,-8 13,0 25,2 34,7 10,5 18,12 25,20 6,9 11,20 14,33 3,13 5,27 5,43zm-31 2c0,-10 -1,-20 -2,-29 -2,-9 -4,-17 -8,-24 -4,-7 -9,-13 -15,-16 -6,-5 -14,-7 -23,-7 -8,0 -16,2 -22,6 -6,4 -11,9 -15,15 -4,7 -7,15 -9,24 -2,10 -3,20 -3,31 0,10 1,20 2,29 2,10 5,18 8,25 4,7 9,12 15,16 7,4 14,6 23,6 9,0 16,-2 22,-5 7,-4 12,-10 16,-16 3,-7 7,-15 9,-24 1,-9 2,-19 2,-31zm338 -62c0,10 -1,19 -2,29 -1,10 -3,20 -5,30 -2,9 -5,18 -8,26 -4,9 -9,17 -14,23 -5,6 -11,11 -18,15 -7,3 -15,5 -24,5 -5,0 -10,0 -14,-2 -4,-1 -7,-3 -10,-6 -4,-2 -6,-5 -9,-9 -2,-5 -3,-9 -4,-14 -5,5 -9,10 -14,14 -4,4 -8,8 -13,10 -4,3 -8,5 -12,5 -4,2 -8,2 -12,2 -5,0 -9,0 -13,-2 -4,-1 -8,-3 -10,-5 -3,-2 -6,-5 -8,-8 -2,-4 -4,-7 -5,-12 -2,-4 -3,-9 -3,-14 -1,-5 -1,-11 -1,-16 0,-6 0,-13 1,-22 1,-8 2,-15 4,-24 2,-8 4,-16 8,-25 3,-7 7,-15 12,-21 5,-6 11,-11 17,-15 7,-4 15,-6 24,-6 3,0 7,0 11,1 3,1 6,3 9,5 4,3 7,5 10,9 3,3 6,7 8,12l4 -19c0,-2 1,-3 3,-4 1,-1 5,-2 9,-2 2,0 4,0 5,1 2,0 3,1 4,1 1,0 1,1 1,2 1,1 1,1 0,2l-15 98c-2,13 -2,22 1,28 3,6 8,8 16,8 5,0 9,-1 13,-4 4,-3 7,-7 11,-12 2,-5 5,-10 7,-17 2,-7 3,-14 5,-21 1,-7 2,-15 3,-22 0,-8 0,-15 0,-23 0,-12 -1,-24 -4,-35 -2,-11 -7,-21 -14,-29 -6,-9 -15,-16 -27,-20 -11,-6 -25,-8 -42,-8 -14,0 -26,2 -37,6 -11,3 -20,8 -28,15 -9,6 -15,13 -21,22 -6,7 -11,17 -15,26 -4,9 -7,18 -10,28 -3,10 -4,19 -5,28 -2,9 -3,18 -3,26 -1,8 -1,15 -1,20 0,16 2,30 5,43 3,13 8,24 15,34 8,10 17,17 30,22 12,5 28,8 47,8 8,0 16,0 23,-2 7,-1 13,-2 18,-4 5,-1 9,-2 12,-3 4,-1 6,-2 7,-2 1,0 1,0 2,1 0,0 1,1 1,2 1,1 1,2 1,4 0,2 0,4 0,6 0,2 0,4 0,5 0,1 0,3 0,4 -1,0 -1,2 -2,3 0,0 -1,1 -1,2 -1,1 -3,2 -6,3 -4,2 -8,3 -14,4 -6,2 -12,3 -20,4 -7,1 -16,1 -25,1 -22,0 -40,-3 -56,-9 -15,-6 -27,-15 -37,-27 -9,-12 -16,-25 -20,-42 -4,-16 -7,-35 -7,-55 0,-7 1,-15 1,-25 1,-9 2,-20 4,-31 2,-11 4,-22 8,-33 3,-11 7,-22 13,-33 5,-11 11,-21 18,-31 8,-9 16,-18 27,-25 10,-7 22,-13 34,-17 14,-4 29,-6 45,-6 19,0 36,3 50,9 14,5 25,13 34,23 10,11 17,23 21,38 4,15 7,31 7,49zm-103 13c-4,-9 -9,-16 -13,-20 -5,-5 -10,-7 -16,-7 -5,0 -9,1 -13,4 -4,3 -8,6 -11,11 -3,5 -5,10 -7,16 -2,6 -4,12 -5,18 -1,6 -3,12 -3,17 -1,6 -1,11 -1,16 0,10 2,18 5,24 3,6 8,8 16,8 2,0 5,0 8,-1 3,-2 6,-3 10,-6 3,-2 6,-6 10,-10 4,-4 8,-8 12,-14l8 -56zm382 -47c0,1 -1,2 -1,4 0,1 0,3 -1,5l-47 182c0,2 -1,3 -1,4 -1,1 -2,2 -4,2 -1,1 -3,1 -5,1 -2,1 -5,1 -9,1 -4,0 -6,0 -9,-1 -2,0 -4,0 -6,-1 -1,0 -2,-1 -3,-2 -1,-1 -1,-2 -2,-4l-33 -139 0 -2 -1 2 -30 139c-1,2 -1,3 -2,4 -1,1 -2,2 -3,2 -2,1 -4,1 -6,1 -3,1 -6,1 -9,1 -4,0 -7,0 -9,-1 -3,0 -4,0 -6,-1 -1,0 -2,-1 -3,-2 -1,-1 -1,-2 -1,-4l-47 -182c0,-2 -1,-4 -1,-5 0,-2 0,-3 0,-4 0,-1 0,-2 0,-3 1,-1 1,-1 3,-2 1,0 2,-1 4,-1 2,0 5,0 7,0 3,0 6,0 8,0 2,0 4,1 5,1 1,1 1,1 2,2 0,1 1,3 1,4l38 158 0 1 1 -1 35 -158c0,-1 0,-3 1,-4 1,-1 1,-1 2,-2 1,0 3,-1 5,-1 1,0 4,0 7,0 3,0 5,0 7,0 1,0 3,1 4,1 1,1 2,1 3,2 0,1 0,2 1,3l37 159 1 1 0 -1 37 -158c1,-1 1,-3 2,-4 0,-1 1,-1 2,-2 1,0 3,-1 4,-1 3,0 5,0 8,0 3,0 5,0 7,0 1,0 3,1 4,1 1,1 2,1 2,2 0,1 1,2 1,3zm183 94c0,16 -2,30 -5,43 -4,13 -9,25 -16,34 -6,10 -15,17 -25,23 -10,5 -22,7 -35,7 -13,0 -25,-2 -34,-7 -10,-4 -18,-11 -24,-20 -7,-9 -12,-20 -15,-33 -3,-12 -4,-27 -4,-43 0,-16 1,-30 5,-43 3,-13 8,-25 15,-34 7,-10 15,-17 25,-22 10,-6 22,-8 35,-8 13,0 25,2 34,7 10,5 18,12 25,20 6,9 11,20 14,33 3,13 5,27 5,43zm-31 2c0,-10 -1,-20 -2,-29 -2,-9 -4,-17 -8,-24 -4,-7 -9,-13 -15,-16 -6,-5 -14,-7 -23,-7 -9,0 -16,2 -22,6 -6,4 -11,9 -15,15 -4,7 -7,15 -9,24 -2,10 -3,20 -3,31 0,10 1,20 2,29 2,10 5,18 8,25 4,7 9,12 15,16 6,4 14,6 23,6 9,0 16,-2 22,-5 6,-4 12,-10 15,-16 4,-7 8,-15 9,-24 2,-9 3,-19 3,-31zm166 -83c0,3 0,6 0,8 0,2 -1,4 -1,5 0,1 -1,2 -1,3 -1,0 -2,1 -3,1 0,0 -2,-1 -3,-1 -1,-1 -3,-2 -5,-2 -1,-1 -3,-1 -5,-2 -3,-1 -5,-1 -7,-1 -3,0 -6,1 -9,2 -2,2 -6,4 -9,7 -3,4 -6,8 -9,13 -4,6 -7,12 -12,20l0 126c0,1 0,2 0,3 -1,1 -2,2 -3,2 -1,1 -2,1 -4,1 -2,1 -4,1 -7,1 -3,0 -5,0 -7,-1 -2,0 -4,0 -5,-1 -1,0 -1,-1 -2,-2 -1,-1 -1,-2 -1,-3l0 -192c0,0 0,-2 1,-2 0,-1 1,-2 2,-2 1,-1 2,-2 4,-2 2,0 4,0 6,0 3,0 5,0 7,0 2,0 3,1 4,2 1,0 2,1 2,2 0,0 1,2 1,2l0 28c4,-7 8,-14 12,-18 4,-5 7,-9 11,-12 3,-2 6,-5 10,-5 3,-1 6,-2 10,-2 1,0 3,0 5,0 2,1 4,1 6,2 2,0 4,0 6,1 2,1 3,2 3,2 1,1 2,2 2,3 0,0 0,1 0,2 1,1 1,2 1,4 0,2 0,5 0,8zm62 179c0,1 0,2 -1,3 0,1 -1,2 -2,2 -1,1 -3,1 -4,1 -2,1 -5,1 -8,1 -2,0 -5,0 -7,-1 -2,0 -3,0 -4,-1 -1,0 -2,-1 -2,-2 -1,-1 -1,-2 -1,-3l0 -285c0,0 0,-2 1,-2 0,-1 1,-2 2,-2 1,-1 2,-2 4,-2 2,0 5,0 7,0 3,0 6,0 8,0 1,0 3,1 4,2 1,0 2,1 2,2 1,0 1,2 1,2l0 285zm189 0c0,1 0,2 0,3 -1,1 -2,2 -2,2 -1,1 -3,1 -4,1 -2,1 -4,1 -6,1 -3,0 -5,0 -6,-1 -2,0 -3,0 -4,-1 -2,0 -2,-1 -3,-2 0,-1 -1,-2 -1,-3l0 -25c-8,11 -17,19 -26,25 -8,6 -18,9 -29,9 -12,0 -21,-2 -30,-8 -8,-5 -14,-12 -19,-22 -5,-9 -9,-20 -12,-33 -2,-12 -3,-26 -3,-39 0,-17 1,-32 4,-45 3,-13 7,-24 13,-34 6,-9 13,-17 22,-21 8,-6 18,-8 29,-8 9,0 18,2 25,7 8,5 16,12 23,22l0 -112c0,-1 0,-1 1,-2 0,-1 1,-2 2,-2 1,-1 3,-1 5,-2 1,0 4,0 6,0 3,0 6,0 8,0 1,1 3,1 4,2 1,0 2,1 3,2 0,1 0,1 0,2l0 284zm-29 -134c-8,-12 -15,-21 -23,-28 -7,-6 -15,-9 -23,-9 -7,0 -13,3 -18,6 -5,5 -10,10 -13,17 -3,7 -5,15 -7,24 -2,9 -2,18 -2,27 0,10 0,19 2,28 1,10 3,17 6,25 3,7 7,13 12,17 5,4 12,6 19,6 4,0 8,0 11,-1 4,-2 8,-4 11,-7 4,-3 8,-6 12,-11 4,-5 9,-11 13,-18l0 -76zm170 -136c0,3 -1,5 -1,6 0,2 0,3 -1,4 0,1 -1,2 -1,2 0,1 -1,1 -2,1 0,0 -1,0 -3,-1 -1,-1 -2,-2 -4,-3 -2,0 -4,-1 -6,-2 -3,0 -5,-1 -9,-1 -4,0 -8,1 -11,3 -3,2 -5,4 -7,8 -2,4 -3,8 -4,14 -1,6 -1,13 -1,21l0 21 35 0c1,0 2,0 2,1 1,0 1,1 2,2 1,2 1,3 1,5 1,2 1,4 1,7 0,5 -1,8 -2,11 -1,2 -2,3 -4,3l-35 0 0 168c0,1 -1,2 -1,3 0,1 -2,2 -3,2 -1,1 -2,1 -4,1 -2,1 -4,1 -7,1 -3,0 -5,0 -7,-1 -2,0 -4,0 -5,-1 -1,0 -1,-1 -2,-2 -1,-1 -1,-2 -1,-3l0 -168 -22 0c-2,0 -3,-1 -4,-3 -1,-3 -2,-6 -2,-11 0,-3 0,-5 1,-7 0,-2 0,-3 1,-5 0,-1 1,-2 2,-2 0,-1 1,-1 2,-1l22 0 0 -20c0,-13 2,-25 3,-34 2,-10 6,-18 10,-24 4,-6 9,-10 16,-13 6,-3 14,-5 22,-5 5,0 8,1 12,2 4,1 7,2 9,3 2,1 4,2 4,3 1,0 2,1 2,3 1,1 1,3 1,5 0,2 1,4 1,7zm142 270c0,2 -1,3 -2,4 -1,1 -2,2 -4,2 -1,1 -4,1 -7,1 -3,0 -5,0 -7,-1 -2,0 -3,-1 -4,-2 -1,-1 -1,-2 -1,-4l0 -19c-7,9 -15,16 -23,21 -9,5 -18,7 -27,7 -9,0 -16,-1 -23,-3 -7,-3 -12,-7 -17,-12 -5,-5 -9,-11 -11,-18 -3,-8 -4,-15 -4,-25 0,-10 2,-20 5,-28 4,-8 9,-14 16,-20 7,-5 15,-9 25,-12 10,-2 21,-4 33,-4l22 0 0 -14c0,-8 -1,-14 -2,-20 -1,-6 -3,-11 -6,-14 -3,-4 -7,-7 -11,-9 -5,-2 -10,-2 -17,-2 -8,0 -14,0 -19,3 -6,2 -11,4 -16,6 -4,3 -7,5 -10,7 -3,2 -5,3 -6,3 -2,0 -2,0 -3,-1 -1,0 -1,-1 -2,-2 0,-1 -1,-3 -1,-5 0,-1 -1,-3 -1,-5 0,-4 1,-7 1,-9 1,-2 2,-4 3,-6 2,-1 4,-4 8,-6 4,-2 9,-5 14,-7 5,-2 10,-4 16,-5 6,-1 12,-2 19,-2 11,0 20,2 28,5 8,3 15,7 20,14 4,5 8,13 11,22 2,9 3,19 3,31l0 129zm-29 -87l-25 0c-8,0 -15,1 -21,2 -5,2 -10,4 -14,8 -4,3 -7,7 -9,11 -2,4 -2,10 -2,15 0,10 2,18 7,24 6,6 13,9 22,9 8,0 15,-2 22,-7 6,-5 13,-12 20,-21l0 -41zm317 87c0,1 -1,2 -1,3 -1,1 -1,2 -2,2 -1,1 -3,1 -5,1 -2,1 -4,1 -7,1 -3,0 -5,0 -7,-1 -2,0 -3,0 -4,-1 -2,0 -2,-1 -3,-2 0,-1 0,-2 0,-3l0 -116c0,-8 -1,-16 -2,-22 -2,-7 -3,-13 -6,-18 -2,-5 -6,-8 -10,-11 -4,-2 -8,-4 -14,-4 -6,0 -13,3 -20,10 -7,6 -14,15 -22,27l0 134c0,1 0,2 -1,3 0,1 -1,2 -2,2 -1,1 -3,1 -5,1 -1,1 -4,1 -7,1 -2,0 -5,0 -7,-1 -2,0 -3,0 -4,-1 -1,0 -2,-1 -3,-2 0,-1 0,-2 0,-3l0 -116c0,-8 -1,-16 -2,-22 -2,-7 -3,-13 -6,-18 -2,-5 -6,-8 -10,-11 -4,-2 -8,-4 -14,-4 -6,0 -13,3 -20,10 -7,6 -14,15 -22,27l0 134c0,1 0,2 -1,3 0,1 -1,2 -2,2 -1,1 -2,1 -4,1 -2,1 -5,1 -7,1 -3,0 -6,0 -8,-1 -1,0 -3,0 -4,-1 -1,0 -2,-1 -2,-2 -1,-1 -1,-2 -1,-3l0 -192c0,0 0,-2 0,-2 1,-1 2,-2 3,-2 1,-1 2,-2 4,-2 1,0 4,0 6,0 3,0 5,0 7,0 1,0 3,1 4,2 1,0 1,1 2,2 0,0 0,2 0,2l0 26c9,-12 18,-21 26,-26 9,-6 17,-9 26,-9 6,0 12,1 17,3 6,2 10,4 14,7 4,4 7,8 10,12 3,5 5,10 7,16 6,-7 11,-13 15,-18 5,-4 10,-8 14,-11 4,-4 9,-6 13,-7 4,-1 8,-2 12,-2 11,0 19,2 26,6 7,5 13,10 17,18 4,7 7,15 9,25 2,10 3,20 3,31l0 121zm82 0c0,1 0,2 -1,3 -1,1 -1,2 -2,2 -1,1 -3,1 -5,1 -1,1 -4,1 -7,1 -3,0 -5,0 -7,-1 -2,0 -3,0 -4,-1 -1,0 -2,-1 -3,-2 0,-1 0,-2 0,-3l0 -192c0,0 0,-1 0,-2 1,-1 2,-2 3,-2 1,-1 2,-1 4,-2 2,0 4,0 7,0 3,0 6,0 7,0 2,1 4,1 5,2 1,0 1,1 2,2 1,1 1,2 1,2l0 192zm3 -256c0,8 -1,14 -4,16 -2,3 -7,5 -14,5 -7,0 -11,-2 -14,-4 -2,-3 -4,-9 -4,-17 0,-8 2,-14 4,-17 3,-3 7,-4 14,-4 7,0 12,1 14,4 3,3 4,9 4,17zm79 256c0,1 0,2 0,3 -1,1 -1,2 -3,2 -1,1 -2,1 -4,1 -2,1 -4,1 -7,1 -3,0 -5,0 -7,-1 -2,0 -3,0 -5,-1 -1,0 -1,-1 -2,-2 0,-1 0,-2 0,-3l0 -285c0,0 0,-2 0,-2 1,-1 1,-2 2,-2 2,-1 3,-2 5,-2 2,0 4,0 7,0 3,0 5,0 7,0 2,0 3,1 4,2 2,0 2,1 3,2 0,0 0,2 0,2l0 285zm126 6l-21 70c-1,2 -2,4 -5,5 -3,1 -7,2 -13,2 -3,0 -6,0 -7,0 -3,-1 -4,-2 -5,-2 -1,-1 -2,-2 -2,-3 0,-2 1,-4 1,-6l22 -66c-1,-1 -2,-2 -3,-3 -1,-1 -2,-3 -2,-4l-56 -184c-1,-2 -2,-5 -2,-7 0,-1 1,-3 2,-4 1,0 2,-1 4,-2 2,0 5,0 9,0 3,0 6,0 8,0 2,0 4,1 5,2 1,0 2,1 2,2 1,1 1,2 2,4l45 154 1 0 43 -155c1,-2 2,-4 3,-5 1,-1 2,-1 4,-2 2,0 5,0 9,0 3,0 6,0 8,0 2,1 4,2 5,2 1,1 1,3 1,4 0,2 0,4 -1,7l-57 191zm120 -6c0,1 0,2 0,3 -1,1 -2,2 -3,2 -1,1 -2,1 -4,1 -2,1 -4,1 -7,1 -3,0 -5,0 -7,-1 -2,0 -4,0 -5,-1 -1,0 -1,-1 -2,-2 -1,-1 -1,-2 -1,-3l0 -192c0,0 0,-1 1,-2 1,-1 1,-2 2,-2 1,-1 3,-1 5,-2 2,0 4,0 7,0 3,0 5,0 7,0 2,1 3,1 4,2 1,0 2,1 3,2 0,1 0,2 0,2l0 192zm4 -256c0,8 -2,14 -4,16 -3,3 -7,5 -15,5 -6,0 -11,-2 -13,-4 -3,-3 -4,-9 -4,-17 0,-8 1,-14 4,-17 2,-3 7,-4 14,-4 7,0 11,1 14,4 2,3 4,9 4,17zm196 158c0,16 -2,31 -5,45 -3,13 -7,24 -13,34 -6,9 -13,16 -21,21 -9,5 -19,7 -29,7 -5,0 -10,0 -14,-1 -5,-2 -9,-3 -13,-6 -4,-3 -8,-6 -12,-10 -4,-4 -8,-10 -13,-15l0 23c0,1 -1,2 -1,3 0,1 -1,2 -2,2 -1,1 -3,1 -4,1 -2,1 -4,1 -6,1 -3,0 -4,0 -6,-1 -2,0 -3,0 -4,-1 -1,0 -2,-1 -2,-2 -1,-1 -1,-2 -1,-3l0 -285c0,0 0,-2 1,-2 0,-1 1,-2 2,-2 1,-1 3,-2 4,-2 3,0 5,0 8,0 3,0 5,0 7,0 2,0 3,1 4,2 1,0 2,1 2,2 1,0 1,2 1,2l0 116c5,-6 9,-11 14,-15 4,-4 8,-8 13,-10 4,-2 8,-4 12,-5 5,-1 9,-2 14,-2 11,0 21,3 29,8 8,6 15,13 20,22 5,10 9,21 11,33 3,13 4,26 4,40zm-31 4c0,-10 -1,-20 -2,-29 -1,-9 -3,-17 -6,-24 -3,-7 -7,-13 -12,-17 -5,-4 -12,-7 -19,-7 -4,0 -7,1 -11,2 -4,1 -7,4 -11,7 -4,2 -8,6 -12,11 -4,5 -8,10 -13,18l0 76c8,12 16,21 23,27 7,6 15,9 23,9 7,0 13,-2 18,-6 6,-5 10,-10 13,-17 3,-7 5,-15 7,-24 1,-8 2,-17 2,-26zm103 94c0,1 0,2 -1,3 0,1 -1,2 -2,2 -1,1 -2,1 -4,1 -2,1 -4,1 -7,1 -3,0 -5,0 -8,-1 -1,0 -3,0 -4,-1 -1,0 -2,-1 -2,-2 -1,-1 -1,-2 -1,-3l0 -192c0,0 0,-1 1,-2 0,-1 1,-2 2,-2 1,-1 3,-1 4,-2 3,0 5,0 8,0 3,0 5,0 7,0 2,1 3,1 4,2 1,0 2,1 2,2 1,1 1,2 1,2l0 192zm4 -256c0,8 -2,14 -4,16 -3,3 -7,5 -15,5 -7,0 -11,-2 -13,-4 -3,-3 -4,-9 -4,-17 0,-8 1,-14 4,-17 2,-3 7,-4 14,-4 7,0 11,1 14,4 2,3 4,9 4,17zm151 247c0,2 0,5 -1,7 0,1 -1,3 -1,4 0,1 -1,2 -2,3 0,0 -2,1 -3,1l-97 0c-2,0 -4,-1 -6,-4 -1,-1 -2,-5 -2,-10l0 -7c0,-2 0,-3 0,-5 0,-2 1,-3 1,-5 1,-1 1,-3 2,-5 1,-2 2,-4 3,-6l70 -132 -68 0c-2,0 -3,0 -4,-3 -2,-2 -2,-6 -2,-11 0,-3 0,-5 0,-7 1,-2 1,-3 1,-5 1,-1 2,-2 2,-2 1,-1 2,-1 3,-1l91 0c1,0 2,0 3,1 1,0 2,1 3,2 0,1 1,2 1,4 1,1 1,3 1,5l0 7c0,3 0,4 0,6 -1,2 -1,3 -1,5 -1,2 -1,3 -2,5 -1,2 -2,4 -3,6l-70 132 74 0c1,0 2,0 3,1 1,0 1,1 2,2 0,1 1,3 1,5 1,1 1,4 1,7zm160 9c0,2 0,3 -1,4 -1,1 -2,2 -4,2 -1,1 -4,1 -7,1 -3,0 -6,0 -7,-1 -2,0 -4,-1 -4,-2 -1,-1 -1,-2 -1,-4l0 -19c-8,9 -15,16 -24,21 -8,5 -17,7 -27,7 -8,0 -16,-1 -22,-3 -7,-3 -13,-7 -17,-12 -5,-5 -9,-11 -12,-18 -2,-8 -4,-15 -4,-25 0,-10 2,-20 6,-28 3,-8 9,-14 16,-20 6,-5 15,-9 25,-12 9,-2 20,-4 33,-4l22 0 0 -14c0,-8 -1,-14 -3,-20 -1,-6 -3,-11 -6,-14 -3,-4 -6,-7 -11,-9 -4,-2 -10,-2 -17,-2 -7,0 -13,0 -19,3 -6,2 -11,4 -15,6 -4,3 -8,5 -11,7 -3,2 -4,3 -6,3 -1,0 -2,0 -2,-1 -1,0 -2,-1 -2,-2 -1,-1 -1,-3 -2,-5 0,-1 0,-3 0,-5 0,-4 0,-7 1,-9 0,-2 1,-4 3,-6 1,-1 4,-4 8,-6 4,-2 8,-5 13,-7 5,-2 11,-4 17,-5 6,-1 12,-2 18,-2 11,0 21,2 29,5 8,3 14,7 19,14 5,5 9,13 11,22 2,9 3,19 3,31l0 129zm-28 -87l-25 0c-8,0 -15,1 -21,2 -6,2 -11,4 -14,8 -4,3 -7,7 -9,11 -2,4 -3,10 -3,15 0,10 3,18 8,24 5,6 12,9 22,9 7,0 15,-2 21,-7 7,-5 13,-12 21,-21l0 -41zm119 69c0,10 -1,17 -4,20 -3,4 -8,5 -15,5 -7,0 -12,-1 -15,-5 -2,-3 -4,-9 -4,-19 0,-10 2,-17 4,-20 3,-4 8,-5 15,-5 8,0 12,1 15,5 3,3 4,9 4,19zm168 -11c0,2 0,4 -1,6 0,2 0,4 0,5 -1,1 -1,2 -1,3 -1,1 -2,2 -3,4 -2,2 -4,4 -8,7 -3,2 -7,5 -12,6 -4,3 -9,4 -14,6 -5,1 -10,1 -16,1 -11,0 -21,-2 -30,-6 -9,-5 -16,-11 -22,-20 -6,-9 -10,-20 -14,-32 -3,-13 -4,-28 -4,-44 0,-19 1,-35 5,-49 4,-13 9,-25 16,-33 7,-9 14,-15 23,-20 9,-4 19,-6 29,-6 5,0 10,1 15,2 5,1 9,3 13,4 4,2 8,4 11,7 3,2 5,4 7,6 1,2 2,3 3,4 0,1 0,2 1,3 0,2 0,3 0,5 1,2 1,4 1,6 0,6 -1,10 -2,12 -1,2 -2,3 -4,3 -1,0 -4,-1 -6,-3 -2,-3 -5,-5 -8,-8 -4,-3 -8,-5 -13,-8 -5,-2 -11,-3 -18,-3 -14,0 -24,6 -32,19 -8,13 -11,32 -11,57 0,12 1,23 3,32 2,10 4,18 8,24 4,6 9,11 14,14 5,3 12,4 19,4 7,0 12,-1 17,-4 5,-2 10,-5 13,-8 4,-3 7,-6 10,-9 2,-2 4,-3 6,-3 1,0 1,0 2,1 0,0 1,1 1,2 1,2 1,3 1,6 0,2 1,4 1,7zm185 -69c0,16 -1,30 -5,43 -3,13 -8,25 -15,34 -7,10 -15,17 -25,23 -11,5 -22,7 -36,7 -13,0 -24,-2 -34,-7 -9,-4 -18,-11 -24,-20 -7,-9 -11,-20 -14,-33 -4,-12 -5,-27 -5,-43 0,-16 2,-30 5,-43 3,-13 8,-25 15,-34 7,-10 15,-17 25,-22 10,-6 22,-8 36,-8 12,0 24,2 34,7 9,5 17,12 24,20 6,9 11,20 14,33 4,13 5,27 5,43zm-30 2c0,-10 -1,-20 -3,-29 -1,-9 -4,-17 -8,-24 -3,-7 -8,-13 -15,-16 -6,-5 -14,-7 -23,-7 -8,0 -15,2 -22,6 -6,4 -11,9 -15,15 -4,7 -7,15 -9,24 -2,10 -3,20 -3,31 0,10 1,20 3,29 1,10 4,18 8,25 3,7 8,12 14,16 7,4 14,6 24,6 8,0 16,-2 22,-5 6,-4 11,-10 15,-16 4,-7 7,-15 9,-24 2,-9 3,-19 3,-31zm308 96c0,1 -1,2 -1,3 -1,1 -2,2 -3,2 -1,1 -2,1 -4,1 -2,1 -4,1 -7,1 -3,0 -5,0 -7,-1 -2,0 -4,0 -5,-1 -1,0 -2,-1 -2,-2 -1,-1 -1,-2 -1,-3l0 -116c0,-8 0,-16 -1,-22 -2,-7 -4,-13 -6,-18 -3,-5 -6,-8 -10,-11 -4,-2 -9,-4 -14,-4 -7,0 -14,3 -20,10 -7,6 -15,15 -22,27l0 134c0,1 -1,2 -1,3 -1,1 -1,2 -3,2 -1,1 -2,1 -4,1 -2,1 -4,1 -7,1 -3,0 -5,0 -7,-1 -2,0 -3,0 -5,-1 -1,0 -2,-1 -2,-2 0,-1 -1,-2 -1,-3l0 -116c0,-8 0,-16 -1,-22 -2,-7 -4,-13 -6,-18 -3,-5 -6,-8 -10,-11 -4,-2 -9,-4 -14,-4 -7,0 -13,3 -20,10 -7,6 -15,15 -22,27l0 134c0,1 0,2 -1,3 -1,1 -1,2 -2,2 -1,1 -3,1 -5,1 -1,1 -4,1 -7,1 -3,0 -5,0 -7,-1 -2,0 -3,0 -4,-1 -1,0 -2,-1 -2,-2 -1,-1 -1,-2 -1,-3l0 -192c0,0 0,-2 0,-2 1,-1 1,-2 2,-2 1,-1 3,-2 4,-2 2,0 4,0 7,0 3,0 5,0 6,0 2,0 3,1 4,2 1,0 2,1 2,2 1,0 1,2 1,2l0 26c9,-12 17,-21 26,-26 8,-6 17,-9 25,-9 7,0 13,1 18,3 5,2 10,4 14,7 4,4 7,8 10,12 3,5 5,10 7,16 5,-7 10,-13 15,-18 5,-4 9,-8 14,-11 4,-4 8,-6 13,-7 4,-1 8,-2 12,-2 10,0 19,2 26,6 7,5 12,10 17,18 4,7 7,15 9,25 1,10 3,20 3,31l0 121z"/>
  <line class="fil1 str0" x1="116" y1="110" x2="116" y2= "3575" />
  <line class="fil1 str0" x1="6392" y1="110" x2="6392" y2= "3575" />
 </g>
</svg>
