<?xml version="1.0" encoding="UTF-8"?>
<!DOCTYPE svg PUBLIC "-//W3C//DTD SVG 1.0//EN" "http://www.w3.org/TR/2001/REC-SVG-20010904/DTD/svg10.dtd">
<!-- Creator: CorelDRAW X7 -->
<svg xmlns="http://www.w3.org/2000/svg" xml:space="preserve" width="60mm" height="73.33mm" version="1.0" style="shape-rendering:geometricPrecision; text-rendering:geometricPrecision; image-rendering:optimizeQuality; fill-rule:evenodd; clip-rule:evenodd"
viewBox="0 0 6000 7333"
 xmlns:xlink="http://www.w3.org/1999/xlink">
 <defs>
  <style type="text/css">
   <![CDATA[
    .str0 {stroke:#2B2A29;stroke-width:20;stroke-dasharray:84.660000 84.660000}
    .fil4 {fill:none;fill-rule:nonzero}
    .fil0 {fill:#1F63B3}
    .fil2 {fill:#D6260D}
    .fil1 {fill:#F5AB17}
    .fil3 {fill:#002157;fill-rule:nonzero}
   ]]>
  </style>
 </defs>
 <g id="Capa_x0020_1">
  <metadata id="CorelCorpID_0Corel-Layer"/>
  <path class="fil0" d="M4232 5293c-1,6 0,7 2,12 -11,-1 -7,-1 -12,6l-20 25c-11,9 -7,5 -16,16 -7,10 -11,5 -16,13 -8,11 -33,59 -47,79 -9,12 -18,24 -29,35 -4,6 -9,10 -14,17 -7,8 -2,10 -13,19 -7,6 -25,22 -32,30 -11,11 -20,23 -34,30l3 12c-16,0 -21,3 -29,17 -16,24 -5,0 -35,27 -20,19 -20,4 -29,2 -11,-2 -29,12 -36,17 -36,15 -59,55 -106,75 -15,7 -4,2 -11,12 -5,11 -31,24 -41,31 -15,9 -9,0 -31,16 -9,5 -21,8 -32,15 -29,19 -65,29 -95,48 -35,21 -31,21 -69,21l-2 -7c-5,-9 0,1 -1,-4 -9,0 -22,2 -33,2 -19,3 -12,3 -19,14 -11,0 -87,15 -94,20 -23,17 -25,5 -45,14 -12,3 -14,2 -27,3 -9,0 -11,6 -16,11 -14,0 -25,-4 -36,-5 -12,0 -11,8 -27,0 -2,-12 4,-14 -2,-23 -10,-8 -66,14 -118,12 -13,0 -29,5 -42,5 -10,0 -5,-3 -19,-1 -8,1 -11,1 -18,3 -15,0 -31,-2 -45,0 -16,0 -24,5 -42,4 -12,-2 -25,-6 -37,-6 -20,-1 -27,7 -40,4 -23,-7 -56,-4 -81,-10 -12,-4 -21,-11 -34,-11 -14,0 -23,-5 -38,-6 -25,-6 -52,-6 -77,-14 -22,-7 -14,2 -36,-2 -7,-7 0,-7 -14,-7 -7,-2 -16,0 -24,-2 -14,-1 -5,-1 -16,-8 -11,-5 -5,2 -12,-9 -42,7 -27,0 -60,-10 -9,-3 -23,-8 -34,-5 -16,5 -7,2 -27,-5 -20,-7 -39,-5 -61,-14 -20,-5 -38,-14 -57,-20 -13,-6 -18,-6 -29,-11 -18,-10 -34,-22 -54,-22 -5,0 -11,-2 -16,-3 -9,-4 -6,-7 -15,-11 0,0 -1,-1 -1,-1 -2,0 -6,-2 -9,-2 -29,-9 -53,-29 -81,-34 -16,-2 -22,-16 -36,-23 -11,-3 -18,-7 -27,-12 -15,-7 -36,-22 -45,-31 -20,-18 -20,-8 -49,-30 -19,-16 -9,-4 -27,-11 -9,-1 -61,-41 -68,-48 -3,-5 -5,-10 -7,-13 -7,-6 -5,0 -14,-6 -44,-20 -26,-25 -47,-30 -13,-4 -11,-11 -16,-21 -11,-17 -18,-10 -31,-46 -14,-4 -4,7 -18,-9 -14,-17 -20,-8 -29,-29 -5,-9 -9,-9 -12,-17 -7,-17 -18,-22 -22,-36 -3,-9 -2,-17 -9,-22 -21,-23 11,-11 -14,-23 -6,-1 -6,-5 -9,-10 -11,2 -6,2 -16,3 -4,0 -6,0 -9,0 -11,2 -6,9 -11,18 -7,10 -11,18 -13,30 -1,9 -3,7 -5,14 -2,5 0,28 -2,38 0,12 -3,15 -3,34 0,22 -8,21 -9,31 0,7 3,10 3,19 0,5 -2,10 -3,15 0,0 -2,52 -6,74 0,5 7,58 9,70 2,19 16,43 18,59 2,12 20,44 25,54 4,4 7,9 9,12 4,9 0,7 6,14 5,7 5,4 9,10 3,7 1,9 5,14 4,4 14,5 18,7 7,7 14,22 22,29 7,7 3,10 9,16 1,3 25,13 32,18 13,9 2,14 21,24 8,5 11,5 15,12 7,7 3,7 12,12 13,11 18,19 24,26 11,7 20,12 29,19 18,15 43,24 61,39 9,7 30,26 41,31 40,14 34,19 47,28 12,6 7,1 14,10 7,10 72,38 85,39 48,11 3,19 52,28 9,1 14,7 21,8 16,5 13,4 20,14 7,9 11,3 23,9 24,6 15,13 29,18 22,7 43,11 65,14 14,4 23,7 52,12 20,4 52,28 68,24 16,-3 9,-2 25,2 17,5 36,7 44,19 37,-4 39,8 57,10 11,0 4,-9 25,0 31,12 81,12 86,14 0,0 0,1 2,1 18,9 34,4 51,11 21,7 41,3 64,5 11,0 18,3 29,5 25,2 74,-5 93,0 18,3 29,-2 44,3 9,2 1,2 10,6 22,-2 49,-11 69,-9l34 3c2,0 23,-5 32,-6 18,-2 54,-2 70,-6 25,-6 9,2 27,2 15,0 22,-2 25,-12 15,10 56,-2 72,-5 49,-12 58,2 63,-22 15,-4 38,-7 54,-11 9,-3 16,-6 23,-10 9,-3 17,-5 26,-8 9,-2 18,-6 27,-7 9,-4 9,-9 19,-12 18,-5 36,-4 51,-14 18,-14 21,-10 46,-17 15,-4 17,-7 26,-10 5,-4 16,-4 25,-7 9,-4 10,-9 21,-11 13,-3 15,-3 25,-8 15,-7 26,-16 38,-24l45 -22c15,-7 0,-9 16,-18 15,-5 34,-10 43,-22 26,-27 44,-17 60,-34 25,-29 61,-46 90,-74 7,-7 10,-7 18,-12 14,-13 12,-24 34,-29 12,-2 12,-7 19,-15 6,-7 9,-5 15,-16 11,-12 30,-25 34,-31 4,-5 2,-5 5,-10 8,-10 15,-19 24,-27 9,-11 20,-21 30,-31 16,-17 11,-24 27,-38 9,-5 18,-29 25,-39 11,-16 20,-24 31,-35 11,-12 4,-6 9,-20 9,-19 25,-45 38,-60 3,-4 9,-21 23,-41 31,-45 47,-125 54,-137 13,-26 -2,-36 4,-50 7,-16 1,-12 0,-24 -2,-16 5,-12 -9,-22 -8,-7 -6,-11 -17,-16 -5,-2 -21,-3 -27,-2z"/>
  <path class="fil1" d="M2349 3607c11,0 86,-16 93,-21 24,-15 24,-5 45,-12 22,-7 33,4 44,-13 14,0 23,3 35,3 15,2 8,-5 29,0 2,7 -5,17 0,22 15,9 74,-10 97,-12 22,0 36,-1 58,-3 12,0 12,3 25,2l36 -4c38,0 27,-2 56,-3 19,-2 34,3 54,5 16,2 14,-2 25,-4 10,-3 14,2 25,2 68,4 88,17 100,19l103 15c7,2 20,7 23,7 8,2 16,-1 27,-1 6,8 6,8 18,8 9,0 16,0 25,0 6,7 2,5 11,10l13 7c52,-5 36,11 77,17 18,4 14,-5 25,-1 4,0 20,7 25,8 15,5 13,4 27,4 20,1 33,10 49,15 36,12 57,21 91,38 9,5 13,8 24,8 9,0 18,0 25,6 5,6 -2,3 9,8 18,9 23,5 56,24 7,4 14,5 21,9 11,5 4,1 15,3 12,4 21,12 28,19 8,5 35,17 44,22 26,16 39,35 57,40 13,3 11,3 20,12 41,31 7,-11 79,46 18,14 18,9 30,31 9,2 8,0 13,3 23,12 18,11 36,28 11,8 9,0 18,7 7,5 9,18 22,30 8,9 14,21 17,33 13,5 9,0 18,10 20,21 18,4 31,29 5,9 7,9 13,18 5,17 16,22 21,36 4,10 2,15 7,22 17,12 6,2 11,19 16,8 4,-4 14,12l31 -4c4,-8 -2,-8 4,-15 14,-19 9,-24 18,-43l7 -70c0,-28 5,-24 7,-35 2,-8 -2,-10 -2,-18 0,-7 2,-11 2,-16 2,-10 0,-26 2,-38 3,-58 3,-18 0,-72 0,-10 -2,-24 -4,-36 -2,-6 -3,-8 -5,-15l-15 -45c0,-8 -19,-42 -25,-51 -3,-3 -7,-9 -9,-14 -2,-7 2,-5 -5,-13 -14,-16 -6,-4 -14,-24 -31,-9 -20,-14 -40,-36 -5,-7 -4,-11 -7,-16 -4,-2 -27,-12 -34,-17 -11,-9 0,-14 -22,-26 -13,-7 -16,-15 -27,-24 -14,-12 -20,-22 -23,-24 -4,-3 -11,-7 -16,-10l-42 -29c-9,-7 -23,-14 -30,-19 -11,-8 -31,-27 -43,-31 -36,-13 -35,-20 -47,-27 -16,-9 -9,-10 -29,-21 -7,-5 -57,-27 -66,-29 -8,-2 -17,-3 -22,-7 -11,-5 -4,-3 -7,-13 -15,-6 -58,-18 -65,-24 -5,-9 -2,-9 -12,-11 -38,-8 -29,-17 -42,-22 -21,-9 -52,-10 -73,-15 -15,-6 -18,-7 -36,-11 -15,-1 -22,-3 -33,-8 -36,-17 -23,-16 -52,-14 -7,0 -45,-10 -50,-14 -9,-5 -6,-7 -15,-7 -7,-1 -12,0 -19,-1 -9,-2 -29,-11 -33,-11 -10,-1 0,6 -16,2 -5,0 -11,-3 -16,-5 -25,-9 -52,-10 -79,-9 -11,-6 2,-6 -20,-8 -7,-2 -16,-2 -23,-2 -15,-2 -20,-8 -43,-8 -38,-2 -62,-7 -99,-7 -24,0 -81,3 -99,-4 -11,-3 2,-1 -11,-3 -11,-2 -21,2 -32,5 -29,5 -65,-2 -74,0 -32,7 -25,7 -68,9 -11,1 -42,6 -47,3 -9,-3 -9,-3 -21,-2 -11,2 -9,4 -15,11 -12,-9 -45,0 -61,3 -27,7 -36,7 -61,10 -18,2 -4,14 -16,16 -7,1 -18,3 -27,5 -25,5 -31,10 -54,17 -14,7 -40,10 -52,19 -22,12 -33,7 -54,15 -9,4 -13,9 -22,14 -18,7 -39,7 -54,15 -9,6 -14,6 -27,9 -12,3 -12,9 -23,12 -32,9 -41,21 -70,36 -11,5 -40,15 -45,24 -4,8 2,5 -9,10l-36 16c-7,5 -11,12 -16,17 -7,7 -16,7 -23,12 -26,10 -24,12 -42,27 -11,10 -27,21 -39,29l-60 48c-34,41 -25,12 -41,29 -7,7 -7,9 -16,18 -7,6 -9,12 -16,18 -36,30 -18,18 -34,36l-49 54c-14,13 -7,6 -14,20 -8,14 -9,10 -17,19 -5,3 -8,15 -12,22l-29 40c-20,20 -12,8 -21,31l-18 34c-15,22 -18,19 -27,43 -6,15 -20,25 -26,43 -5,15 -14,32 -21,48 -7,17 -13,34 -16,51 -4,26 -16,24 -9,57 3,17 -7,8 -4,29 2,8 0,19 7,25 4,4 6,4 11,9 9,10 25,15 36,12 0,0 0,-2 0,-2l0 -10c13,3 7,-3 16,-14l31 -32c7,-11 11,-7 18,-14 9,-12 32,-58 47,-79 19,-27 34,-41 43,-53 7,-9 1,-9 12,-19 9,-8 25,-20 33,-31 9,-12 21,-20 34,-29 -2,-8 -2,-3 -4,-10 16,-2 20,-5 29,-17l5 -11c2,-1 7,0 29,-17 23,-19 20,-7 29,-1 18,-4 29,-12 43,-19 9,-5 56,-48 81,-65 5,-2 25,-12 25,-14 5,-5 0,-5 9,-12 14,-14 34,-28 52,-31 9,-3 5,-3 13,-9 9,-6 18,-8 28,-13 9,-5 17,-12 26,-17 27,-14 59,-23 82,-40 20,-14 40,-19 63,-15 4,7 0,3 4,8 41,-1 43,0 50,-15z"/>
  <path class="fil2" d="M4768 2957c-14,0 -18,2 -25,-5 -9,-10 -4,-10 -4,-20 -18,-12 -3,-19 -32,-21 -34,-3 -20,-5 -36,-17 -2,-2 -54,2 -61,0 -6,-4 -2,-5 -15,-7 -7,-2 -14,2 -21,0 -11,0 -7,-2 -16,-5 -15,-5 -9,5 -36,-2 -25,-8 -16,2 -34,0l-61 -3c-8,-2 -8,-5 -15,-5 -12,0 -3,3 -14,-4 -6,-3 -7,-5 -15,-5 -3,7 -1,14 -28,15l-4 11 -43 5c-23,0 -14,5 -29,15 -14,9 -23,0 -36,14 -5,9 -14,17 -18,31 -21,0 -9,10 -19,20 -8,7 -6,0 -11,12l-16 43c-6,14 -2,12 0,14 3,10 0,26 1,38 6,27 8,5 0,34 -3,10 0,9 0,15 0,9 -10,28 -9,40 0,14 4,-2 4,24l4 3c1,2 0,0 1,4 8,10 6,24 8,29 1,8 3,0 5,15l11 40c5,20 -6,12 14,53 5,12 11,19 20,27l20 28c1,1 25,8 34,13 11,7 14,14 25,21 9,-4 0,-2 9,-5 7,3 5,3 12,10 4,4 42,14 51,17 14,4 20,7 30,14 15,9 43,-3 69,17 30,26 27,12 64,3 20,-5 20,4 35,7 14,-3 -2,-5 17,-7l38 -5c9,-3 4,-3 16,-5l51 -7 21 -10c7,-10 -2,-7 13,-17 23,-17 34,-27 34,-52 -2,-8 5,-20 9,-27l4 -7c1,-1 1,-5 1,-5 0,-12 0,-15 2,-24 6,-15 -2,-10 9,-17 7,-99 15,-69 20,-81 4,-15 -5,-8 -4,-24 2,-12 8,-3 6,-24 -2,-17 -6,-37 2,-51 -8,-5 -4,0 -9,-5 -9,-10 -8,-24 -9,-36 -2,-10 -4,-10 -4,-26 -4,-70 -14,-48 -22,-63 -5,-12 2,-23 -14,-40z"/>
  <path class="fil3" d="M461 4329l168 0c107,0 140,11 176,31 59,33 91,91 91,164 0,84 -40,154 -109,187 -29,14 -57,21 -127,21l-71 0 0 234 -128 0 0 -637zm128 103l0 0 0 196 67 0c52,0 68,-7 85,-33 11,-18 16,-38 16,-68 0,-59 -32,-95 -86,-95l-82 0z"/>
  <path class="fil3" d="M1109 4489c67,0 119,23 159,70 38,44 54,95 54,171 0,80 -18,135 -58,181 -36,40 -82,65 -155,65 -127,0 -210,-95 -210,-242 0,-147 84,-245 210,-245zm2 90l0 0c-29,0 -53,19 -63,48 -8,24 -13,57 -13,104 0,54 6,94 16,118 11,25 38,38 62,38 53,0 76,-47 76,-158 0,-63 -8,-104 -25,-125 -12,-16 -31,-25 -53,-25z"/>
  <path class="fil3" d="M1393 4516l109 -29c11,19 18,40 19,67 18,-24 47,-49 70,-60 10,-4 26,-7 40,-7 18,0 27,2 46,10l-34 108c-12,-7 -22,-9 -36,-9 -27,0 -52,12 -75,39l0 331 -122 0 0 -313c0,-63 -7,-110 -17,-137z"/>
  <path class="fil3" d="M1987 4497l-31 81 -78 0 0 239c0,59 11,75 53,75 11,0 22,-3 44,-9l15 73c-35,14 -67,21 -99,21 -63,0 -113,-28 -127,-69 -7,-20 -8,-29 -8,-72l0 -258 -46 0 0 -79 46 0c0,-46 0,-77 5,-112l124 -31c-4,43 -7,93 -7,141l109 0z"/>
  <path class="fil3" d="M2196 4329l138 0 200 637 -137 0 -45 -151 -186 0 -45 151 -134 0 209 -637zm1 380l0 0 124 0c0,0 -21,-67 -35,-128 -6,-29 -25,-112 -25,-112 0,0 -19,75 -30,122 -12,46 -21,76 -34,118z"/>
  <path class="fil3" d="M2484 4505l126 -15 67 211c10,31 24,82 30,112 4,-27 14,-72 29,-119l63 -196 128 0 -171 468 -102 0 -170 -461z"/>
  <path class="fil3" d="M3296 4842l47 73c-53,43 -110,64 -176,64 -134,0 -221,-95 -221,-242 0,-84 17,-139 58,-185 39,-43 85,-63 147,-63 54,0 106,18 136,49 43,44 62,107 62,205 0,10 0,14 0,28l-271 0 0 4c0,72 36,113 99,113 42,0 81,-15 119,-46zm-216 -160l0 0 142 0 0 -6c0,-35 -4,-53 -15,-70 -12,-19 -29,-28 -54,-28 -46,0 -73,37 -73,102l0 2z"/>
  <path class="fil3" d="M3420 4517l109 -31c11,19 17,39 17,59 29,-21 34,-24 54,-35 25,-13 57,-20 84,-20 52,0 98,27 113,67 6,18 9,38 9,67l0 342 -121 0 0 -304c0,-54 -9,-69 -41,-69 -25,0 -57,16 -85,42l0 331 -122 0 0 -339c0,-40 -6,-79 -17,-110z"/>
  <path class="fil3" d="M4157 4497l-31 81 -79 0 0 239c0,59 11,75 53,75 11,0 22,-3 44,-9l15 73c-35,14 -67,21 -99,21 -62,0 -113,-28 -126,-69 -8,-20 -9,-29 -9,-72l0 -258 -46 0 0 -79 46 0c0,-46 0,-77 5,-112l124 -31c-4,43 -7,93 -7,141l110 0z"/>
  <path class="fil3" d="M4202 4509l121 -23 0 301c0,42 3,64 10,76 6,13 25,22 43,22 30,0 67,-22 76,-44l0 -329 117 -25 0 357c0,31 10,63 28,85l-87 50c-15,-11 -28,-27 -36,-46 -30,29 -74,45 -124,45 -65,0 -122,-31 -138,-76 -7,-21 -10,-46 -10,-93l0 -300z"/>
  <path class="fil3" d="M4678 4516l109 -29c11,19 18,40 19,67 18,-24 47,-49 70,-60 10,-4 26,-7 40,-7 18,0 27,2 46,10l-34 108c-12,-7 -22,-9 -36,-9 -27,0 -52,12 -75,39l0 331 -122 0 0 -313c0,-63 -7,-110 -17,-137z"/>
  <path class="fil3" d="M4980 4554c30,-20 43,-26 76,-39 46,-19 85,-27 128,-27 78,0 132,29 150,81 7,19 9,34 9,84l-3 157c0,3 0,6 0,9 0,50 8,69 44,96l-65 75c-28,-12 -54,-33 -66,-57 -17,16 -19,18 -28,25 -23,16 -56,25 -94,25 -104,0 -161,-53 -161,-146 0,-110 76,-161 225,-161 9,0 14,0 27,1l0 -19c0,-52 -10,-70 -55,-70 -39,0 -85,20 -135,53l-52 -87zm240 207l0 0 -5 0c-85,0 -114,16 -114,71 0,37 23,62 53,62 23,0 46,-12 64,-32l2 -101z"/>
  <path class="fil3" d="M5480 4437c64,0 117,50 117,118 0,67 -53,117 -117,117 -64,0 -118,-50 -118,-117 0,-68 54,-118 118,-118zm0 218l0 0c54,0 97,-44 97,-100 0,-57 -43,-101 -97,-101 -54,0 -97,44 -97,101 0,56 43,100 97,100zm-45 -169l0 0 52 0c33,0 48,13 48,39 0,25 -16,35 -36,38l39 60 -22 0 -37 -59 -23 0 0 59 -21 0 0 -137zm21 61l0 0 21 0c19,0 37,-1 37,-23 0,-19 -16,-21 -30,-21l-28 0 0 44z"/>
  <polygon class="fil3" points="1044,-6 5009,-6 5009,292 1044,292 "/>
  <line class="fil4 str0" x1="449" y1="2374" x2="5604" y2= "2374" />
 </g>
</svg>
