<?xml version="1.0" encoding="UTF-8"?>
<!DOCTYPE svg PUBLIC "-//W3C//DTD SVG 1.0//EN" "http://www.w3.org/TR/2001/REC-SVG-20010904/DTD/svg10.dtd">
<!-- Creator: CorelDRAW X7 -->
<svg xmlns="http://www.w3.org/2000/svg" xml:space="preserve" width="60mm" height="88mm" version="1.0" style="shape-rendering:geometricPrecision; text-rendering:geometricPrecision; image-rendering:optimizeQuality; fill-rule:evenodd; clip-rule:evenodd"
viewBox="0 0 6000 8800"
 xmlns:xlink="http://www.w3.org/1999/xlink">
 <defs>
  <style type="text/css">
   <![CDATA[
    .str0 {stroke:#2B2A29;stroke-width:20;stroke-dasharray:84.660000 84.660000}
    .fil0 {fill:none;fill-rule:nonzero}
    .fil1 {fill:#2B2A29;fill-rule:nonzero}
   ]]>
  </style>
 </defs>
 <g id="Capa_x0020_1">
  <metadata id="CorelCorpID_0Corel-Layer"/>
  <path class="fil0 str0" d="M453 3107c-337,0 5006,0 5006,0"/>
  <path class="fil1" d="M1489 4013l-31 49 -915 -592 32 -47 914 590zm0 -543l-915 591 -31 -48 915 -590 31 47zm-15 17l-193 570 -558 0 -192 -571 66 0 24 65c17,9 31,14 44,14 10,0 23,-6 39,-18 15,-11 30,-17 43,-17 19,0 39,8 63,23 24,17 42,24 54,24 15,0 36,-8 65,-26 28,-17 54,-26 77,-26 25,0 49,9 73,26 25,17 46,26 60,26 11,1 31,-9 60,-29 30,-19 55,-30 79,-29 11,1 26,7 43,19 17,10 32,16 46,16 5,0 11,-1 17,-2l23 -65 67 0zm-105 110c-8,2 -14,3 -20,3 -11,0 -23,-5 -35,-14 -11,-8 -24,-12 -38,-12 -18,1 -37,9 -60,26 -22,17 -47,25 -73,25 -18,0 -43,-8 -73,-23 -30,-16 -51,-23 -66,-23 -11,0 -29,8 -52,24 -24,16 -53,24 -87,24 -32,0 -55,-7 -70,-20 -15,-15 -31,-22 -47,-22 -13,0 -28,4 -42,15 -16,10 -27,15 -35,15 -10,0 -22,-5 -34,-15l130 393 471 0 131 -396zm1075 477l-794 0 402 -701 392 701zm74 -61l-31 48 -915 -591 31 -47 915 590zm0 -543l-915 591 -31 -48 915 -590 31 47zm-157 556l-311 -554 -317 554 628 0zm1186 -13l-31 49 -915 -592 32 -47 914 590zm0 -543l-915 591 -31 -48 915 -590 31 47zm-33 589l-899 0c9,-60 22,-111 39,-154 40,-101 97,-152 169,-152l544 0 -23 -115 -497 0 0 -67 547 0 120 488zm-88 -68l-41 -170 -562 0c-54,0 -95,56 -123,170l726 0zm1140 22l-31 49 -915 -592 32 -47 914 590zm0 -543l-915 591 -31 -48 915 -590 31 47zm-168 290c0,90 -32,166 -95,229 -63,63 -140,95 -229,95 -88,0 -165,-32 -227,-95 -63,-64 -95,-140 -95,-230 0,-88 32,-165 95,-226 62,-63 138,-95 227,-95 89,0 166,32 229,95 63,62 95,139 95,227zm-51 0c0,-75 -27,-139 -79,-190 -54,-53 -119,-80 -194,-80 -75,0 -139,27 -190,79 -53,52 -78,116 -78,191 0,75 25,140 78,193 52,53 115,80 190,80 75,0 140,-27 193,-80 53,-54 80,-118 80,-193zm1258 253l-30 49 -915 -592 32 -47 913 590zm0 -543l-914 591 -31 -48 915 -590 30 47zm-123 653l-732 0 0 -727 732 0 0 727zm-59 -464l0 -206 -211 0c50,10 95,34 135,73 40,41 66,85 76,133zm0 410l0 -207c-15,51 -42,97 -80,135 -39,41 -83,65 -132,72l212 0zm-37 -309c0,-75 -27,-139 -79,-190 -54,-53 -118,-80 -193,-80 -76,0 -139,27 -191,79 -52,52 -78,116 -78,191 0,75 26,140 78,193 53,53 115,80 191,80 75,0 139,-27 192,-80 53,-54 80,-118 80,-193zm-371 -307l-207 0 0 202c15,-51 41,-95 76,-131 38,-39 81,-62 131,-71zm-3 616c-51,-8 -95,-32 -135,-71 -42,-41 -65,-87 -69,-137l0 208 204 0z"/>
  <path class="fil1" d="M1245 4842l0 -395 129 0c29,0 51,2 66,5 22,6 40,15 55,29 20,18 35,40 45,68 10,27 14,58 14,93 0,30 -3,57 -10,80 -6,24 -15,42 -25,58 -11,15 -22,27 -34,36 -13,9 -27,15 -45,20 -18,4 -37,6 -60,6l-135 0zm49 -47l80 0c25,0 44,-2 58,-7 15,-5 26,-11 34,-20 12,-12 21,-30 28,-50 6,-21 9,-46 9,-76 0,-42 -6,-74 -19,-96 -13,-22 -29,-37 -47,-44 -13,-6 -34,-8 -64,-8l-79 0 0 301zm313 -145c0,-66 17,-117 50,-154 34,-37 77,-56 130,-56 34,0 66,9 93,26 28,17 49,42 64,73 14,31 22,66 22,106 0,40 -8,76 -23,108 -16,31 -38,55 -65,72 -29,16 -59,24 -91,24 -36,0 -67,-9 -95,-27 -28,-18 -49,-43 -63,-74 -14,-30 -22,-64 -22,-98zm51 1c0,47 13,85 37,112 24,27 55,41 91,41 38,0 68,-14 92,-41 24,-28 36,-67 36,-118 0,-32 -5,-61 -15,-84 -10,-25 -25,-43 -45,-56 -20,-13 -42,-20 -67,-20 -35,0 -65,13 -90,38 -26,26 -39,68 -39,128zm516 191l0 -395 51 0 197 310 0 -310 48 0 0 395 -51 0 -197 -311 0 311 -48 0zm364 -192c0,-66 16,-117 50,-154 33,-37 76,-56 129,-56 35,0 66,9 94,26 28,17 48,42 63,73 15,31 22,66 22,106 0,40 -8,76 -23,108 -15,31 -37,55 -65,72 -28,16 -58,24 -91,24 -35,0 -67,-9 -95,-27 -27,-18 -48,-43 -63,-74 -14,-30 -21,-64 -21,-98zm51 1c0,47 12,85 37,112 24,27 54,41 91,41 37,0 68,-14 92,-41 24,-28 36,-67 36,-118 0,-32 -5,-61 -15,-84 -11,-25 -26,-43 -46,-56 -20,-13 -42,-20 -66,-20 -35,0 -66,13 -91,38 -26,26 -38,68 -38,128zm466 191l0 -348 -123 0 0 -47 297 0 0 47 -124 0 0 348 -50 0zm436 0l-100 -395 51 0 57 259c6,27 11,54 16,81 10,-42 15,-67 17,-73l71 -267 60 0 54 200c13,50 23,96 29,140 5,-25 11,-53 18,-86l59 -254 50 0 -103 395 -48 0 -79 -301c-6,-25 -10,-40 -11,-46 -4,18 -8,33 -11,46l-80 301 -50 0zm387 0l144 -395 54 0 153 395 -57 0 -43 -120 -157 0 -41 120 -53 0zm108 -162l127 0 -39 -109c-12,-33 -21,-61 -27,-83 -4,26 -11,51 -19,76l-42 116zm266 35l46 -4c3,20 7,36 16,48 8,13 20,24 37,31 17,8 37,12 58,12 19,0 36,-3 50,-9 14,-6 25,-14 32,-24 7,-11 11,-22 11,-34 0,-13 -4,-23 -10,-32 -7,-10 -19,-18 -34,-24 -10,-4 -32,-11 -67,-19 -34,-9 -58,-17 -72,-25 -18,-10 -31,-22 -40,-37 -9,-14 -13,-31 -13,-49 0,-20 5,-39 16,-56 11,-17 27,-30 47,-39 20,-9 43,-14 69,-14 27,0 52,5 73,15 21,9 37,23 49,41 11,18 18,39 18,62l-47 4c-2,-25 -11,-44 -26,-57 -15,-12 -37,-19 -65,-19 -30,0 -52,6 -66,18 -13,11 -20,25 -20,42 0,14 4,26 14,35 10,9 34,18 75,28 40,10 68,18 83,25 21,11 38,24 48,40 11,16 16,35 16,57 0,21 -6,41 -17,59 -12,19 -28,33 -50,43 -21,11 -45,16 -72,16 -34,0 -62,-5 -85,-16 -23,-10 -41,-25 -54,-46 -13,-21 -20,-45 -20,-72zm367 127l0 -395 50 0 0 162 194 0 0 -162 50 0 0 395 -50 0 0 -186 -194 0 0 186 -50 0z"/>
  <path class="fil1" d="M973 5459l0 -395 129 0c29,0 51,2 66,5 22,6 40,15 55,29 20,18 35,40 45,67 10,28 15,59 15,94 0,30 -4,57 -10,80 -7,23 -16,42 -26,58 -10,15 -21,27 -34,36 -13,8 -27,15 -45,19 -17,5 -37,7 -60,7l-135 0zm49 -47l81 0c24,0 43,-2 58,-7 14,-5 25,-12 33,-20 12,-13 21,-30 28,-50 6,-21 9,-47 9,-76 0,-42 -6,-74 -19,-96 -13,-22 -28,-37 -47,-45 -13,-5 -34,-7 -64,-7l-79 0 0 301zm313 -146c0,-65 17,-117 51,-154 33,-37 76,-55 129,-55 34,0 66,8 94,26 27,17 48,41 63,73 15,31 22,66 22,106 0,40 -8,76 -23,108 -15,31 -37,55 -65,71 -28,16 -59,25 -91,25 -36,0 -67,-9 -95,-27 -28,-18 -48,-43 -63,-74 -14,-31 -22,-64 -22,-99zm52 1c0,48 12,86 36,113 24,27 55,41 91,41 38,0 68,-14 92,-41 25,-28 37,-67 37,-119 0,-32 -6,-60 -16,-84 -10,-24 -25,-42 -45,-55 -20,-14 -42,-20 -67,-20 -35,0 -65,13 -90,38 -26,25 -38,68 -38,127zm516 192l0 -395 50 0 197 310 0 -310 48 0 0 395 -51 0 -197 -311 0 311 -47 0zm363 -193c0,-65 17,-117 50,-154 34,-37 76,-55 129,-55 35,0 66,8 94,26 28,17 49,41 63,73 15,31 22,66 22,106 0,40 -8,76 -23,108 -15,31 -37,55 -65,71 -28,16 -58,25 -91,25 -35,0 -67,-9 -94,-27 -28,-18 -49,-43 -64,-74 -14,-31 -21,-64 -21,-99zm51 1c0,48 12,86 37,113 24,27 54,41 91,41 38,0 68,-14 92,-41 24,-28 36,-67 36,-119 0,-32 -5,-60 -15,-84 -11,-24 -26,-42 -46,-55 -20,-14 -42,-20 -66,-20 -35,0 -66,13 -91,38 -25,25 -38,68 -38,127zm466 192l0 -348 -123 0 0 -47 297 0 0 47 -124 0 0 348 -50 0zm368 0l0 -395 141 0c29,0 51,4 69,12 17,8 30,20 40,37 10,16 15,34 15,52 0,17 -4,33 -13,48 -8,15 -21,26 -39,36 22,7 40,18 52,36 12,17 18,37 18,59 0,19 -3,36 -11,52 -7,16 -16,28 -27,37 -11,8 -25,15 -41,19 -17,5 -37,7 -61,7l-143 0zm50 -229l81 0c22,0 38,-2 47,-4 13,-5 22,-11 29,-20 6,-10 9,-21 9,-35 0,-13 -3,-24 -8,-34 -7,-10 -15,-17 -26,-21 -11,-4 -30,-5 -57,-5l-75 0 0 119zm0 182l93 0c16,0 27,0 34,-2 12,-2 21,-5 28,-11 8,-5 15,-12 20,-21 5,-10 7,-21 7,-34 0,-14 -4,-27 -11,-38 -7,-11 -17,-19 -30,-23 -12,-4 -31,-7 -54,-7l-87 0 0 136zm299 47l0 -395 50 0 0 348 185 0 0 47 -235 0zm294 0l0 -395 272 0 0 47 -222 0 0 121 207 0 0 46 -207 0 0 134 230 0 0 47 -280 0zm307 0l145 -395 53 0 153 395 -56 0 -44 -120 -157 0 -41 120 -53 0zm108 -162l128 0 -40 -110c-12,-33 -21,-60 -26,-82 -5,26 -12,51 -20,76l-42 116zm550 23l50 14c-11,43 -30,75 -56,98 -28,23 -61,34 -100,34 -40,0 -73,-9 -98,-26 -25,-17 -45,-43 -58,-75 -13,-33 -20,-69 -20,-106 0,-42 8,-78 23,-108 15,-31 36,-54 63,-70 28,-16 58,-24 91,-24 37,0 69,10 94,31 26,19 44,48 54,84l-49 12c-8,-29 -21,-50 -38,-62 -16,-14 -37,-20 -62,-20 -29,0 -53,7 -72,21 -19,15 -33,35 -41,59 -8,25 -11,50 -11,76 0,34 4,63 13,88 10,25 24,44 44,56 19,13 41,19 64,19 27,0 50,-8 70,-25 19,-17 32,-42 39,-76zm112 139l0 -395 50 0 0 162 194 0 0 -162 50 0 0 395 -50 0 0 -186 -194 0 0 186 -50 0z"/>
  <path class="fil1" d="M1366 6076l0 -395 129 0c29,0 51,2 66,5 22,6 40,15 55,29 20,17 35,40 45,67 10,28 14,59 14,94 0,30 -3,57 -10,80 -6,23 -15,42 -25,57 -11,15 -22,28 -34,36 -13,9 -27,16 -45,20 -17,5 -37,7 -60,7l-135 0zm49 -47l80 0c25,0 44,-2 58,-7 15,-5 26,-12 34,-21 12,-12 21,-29 28,-49 6,-21 9,-47 9,-77 0,-41 -6,-73 -19,-95 -13,-22 -28,-37 -47,-45 -13,-5 -34,-8 -64,-8l-79 0 0 302zm313 -146c0,-66 17,-117 51,-154 33,-37 76,-56 129,-56 34,0 66,9 93,27 28,17 49,41 64,73 14,31 22,66 22,106 0,40 -8,76 -23,107 -15,32 -37,56 -65,72 -28,16 -59,25 -91,25 -36,0 -67,-9 -95,-28 -28,-17 -49,-42 -63,-73 -14,-31 -22,-64 -22,-99zm52 1c0,48 12,85 36,113 24,27 55,41 91,41 38,0 68,-14 92,-42 24,-27 36,-66 36,-118 0,-32 -5,-60 -15,-84 -10,-24 -25,-42 -45,-55 -20,-14 -42,-20 -67,-20 -35,0 -65,12 -90,38 -26,25 -38,68 -38,127zm516 192l0 -395 50 0 197 310 0 -310 48 0 0 395 -51 0 -197 -311 0 311 -47 0zm363 -193c0,-66 16,-117 50,-154 33,-37 76,-56 129,-56 35,0 66,9 94,27 28,17 49,41 63,73 15,31 22,66 22,106 0,40 -8,76 -23,107 -15,32 -37,56 -65,72 -28,16 -58,25 -91,25 -35,0 -67,-9 -94,-28 -28,-17 -49,-42 -64,-73 -14,-31 -21,-64 -21,-99zm51 1c0,48 12,85 37,113 24,27 54,41 91,41 37,0 68,-14 92,-42 24,-27 36,-66 36,-118 0,-32 -5,-60 -15,-84 -11,-24 -26,-42 -46,-55 -20,-14 -42,-20 -66,-20 -35,0 -66,12 -91,38 -25,25 -38,68 -38,127zm466 192l0 -349 -123 0 0 -46 297 0 0 46 -124 0 0 349 -50 0zm379 0l0 -395 49 0 0 395 -49 0zm138 0l0 -395 166 0c33,0 58,3 76,10 17,7 31,20 41,38 11,18 16,38 16,59 0,28 -8,52 -25,71 -18,20 -44,32 -81,37 14,6 23,13 30,20 15,14 29,31 42,52l65 108 -63 0 -49 -82c-15,-24 -27,-42 -36,-55 -9,-12 -18,-21 -25,-26 -8,-6 -15,-9 -23,-11 -5,-1 -14,-2 -27,-2l-58 0 0 176 -49 0zm49 -221l107 0c22,0 40,-2 53,-7 13,-5 23,-13 29,-24 7,-11 10,-23 10,-36 0,-18 -6,-33 -19,-46 -13,-12 -33,-18 -61,-18l-119 0 0 131zm312 28c0,-66 17,-117 51,-154 33,-37 76,-56 129,-56 34,0 66,9 94,27 27,17 48,41 63,73 15,31 22,66 22,106 0,40 -8,76 -23,107 -15,32 -37,56 -65,72 -28,16 -59,25 -91,25 -36,0 -67,-9 -95,-28 -28,-17 -48,-42 -63,-73 -14,-31 -22,-64 -22,-99zm52 1c0,48 12,85 36,113 24,27 55,41 91,41 38,0 68,-14 92,-42 25,-27 37,-66 37,-118 0,-32 -6,-60 -16,-84 -10,-24 -25,-42 -45,-55 -20,-14 -42,-20 -67,-20 -35,0 -65,12 -90,38 -26,25 -38,68 -38,127zm370 192l0 -395 51 0 197 310 0 -310 47 0 0 395 -50 0 -197 -311 0 311 -48 0z"/>
  <path class="fil1" d="M532 6693l0 -396 129 0c29,0 51,3 66,6 22,5 40,15 55,29 20,17 35,39 45,67 10,28 14,58 14,94 0,30 -3,57 -10,80 -6,23 -15,42 -25,57 -11,15 -22,27 -34,36 -13,9 -27,16 -45,20 -17,4 -37,7 -60,7l-135 0zm49 -47l80 0c25,0 44,-2 58,-7 15,-5 26,-12 34,-21 12,-12 21,-29 28,-50 6,-21 9,-46 9,-76 0,-41 -6,-73 -19,-95 -13,-22 -29,-37 -47,-45 -13,-6 -34,-8 -64,-8l-79 0 0 302zm313 -146c0,-66 17,-117 50,-154 34,-37 77,-56 130,-56 34,0 66,9 93,27 28,17 49,41 64,73 14,30 22,66 22,106 0,40 -8,76 -23,107 -16,32 -37,55 -65,72 -29,16 -59,24 -91,24 -36,0 -67,-9 -95,-27 -28,-17 -49,-42 -63,-73 -14,-31 -22,-64 -22,-99zm51 1c0,48 13,85 37,113 24,27 55,41 91,41 38,0 68,-14 92,-42 24,-27 36,-67 36,-118 0,-32 -5,-60 -15,-84 -10,-24 -25,-42 -45,-56 -20,-13 -42,-20 -67,-20 -35,0 -65,13 -90,39 -26,25 -39,67 -39,127zm517 192l0 -396 50 0 197 311 0 -311 48 0 0 396 -51 0 -197 -311 0 311 -47 0zm363 -193c0,-66 16,-117 50,-154 33,-37 76,-56 129,-56 35,0 66,9 94,27 28,17 48,41 63,73 15,30 22,66 22,106 0,40 -8,76 -23,107 -15,32 -37,55 -65,72 -28,16 -58,24 -91,24 -35,0 -67,-9 -95,-27 -27,-17 -48,-42 -63,-73 -14,-31 -21,-64 -21,-99zm51 1c0,48 12,85 37,113 24,27 54,41 91,41 37,0 68,-14 92,-42 24,-27 36,-67 36,-118 0,-32 -5,-60 -15,-84 -11,-24 -26,-42 -46,-56 -20,-13 -42,-20 -66,-20 -35,0 -66,13 -91,39 -25,25 -38,67 -38,127zm466 192l0 -349 -123 0 0 -47 297 0 0 47 -124 0 0 349 -50 0zm370 0l0 -396 129 0c29,0 52,3 67,6 21,5 40,15 55,29 20,17 34,39 44,67 10,28 15,58 15,94 0,30 -3,57 -10,80 -7,23 -15,42 -26,57 -10,15 -21,27 -34,36 -12,9 -27,16 -44,20 -18,4 -38,7 -60,7l-136 0zm50 -47l80 0c25,0 44,-2 58,-7 14,-5 25,-12 34,-21 12,-12 21,-29 27,-50 7,-21 10,-46 10,-76 0,-41 -7,-73 -19,-95 -13,-22 -29,-37 -47,-45 -13,-6 -35,-8 -65,-8l-78 0 0 302zm329 47l0 -396 166 0c33,0 59,4 76,11 18,7 31,20 42,37 10,19 15,38 15,60 0,28 -8,52 -25,71 -18,20 -44,32 -80,37 13,6 23,13 30,20 14,13 28,31 41,52l65 108 -63 0 -49 -83c-14,-23 -26,-42 -36,-54 -9,-12 -18,-21 -25,-26 -7,-6 -15,-9 -22,-11 -6,-1 -15,-2 -28,-2l-58 0 0 176 -49 0zm49 -221l107 0c23,0 40,-2 53,-7 13,-5 23,-14 29,-24 7,-11 10,-23 10,-36 0,-18 -6,-34 -19,-46 -13,-12 -33,-18 -61,-18l-119 0 0 131zm434 221l0 -168 -145 -228 60 0 74 120c14,22 27,44 38,66 12,-20 25,-44 41,-69l73 -117 57 0 -149 228 0 168 -49 0zm656 -139l50 13c-11,43 -30,76 -56,99 -28,22 -61,33 -100,33 -40,0 -73,-9 -98,-26 -25,-17 -45,-42 -58,-75 -13,-33 -20,-68 -20,-106 0,-41 8,-77 23,-107 14,-31 36,-55 63,-71 28,-16 58,-23 91,-23 37,0 69,10 94,30 26,20 44,48 54,85l-49 12c-8,-29 -21,-50 -38,-63 -16,-13 -37,-20 -62,-20 -29,0 -53,8 -72,22 -19,15 -33,34 -41,59 -8,24 -11,50 -11,76 0,33 4,63 13,88 10,25 24,44 44,56 19,13 40,19 63,19 28,0 51,-9 71,-26 19,-16 32,-42 39,-75zm108 139l0 -396 50 0 0 349 185 0 0 47 -235 0zm294 0l0 -396 271 0 0 47 -221 0 0 121 207 0 0 47 -207 0 0 134 230 0 0 47 -280 0zm307 0l144 -396 54 0 153 396 -56 0 -44 -120 -157 0 -41 120 -53 0zm108 -163l127 0 -39 -109c-12,-33 -21,-61 -27,-82 -4,25 -11,51 -19,75l-42 116zm282 163l0 -396 50 0 197 311 0 -311 48 0 0 396 -51 0 -197 -311 0 311 -47 0z"/>
  <path class="fil1" d="M962 7309l0 -395 51 0 197 310 0 -310 48 0 0 395 -51 0 -197 -310 0 310 -48 0zm364 -192c0,-66 16,-117 50,-154 33,-37 76,-56 129,-56 35,0 66,9 94,26 28,18 48,42 63,73 15,31 22,67 22,106 0,41 -8,77 -23,108 -15,32 -37,55 -65,72 -28,16 -58,24 -91,24 -35,0 -67,-9 -95,-27 -27,-18 -48,-42 -63,-73 -14,-31 -21,-64 -21,-99zm51 1c0,47 12,85 37,113 24,27 54,40 91,40 37,0 68,-13 92,-41 24,-28 36,-67 36,-118 0,-32 -5,-60 -15,-84 -11,-24 -26,-43 -46,-56 -20,-13 -42,-20 -66,-20 -35,0 -66,13 -91,38 -25,26 -38,68 -38,128zm612 191l0 -348 -123 0 0 -47 296 0 0 47 -124 0 0 348 -49 0zm470 -395l50 0 0 229c0,39 -4,71 -13,94 -9,23 -24,43 -46,57 -22,15 -52,22 -88,22 -35,0 -63,-6 -86,-19 -22,-13 -38,-31 -48,-55 -9,-25 -14,-57 -14,-99l0 -229 49 0 0 228c0,34 4,60 10,76 6,16 16,29 31,38 14,9 33,13 54,13 36,0 62,-9 78,-26 15,-17 23,-51 23,-101l0 -228zm130 395l0 -395 75 0 89 280c8,26 14,45 18,59 4,-15 11,-36 20,-64l89 -275 67 0 0 395 -48 0 0 -330 -109 330 -44 0 -108 -336 0 336 -49 0zm436 0l0 -395 141 0c28,0 51,4 68,12 18,8 31,21 41,37 10,17 15,34 15,52 0,17 -5,33 -13,48 -9,15 -22,27 -40,36 23,7 41,19 53,36 12,17 18,37 18,60 0,18 -4,36 -11,52 -8,16 -17,28 -28,37 -11,8 -24,14 -41,19 -16,4 -36,6 -60,6l-143 0zm50 -229l81 0c22,0 37,-1 47,-4 12,-4 22,-11 29,-20 6,-9 9,-21 9,-35 0,-12 -3,-24 -9,-34 -6,-10 -15,-17 -26,-20 -11,-4 -29,-6 -57,-6l-74 0 0 119zm0 183l93 0c16,0 27,-1 34,-2 11,-2 21,-6 28,-11 8,-5 14,-12 19,-22 5,-10 8,-21 8,-33 0,-15 -4,-27 -11,-38 -7,-11 -17,-19 -30,-24 -13,-4 -31,-6 -55,-6l-86 0 0 136zm299 46l0 -395 50 0 0 349 184 0 0 46 -234 0zm294 0l0 -395 271 0 0 47 -221 0 0 121 207 0 0 46 -207 0 0 135 229 0 0 46 -279 0zm493 0l0 -395 130 0c29,0 51,2 66,6 22,5 40,15 55,28 20,18 35,40 45,68 10,27 14,58 14,94 0,29 -3,56 -10,80 -6,23 -15,42 -25,57 -11,15 -22,27 -34,36 -13,9 -28,15 -45,20 -18,4 -37,6 -60,6l-136 0zm50 -46l80 0c25,0 44,-3 58,-8 14,-5 25,-11 34,-20 12,-12 21,-29 28,-50 6,-21 9,-46 9,-76 0,-41 -6,-73 -19,-95 -13,-23 -29,-37 -47,-45 -13,-6 -34,-8 -64,-8l-79 0 0 302zm329 46l0 -395 166 0c34,0 59,4 77,11 17,7 31,20 41,37 10,18 16,38 16,60 0,28 -9,52 -26,71 -17,19 -44,32 -80,36 13,7 23,14 30,20 14,14 28,32 41,53l66 107 -63 0 -49 -82c-15,-24 -27,-42 -37,-54 -9,-13 -17,-21 -25,-26 -7,-6 -14,-9 -22,-11 -6,-2 -15,-2 -28,-2l-57 0 0 175 -50 0zm50 -220l106 0c23,0 41,-3 54,-8 12,-5 22,-13 28,-23 7,-11 10,-23 10,-36 0,-18 -6,-34 -19,-46 -13,-12 -33,-18 -61,-18l-118 0 0 131zm433 220l0 -167 -145 -228 61 0 73 119c14,23 27,45 39,67 11,-20 25,-44 40,-69l73 -117 58 0 -149 228 0 167 -50 0z"/>
  <path class="fil1" d="M670 7799l46 -4c3,20 8,36 16,48 8,13 20,24 38,31 16,8 36,12 57,12 19,0 36,-3 50,-9 15,-6 26,-14 32,-24 8,-11 11,-22 11,-34 0,-13 -3,-23 -10,-32 -7,-10 -18,-18 -34,-24 -10,-4 -32,-11 -66,-19 -35,-9 -59,-17 -73,-25 -18,-10 -31,-22 -40,-37 -8,-14 -13,-31 -13,-49 0,-20 6,-39 16,-56 11,-17 27,-30 47,-39 21,-9 44,-14 69,-14 28,0 52,5 74,15 21,9 37,23 48,41 12,18 18,39 19,62l-48 4c-2,-25 -11,-44 -26,-57 -14,-12 -36,-19 -65,-19 -30,0 -52,6 -66,18 -13,11 -20,25 -20,42 0,14 5,26 14,35 10,9 35,18 75,28 40,10 68,18 83,25 22,11 38,24 48,40 11,16 16,35 16,57 0,21 -6,41 -17,59 -12,19 -28,33 -49,43 -22,11 -46,16 -73,16 -34,0 -62,-5 -85,-16 -22,-10 -41,-26 -54,-46 -13,-21 -20,-45 -20,-72zm366 127l0 -395 141 0c25,0 44,1 57,4 18,3 34,9 46,18 13,9 22,22 30,38 8,17 12,35 12,54 0,34 -11,63 -31,86 -20,23 -57,35 -109,35l-97 0 0 160 -49 0zm49 -207l97 0c32,0 55,-6 68,-19 14,-13 21,-30 21,-53 0,-17 -5,-31 -12,-43 -8,-11 -19,-19 -32,-23 -8,-2 -23,-3 -46,-3l-96 0 0 141zm284 15c0,-66 17,-117 51,-154 33,-37 76,-56 129,-56 34,0 66,9 94,26 27,17 48,42 63,73 15,31 22,66 22,106 0,40 -8,76 -23,108 -15,31 -37,55 -65,72 -28,16 -59,24 -91,24 -36,0 -67,-9 -95,-27 -28,-18 -48,-43 -63,-74 -14,-31 -22,-64 -22,-98zm52 1c0,47 12,85 36,112 24,27 55,41 91,41 38,0 68,-14 93,-41 24,-28 36,-67 36,-118 0,-32 -6,-61 -16,-84 -10,-25 -25,-43 -45,-56 -20,-13 -42,-20 -67,-20 -35,0 -65,13 -90,38 -26,26 -38,68 -38,128zm466 191l0 -348 -123 0 0 -47 297 0 0 47 -124 0 0 348 -50 0zm637 -138l50 13c-10,43 -29,76 -56,98 -27,23 -60,34 -99,34 -41,0 -74,-9 -99,-26 -25,-17 -44,-43 -57,-75 -13,-33 -20,-69 -20,-106 0,-42 7,-77 22,-108 15,-31 36,-54 64,-70 27,-16 58,-24 91,-24 37,0 69,10 94,31 26,20 43,48 53,84l-48 12c-9,-28 -21,-49 -38,-62 -17,-13 -37,-20 -62,-20 -29,0 -53,7 -73,22 -19,14 -32,34 -40,59 -8,24 -12,49 -12,75 0,34 4,63 14,89 9,24 23,43 43,55 20,13 41,19 64,19 28,0 51,-8 70,-25 20,-17 33,-42 39,-75zm109 138l0 -395 49 0 0 348 185 0 0 47 -234 0zm294 0l0 -395 271 0 0 47 -221 0 0 121 207 0 0 46 -207 0 0 134 229 0 0 47 -279 0zm306 0l145 -395 53 0 154 395 -57 0 -44 -120 -156 0 -42 120 -53 0zm109 -162l127 0 -39 -109c-12,-34 -21,-61 -27,-83 -5,26 -11,51 -20,76l-41 116zm281 162l0 -395 51 0 197 310 0 -310 47 0 0 395 -50 0 -197 -311 0 311 -48 0zm509 -192c0,-66 17,-117 50,-154 34,-37 77,-56 129,-56 35,0 66,9 94,26 28,17 49,42 63,73 15,31 22,66 22,106 0,40 -7,76 -23,108 -15,31 -37,55 -64,72 -29,16 -59,24 -92,24 -35,0 -67,-9 -94,-27 -28,-18 -49,-43 -64,-74 -14,-31 -21,-64 -21,-98zm51 1c0,47 12,85 37,112 24,27 54,41 91,41 38,0 68,-14 92,-41 24,-28 36,-67 36,-118 0,-32 -5,-61 -15,-84 -10,-25 -26,-43 -46,-56 -19,-13 -41,-20 -66,-20 -35,0 -65,13 -91,38 -25,26 -38,68 -38,128zm371 191l0 -395 51 0 196 310 0 -310 48 0 0 395 -51 0 -197 -311 0 311 -47 0zm376 0l0 -395 50 0 0 348 184 0 0 47 -234 0zm399 0l0 -167 -145 -228 61 0 73 119c14,22 27,45 39,67 11,-20 25,-44 40,-70l73 -116 58 0 -149 228 0 167 -50 0z"/>
 </g>
</svg>
