<?xml version="1.0" encoding="UTF-8"?>
<!DOCTYPE svg PUBLIC "-//W3C//DTD SVG 1.1//EN" "http://www.w3.org/Graphics/SVG/1.1/DTD/svg11.dtd">
<!-- Creator: CorelDRAW X7 -->
<svg xmlns="http://www.w3.org/2000/svg" xml:space="preserve" width="110mm" height="40mm" version="1.1" style="shape-rendering:geometricPrecision; text-rendering:geometricPrecision; image-rendering:optimizeQuality; fill-rule:evenodd; clip-rule:evenodd"
viewBox="0 0 11000 4000"
 xmlns:xlink="http://www.w3.org/1999/xlink">
 <defs>
  <style type="text/css">
   <![CDATA[
    .str1 {stroke:#2B2A29;stroke-width:20}
    .str0 {stroke:#2B2A29;stroke-width:7.62}
    .fil2 {fill:none}
    .fil0 {fill:#2B2A29}
    .fil1 {fill:#2B2A29;fill-rule:nonzero}
   ]]>
  </style>
 </defs>
 <g id="Capa_x0020_1">
  <metadata id="CorelCorpID_0Corel-Layer"/>
  <path class="fil0 str0" d="M3370 533c796,0 1440,645 1440,1440 0,796 -644,1441 -1440,1441 -795,0 -1440,-645 -1440,-1441 0,-795 645,-1440 1440,-1440zm-627 1721c82,93 194,252 214,252 20,0 332,-296 416,-296 84,0 396,296 416,296 21,0 132,-159 214,-252 10,-12 20,-24 22,-39 2,-13 -2,-25 -6,-38 -15,-45 -45,-113 -45,-113 -1,-15 -19,-23 -35,-27 -138,-39 -269,-100 -388,-181 -40,-28 -125,-81 -125,-81 0,0 -37,-27 -53,-22 -17,-5 -54,22 -54,22 0,0 -84,53 -125,81 -119,81 -250,142 -388,181 -15,5 -33,12 -35,27 0,0 -29,68 -44,113 -4,12 -9,25 -7,38 3,15 13,27 23,39zm1712 -40c-7,-37 -21,-73 -36,-109 -16,-41 -33,-82 -55,-120 -6,-10 -12,-20 -14,-31 -2,-9 -1,-18 -1,-27 3,-32 5,-64 8,-96 1,-8 1,-17 -1,-25 -3,-10 -12,-18 -18,-27 -11,-16 -14,-36 -17,-56 -9,-58 -18,-115 -27,-173 -3,-23 -10,-50 -31,-58l-2 1c0,-17 0,-34 -1,-51 -9,-156 -89,-303 -204,-409 -115,-106 -262,-173 -414,-208 -124,-29 -236,-38 -271,-38 -36,0 -143,9 -267,37 -152,36 -299,102 -414,209 -115,106 -195,253 -204,409 -1,17 -1,34 0,51l-2 -1c-22,9 -28,35 -32,58 -9,58 -17,115 -26,173 -4,20 -7,40 -18,56 -6,9 -14,17 -17,27 -3,8 -2,17 -2,25 3,32 5,64 8,96 1,9 2,19 0,27 -3,11 -9,21 -14,31 -23,38 -40,79 -56,120 -14,36 -29,72 -36,109 -10,51 -6,102 -2,153 6,83 13,168 53,240 20,36 46,66 72,97 52,61 105,123 157,184 36,41 71,83 116,113 35,24 68,41 119,41 52,0 448,-140 567,-140 119,0 523,141 567,141 44,0 84,-18 119,-42 45,-30 81,-72 116,-113 52,-61 105,-122 157,-184 26,-30 52,-61 72,-96 40,-73 47,-158 53,-240 4,-52 8,-103 -2,-154zm-1979 -474c8,-35 17,-71 25,-106 3,15 6,31 8,46l8 -6c239,-49 483,-59 726,-69 80,-3 78,-5 127,-5 49,0 88,3 133,5 243,10 487,20 725,69l8 6c3,-15 6,-31 8,-46 9,35 17,71 25,106 2,9 4,19 0,28 -8,15 -30,14 -45,8 -16,-6 -31,-16 -47,-13 -18,4 -28,21 -37,36 -20,36 -40,72 -60,107 -9,17 -19,35 -15,53 4,27 32,41 54,56 28,17 52,40 72,65 5,7 10,14 11,22 2,8 -1,16 -3,24 -25,81 -51,165 -106,229 -24,27 -53,50 -81,73 -56,45 -113,90 -169,136 -20,15 -42,24 -67,27 -20,-1 -36,-12 -52,-23 -69,-48 -131,-108 -202,-154 -70,-46 -121,-69 -152,-69 -31,0 -76,22 -147,69 -70,47 -132,106 -201,154 -16,11 -33,22 -52,23 -22,2 -44,-7 -67,-27 -56,-46 -113,-91 -170,-136 -28,-23 -56,-46 -80,-73 -55,-64 -82,-148 -106,-229 -2,-8 -5,-16 -3,-24 1,-8 6,-15 11,-22 20,-25 44,-48 72,-65 22,-15 50,-29 54,-56 4,-18 -6,-36 -15,-53 -20,-35 -40,-71 -60,-107 -8,-15 -19,-32 -37,-36 -16,-3 -32,7 -47,13 -16,6 -37,7 -45,-8 -5,-9 -3,-19 -1,-28zm1481 809c-4,-4 -5,-10 -2,-15 3,-4 10,-5 14,-2l83 63c5,3 5,10 2,14 -2,3 -5,4 -8,4 -2,0 -4,0 -6,-2l-83 -62zm68 84c-2,3 -5,4 -8,4 -2,0 -5,-1 -6,-2l-83 -63c-5,-3 -6,-9 -2,-14 3,-4 9,-5 14,-2l83 63c4,3 5,10 2,14zm-39 -108c-4,-3 -5,-10 -2,-14 4,-5 10,-6 15,-2l83 62c4,4 5,10 2,15 -2,2 -5,4 -9,4 -2,0 -4,-1 -6,-2l-83 -63zm30 -24c-4,-3 -5,-10 -2,-14 3,-5 10,-5 14,-2l83 63c5,3 6,9 2,14 -2,3 -4,4 -8,4 -2,0 -4,-1 -6,-2l-83 -63zm30 -23c-5,-4 -6,-10 -2,-14 3,-5 9,-6 14,-2l83 62c4,4 5,10 2,14 -2,3 -5,4 -8,4 -2,0 -5,0 -6,-2l-83 -62zm29 -24c-4,-3 -5,-10 -2,-14 3,-5 10,-5 14,-2l83 63c5,3 5,9 2,14 -2,3 -5,4 -8,4 -2,0 -4,-1 -6,-2l-83 -63zm29 -23c-4,-4 -5,-10 -2,-15 4,-4 10,-5 15,-2l83 63c4,3 5,10 2,14 -2,3 -5,4 -9,4 -2,0 -4,0 -6,-2l-83 -62zm30 -24c-5,-3 -5,-10 -2,-14 3,-5 10,-6 14,-2l83 62c4,4 5,10 2,15 -2,2 -5,4 -8,4 -2,0 -5,-1 -6,-2l-83 -63zm29 -24c-4,-3 -5,-10 -2,-14 3,-5 10,-5 14,-2l83 63c5,3 6,9 2,14 -2,3 -4,4 -8,4 -2,0 -4,-1 -6,-2l-83 -63zm-1644 70l83 -62c5,-4 11,-3 14,2 3,4 3,11 -2,14l-83 63c-2,1 -4,2 -6,2 -3,0 -6,-2 -8,-4 -4,-4 -2,-11 2,-15zm-17 -7c-2,1 -4,2 -6,2 -3,0 -6,-1 -8,-4 -4,-4 -3,-11 2,-14l83 -63c4,-3 11,-2 14,2 3,5 2,11 -2,14l-83 63zm47 31l82 -63c5,-3 11,-2 15,2 3,5 2,11 -2,15l-83 62c-2,2 -4,2 -6,2 -4,0 -6,-1 -9,-4 -3,-4 -2,-11 3,-14zm29 24l83 -63c4,-3 11,-3 14,2 3,4 2,11 -2,14l-83 63c-2,1 -4,2 -6,2 -3,0 -6,-1 -8,-4 -3,-4 -3,-11 2,-14zm29 23l83 -62c5,-4 11,-3 14,2 4,4 3,10 -2,14l-82 62c-2,2 -4,2 -6,2 -3,0 -6,-1 -8,-4 -4,-4 -3,-10 1,-14zm30 24l83 -63c4,-3 11,-2 14,2 3,5 2,11 -2,14l-83 63c-2,1 -4,2 -6,2 -3,0 -6,-1 -8,-4 -4,-4 -3,-11 2,-14zm30 23l82 -62c5,-4 11,-3 15,2 3,4 2,11 -2,14l-83 63c-2,1 -4,2 -6,2 -4,0 -6,-2 -8,-4 -4,-4 -3,-11 2,-15zm29 24l83 -63c4,-3 11,-2 14,2 3,5 2,11 -2,15l-83 62c-2,2 -4,2 -6,2 -3,0 -6,-1 -8,-4 -4,-4 -3,-11 2,-14zm29 24l83 -63c5,-3 11,-3 14,2 4,4 3,11 -2,14l-83 63c-2,1 -4,2 -6,2 -3,0 -6,-1 -8,-4 -3,-4 -2,-11 2,-14zm-420 -339c1,1 2,2 3,4 19,27 25,63 16,95 -16,-26 -27,-87 -27,-87 0,-6 3,-14 8,-12zm2123 228c-8,17 -12,34 -19,51 -11,24 -24,47 -41,67 -37,45 -85,82 -129,122 -47,41 -93,84 -140,124 -13,11 -29,21 -46,12 -13,-6 -20,-19 -24,-33 -4,4 -8,7 -12,10 -35,28 -76,49 -121,39 -37,-8 -71,-31 -104,-51 -31,-19 -62,-38 -92,-58 -65,-42 -129,-86 -195,-124 -27,-16 -55,-31 -84,-43 -19,-7 -39,-15 -59,-12 -25,3 -49,15 -70,26 -31,15 -60,32 -89,50 -67,41 -131,86 -197,128 -29,19 -58,37 -88,54 -37,21 -75,40 -119,29 -31,-8 -58,-27 -82,-48 -4,13 -11,27 -24,33 -18,8 -34,-3 -48,-14 -47,-40 -92,-82 -138,-123 -44,-40 -94,-78 -131,-124 -16,-20 -28,-41 -39,-64 -7,-17 -11,-35 -19,-52 -3,-7 5,-19 13,-13 94,72 186,148 274,227 42,37 82,78 124,114 20,18 43,35 69,43 31,10 59,2 87,-12 130,-67 244,-163 372,-233 38,-21 85,-48 130,-41 54,10 106,44 152,71 65,39 128,82 192,124 30,19 60,38 90,56 37,21 78,47 122,37 47,-12 83,-52 116,-83 38,-36 76,-72 116,-106 77,-69 158,-134 241,-197 7,-5 15,7 12,14zm23 -216c0,0 -11,61 -27,86 -8,-32 -3,-67 16,-95 0,-1 2,-2 3,-3 5,-2 8,6 8,12z"/>
  <path class="fil1" d="M4876 974l-97 -322 57 0 51 186 18 69c1,-3 6,-26 17,-66l51 -189 56 0 48 187 16 61 18 -62 56 -186 53 0 -101 322 -56 0 -51 -193 -13 -55 -65 248 -58 0z"/>
  <path id="1" class="fil1" d="M5324 974l-98 -322 57 0 52 186 18 69c1,-3 6,-26 17,-66l51 -189 56 0 48 187 16 61 18 -62 56 -186 53 0 -101 322 -56 0 -52 -193 -12 -55 -66 248 -57 0z"/>
  <path id="2" class="fil1" d="M5772 974l-98 -322 57 0 52 186 18 69c1,-3 6,-26 17,-66l50 -189 56 0 49 187 16 61 18 -62 56 -186 53 0 -101 322 -57 0 -51 -193 -13 -55 -65 248 -57 0z"/>
  <polygon id="3" class="fil1" points="6143,974 6143,912 6205,912 6205,974 "/>
  <path id="4" class="fil1" d="M6290 1001l52 7c2,16 9,28 19,36 13,10 32,15 55,15 25,0 45,-5 59,-15 14,-10 23,-24 28,-42 2,-11 4,-35 4,-70 -24,28 -54,42 -89,42 -45,0 -79,-16 -103,-48 -25,-32 -37,-70 -37,-114 0,-31 6,-59 17,-85 11,-26 27,-46 48,-60 21,-15 46,-22 75,-22 38,0 69,16 94,47l0 -40 50 0 0 278c0,50 -5,86 -16,107 -10,20 -26,37 -48,49 -22,12 -49,18 -81,18 -39,0 -70,-8 -93,-26 -24,-17 -35,-43 -34,-77zm44 -193c0,42 9,72 25,92 17,19 38,29 63,29 25,0 46,-10 64,-29 16,-19 25,-50 25,-91 0,-39 -9,-69 -26,-89 -18,-19 -39,-29 -63,-29 -25,0 -45,9 -62,29 -17,20 -26,49 -26,88z"/>
  <path id="5" class="fil1" d="M6644 974l0 -322 49 0 0 49c12,-22 24,-37 35,-45 10,-7 22,-11 35,-11 18,0 37,6 56,18l-20 50c-13,-8 -26,-11 -39,-11 -12,0 -23,3 -32,11 -10,7 -16,17 -20,29 -7,20 -10,41 -10,64l0 168 -54 0z"/>
  <path id="6" class="fil1" d="M7061 934c-20,17 -40,29 -58,36 -19,7 -39,11 -61,11 -35,0 -62,-9 -81,-26 -19,-17 -29,-39 -29,-66 0,-16 4,-30 11,-43 7,-13 17,-23 28,-31 12,-8 25,-14 40,-18 10,-3 27,-6 48,-8 44,-5 77,-12 98,-19 0,-7 0,-12 0,-14 0,-22 -5,-38 -16,-47 -14,-12 -34,-18 -62,-18 -26,0 -45,4 -57,13 -12,9 -21,25 -27,48l-53 -7c5,-23 13,-42 24,-56 11,-14 27,-25 48,-32 21,-8 46,-12 73,-12 28,0 50,4 67,10 18,7 30,15 38,24 8,10 14,23 17,38 2,9 3,26 3,50l0 72c0,51 1,83 3,96 3,14 7,27 14,39l-57 0c-6,-11 -9,-25 -11,-40zm-4 -121c-20,8 -50,15 -89,20 -23,3 -39,7 -48,11 -9,4 -17,10 -22,18 -5,7 -7,16 -7,25 0,15 5,27 16,37 11,9 27,14 49,14 21,0 39,-5 56,-14 16,-9 28,-21 36,-37 6,-12 9,-31 9,-54l0 -20z"/>
  <path id="7" class="fil1" d="M7210 974l0 -280 -48 0 0 -42 48 0 0 -31c0,-32 7,-56 21,-73 14,-17 35,-25 65,-25 20,0 39,2 56,6l-9 46c-11,-1 -20,-2 -29,-2 -19,0 -32,3 -39,11 -7,7 -10,23 -10,47l0 21 62 0 0 42 -62 0 0 280 -55 0zm158 -382l0 -62 54 0 0 62 -54 0zm0 382l0 -322 54 0 0 322 -54 0z"/>
  <path id="8" class="fil1" d="M7714 974l0 -41c-21,32 -51,48 -90,48 -26,0 -49,-7 -71,-21 -21,-14 -38,-34 -50,-59 -12,-26 -17,-55 -17,-88 0,-32 5,-61 16,-87 10,-26 26,-46 48,-60 21,-14 45,-21 71,-21 20,0 37,4 52,13 15,8 27,19 37,32l0 -160 55 0 0 444 -51 0zm-173 -161c0,42 9,72 26,93 18,20 38,30 62,30 24,0 44,-10 61,-29 17,-19 25,-49 25,-89 0,-44 -9,-76 -26,-97 -17,-20 -37,-30 -62,-30 -25,0 -45,9 -61,29 -17,20 -25,51 -25,93z"/>
  <path id="9" class="fil1" d="M8070 870l57 7c-9,33 -25,59 -49,77 -24,18 -55,27 -92,27 -47,0 -84,-15 -112,-44 -27,-28 -41,-69 -41,-121 0,-54 14,-96 42,-126 27,-30 63,-45 108,-45 43,0 78,15 105,44 27,29 41,71 41,124 0,3 0,8 -1,14l-239 0c2,35 12,62 30,81 18,19 40,28 67,28 20,0 37,-5 51,-16 14,-10 25,-27 33,-50zm-178 -88l179 0c-2,-27 -9,-47 -21,-60 -17,-21 -39,-32 -67,-32 -25,0 -46,8 -63,25 -17,17 -26,39 -28,67z"/>
  <polygon id="10" class="fil1" points="8195,974 8195,530 8249,530 8249,974 "/>
  <polygon id="11" class="fil1" points="8349,974 8349,912 8411,912 8411,974 "/>
  <path id="12" class="fil1" d="M8716 856l53 8c-5,36 -20,65 -44,86 -25,20 -54,31 -89,31 -44,0 -79,-15 -106,-43 -27,-29 -40,-70 -40,-124 0,-34 6,-65 17,-91 11,-26 29,-45 53,-58 23,-13 49,-20 76,-20 35,0 64,9 86,27 22,17 36,43 42,75l-52 8c-5,-22 -14,-38 -27,-49 -13,-11 -28,-16 -47,-16 -27,0 -49,10 -67,29 -17,20 -25,51 -25,94 0,43 8,74 24,94 17,19 39,29 65,29 22,0 40,-6 54,-19 14,-13 23,-34 27,-61z"/>
  <path id="13" class="fil1" d="M8795 813c0,-59 17,-103 50,-132 28,-24 62,-36 101,-36 45,0 81,15 109,44 28,29 42,69 42,120 0,41 -6,73 -19,97 -12,24 -30,42 -54,55 -24,13 -50,20 -78,20 -45,0 -81,-15 -109,-43 -28,-29 -42,-71 -42,-125zm56 0c0,41 9,72 27,92 18,21 41,31 68,31 27,0 50,-10 68,-31 18,-20 27,-52 27,-94 0,-39 -9,-69 -27,-90 -18,-20 -41,-30 -68,-30 -27,0 -50,10 -68,30 -18,20 -27,51 -27,92z"/>
  <path id="14" class="fil1" d="M9161 974l0 -322 49 0 0 46c10,-16 23,-29 40,-38 17,-10 36,-15 57,-15 24,0 44,5 59,15 15,10 26,24 32,42 25,-38 59,-57 100,-57 32,0 56,9 73,27 18,17 26,45 26,81l0 221 -54 0 0 -203c0,-21 -2,-37 -6,-47 -3,-9 -9,-17 -19,-23 -9,-6 -20,-9 -33,-9 -22,0 -41,8 -56,23 -15,15 -23,39 -23,72l0 187 -54 0 0 -209c0,-24 -5,-42 -13,-54 -9,-12 -24,-19 -44,-19 -15,0 -30,4 -43,13 -13,8 -22,19 -28,35 -6,16 -9,38 -9,67l0 167 -54 0z"/>
  <path class="fil1" d="M5134 1699l112 -291 42 0 119 291 -44 0 -34 -88 -122 0 -32 88 -41 0zm84 -120l99 0 -30 -80c-9,-25 -16,-45 -21,-61 -4,19 -9,38 -16,56l-32 85z"/>
  <path id="1" class="fil1" d="M5569 1699l0 -27c-13,21 -33,31 -59,31 -17,0 -32,-4 -46,-13 -14,-10 -25,-23 -33,-39 -8,-17 -11,-36 -11,-57 0,-21 3,-40 10,-57 7,-18 18,-31 32,-40 14,-9 29,-13 47,-13 12,0 24,2 34,8 9,5 17,12 24,21l0 -105 36 0 0 291 -34 0zm-113 -105c0,27 6,47 17,60 12,14 25,20 41,20 15,0 29,-6 40,-19 10,-13 16,-32 16,-58 0,-29 -6,-50 -17,-64 -11,-13 -25,-20 -41,-20 -16,0 -29,7 -40,20 -10,13 -16,33 -16,61z"/>
  <path id="2" class="fil1" d="M5659 1699l0 -211 32 0 0 32c8,-15 16,-25 23,-29 7,-5 14,-7 23,-7 12,0 24,3 36,11l-12 33c-9,-5 -18,-7 -26,-7 -8,0 -15,2 -21,7 -7,4 -11,11 -14,19 -4,13 -6,27 -6,42l0 110 -35 0z"/>
  <path id="3" class="fil1" d="M5794 1449l0 -41 36 0 0 41 -36 0zm0 250l0 -211 36 0 0 211 -36 0z"/>
  <path id="4" class="fil1" d="M6023 1673c-14,11 -27,19 -39,23 -12,5 -25,7 -39,7 -23,0 -41,-5 -54,-16 -12,-12 -18,-26 -18,-44 0,-10 2,-19 7,-28 4,-8 11,-15 18,-20 8,-6 16,-9 26,-12 7,-2 18,-4 32,-5 29,-4 50,-8 64,-13 0,-5 0,-8 0,-9 0,-15 -4,-25 -10,-31 -10,-8 -23,-12 -41,-12 -17,0 -30,3 -38,9 -8,6 -14,16 -17,31l-35 -4c3,-15 8,-28 15,-37 8,-9 18,-16 32,-21 14,-5 30,-7 48,-7 18,0 33,2 44,6 11,4 20,9 25,16 5,6 9,14 11,24 1,6 2,17 2,33l0 48c0,33 1,54 2,63 2,8 5,17 9,25l-38 0c-3,-8 -5,-16 -6,-26zm-3 -80c-13,6 -33,10 -59,14 -15,2 -25,4 -31,7 -6,2 -11,6 -14,11 -4,5 -5,11 -5,17 0,10 3,18 11,24 7,6 17,9 31,9 14,0 26,-3 37,-9 11,-6 19,-14 24,-24 4,-8 6,-20 6,-36l0 -13zm-75 -131l26 -56 47 0 -44 56 -29 0z"/>
  <path id="5" class="fil1" d="M6111 1699l0 -211 32 0 0 30c15,-23 38,-34 67,-34 13,0 24,2 35,6 11,5 19,11 24,18 5,8 9,17 11,27 1,6 2,18 2,34l0 130 -36 0 0 -128c0,-15 -1,-26 -4,-33 -3,-7 -8,-13 -15,-17 -7,-4 -15,-7 -25,-7 -15,0 -28,5 -39,15 -11,10 -16,28 -16,55l0 115 -36 0z"/>
  <path id="6" class="fil1" d="M6442 1606l36 -4c2,15 6,27 12,36 6,10 16,17 29,23 13,6 28,9 45,9 15,0 27,-2 39,-7 11,-4 19,-10 25,-18 5,-8 8,-16 8,-25 0,-9 -3,-17 -8,-24 -5,-6 -14,-12 -26,-17 -8,-3 -25,-8 -52,-14 -27,-6 -45,-12 -56,-18 -14,-7 -24,-17 -31,-27 -7,-11 -10,-23 -10,-37 0,-14 4,-28 12,-41 9,-13 21,-22 37,-29 16,-7 34,-10 53,-10 22,0 41,4 57,10 17,7 29,18 38,31 9,14 14,29 15,46l-37 3c-2,-18 -9,-32 -21,-42 -11,-9 -28,-14 -50,-14 -24,0 -41,4 -51,13 -11,9 -16,19 -16,31 0,10 4,19 11,26 7,6 27,13 58,20 31,8 53,14 65,19 16,8 29,18 37,30 8,12 12,25 12,41 0,15 -4,30 -13,44 -9,13 -22,24 -38,32 -17,7 -36,11 -56,11 -27,0 -49,-4 -66,-12 -18,-7 -32,-19 -42,-34 -10,-16 -16,-33 -16,-52z"/>
  <path id="7" class="fil1" d="M6721 1449l0 -41 36 0 0 41 -36 0zm0 250l0 -211 36 0 0 211 -36 0z"/>
  <polygon id="8" class="fil1" points="6811,1699 6811,1408 6846,1408 6846,1699 "/>
  <path id="9" class="fil1" d="M6959 1699l-79 -211 38 0 45 126c5,14 10,28 14,43 3,-11 7,-25 13,-40l47 -129 37 0 -80 211 -35 0z"/>
  <path id="10" class="fil1" d="M7249 1631l37 5c-6,21 -17,38 -32,50 -16,12 -36,17 -61,17 -30,0 -55,-9 -73,-28 -18,-19 -27,-46 -27,-80 0,-35 9,-63 27,-82 19,-20 42,-29 71,-29 29,0 51,9 69,28 18,19 27,46 27,81 0,2 0,5 0,10l-157 0c1,23 8,41 19,53 12,12 27,18 44,18 13,0 25,-3 34,-10 9,-7 16,-18 22,-33zm-117 -58l117 0c-1,-17 -6,-31 -13,-40 -12,-13 -26,-20 -44,-20 -17,0 -31,5 -42,16 -11,11 -17,26 -18,44z"/>
  <path id="11" class="fil1" d="M7317 1636l35 -6c2,14 8,25 17,33 9,7 22,11 38,11 16,0 29,-3 36,-10 8,-6 12,-14 12,-23 0,-8 -3,-15 -10,-19 -5,-4 -17,-8 -37,-12 -26,-7 -44,-13 -54,-18 -10,-4 -18,-11 -23,-20 -5,-8 -8,-18 -8,-28 0,-9 2,-18 6,-26 5,-8 10,-15 18,-20 5,-4 13,-7 23,-10 9,-3 19,-4 30,-4 17,0 31,2 44,7 12,4 22,11 28,19 6,8 10,19 12,33l-35 5c-2,-11 -6,-20 -14,-26 -7,-6 -18,-9 -32,-9 -16,0 -28,3 -35,8 -7,5 -11,12 -11,19 0,5 2,9 5,13 3,3 7,7 13,9 4,1 14,4 32,9 25,7 43,12 53,17 10,4 18,10 23,18 6,9 9,19 9,31 0,12 -3,23 -10,33 -7,11 -17,19 -31,25 -13,6 -27,8 -44,8 -27,0 -48,-5 -63,-17 -14,-11 -23,-28 -27,-50z"/>
  <path id="12" class="fil1" d="M7612 1667l5 32c-10,2 -19,3 -27,3 -13,0 -23,-2 -30,-6 -7,-4 -12,-10 -15,-17 -3,-6 -5,-20 -5,-42l0 -121 -26 0 0 -28 26 0 0 -52 36 -22 0 74 36 0 0 28 -36 0 0 123c0,10 1,17 2,20 1,3 3,5 6,7 3,2 7,3 12,3 4,0 9,-1 16,-2z"/>
  <path id="13" class="fil1" d="M7647 1699l0 -211 32 0 0 32c8,-15 16,-25 23,-29 7,-5 14,-7 23,-7 12,0 24,3 36,11l-12 33c-9,-5 -18,-7 -26,-7 -8,0 -15,2 -21,7 -6,4 -11,11 -13,19 -4,13 -6,27 -6,42l0 110 -36 0z"/>
  <path id="14" class="fil1" d="M7927 1631l36 5c-5,21 -16,38 -32,50 -15,12 -36,17 -60,17 -31,0 -55,-9 -73,-28 -18,-19 -27,-46 -27,-80 0,-35 9,-63 27,-82 18,-20 42,-29 71,-29 28,0 51,9 69,28 18,19 27,46 27,81 0,2 0,5 0,10l-158 0c2,23 8,41 20,53 12,12 26,18 44,18 13,0 24,-3 33,-10 10,-7 17,-18 23,-33zm-118 -58l118 0c-2,-17 -6,-31 -14,-40 -11,-13 -26,-20 -44,-20 -16,0 -30,5 -41,16 -11,11 -17,26 -19,44z"/>
  <path id="15" class="fil1" d="M8125 1699l0 -291 58 0 69 206c6,19 11,34 14,43 3,-11 8,-26 15,-47l70 -202 52 0 0 291 -37 0 0 -244 -85 244 -35 0 -84 -248 0 248 -37 0z"/>
  <path id="16" class="fil1" d="M8598 1673c-13,11 -26,19 -38,23 -13,5 -26,7 -40,7 -23,0 -41,-5 -53,-16 -13,-12 -19,-26 -19,-44 0,-10 2,-19 7,-28 5,-8 11,-15 19,-20 7,-6 16,-9 25,-12 7,-2 18,-4 32,-5 29,-4 50,-8 64,-13 0,-5 0,-8 0,-9 0,-15 -3,-25 -10,-31 -9,-8 -23,-12 -41,-12 -17,0 -29,3 -37,9 -8,6 -14,16 -18,31l-35 -4c3,-15 9,-28 16,-37 7,-9 18,-16 32,-21 13,-5 29,-7 48,-7 18,0 32,2 44,6 11,4 19,9 24,16 6,6 9,14 12,24 1,6 1,17 1,33l0 48c0,33 1,54 3,63 1,8 4,17 8,25l-37 0c-4,-8 -6,-16 -7,-26zm-3 -80c-13,6 -32,10 -58,14 -15,2 -26,4 -32,7 -6,2 -10,6 -14,11 -3,5 -5,11 -5,17 0,10 4,18 11,24 7,6 18,9 32,9 14,0 26,-3 37,-9 10,-6 18,-14 23,-24 4,-8 6,-20 6,-36l0 -13z"/>
  <path id="17" class="fil1" d="M8686 1699l0 -211 32 0 0 32c8,-15 16,-25 23,-29 7,-5 14,-7 23,-7 12,0 24,3 37,11l-13 33c-9,-5 -18,-7 -26,-7 -8,0 -15,2 -21,7 -6,4 -11,11 -13,19 -4,13 -6,27 -6,42l0 110 -36 0z"/>
  <path id="18" class="fil1" d="M8899 1667l5 32c-10,2 -19,3 -27,3 -13,0 -23,-2 -30,-6 -7,-4 -12,-10 -15,-17 -3,-6 -4,-20 -4,-42l0 -121 -27 0 0 -28 27 0 0 -52 36 -22 0 74 35 0 0 28 -35 0 0 123c0,10 0,17 1,20 2,3 4,5 7,7 2,2 6,3 12,3 4,0 9,-1 15,-2z"/>
  <path id="19" class="fil1" d="M8947 1699l0 -211 36 0 0 211 -36 0zm-12 -237l26 -56 48 0 -44 56 -30 0z"/>
  <path id="20" class="fil1" d="M9048 1699l0 -211 32 0 0 30c15,-23 38,-34 67,-34 12,0 24,2 35,6 10,5 18,11 24,18 5,8 9,17 11,27 1,6 2,18 2,34l0 130 -36 0 0 -128c0,-15 -1,-26 -4,-33 -3,-7 -8,-13 -15,-17 -7,-4 -15,-7 -25,-7 -15,0 -28,5 -39,15 -11,10 -17,28 -17,55l0 115 -35 0z"/>
  <path id="21" class="fil1" d="M9418 1631l37 5c-6,21 -17,38 -33,50 -15,12 -35,17 -60,17 -31,0 -55,-9 -73,-28 -18,-19 -27,-46 -27,-80 0,-35 9,-63 27,-82 18,-20 42,-29 71,-29 28,0 51,9 69,28 18,19 27,46 27,81 0,2 0,5 0,10l-158 0c2,23 8,41 20,53 12,12 27,18 44,18 13,0 24,-3 34,-10 9,-7 16,-18 22,-33zm-117 -58l117 0c-2,-17 -6,-31 -13,-40 -12,-13 -27,-20 -45,-20 -16,0 -30,5 -41,16 -11,11 -17,26 -18,44z"/>
  <path id="22" class="fil1" d="M9481 1699l0 -29 133 -154c-15,0 -28,1 -40,1l-85 0 0 -29 172 0 0 24 -114 133 -22 25c16,-1 31,-2 45,-2l97 0 0 31 -186 0z"/>
  <polygon class="fil1" points="6000,2229 6000,2064 6022,2064 6022,2146 6104,2064 6133,2064 6064,2131 6136,2229 6108,2229 6049,2146 6022,2172 6022,2229 "/>
  <path id="1" class="fil1" d="M6230 2214c-7,6 -14,11 -21,14 -7,2 -15,4 -23,4 -13,0 -23,-4 -30,-10 -7,-6 -11,-15 -11,-25 0,-5 2,-11 4,-16 3,-4 6,-8 11,-11 4,-3 9,-5 14,-7 4,-1 10,-2 18,-3 17,-2 29,-4 37,-7 0,-3 0,-4 0,-5 0,-8 -2,-14 -6,-18 -5,-4 -13,-6 -23,-6 -10,0 -17,1 -21,5 -5,3 -8,9 -10,17l-20 -2c2,-9 4,-16 9,-21 4,-5 10,-9 18,-12 7,-3 17,-4 27,-4 10,0 18,1 25,3 6,3 11,6 14,9 3,4 5,9 6,14 1,4 1,10 1,19l0 27c0,19 1,31 2,36 0,5 2,9 5,14l-22 0c-2,-4 -3,-9 -4,-15zm-1 -45c-8,3 -19,6 -33,8 -9,1 -15,2 -18,4 -4,1 -6,3 -8,6 -2,3 -3,6 -3,10 0,5 2,10 6,13 4,4 10,6 18,6 8,0 15,-2 21,-5 6,-4 11,-9 13,-14 3,-5 4,-12 4,-21l0 -7z"/>
  <path id="2" class="fil1" d="M6280 2229l0 -120 19 0 0 19c4,-9 8,-15 12,-17 4,-3 9,-4 13,-4 7,0 14,2 21,6l-7 19c-5,-3 -10,-4 -15,-4 -4,0 -8,1 -12,4 -3,2 -6,6 -7,11 -2,7 -3,15 -3,23l0 63 -21 0z"/>
  <polygon id="3" class="fil1" points="6357,2229 6357,2064 6377,2064 6377,2229 "/>
  <polygon id="4" class="fil1" points="6401,2179 6401,2159 6463,2159 6463,2179 "/>
  <polygon id="5" class="fil1" points="6487,2229 6487,2064 6509,2064 6509,2210 6590,2210 6590,2229 "/>
  <path id="6" class="fil1" d="M6614 2087l0 -23 20 0 0 23 -20 0zm0 142l0 -120 20 0 0 120 -20 0z"/>
  <path id="7" class="fil1" d="M6747 2190l21 3c-3,12 -10,22 -19,28 -8,7 -20,11 -34,11 -17,0 -31,-6 -41,-17 -10,-10 -16,-25 -16,-45 0,-20 6,-36 16,-47 10,-11 24,-16 40,-16 16,0 29,5 39,16 10,11 15,26 15,46 0,1 0,3 0,5l-89 0c1,13 5,24 11,30 7,7 15,11 25,11 8,0 14,-2 19,-6 6,-4 10,-10 13,-19zm-67 -32l67 0c-1,-10 -3,-18 -8,-23 -6,-8 -14,-12 -25,-12 -9,0 -17,3 -23,10 -6,6 -10,14 -11,25z"/>
  <path id="8" class="fil1" d="M6812 2229l-19 0 0 -165 21 0 0 59c8,-11 19,-16 32,-16 8,0 15,1 21,4 7,3 12,7 16,13 5,5 8,11 10,19 3,8 4,16 4,24 0,21 -5,37 -15,48 -10,11 -22,17 -37,17 -14,0 -25,-6 -33,-18l0 15zm0 -61c0,15 2,25 6,31 6,11 15,16 26,16 9,0 16,-4 23,-12 6,-7 9,-19 9,-34 0,-16 -3,-27 -9,-35 -6,-7 -14,-11 -22,-11 -9,0 -17,4 -23,12 -7,8 -10,19 -10,33z"/>
  <polygon id="9" class="fil1" points="6922,2229 6922,2064 6942,2064 6942,2158 6990,2109 7016,2109 6971,2154 7021,2229 6996,2229 6956,2168 6942,2182 6942,2229 "/>
  <path id="10" class="fil1" d="M7037 2229l0 -120 18 0 0 17c9,-13 22,-19 38,-19 8,0 14,1 20,4 6,2 11,6 14,10 3,4 5,9 6,15 1,4 1,10 1,19l0 74 -20 0 0 -73c0,-8 -1,-14 -2,-18 -2,-4 -5,-8 -9,-10 -4,-3 -8,-4 -14,-4 -8,0 -16,3 -22,8 -6,6 -10,16 -10,32l0 65 -20 0z"/>
  <path id="11" class="fil1" d="M7247 2190l21 3c-3,12 -9,22 -18,28 -9,7 -20,11 -34,11 -18,0 -32,-6 -42,-17 -10,-10 -15,-25 -15,-45 0,-20 5,-36 15,-47 11,-11 24,-16 41,-16 16,0 29,5 39,16 10,11 15,26 15,46 0,1 0,3 0,5l-89 0c0,13 4,24 11,30 6,7 15,11 25,11 7,0 13,-2 19,-6 5,-4 9,-10 12,-19zm-66 -32l66 0c0,-10 -3,-18 -7,-23 -7,-8 -15,-12 -25,-12 -10,0 -17,3 -24,10 -6,6 -10,14 -10,25z"/>
  <path id="12" class="fil1" d="M7372 2185l20 3c-2,14 -8,24 -17,32 -9,8 -20,12 -33,12 -16,0 -29,-6 -39,-16 -10,-11 -15,-26 -15,-46 0,-13 2,-25 6,-34 5,-10 11,-17 20,-22 9,-5 18,-7 28,-7 13,0 24,3 32,10 9,6 14,15 16,28l-19 3c-2,-8 -6,-15 -10,-19 -5,-4 -11,-6 -18,-6 -10,0 -18,4 -25,11 -6,8 -9,19 -9,35 0,16 3,28 9,35 6,7 14,11 24,11 8,0 15,-2 20,-7 5,-5 9,-13 10,-23z"/>
  <path id="13" class="fil1" d="M7409 2229l0 -165 21 0 0 59c9,-11 21,-16 35,-16 9,0 17,1 23,5 7,3 11,8 14,14 3,7 4,16 4,27l0 76 -20 0 0 -76c0,-10 -2,-17 -6,-22 -5,-4 -11,-7 -19,-7 -6,0 -12,2 -17,5 -5,3 -9,7 -11,13 -2,5 -3,12 -3,22l0 65 -21 0z"/>
  <path id="14" class="fil1" d="M7582 2211l2 18c-5,1 -10,2 -15,2 -7,0 -13,-2 -17,-4 -4,-2 -7,-5 -8,-9 -2,-4 -3,-12 -3,-24l0 -69 -15 0 0 -16 15 0 0 -29 20 -13 0 42 21 0 0 16 -21 0 0 70c0,6 1,10 1,11 1,2 2,3 4,4 2,1 4,2 7,2 2,0 5,-1 9,-1z"/>
  <path id="15" class="fil1" d="M7594 2193l20 -3c1,8 4,14 9,19 5,4 13,6 22,6 9,0 16,-2 21,-6 4,-4 6,-8 6,-13 0,-5 -2,-8 -6,-11 -3,-2 -9,-4 -20,-7 -15,-4 -26,-7 -31,-9 -6,-3 -10,-7 -13,-12 -3,-5 -5,-10 -5,-16 0,-5 1,-10 4,-15 2,-4 6,-8 10,-11 3,-2 7,-4 13,-6 5,-1 11,-2 17,-2 10,0 18,1 25,4 7,2 12,6 16,11 3,4 5,11 7,18l-20 3c-1,-6 -4,-11 -8,-14 -4,-4 -11,-6 -18,-6 -10,0 -16,2 -20,5 -4,3 -6,7 -6,11 0,2 1,5 2,7 2,2 4,4 8,5 2,1 8,3 18,5 14,4 24,7 30,10 6,2 10,6 13,10 4,5 5,11 5,18 0,7 -2,13 -6,19 -4,6 -9,10 -17,14 -7,3 -16,5 -25,5 -16,0 -28,-4 -36,-10 -8,-7 -13,-16 -15,-29z"/>
  <path id="16" class="fil1" d="M7761 2211l3 18c-6,1 -11,2 -15,2 -8,0 -13,-2 -17,-4 -4,-2 -7,-5 -9,-9 -2,-4 -2,-12 -2,-24l0 -69 -15 0 0 -16 15 0 0 -29 20 -13 0 42 20 0 0 16 -20 0 0 70c0,6 0,10 1,11 1,2 2,3 3,4 2,1 4,2 7,2 3,0 6,-1 9,-1z"/>
  <path id="17" class="fil1" d="M7781 2229l0 -120 18 0 0 19c5,-9 9,-15 13,-17 4,-3 8,-4 13,-4 7,0 14,2 21,6l-7 19c-5,-3 -10,-4 -15,-4 -4,0 -8,1 -12,4 -3,2 -6,6 -7,11 -3,7 -4,15 -4,23l0 63 -20 0z"/>
  <path id="18" class="fil1" d="M7936 2214c-7,6 -14,11 -21,14 -7,2 -15,4 -23,4 -13,0 -23,-4 -30,-10 -7,-6 -11,-15 -11,-25 0,-5 2,-11 4,-16 3,-4 6,-8 11,-11 4,-3 9,-5 14,-7 4,-1 10,-2 18,-3 17,-2 29,-4 37,-7 0,-3 0,-4 0,-5 0,-8 -2,-14 -6,-18 -5,-4 -13,-6 -23,-6 -10,0 -17,1 -21,5 -5,3 -8,9 -11,17l-19 -2c1,-9 4,-16 9,-21 4,-5 10,-9 18,-12 7,-3 16,-4 27,-4 10,0 18,1 25,3 6,3 11,6 14,9 3,4 5,9 6,14 1,4 1,10 1,19l0 27c0,19 1,31 2,36 0,5 2,9 4,14l-21 0c-2,-4 -3,-9 -4,-15zm-1 -45c-8,3 -19,6 -34,8 -8,1 -14,2 -17,4 -4,1 -6,3 -8,6 -2,3 -3,6 -3,10 0,5 2,10 6,13 4,4 10,6 18,6 8,0 15,-2 21,-5 6,-4 10,-9 13,-14 3,-5 4,-12 4,-21l0 -7z"/>
  <path id="19" class="fil1" d="M7989 2229l0 -113c0,-13 1,-24 5,-31 3,-8 9,-13 16,-18 8,-4 17,-6 27,-6 13,0 23,3 31,10 7,6 11,14 11,22 0,4 -1,8 -3,12 -1,4 -3,9 -7,15 -3,6 -5,10 -6,13 -1,2 -2,4 -2,6 0,2 1,5 3,7 2,3 6,6 14,11 10,7 16,12 20,16 5,6 7,13 7,21 0,10 -4,19 -12,26 -7,8 -17,12 -29,12 -10,0 -18,-3 -25,-8 -7,-5 -13,-12 -16,-20l17 -8c4,7 8,12 12,15 3,3 7,4 12,4 5,0 10,-2 14,-6 4,-4 6,-8 6,-14 0,-4 -1,-7 -3,-10 -2,-2 -6,-6 -13,-10 -12,-9 -20,-15 -23,-20 -3,-4 -4,-8 -4,-13 0,-3 0,-6 1,-9 1,-3 4,-7 7,-14 4,-7 7,-12 8,-15 1,-3 2,-6 2,-9 0,-4 -2,-8 -6,-12 -4,-4 -10,-5 -17,-5 -8,0 -14,2 -19,7 -6,5 -8,16 -8,32l0 112 -20 0z"/>
  <path id="20" class="fil1" d="M8209 2190l21 3c-3,12 -9,22 -18,28 -9,7 -21,11 -34,11 -18,0 -32,-6 -42,-17 -10,-10 -15,-25 -15,-45 0,-20 5,-36 15,-47 11,-11 24,-16 40,-16 16,0 29,5 40,16 10,11 15,26 15,46 0,1 0,3 0,5l-90 0c1,13 5,24 12,30 6,7 15,11 25,11 7,0 13,-2 19,-6 5,-4 9,-10 12,-19zm-66 -32l66 0c-1,-10 -3,-18 -7,-23 -7,-8 -15,-12 -25,-12 -10,0 -18,3 -24,10 -6,6 -10,14 -10,25z"/>
  <path id="21" class="fil1" d="M8261 2229l0 -23 23 0 0 23c0,9 -1,15 -4,21 -3,5 -8,9 -15,12l-5 -9c4,-2 7,-5 9,-8 2,-4 3,-9 4,-16l-12 0z"/>
  <path id="22" class="fil1" d="M8455 2229l-21 0 0 -129c-5,4 -11,9 -19,14 -8,4 -15,8 -21,10l0 -19c11,-6 21,-12 29,-20 9,-7 15,-15 19,-22l13 0 0 166z"/>
  <path id="23" class="fil1" d="M8566 2229l-20 0 0 -129c-5,4 -12,9 -20,14 -8,4 -15,8 -21,10l0 -19c11,-6 21,-12 30,-20 8,-7 14,-15 18,-22l13 0 0 166z"/>
  <path id="24" class="fil1" d="M8683 2229l0 -39 -72 0 0 -19 76 -107 16 0 0 107 23 0 0 19 -23 0 0 39 -20 0zm0 -58l0 -74 -52 74 52 0z"/>
  <polygon class="fil1" points="5222,2581 5222,2536 5177,2536 5177,2517 5222,2517 5222,2472 5241,2472 5241,2517 5286,2517 5286,2536 5241,2536 5241,2581 "/>
  <path id="1" class="fil1" d="M5373 2608l0 -39 -71 0 0 -19 75 -107 17 0 0 107 22 0 0 19 -22 0 0 39 -21 0zm0 -58l0 -74 -51 74 51 0z"/>
  <path id="2" class="fil1" d="M5440 2570l19 -2c2,9 5,16 10,20 4,4 10,6 18,6 6,0 11,-1 16,-4 5,-3 9,-7 12,-12 3,-4 5,-11 7,-19 2,-8 3,-16 3,-25 0,-1 0,-2 0,-4 -4,7 -10,12 -17,16 -7,4 -14,6 -22,6 -14,0 -26,-5 -35,-15 -9,-10 -14,-23 -14,-39 0,-17 5,-30 15,-41 9,-10 22,-15 37,-15 10,0 20,3 29,9 9,6 16,14 20,25 5,10 7,26 7,46 0,21 -2,38 -7,50 -4,13 -11,22 -20,29 -9,7 -20,10 -32,10 -13,0 -23,-4 -31,-11 -9,-7 -14,-17 -15,-30zm83 -73c0,-12 -3,-21 -10,-28 -6,-7 -13,-10 -22,-10 -9,0 -17,4 -23,11 -7,7 -10,17 -10,29 0,10 3,19 9,25 6,7 14,10 24,10 9,0 17,-3 23,-10 6,-6 9,-16 9,-27z"/>
  <path id="3" class="fil1" d="M5705 2608l-20 0 0 -129c-5,4 -11,9 -19,14 -8,4 -15,8 -21,10l0 -19c11,-6 21,-12 29,-20 9,-7 15,-15 18,-22l13 0 0 166z"/>
  <path id="4" class="fil1" d="M5758 2565l21 -2c1,10 5,18 11,23 5,6 12,8 21,8 10,0 18,-4 25,-11 6,-7 10,-17 10,-29 0,-12 -4,-21 -10,-28 -6,-6 -15,-10 -26,-10 -6,0 -12,2 -17,5 -5,3 -10,7 -13,12l-19 -3 16 -85 82 0 0 19 -66 0 -8 45c10,-7 20,-11 31,-11 14,0 26,5 36,15 10,10 15,23 15,39 0,15 -4,28 -13,39 -11,13 -25,20 -43,20 -15,0 -28,-4 -37,-13 -10,-8 -15,-19 -16,-33z"/>
  <path id="5" class="fil1" d="M5887 2464l0 -19 107 0 0 16c-11,11 -21,26 -31,44 -11,19 -19,38 -24,58 -4,13 -7,29 -8,45l-21 0c0,-13 3,-29 8,-47 5,-19 12,-36 21,-53 9,-18 19,-32 29,-44l-81 0z"/>
  <path id="6" class="fil1" d="M6078 2564l21 -3c2,12 6,20 12,25 5,5 12,8 20,8 10,0 18,-3 24,-10 7,-7 10,-15 10,-25 0,-9 -3,-17 -9,-23 -6,-6 -14,-9 -23,-9 -4,0 -9,1 -15,3l3 -18c1,0 2,0 3,0 9,0 16,-2 23,-7 7,-4 11,-11 11,-21 0,-7 -3,-13 -8,-18 -5,-5 -11,-7 -19,-7 -8,0 -15,2 -20,7 -5,5 -9,13 -10,23l-20 -4c2,-14 8,-24 16,-32 9,-7 20,-11 33,-11 9,0 18,2 25,6 8,4 14,9 18,16 4,6 6,13 6,21 0,7 -2,14 -6,19 -4,6 -10,11 -17,14 10,3 17,7 23,14 5,7 8,16 8,27 0,14 -6,27 -16,37 -11,10 -24,15 -40,15 -15,0 -27,-5 -36,-13 -10,-9 -15,-20 -17,-34z"/>
  <path id="7" class="fil1" d="M6207 2565l21 -2c2,10 5,18 11,23 6,6 13,8 21,8 10,0 18,-4 25,-11 6,-7 10,-17 10,-29 0,-12 -3,-21 -10,-28 -6,-6 -15,-10 -25,-10 -7,0 -13,2 -18,5 -5,3 -9,7 -12,12l-20 -3 16 -85 82 0 0 19 -65 0 -9 45c10,-7 20,-11 31,-11 14,0 26,5 36,15 10,10 15,23 15,39 0,15 -4,28 -13,39 -10,13 -25,20 -43,20 -15,0 -27,-4 -37,-13 -9,-8 -15,-19 -16,-33z"/>
  <path id="8" class="fil1" d="M6335 2564l20 -3c3,12 7,20 12,25 6,5 13,8 21,8 9,0 18,-3 24,-10 7,-7 10,-15 10,-25 0,-9 -3,-17 -9,-23 -6,-6 -14,-9 -23,-9 -4,0 -9,1 -15,3l2 -18c2,0 3,0 4,0 8,0 16,-2 23,-7 7,-4 11,-11 11,-21 0,-7 -3,-13 -8,-18 -5,-5 -12,-7 -20,-7 -7,0 -14,2 -19,7 -6,5 -9,13 -10,23l-21 -4c3,-14 8,-24 17,-32 9,-7 20,-11 33,-11 9,0 17,2 25,6 7,4 13,9 17,16 4,6 6,13 6,21 0,7 -2,14 -5,19 -4,6 -10,11 -17,14 9,3 17,7 22,14 6,7 8,16 8,27 0,14 -5,27 -15,37 -11,10 -24,15 -40,15 -15,0 -27,-5 -36,-13 -10,-9 -15,-20 -17,-34z"/>
  <path id="9" class="fil1" d="M6529 2464l0 -19 107 0 0 16c-11,11 -21,26 -32,44 -10,19 -18,38 -24,58 -4,13 -6,29 -7,45l-21 0c0,-13 3,-29 8,-47 4,-19 11,-36 20,-53 10,-18 19,-32 30,-44l-81 0z"/>
  <path id="10" class="fil1" d="M6687 2518c-8,-3 -14,-7 -18,-13 -5,-5 -7,-12 -7,-20 0,-12 5,-22 13,-31 9,-8 20,-12 35,-12 14,0 26,4 35,13 8,8 13,18 13,30 0,8 -2,15 -6,20 -4,6 -10,10 -19,13 11,4 18,9 24,16 5,8 7,17 7,27 0,14 -5,26 -15,35 -10,10 -23,15 -39,15 -16,0 -29,-5 -39,-15 -10,-9 -15,-21 -15,-36 0,-11 2,-20 8,-27 5,-7 13,-12 23,-15zm-4 -34c0,8 3,14 8,19 5,5 11,8 19,8 8,0 15,-3 20,-8 5,-5 7,-11 7,-18 0,-7 -3,-14 -8,-19 -5,-5 -11,-7 -19,-7 -8,0 -14,2 -19,7 -5,5 -8,11 -8,18zm-6 76c0,6 1,12 4,17 2,6 6,10 12,13 5,3 11,4 17,4 10,0 18,-3 24,-9 7,-6 10,-14 10,-24 0,-10 -4,-18 -10,-24 -6,-7 -15,-10 -24,-10 -10,0 -18,3 -24,10 -6,6 -9,14 -9,23z"/>
  <path id="11" class="fil1" d="M6785 2464l0 -19 107 0 0 16c-10,11 -21,26 -31,44 -10,19 -18,38 -24,58 -4,13 -7,29 -8,45l-20 0c0,-13 2,-29 7,-47 5,-19 12,-36 21,-53 9,-18 19,-32 29,-44l-81 0z"/>
  <path id="12" class="fil1" d="M7082 2483l-20 2c-2,-8 -4,-14 -8,-18 -5,-5 -12,-8 -20,-8 -6,0 -12,2 -17,5 -7,5 -12,12 -15,20 -4,9 -6,22 -6,39 5,-8 11,-13 18,-17 7,-3 14,-5 22,-5 14,0 25,5 35,15 9,10 14,22 14,38 0,11 -2,20 -7,29 -4,9 -10,16 -18,21 -8,4 -17,7 -27,7 -17,0 -30,-6 -41,-19 -11,-12 -16,-33 -16,-61 0,-32 6,-55 18,-70 10,-13 24,-19 41,-19 13,0 24,4 32,11 9,7 14,17 15,30zm-83 71c0,7 2,14 5,21 3,6 7,11 12,14 5,3 11,5 17,5 9,0 16,-3 22,-10 6,-7 9,-17 9,-28 0,-12 -3,-21 -9,-27 -6,-7 -14,-10 -23,-10 -9,0 -17,3 -23,10 -7,6 -10,15 -10,25z"/>
  <path id="13" class="fil1" d="M7212 2589l0 19 -110 0c0,-5 1,-10 3,-14 2,-8 7,-15 13,-22 6,-7 15,-16 27,-25 17,-15 30,-26 36,-35 6,-9 10,-17 10,-24 0,-8 -3,-15 -9,-21 -6,-5 -13,-8 -23,-8 -10,0 -17,3 -23,9 -6,6 -9,14 -9,24l-21 -2c1,-16 7,-28 16,-36 10,-8 22,-12 38,-12 16,0 28,4 37,13 10,9 14,20 14,33 0,7 -1,13 -4,20 -2,6 -7,13 -13,20 -7,7 -17,17 -32,29 -12,10 -20,17 -23,21 -3,3 -6,7 -9,11l82 0z"/>
  <path class="fil1" d="M7664 2571c-7,6 -14,11 -21,14 -7,2 -15,4 -23,4 -13,0 -23,-4 -30,-10 -7,-6 -11,-15 -11,-25 0,-5 2,-11 4,-16 3,-4 7,-8 11,-11 4,-3 9,-5 14,-7 4,-1 10,-2 19,-3 16,-2 28,-4 36,-7 0,-3 0,-4 0,-5 0,-8 -2,-14 -6,-18 -5,-4 -13,-6 -23,-6 -10,0 -17,1 -21,5 -5,3 -8,9 -10,17l-20 -2c2,-9 5,-16 9,-21 4,-5 10,-9 18,-12 8,-3 17,-4 27,-4 10,0 19,1 25,3 6,3 11,6 14,9 3,4 5,9 6,14 1,4 1,10 1,19l0 27c0,19 1,31 2,36 0,5 2,9 5,14l-22 0c-2,-4 -3,-9 -4,-15zm-1 -45c-8,3 -19,6 -33,8 -9,1 -15,2 -18,4 -4,1 -6,3 -8,6 -2,3 -3,6 -3,10 0,5 2,10 6,13 4,4 10,6 18,6 8,0 15,-2 21,-5 6,-4 11,-9 13,-14 3,-5 4,-12 4,-21l0 -7z"/>
  <path id="1" class="fil1" d="M7792 2586l0 -15c-8,12 -19,18 -34,18 -9,0 -18,-3 -26,-8 -8,-6 -14,-13 -18,-22 -5,-10 -7,-21 -7,-33 0,-12 2,-22 6,-32 4,-10 10,-17 18,-23 8,-5 17,-7 27,-7 7,0 13,1 19,4 5,3 10,7 14,12l0 -59 20 0 0 165 -19 0zm-64 -60c0,16 3,27 9,35 7,7 15,11 23,11 9,0 17,-4 23,-11 6,-7 9,-18 9,-33 0,-16 -3,-28 -9,-36 -6,-8 -14,-11 -24,-11 -9,0 -16,3 -22,11 -6,7 -9,18 -9,34z"/>
  <path id="2" class="fil1" d="M7835 2550l20 -3c1,8 4,14 9,19 6,4 13,6 22,6 9,0 16,-2 21,-6 4,-4 7,-8 7,-13 0,-5 -2,-8 -7,-11 -2,-2 -9,-4 -20,-7 -15,-4 -25,-7 -31,-9 -6,-3 -10,-7 -13,-12 -3,-5 -5,-10 -5,-16 0,-5 2,-10 4,-15 2,-4 6,-8 10,-11 3,-2 7,-4 13,-6 5,-1 11,-2 17,-2 10,0 18,1 25,4 7,2 12,6 16,11 3,4 5,11 7,18l-20 3c-1,-6 -4,-11 -8,-14 -4,-4 -10,-6 -18,-6 -9,0 -16,2 -20,5 -4,3 -6,7 -6,11 0,2 1,5 2,7 2,2 5,4 8,5 2,1 8,3 18,5 14,4 24,7 30,10 6,2 10,6 13,10 4,5 5,11 5,18 0,7 -2,13 -6,19 -4,6 -9,10 -17,14 -7,3 -16,5 -25,5 -15,0 -27,-4 -36,-10 -8,-7 -13,-16 -15,-29z"/>
  <path id="3" class="fil1" d="M7958 2444l0 -23 21 0 0 23 -21 0zm0 142l0 -120 21 0 0 120 -21 0z"/>
  <polygon id="4" class="fil1" points="8009,2586 8009,2421 8029,2421 8029,2586 "/>
  <path id="5" class="fil1" d="M8061 2586l0 -120 18 0 0 17c4,-6 9,-10 15,-14 6,-4 13,-5 21,-5 9,0 16,2 22,5 6,4 10,9 12,16 10,-14 22,-21 37,-21 12,0 21,3 28,10 6,6 9,16 9,30l0 82 -20 0 0 -75c0,-8 -1,-14 -2,-18 -1,-3 -4,-6 -7,-8 -4,-3 -8,-4 -12,-4 -9,0 -16,3 -21,9 -6,5 -9,14 -9,27l0 69 -20 0 0 -78c0,-9 -2,-15 -5,-20 -3,-4 -9,-7 -16,-7 -6,0 -11,2 -16,5 -5,3 -8,7 -11,13 -2,6 -3,14 -3,25l0 62 -20 0z"/>
  <path id="6" class="fil1" d="M8331 2571c-7,6 -14,11 -21,14 -7,2 -15,4 -23,4 -13,0 -23,-4 -30,-10 -7,-6 -11,-15 -11,-25 0,-5 2,-11 4,-16 3,-4 6,-8 11,-11 4,-3 9,-5 14,-7 4,-1 10,-2 18,-3 17,-2 29,-4 37,-7 0,-3 0,-4 0,-5 0,-8 -2,-14 -6,-18 -5,-4 -13,-6 -23,-6 -10,0 -17,1 -21,5 -5,3 -8,9 -11,17l-19 -2c1,-9 4,-16 9,-21 4,-5 10,-9 18,-12 7,-3 16,-4 27,-4 10,0 18,1 25,3 6,3 11,6 14,9 3,4 5,9 6,14 1,4 1,10 1,19l0 27c0,19 1,31 2,36 0,5 2,9 4,14l-21 0c-2,-4 -3,-9 -4,-15zm-1 -45c-8,3 -19,6 -34,8 -8,1 -14,2 -17,4 -4,1 -6,3 -8,6 -2,3 -3,6 -3,10 0,5 2,10 6,13 4,4 10,6 18,6 8,0 15,-2 21,-5 6,-4 10,-9 13,-14 3,-5 4,-12 4,-21l0 -7z"/>
  <path id="7" class="fil1" d="M8381 2586l0 -120 18 0 0 19c5,-9 9,-15 13,-17 4,-3 9,-4 13,-4 7,0 14,2 21,6l-7 19c-5,-3 -10,-4 -15,-4 -4,0 -8,1 -12,4 -3,2 -6,6 -7,11 -2,7 -3,15 -3,23l0 63 -21 0z"/>
  <path id="8" class="fil1" d="M8574 2568c-5,5 -10,10 -16,13 -6,4 -12,5 -18,5 -7,0 -13,-2 -20,-6 -6,-4 -11,-10 -15,-18 -4,-8 -6,-17 -6,-26 0,-12 3,-24 9,-36 6,-12 14,-21 23,-27 9,-6 18,-9 26,-9 7,0 13,1 19,5 6,3 11,8 15,15l4 -17 20 0 -16 76c-2,10 -3,16 -3,17 0,2 1,4 2,5 2,2 4,3 6,3 4,0 9,-3 15,-7 9,-6 16,-14 21,-24 5,-11 7,-21 7,-32 0,-12 -3,-24 -9,-35 -7,-11 -16,-19 -29,-26 -13,-6 -27,-10 -42,-10 -18,0 -34,5 -49,13 -14,8 -26,20 -34,35 -8,15 -12,32 -12,49 0,19 4,35 12,48 8,13 20,23 35,29 15,7 32,10 50,10 20,0 37,-3 50,-10 13,-7 23,-15 30,-24l20 0c-4,8 -10,16 -20,24 -9,8 -20,15 -33,19 -13,5 -28,7 -46,7 -17,0 -32,-2 -46,-6 -14,-4 -26,-11 -36,-19 -10,-9 -18,-19 -23,-30 -6,-14 -9,-29 -9,-46 0,-18 4,-36 11,-52 9,-20 22,-36 39,-47 17,-11 37,-16 62,-16 18,0 35,4 50,11 15,8 26,19 35,34 7,13 11,28 11,43 0,22 -8,41 -23,58 -14,15 -29,22 -45,22 -5,0 -9,0 -12,-2 -4,-1 -6,-4 -7,-7 -1,-2 -2,-5 -3,-9zm-54 -31c0,10 2,18 7,24 5,6 10,9 17,9 4,0 8,-2 13,-4 5,-3 9,-6 13,-11 5,-5 8,-12 11,-19 3,-8 4,-16 4,-23 0,-10 -3,-18 -8,-24 -5,-6 -11,-8 -18,-8 -5,0 -10,1 -14,3 -4,3 -8,7 -12,12 -4,5 -7,12 -10,20 -2,7 -3,15 -3,21z"/>
  <path id="9" class="fil1" d="M8689 2596l19 3c1,6 4,10 7,13 5,4 12,6 21,6 9,0 17,-2 22,-6 5,-4 8,-9 10,-16 1,-4 2,-12 2,-26 -9,11 -20,16 -34,16 -16,0 -29,-6 -38,-18 -9,-12 -13,-26 -13,-42 0,-12 2,-22 6,-32 4,-10 10,-17 18,-22 8,-6 17,-8 28,-8 14,0 25,5 34,17l0 -15 19 0 0 104c0,18 -2,32 -6,39 -3,8 -9,14 -18,19 -8,4 -18,6 -30,6 -14,0 -26,-3 -34,-9 -9,-7 -13,-16 -13,-29zm16 -72c0,16 4,27 10,34 6,8 14,11 23,11 10,0 17,-3 24,-11 6,-7 9,-18 9,-33 0,-15 -3,-26 -10,-33 -6,-8 -14,-11 -23,-11 -9,0 -17,3 -23,11 -6,7 -10,18 -10,32z"/>
  <path id="10" class="fil1" d="M8821 2586l0 -120 18 0 0 17c4,-6 9,-10 15,-14 6,-4 13,-5 21,-5 9,0 16,2 22,5 6,4 10,9 12,16 10,-14 22,-21 37,-21 12,0 21,3 28,10 6,6 9,16 9,30l0 82 -20 0 0 -75c0,-8 -1,-14 -2,-18 -1,-3 -4,-6 -7,-8 -4,-3 -8,-4 -12,-4 -9,0 -16,3 -21,9 -6,5 -9,14 -9,27l0 69 -20 0 0 -78c0,-9 -2,-15 -5,-20 -3,-4 -9,-7 -16,-7 -6,0 -11,2 -16,5 -5,3 -8,7 -11,13 -2,6 -3,14 -3,25l0 62 -20 0z"/>
  <path id="11" class="fil1" d="M9091 2571c-7,6 -14,11 -21,14 -7,2 -15,4 -23,4 -13,0 -23,-4 -30,-10 -7,-6 -11,-15 -11,-25 0,-5 2,-11 4,-16 3,-4 6,-8 11,-11 4,-3 9,-5 14,-7 4,-1 10,-2 18,-3 17,-2 29,-4 37,-7 0,-3 0,-4 0,-5 0,-8 -2,-14 -6,-18 -5,-4 -13,-6 -23,-6 -10,0 -17,1 -21,5 -5,3 -8,9 -10,17l-20 -2c1,-9 4,-16 9,-21 4,-5 10,-9 18,-12 7,-3 17,-4 27,-4 10,0 18,1 25,3 6,3 11,6 14,9 3,4 5,9 6,14 1,4 1,10 1,19l0 27c0,19 1,31 2,36 0,5 2,9 5,14l-22 0c-2,-4 -3,-9 -4,-15zm-1 -45c-8,3 -19,6 -33,8 -9,1 -15,2 -18,4 -4,1 -6,3 -8,6 -2,3 -3,6 -3,10 0,5 2,10 6,13 4,4 10,6 18,6 8,0 15,-2 21,-5 6,-4 11,-9 13,-14 3,-5 4,-12 4,-21l0 -7z"/>
  <path id="12" class="fil1" d="M9141 2444l0 -23 21 0 0 23 -21 0zm0 142l0 -120 21 0 0 120 -21 0z"/>
  <polygon id="13" class="fil1" points="9192,2586 9192,2421 9213,2421 9213,2586 "/>
  <polygon id="14" class="fil1" points="9250,2586 9250,2563 9273,2563 9273,2586 "/>
  <path id="15" class="fil1" d="M9386 2542l20 3c-2,14 -7,24 -16,32 -9,8 -20,12 -33,12 -17,0 -30,-6 -40,-16 -10,-11 -15,-26 -15,-46 0,-13 2,-25 7,-34 4,-10 10,-17 19,-22 9,-5 18,-7 29,-7 13,0 23,3 32,10 8,6 13,15 15,28l-19 3c-2,-8 -5,-15 -10,-19 -5,-4 -11,-6 -18,-6 -10,0 -18,4 -24,11 -7,8 -10,19 -10,35 0,16 3,28 9,35 6,7 14,11 24,11 8,0 15,-2 20,-7 6,-5 9,-13 10,-23z"/>
  <path id="16" class="fil1" d="M9416 2526c0,-22 6,-38 18,-49 11,-9 23,-13 38,-13 17,0 30,5 40,16 11,11 16,25 16,44 0,16 -2,28 -7,37 -4,9 -11,15 -20,20 -9,5 -18,8 -29,8 -17,0 -30,-6 -41,-17 -10,-10 -15,-26 -15,-46zm21 0c0,15 3,27 10,35 6,7 15,11 25,11 10,0 19,-4 25,-12 7,-7 10,-19 10,-34 0,-15 -3,-26 -10,-34 -7,-8 -15,-11 -25,-11 -10,0 -19,3 -25,11 -7,7 -10,19 -10,34z"/>
  <path id="17" class="fil1" d="M9552 2586l0 -120 18 0 0 17c4,-6 9,-10 15,-14 6,-4 13,-5 21,-5 9,0 16,2 22,5 6,4 10,9 12,16 10,-14 22,-21 37,-21 12,0 21,3 28,10 6,6 9,16 9,30l0 82 -20 0 0 -75c0,-8 -1,-14 -2,-18 -1,-3 -4,-6 -7,-8 -4,-3 -8,-4 -12,-4 -9,0 -16,3 -21,9 -6,5 -9,14 -9,27l0 69 -20 0 0 -78c0,-9 -2,-15 -5,-20 -3,-4 -9,-7 -16,-7 -6,0 -11,2 -16,5 -5,3 -8,7 -11,13 -2,6 -3,14 -3,25l0 62 -20 0z"/>
  <line class="fil2 str1" x1="4756" y1="3408" x2="4910" y2= "2967" />
  <line class="fil2 str1" x1="4813" y1="3408" x2="4967" y2= "2967" />
  <line class="fil2 str1" x1="4880" y1="3408" x2="5034" y2= "2967" />
  <line class="fil2 str1" x1="4946" y1="3408" x2="5100" y2= "2967" />
  <line class="fil2 str1" x1="5013" y1="3408" x2="5167" y2= "2967" />
  <line class="fil2 str1" x1="5079" y1="3408" x2="5233" y2= "2967" />
  <line class="fil2 str1" x1="5146" y1="3408" x2="5300" y2= "2967" />
  <line class="fil2 str1" x1="5212" y1="3408" x2="5366" y2= "2967" />
  <line class="fil2 str1" x1="5279" y1="3408" x2="5433" y2= "2967" />
  <line class="fil2 str1" x1="5345" y1="3408" x2="5499" y2= "2967" />
  <line class="fil2 str1" x1="5412" y1="3408" x2="5566" y2= "2967" />
  <line class="fil2 str1" x1="5478" y1="3408" x2="5632" y2= "2967" />
  <line class="fil2 str1" x1="5545" y1="3408" x2="5699" y2= "2967" />
  <line class="fil2 str1" x1="5611" y1="3408" x2="5765" y2= "2967" />
  <line class="fil2 str1" x1="5678" y1="3408" x2="5832" y2= "2967" />
  <line class="fil2 str1" x1="5744" y1="3408" x2="5898" y2= "2967" />
  <line class="fil2 str1" x1="5811" y1="3408" x2="5965" y2= "2967" />
  <line class="fil2 str1" x1="5878" y1="3408" x2="6031" y2= "2967" />
  <line class="fil2 str1" x1="5944" y1="3408" x2="6098" y2= "2967" />
  <line class="fil2 str1" x1="6011" y1="3408" x2="6164" y2= "2967" />
  <line class="fil2 str1" x1="6077" y1="3408" x2="6231" y2= "2967" />
  <line class="fil2 str1" x1="6144" y1="3408" x2="6297" y2= "2967" />
  <line class="fil2 str1" x1="6210" y1="3408" x2="6364" y2= "2967" />
  <line class="fil2 str1" x1="6277" y1="3408" x2="6430" y2= "2967" />
  <line class="fil2 str1" x1="6343" y1="3408" x2="6497" y2= "2967" />
  <line class="fil2 str1" x1="6410" y1="3408" x2="6563" y2= "2967" />
  <line class="fil2 str1" x1="6476" y1="3408" x2="6630" y2= "2967" />
  <line class="fil2 str1" x1="6543" y1="3408" x2="6697" y2= "2967" />
  <line class="fil2 str1" x1="6609" y1="3408" x2="6763" y2= "2967" />
  <line class="fil2 str1" x1="6676" y1="3408" x2="6830" y2= "2967" />
  <line class="fil2 str1" x1="6742" y1="3408" x2="6896" y2= "2967" />
  <line class="fil2 str1" x1="6809" y1="3408" x2="6963" y2= "2967" />
  <line class="fil2 str1" x1="6875" y1="3408" x2="7029" y2= "2967" />
  <line class="fil2 str1" x1="6942" y1="3408" x2="7096" y2= "2967" />
  <line class="fil2 str1" x1="7008" y1="3408" x2="7162" y2= "2967" />
  <line class="fil2 str1" x1="7075" y1="3408" x2="7229" y2= "2967" />
  <line class="fil2 str1" x1="7141" y1="3408" x2="7295" y2= "2967" />
  <line class="fil2 str1" x1="7208" y1="3408" x2="7362" y2= "2967" />
  <line class="fil2 str1" x1="7274" y1="3408" x2="7428" y2= "2967" />
  <line class="fil2 str1" x1="7341" y1="3408" x2="7495" y2= "2967" />
  <line class="fil2 str1" x1="7407" y1="3408" x2="7561" y2= "2967" />
  <line class="fil2 str1" x1="7474" y1="3408" x2="7628" y2= "2967" />
  <line class="fil2 str1" x1="7540" y1="3408" x2="7694" y2= "2967" />
  <line class="fil2 str1" x1="7607" y1="3408" x2="7761" y2= "2967" />
  <line class="fil2 str1" x1="7674" y1="3408" x2="7827" y2= "2967" />
  <line class="fil2 str1" x1="7741" y1="3408" x2="7895" y2= "2967" />
  <line class="fil2 str1" x1="7808" y1="3408" x2="7962" y2= "2967" />
  <line class="fil2 str1" x1="7874" y1="3408" x2="8028" y2= "2967" />
  <line class="fil2 str1" x1="7941" y1="3408" x2="8095" y2= "2967" />
  <line class="fil2 str1" x1="8007" y1="3408" x2="8161" y2= "2967" />
  <line class="fil2 str1" x1="8074" y1="3408" x2="8228" y2= "2967" />
  <line class="fil2 str1" x1="8140" y1="3408" x2="8294" y2= "2967" />
  <line class="fil2 str1" x1="8207" y1="3408" x2="8361" y2= "2967" />
  <line class="fil2 str1" x1="8274" y1="3408" x2="8427" y2= "2967" />
  <line class="fil2 str1" x1="8340" y1="3408" x2="8494" y2= "2967" />
  <line class="fil2 str1" x1="8407" y1="3408" x2="8560" y2= "2967" />
  <line class="fil2 str1" x1="8473" y1="3408" x2="8627" y2= "2967" />
  <line class="fil2 str1" x1="8540" y1="3408" x2="8693" y2= "2967" />
  <line class="fil2 str1" x1="8606" y1="3408" x2="8760" y2= "2967" />
  <line class="fil2 str1" x1="8673" y1="3408" x2="8826" y2= "2967" />
  <line class="fil2 str1" x1="8739" y1="3408" x2="8893" y2= "2967" />
  <line class="fil2 str1" x1="8806" y1="3408" x2="8959" y2= "2967" />
  <line class="fil2 str1" x1="8872" y1="3408" x2="9026" y2= "2967" />
  <line class="fil2 str1" x1="8939" y1="3408" x2="9093" y2= "2967" />
  <line class="fil2 str1" x1="9005" y1="3408" x2="9159" y2= "2967" />
  <line class="fil2 str1" x1="9072" y1="3408" x2="9226" y2= "2967" />
  <line class="fil2 str1" x1="9138" y1="3408" x2="9292" y2= "2967" />
  <line class="fil2 str1" x1="9205" y1="3408" x2="9359" y2= "2967" />
  <line class="fil2 str1" x1="9271" y1="3408" x2="9425" y2= "2967" />
  <line class="fil2 str1" x1="9338" y1="3408" x2="9492" y2= "2967" />
  <line class="fil2 str1" x1="9404" y1="3408" x2="9558" y2= "2967" />
  <line class="fil2 str1" x1="9471" y1="3408" x2="9625" y2= "2967" />
  <line class="fil2 str1" x1="9537" y1="3408" x2="9691" y2= "2967" />
  <line class="fil2 str1" x1="9604" y1="3408" x2="9758" y2= "2967" />
  <line class="fil2 str1" x1="9670" y1="3408" x2="9824" y2= "2967" />
  <line class="fil2 str1" x1="9737" y1="3408" x2="9891" y2= "2967" />
  <line class="fil2 str1" x1="9803" y1="3408" x2="9957" y2= "2967" />
  <line class="fil2 str1" x1="9868" y1="3408" x2="9955" y2= "3159" />
  <line class="fil2 str1" x1="9923" y1="3408" x2="9958" y2= "3308" />
  <line class="fil2 str1" x1="4845" y1="2970" x2="4758" y2= "3220" />
  <line class="fil2 str1" x1="4789" y1="2970" x2="4754" y2= "3070" />
 </g>
</svg>
