<?xml version="1.0" encoding="UTF-8" standalone="no"?>
<!-- Creator: CorelDRAW X7 -->

<svg
   xmlns:dc="http://purl.org/dc/elements/1.1/"
   xmlns:cc="http://creativecommons.org/ns#"
   xmlns:rdf="http://www.w3.org/1999/02/22-rdf-syntax-ns#"
   xmlns:svg="http://www.w3.org/2000/svg"
   xmlns="http://www.w3.org/2000/svg"
   xmlns:sodipodi="http://sodipodi.sourceforge.net/DTD/sodipodi-0.dtd"
   xmlns:inkscape="http://www.inkscape.org/namespaces/inkscape"
   xml:space="preserve"
   width="55mm"
   height="35mm"
   version="1.0"
   style="shape-rendering:geometricPrecision; text-rendering:geometricPrecision; image-rendering:optimizeQuality; fill-rule:evenodd; clip-rule:evenodd"
   viewBox="0 0 5500 3500"
   inkscape:version="0.91 r13725"
   sodipodi:docname="logo_grafidel.svg"
   id="svg4136"><metadata
     id="metadata4153"><rdf:RDF><cc:Work
         rdf:about=""><dc:format>image/svg+xml</dc:format><dc:type
           rdf:resource="http://purl.org/dc/dcmitype/StillImage" /></cc:Work></rdf:RDF></metadata><sodipodi:namedview
     pagecolor="#ffffff"
     bordercolor="#666666"
     borderopacity="1"
     objecttolerance="10"
     gridtolerance="10"
     guidetolerance="10"
     inkscape:pageopacity="0"
     inkscape:pageshadow="2"
     inkscape:window-width="1920"
     inkscape:window-height="1017"
     id="namedview4151"
     showgrid="false"
     inkscape:zoom="6.8378413"
     inkscape:cx="113.04174"
     inkscape:cy="62.007874"
     inkscape:window-x="-8"
     inkscape:window-y="-8"
     inkscape:window-maximized="1"
     inkscape:current-layer="svg4136" /><defs
     id="defs4138"><style
       type="text/css"
       id="style4140"><![CDATA[
    .fil3 {fill:#FEFEFE}
    .fil0 {fill:#EF7F1A;fill-rule:nonzero}
    .fil2 {fill:#2B2A29;fill-rule:nonzero}
    .fil1 {fill:white;fill-rule:nonzero}
   ]]></style><sodipodi:namedview
       inkscape:current-layer="svg3336"
       inkscape:window-maximized="1"
       inkscape:window-y="-8"
       inkscape:window-x="-8"
       inkscape:cy="62.007874"
       inkscape:cx="95.669291"
       inkscape:zoom="6.8378413"
       showgrid="false"
       id="namedview3357"
       inkscape:window-height="1017"
       inkscape:window-width="1920"
       inkscape:pageshadow="2"
       inkscape:pageopacity="0"
       guidetolerance="10"
       gridtolerance="10"
       objecttolerance="10"
       borderopacity="1"
       bordercolor="#666666"
       pagecolor="#ffffff" /></defs><path
     style="fill:#d45500;fill-rule:nonzero"
     inkscape:connector-curvature="0"
     d="m 631,2337 0,-339 307,0 0,695 c -58,101 -110,171 -156,207 -45,37 -98,55 -160,55 -77,0 -139,-33 -187,-99 -48,-65 -86,-164 -112,-294 -27,-131 -40,-280 -40,-449 0,-178 15,-333 43,-464 30,-132 72,-232 128,-300 43,-53 102,-79 176,-79 71,0 124,17 160,49 35,33 64,83 87,152 24,68 41,155 53,261 l -192,86 c -8,-61 -21,-108 -40,-141 -19,-33 -43,-49 -72,-49 -44,0 -79,38 -105,115 -26,77 -39,198 -39,364 0,177 14,303 40,378 26,76 62,114 109,114 22,0 44,-9 64,-25 20,-16 43,-44 69,-83 l 0,-154 -133,0 z m 428,591 0,-1630 332,0 c 61,0 108,13 141,40 32,27 58,76 78,149 20,72 30,160 30,263 0,91 -8,169 -23,234 -15,66 -36,119 -63,160 -17,26 -40,47 -69,64 23,20 41,40 51,61 8,13 18,41 32,85 14,44 23,77 28,101 l 96,473 -224,0 -107,-499 c -13,-64 -25,-106 -36,-125 -14,-25 -30,-38 -49,-38 l -17,0 0,662 -200,0 z m 200,-970 84,0 c 9,0 26,-7 52,-22 14,-7 24,-24 33,-51 8,-27 12,-59 12,-95 0,-52 -6,-93 -20,-121 -13,-28 -37,-42 -74,-42 l -87,0 0,331 z m 893,701 -227,0 -31,269 -203,0 242,-1630 217,0 242,1630 -209,0 -31,-269 z m -42,-353 -71,-586 -71,586 142,0 z m 953,-1008 199,0 0,1630 -199,0 0,-1630 z m 344,0 296,0 c 58,0 105,20 141,60 36,40 65,97 89,172 23,75 40,162 51,262 10,99 16,204 16,315 0,174 -8,310 -24,405 -16,97 -37,177 -65,241 -28,65 -58,109 -90,130 -43,30 -83,45 -118,45 l -296,0 0,-1630 z m 199,369 0,890 49,0 c 42,0 71,-11 89,-35 17,-23 31,-64 41,-122 10,-58 15,-152 15,-283 0,-173 -11,-291 -33,-354 -23,-64 -60,-96 -111,-96 l -50,0 z m 498,-369 532,0 0,348 -333,0 0,259 309,0 0,332 -309,0 0,321 343,0 0,370 -542,0 0,-1630 z m 649,0 199,0 0,1228 311,0 0,402 -510,0 0,-1630 z"
     class="fil0"
     id="path3344" /><path
     style="fill:#ffffff;fill-rule:nonzero"
     inkscape:connector-curvature="0"
     d="m 585,2272 0,-339 307,0 0,695 c -59,101 -111,171 -156,207 -45,37 -99,55 -161,55 -77,0 -139,-33 -187,-99 -48,-66 -85,-164 -112,-295 -26,-130 -40,-280 -40,-448 0,-178 15,-333 44,-465 29,-131 71,-231 127,-299 44,-53 103,-79 176,-79 71,0 124,16 160,49 35,32 64,83 88,152 23,68 40,155 52,260 l -192,87 c -8,-62 -21,-109 -40,-141 -19,-33 -43,-49 -72,-49 -44,0 -78,38 -104,115 -26,77 -39,198 -39,364 0,176 13,302 39,378 26,75 63,113 110,113 22,0 43,-8 63,-24 20,-17 44,-44 70,-83 l 0,-154 -133,0 z m 428,590 0,-1629 331,0 c 61,0 108,13 141,40 32,26 59,76 79,148 19,72 29,160 29,264 0,91 -7,168 -22,234 -16,66 -37,119 -63,160 -17,26 -41,47 -70,64 24,20 41,40 52,60 7,13 18,42 32,86 13,44 23,77 27,101 l 97,472 -225,0 -106,-498 c -14,-64 -26,-106 -36,-126 -15,-25 -31,-37 -49,-37 l -18,0 0,661 -199,0 z m 199,-969 84,0 c 9,0 27,-7 53,-22 13,-7 24,-24 32,-51 8,-28 13,-59 13,-95 0,-53 -7,-93 -20,-121 -13,-28 -38,-42 -74,-42 l -88,0 0,331 z m 893,700 -226,0 -32,269 -203,0 242,-1629 217,0 242,1629 -208,0 -32,-269 z m -41,-352 -72,-586 -70,586 142,0 z m 952,-1008 199,0 0,1629 -199,0 0,-1629 z m 345,0 295,0 c 58,0 105,20 141,60 36,40 66,97 89,172 24,75 40,162 51,261 11,100 16,205 16,316 0,174 -8,309 -24,405 -15,96 -37,177 -65,241 -28,65 -57,108 -89,130 -44,29 -83,44 -119,44 l -295,0 0,-1629 z m 199,369 0,890 48,0 c 42,0 71,-11 89,-35 17,-23 31,-64 41,-122 10,-58 15,-153 15,-283 0,-173 -11,-291 -33,-355 -22,-63 -59,-95 -111,-95 l -49,0 z m 497,-369 533,0 0,348 -334,0 0,259 310,0 0,332 -310,0 0,321 344,0 0,369 -543,0 0,-1629 z m 650,0 199,0 0,1228 310,0 0,401 -509,0 0,-1629 z"
     class="fil1"
     id="path3346" /><path
     style="fill:#d45500;fill-rule:nonzero;stroke:#d45500"
     inkscape:connector-curvature="0"
     d="m 575,2272 0,-339 0,-9 10,0 307,0 9,0 0,9 0,695 0,2 -1,2 c -30,51 -58,94 -84,129 -26,35 -51,63 -74,81 -24,19 -50,34 -77,43 -28,10 -58,14 -90,14 -80,0 -144,-34 -194,-103 l 0,0 c -25,-33 -47,-75 -66,-125 -19,-49 -35,-107 -48,-173 -13,-65 -23,-136 -30,-211 -7,-75 -10,-155 -10,-239 0,-89 4,-173 11,-251 7,-78 18,-150 33,-216 l 0,0 c 14,-66 32,-124 54,-175 21,-51 46,-93 75,-128 l 0,0 c 23,-28 49,-48 80,-62 31,-14 65,-20 103,-20 74,0 129,17 166,51 l 0,0 c 18,17 35,38 50,65 15,25 29,56 40,91 12,34 22,73 31,117 9,44 16,92 22,145 l 1,7 -6,3 -192,86 -11,5 -2,-12 c -4,-30 -9,-57 -16,-80 -6,-23 -14,-42 -23,-58 l 0,0 c -9,-15 -19,-26 -29,-33 -11,-7 -22,-11 -35,-11 -19,0 -36,9 -52,26 l 0,0 c -16,18 -31,46 -44,83 l 0,0 c -12,37 -22,86 -28,146 -7,61 -10,132 -10,215 0,88 3,163 10,226 6,62 16,112 29,149 12,36 27,64 45,81 16,17 35,26 56,26 10,0 19,-2 29,-6 9,-3 19,-9 28,-17 l 0,0 c 10,-7 20,-18 32,-32 l 0,1 c 10,-13 22,-29 34,-47 l 0,-142 -123,0 -10,0 0,-9 z m 19,-330 0,321 124,0 9,0 0,9 0,154 0,2 -2,3 c -13,19 -25,36 -37,50 l 0,0 c -12,15 -23,26 -34,35 -11,9 -22,15 -34,20 -11,4 -23,7 -35,7 -26,0 -50,-11 -70,-32 -19,-19 -35,-49 -49,-88 -13,-39 -23,-90 -30,-153 -6,-64 -10,-140 -10,-228 0,-83 4,-156 10,-217 7,-61 17,-111 30,-150 l 0,0 c 13,-40 29,-70 47,-90 l 0,0 c 19,-21 41,-32 66,-32 16,0 31,5 45,14 13,9 25,23 35,40 l 0,0 c 10,17 18,38 25,62 6,21 11,44 15,70 l 174,-78 c -6,-50 -13,-96 -21,-137 -9,-43 -19,-82 -30,-115 -12,-34 -25,-63 -39,-88 -14,-25 -30,-45 -46,-60 -34,-31 -85,-47 -154,-47 -35,0 -67,6 -95,19 -28,13 -53,31 -74,57 -27,33 -51,74 -72,124 -21,49 -39,106 -53,171 l 0,0 c -14,66 -25,137 -32,214 -8,77 -11,160 -11,249 0,84 3,163 10,238 6,74 16,144 29,209 13,64 29,121 48,170 18,48 39,88 63,120 l 0,0 c 46,64 106,96 179,96 30,0 58,-5 84,-14 25,-8 49,-22 71,-39 l 0,0 c 22,-18 46,-44 71,-78 26,-34 53,-75 81,-125 l 0,-683 -288,0 z m 409,920 0,-1629 0,-10 10,0 331,0 c 32,0 60,4 84,11 25,7 45,17 63,32 17,14 32,34 46,59 l 0,0 c 14,26 25,57 35,94 l 0,0 c 11,36 18,77 23,121 5,44 8,93 8,145 0,45 -2,88 -6,127 -4,40 -10,76 -17,109 l 0,0 c -8,33 -17,63 -28,91 -11,27 -23,51 -36,72 l 0,0 c -9,14 -20,26 -32,37 -9,9 -19,16 -30,23 8,8 15,15 22,23 9,11 16,21 22,32 l 0,0 c 4,7 8,18 14,32 5,15 11,33 18,55 l 0,0 c 7,22 13,41 18,58 5,17 8,32 11,44 l 0,0 84,417 234,-1574 1,-8 8,0 217,0 8,0 1,8 242,1630 2,11 -11,0 -208,0 -8,0 -1,-9 -31,-260 -210,0 -30,260 -1,9 -9,0 -190,0 -11,0 -2,0 -11,0 -212,0 -8,0 -1,-8 -106,-498 0,0 c -7,-32 -14,-58 -19,-79 -6,-20 -12,-35 -17,-44 l 0,0 c -6,-11 -13,-20 -20,-25 -6,-5 -13,-8 -20,-8 l -8,0 0,652 0,10 -10,0 -199,0 -10,0 0,-10 z m 19,-1620 0,1611 181,0 0,-652 0,-9 9,0 18,0 c 11,0 22,3 31,11 9,7 18,17 26,31 l 0,0 c 5,10 11,26 17,48 7,21 13,48 20,80 l 0,0 104,491 206,0 -94,-461 0,0 c -2,-12 -5,-26 -10,-43 -5,-16 -10,-35 -17,-58 l 0,0 c -7,-21 -13,-39 -19,-53 -5,-14 -9,-24 -12,-30 l 0,0 c -6,-10 -12,-19 -20,-29 -9,-10 -19,-19 -30,-29 l -10,-9 11,-6 c 14,-8 27,-17 38,-27 11,-11 21,-22 29,-34 l 0,0 c 13,-20 24,-43 35,-69 10,-26 19,-56 26,-88 l 0,0 c 8,-33 14,-68 17,-107 4,-38 6,-80 6,-125 0,-52 -2,-99 -7,-143 -5,-43 -13,-83 -22,-118 l 0,0 c -10,-36 -22,-66 -34,-90 l 0,0 c -13,-23 -27,-42 -42,-54 l 0,0 c -15,-13 -34,-22 -56,-28 -23,-7 -49,-10 -79,-10 l -322,0 z m 200,641 74,0 c 3,0 9,-1 17,-4 l 0,0 c 8,-4 19,-9 31,-16 l 1,0 c 5,-3 9,-8 14,-15 5,-8 9,-18 13,-31 l 0,0 c 4,-13 7,-28 9,-43 2,-15 3,-31 3,-49 0,-26 -1,-49 -5,-68 -3,-19 -7,-36 -14,-49 l 0,0 c -5,-12 -14,-22 -24,-28 -11,-6 -25,-9 -41,-9 l -78,0 0,312 z m 74,19 -84,0 -9,0 0,-9 0,-331 0,-10 9,0 88,0 c 19,0 36,4 50,12 14,8 25,20 32,36 l 0,0 c 7,15 12,33 16,54 3,21 5,44 5,71 0,18 -1,35 -3,52 -2,16 -6,31 -10,45 l 0,0 c -4,15 -10,27 -15,36 -7,10 -14,17 -22,21 -13,8 -24,13 -33,17 l 0,0 c -10,4 -18,6 -24,6 z m 583,682 226,0 8,0 1,8 31,261 189,0 -239,-1611 -201,0 -239,1611 184,0 30,-261 1,-8 9,0 z m 174,-353 -61,-499 -60,499 121,0 z m -51,-577 71,586 1,10 -10,0 -142,0 -11,0 1,-10 71,-586 9,-77 10,77 z m 1014,-431 199,0 10,0 0,10 0,1629 0,10 -10,0 -199,0 -9,0 0,-10 0,-1629 0,-10 9,0 z m 190,19 -181,0 0,1611 181,0 0,-1611 z m 155,-19 295,0 c 30,0 58,6 83,16 24,11 46,26 65,47 l 0,0 c 19,21 36,46 51,76 15,29 28,62 40,100 12,38 22,79 31,123 8,43 15,90 20,140 l 0,0 c 6,50 10,101 12,154 3,53 4,108 4,163 0,87 -2,164 -6,232 -4,68 -10,126 -18,175 l 0,0 c -7,48 -17,93 -28,133 -11,41 -23,77 -37,110 l 0,0 c -14,33 -29,60 -44,82 -16,23 -32,40 -49,52 -23,15 -44,26 -64,34 -21,8 -41,12 -60,12 l -295,0 -10,0 0,-10 0,-1629 0,-10 10,0 z m 295,19 -286,0 0,1611 286,0 c 17,0 34,-4 53,-11 19,-7 39,-17 60,-32 15,-10 30,-25 44,-46 15,-21 29,-48 43,-80 l 0,0 c 13,-31 26,-67 36,-107 11,-40 20,-84 28,-131 l 0,0 c 8,-48 14,-105 18,-173 4,-67 6,-144 6,-231 0,-56 -2,-110 -4,-162 -3,-52 -7,-103 -12,-153 -5,-49 -12,-96 -21,-139 -8,-43 -18,-83 -30,-120 -11,-37 -24,-70 -39,-98 -14,-28 -30,-52 -48,-71 -17,-19 -36,-33 -59,-43 -22,-9 -47,-14 -75,-14 z m -87,369 0,872 39,0 c 20,0 37,-3 50,-8 13,-5 24,-13 31,-23 l 0,-1 c 9,-10 16,-25 23,-45 6,-20 12,-44 17,-73 l 0,0 c 5,-28 9,-66 11,-113 3,-47 4,-103 4,-168 0,-86 -3,-159 -8,-217 -6,-59 -14,-103 -25,-135 -11,-30 -24,-52 -42,-67 -16,-15 -36,-22 -60,-22 l -40,0 z m -19,881 0,-890 0,-10 10,0 49,0 c 28,0 52,9 73,27 19,17 35,42 47,75 11,33 19,79 25,139 6,60 8,132 8,219 0,65 -1,121 -3,169 -3,48 -7,86 -12,115 l 0,0 c -5,30 -11,55 -18,76 -7,21 -15,38 -25,51 l 0,0 c -9,13 -23,23 -39,29 -16,6 -35,9 -57,9 l -48,0 -10,0 0,-9 z m 507,-1269 533,0 9,0 0,10 0,348 0,9 -9,0 -324,0 0,240 300,0 9,0 0,10 0,332 0,9 -9,0 -300,0 0,303 334,0 9,0 0,9 0,369 0,10 -9,0 -543,0 -9,0 0,-10 0,-1629 0,-10 9,0 z m 523,19 -514,0 0,1611 524,0 0,-351 -334,0 -9,0 0,-9 0,-321 0,-9 9,0 300,0 0,-314 -300,0 -9,0 0,-9 0,-259 0,-10 9,0 324,0 0,-329 z m 127,-19 199,0 9,0 0,10 0,1219 301,0 9,0 0,9 0,401 0,10 -9,0 -509,0 -10,0 0,-10 0,-1629 0,-10 10,0 z m 189,19 -180,0 0,1611 491,0 0,-383 -301,0 -10,0 0,-9 0,-1219 z"
     class="fil0"
     id="path3348" /><path
     style="fill:#d45500;fill-rule:nonzero"
     inkscape:connector-curvature="0"
     d="m 2440,3401 -45,-21 13,-374 -23,0 -34,81 -56,-9 c -3,0 -6,-2 -9,-6 -3,-4 -5,-9 -6,-15 0,-15 5,-78 15,-191 55,-614 95,-1239 119,-1873 l -71,-172 22,-202 242,-134 c 16,-64 49,-127 99,-189 50,-62 86,-94 109,-94 22,0 39,4 49,12 11,7 19,23 24,47 l 12,76 c 52,-21 102,-37 151,-46 49,-10 96,-15 143,-15 128,0 222,28 281,85 59,56 89,147 89,271 0,115 -16,238 -47,368 -31,131 -76,261 -135,391 l -36,-21 c 4,-46 7,-85 8,-117 2,-32 2,-61 2,-89 0,-47 0,-85 -2,-113 -1,-29 -4,-57 -8,-83 -11,-2 -24,-3 -37,-4 -12,-1 -30,-1 -52,-1 -51,0 -107,10 -167,30 -60,19 -119,48 -178,86 l -9,54 c -46,282 -82,494 -109,635 44,-8 88,-15 134,-21 45,-5 92,-8 141,-8 136,0 232,13 291,38 59,25 89,66 89,121 0,28 -6,69 -16,123 -10,53 -17,94 -20,122 -120,21 -242,60 -367,117 -123,56 -249,131 -376,223 -33,154 -77,330 -132,531 -55,201 -88,329 -98,387 z"
     class="fil0"
     id="path3351" /><path
     style="fill:#2b2a29;fill-rule:nonzero"
     inkscape:connector-curvature="0"
     d="m 3129,533 c 105,0 190,60 190,135 0,75 -85,136 -190,136 -104,0 -189,-61 -189,-136 0,-75 85,-135 189,-135 z"
     class="fil2"
     id="path3353" /><path
     style="fill:#fefefe"
     inkscape:connector-curvature="0"
     d="m 3129,533 c 105,0 190,60 190,135 0,75 -85,136 -190,136 -104,0 -189,-61 -189,-136 0,-75 85,-135 189,-135 z"
     class="fil3"
     id="path3355" /></svg>