<?xml version="1.0" encoding="UTF-8"?>
<!DOCTYPE svg PUBLIC "-//W3C//DTD SVG 1.1//EN" "http://www.w3.org/Graphics/SVG/1.1/DTD/svg11.dtd">
<!-- Creator: CorelDRAW X7 -->
<svg xmlns="http://www.w3.org/2000/svg" xml:space="preserve" width="133mm" height="24mm" version="1.1" style="shape-rendering:geometricPrecision; text-rendering:geometricPrecision; image-rendering:optimizeQuality; fill-rule:evenodd; clip-rule:evenodd"
viewBox="0 0 13300 2400"
 xmlns:xlink="http://www.w3.org/1999/xlink">
 <defs>
  <style type="text/css">
   <![CDATA[
    .fil1 {fill:#2B2A29;fill-rule:nonzero}
    .fil0 {fill:black;fill-rule:nonzero}
   ]]>
  </style>
 </defs>
 <g id="Capa_x0020_1">
  <metadata id="CorelCorpID_0Corel-Layer"/>
  <path class="fil0" d="M464 710l249 0c31,0 57,9 78,25 21,17 39,42 54,76 15,34 26,74 34,120 9,46 13,96 13,147 0,105 -16,192 -47,263 -31,71 -74,106 -128,106l-80 0 0 228c0,29 0,47 2,54 2,11 5,20 9,25 4,5 11,8 21,8l24 0 0 169 -229 0 0 -169 16 0c13,0 23,-3 27,-8 5,-5 8,-14 10,-25 2,-11 3,-35 3,-70l0 -671c0,-38 -1,-63 -3,-74 -2,-12 -4,-21 -8,-27 -4,-5 -12,-8 -23,-8l-22 0 0 -169zm173 200l0 346 40 0c24,0 42,-7 54,-20 11,-13 21,-33 28,-60 6,-27 10,-59 10,-97 0,-56 -8,-100 -25,-133 -12,-24 -31,-36 -55,-36l-52 0zm453 -200l105 0 142 942c8,51 14,82 20,93 6,12 17,18 33,17l0 169 -223 0 0 -169 14 -1c12,0 21,-4 26,-13 5,-8 7,-19 7,-31 0,-10 -2,-32 -6,-65l-14 -111 -144 0 -17 124c-4,26 -6,43 -6,51 0,10 2,18 4,26 3,7 7,13 13,16 4,3 14,4 32,4l0 169 -183 0 0 -169c12,0 21,-3 26,-8 5,-5 10,-13 13,-24 4,-10 8,-30 12,-58l146 -962zm-15 657l94 0 -46 -336 -48 336zm341 -657l290 0c19,0 40,5 62,13 22,9 42,28 60,58 18,30 32,67 41,113 10,46 15,97 15,154 0,92 -12,168 -38,225 -26,58 -56,95 -91,113l97 292 4 13c7,20 12,35 18,44 5,10 10,16 15,21 5,4 13,6 22,6l20 0 0 169 -151 0 -151 -526 -39 0 0 243c0,42 0,69 2,80 2,12 5,20 9,26 4,5 12,8 24,8l21 0 0 169 -230 0 0 -169 21 0c11,0 19,-3 23,-9 5,-7 8,-16 11,-28 1,-7 1,-29 1,-65l0 -687c0,-27 -1,-46 -2,-58 -2,-11 -5,-19 -9,-22 -5,-6 -11,-10 -18,-10l-10 1 -17 0 0 -174zm174 201l0 315 69 0c28,0 48,-6 62,-19 14,-13 24,-32 31,-57 7,-24 10,-54 10,-89 0,-32 -3,-60 -10,-83 -6,-23 -15,-40 -27,-51 -12,-11 -31,-16 -58,-16l-77 0zm400 -242l44 0 5 41 266 0 5 -41 45 0 59 428 -63 57c-14,-71 -24,-118 -30,-139 -12,-43 -26,-76 -41,-101 -12,-19 -24,-28 -35,-28 -6,0 -9,3 -11,10 -2,7 -3,22 -3,46l0 702c0,41 0,67 1,78 1,10 3,18 6,24 3,7 7,11 11,13 5,2 18,3 38,3l0 169 -230 0 0 -169 14 0c16,0 25,-3 30,-8 4,-5 7,-13 9,-26 3,-12 4,-39 4,-78l0 -718c0,-20 -1,-33 -3,-38 -2,-5 -5,-8 -11,-8 -12,0 -25,11 -40,34 -14,23 -27,55 -38,96 -5,17 -14,62 -29,138l-62 -57 59 -428zm451 41l393 0 54 386 -61 57c-11,-63 -23,-114 -36,-152 -14,-39 -30,-64 -46,-77 -17,-13 -37,-19 -59,-19l-72 0 0 305 24 0c18,0 29,-4 36,-10 6,-7 10,-17 13,-32 3,-14 4,-42 4,-85l0 -46 60 0 0 516 -60 0 0 -53c0,-36 -2,-61 -5,-78 -3,-16 -8,-27 -13,-33 -6,-6 -18,-9 -38,-9l-21 0 0 280c0,30 1,48 2,54 1,7 3,12 6,15 4,4 11,6 21,6l40 0c29,0 54,-11 75,-33 20,-22 38,-57 54,-106 16,-49 28,-107 37,-174l61 55 -61 454 -408 0 0 -169 12 0c16,0 26,-3 32,-9 5,-6 9,-16 11,-30 1,-9 2,-34 2,-75l0 -665c0,-36 -1,-60 -3,-71 -2,-11 -5,-19 -9,-25 -4,-5 -12,-8 -24,-8l-21 0 0 -169zm733 0l247 0c56,0 100,23 133,69 34,46 60,115 80,205 19,90 29,199 29,326 0,88 -5,166 -15,236 -10,69 -25,132 -45,187 -19,56 -41,98 -63,126 -18,21 -42,38 -73,52 -32,13 -57,20 -76,20l-217 0 0 -169 16 0c14,0 23,-3 27,-9 4,-6 8,-16 10,-30 2,-11 3,-35 3,-72l0 -667c0,-37 -1,-61 -3,-72 -2,-11 -5,-19 -9,-25 -5,-5 -14,-8 -28,-8l-16 0 0 -169zm172 196l0 759c0,25 1,41 2,47 2,9 4,15 8,18 3,3 12,5 25,5 37,0 66,-15 86,-44 21,-30 38,-77 51,-142 13,-65 19,-143 19,-233 0,-88 -6,-165 -18,-231 -12,-65 -27,-112 -45,-139 -17,-27 -43,-40 -76,-40l-52 0zm368 -196l393 0 54 386 -61 57c-11,-63 -23,-114 -37,-152 -13,-39 -29,-64 -46,-77 -16,-13 -36,-19 -58,-19l-72 0 0 305 24 0c17,0 29,-4 36,-10 6,-7 10,-17 13,-32 3,-14 4,-42 4,-85l0 -46 60 0 0 516 -60 0 0 -53c0,-36 -2,-61 -5,-78 -3,-16 -8,-27 -13,-33 -6,-6 -18,-9 -38,-9l-21 0 0 280c0,30 0,48 2,54 1,7 3,12 6,15 3,4 10,6 21,6l40 0c29,0 54,-11 74,-33 21,-22 39,-57 55,-106 16,-49 28,-107 36,-174l62 55 -62 454 -407 0 0 -169 12 0c16,0 26,-3 31,-9 6,-6 10,-16 12,-30 1,-9 2,-34 2,-75l0 -665c0,-36 -1,-60 -3,-71 -2,-11 -5,-19 -9,-25 -4,-5 -12,-8 -24,-8l-21 0 0 -169zm735 0l249 0c31,0 57,9 78,25 21,17 39,42 54,76 15,34 26,74 34,120 9,46 13,96 13,147 0,105 -16,192 -47,263 -31,71 -74,106 -128,106l-80 0 0 228c0,29 0,47 2,54 2,11 5,20 9,25 4,5 11,8 21,8l24 0 0 169 -229 0 0 -169 15 0c14,0 24,-3 28,-8 5,-5 8,-14 10,-25 2,-11 3,-35 3,-70l0 -671c0,-38 -1,-63 -3,-74 -2,-12 -4,-21 -8,-27 -4,-5 -12,-8 -23,-8l-22 0 0 -169zm173 200l0 346 40 0c24,0 42,-7 54,-20 11,-13 20,-33 28,-60 6,-27 10,-59 10,-97 0,-56 -8,-100 -25,-133 -12,-24 -31,-36 -55,-36l-52 0zm282 -200l393 0 54 386 -61 57c-11,-63 -23,-114 -37,-152 -13,-39 -29,-64 -45,-77 -17,-13 -37,-19 -59,-19l-72 0 0 305 24 0c17,0 29,-4 36,-10 6,-7 10,-17 13,-32 3,-14 4,-42 4,-85l0 -46 60 0 0 516 -60 0 0 -53c0,-36 -2,-61 -5,-78 -3,-16 -8,-27 -13,-33 -6,-6 -18,-9 -38,-9l-21 0 0 280c0,30 0,48 2,54 1,7 3,12 6,15 4,4 11,6 21,6l40 0c29,0 54,-11 75,-33 20,-22 38,-57 54,-106 16,-49 28,-107 36,-174l62 55 -62 454 -407 0 0 -169 12 0c16,0 26,-3 31,-9 6,-6 10,-16 12,-30 1,-9 2,-34 2,-75l0 -665c0,-36 -1,-60 -3,-71 -2,-11 -5,-19 -9,-25 -4,-5 -12,-8 -24,-8l-21 0 0 -169zm498 0l246 0c57,0 101,23 134,69 33,46 60,115 79,205 20,90 30,199 30,326 0,88 -5,166 -15,236 -10,69 -25,132 -45,187 -20,56 -41,98 -64,126 -17,21 -41,38 -72,52 -32,13 -57,20 -76,20l-217 0 0 -169 16 0c13,0 23,-3 27,-9 4,-6 8,-16 10,-30 2,-11 3,-35 3,-72l0 -667c0,-37 -1,-61 -3,-72 -2,-11 -5,-19 -9,-25 -5,-5 -14,-8 -28,-8l-16 0 0 -169zm172 196l0 759c0,25 0,41 1,47 2,9 5,15 8,18 4,3 12,5 26,5 37,0 65,-15 86,-44 21,-30 38,-77 51,-142 13,-65 19,-143 19,-233 0,-88 -6,-165 -18,-231 -12,-65 -27,-112 -45,-139 -18,-27 -43,-40 -76,-40l-52 0zm365 -196l230 0 0 169 -21 0c-12,0 -20,3 -24,8 -4,6 -7,15 -9,27 -2,11 -3,34 -3,68l0 676c0,36 1,60 2,70 2,11 5,19 8,23 5,7 12,11 22,11l25 0 0 169 -230 0 0 -169 19 0c13,0 22,-3 26,-8 4,-5 7,-12 8,-23 2,-11 3,-32 3,-65l0 -678c0,-37 -1,-63 -3,-74 -1,-12 -5,-22 -9,-28 -3,-5 -11,-7 -23,-7l-21 0 0 -169zm279 0l247 0c56,0 100,23 133,69 33,46 60,115 80,205 19,90 29,199 29,326 0,88 -5,166 -15,236 -10,69 -25,132 -45,187 -20,56 -41,98 -63,126 -18,21 -42,38 -73,52 -32,13 -57,20 -76,20l-217 0 0 -169 16 0c14,0 23,-3 27,-9 4,-6 8,-16 10,-30 2,-11 3,-35 3,-72l0 -667c0,-37 -1,-61 -3,-72 -2,-11 -5,-19 -9,-25 -5,-5 -14,-8 -28,-8l-16 0 0 -169zm172 196l0 759c0,25 1,41 2,47 1,9 4,15 8,18 3,3 11,5 25,5 37,0 65,-15 86,-44 21,-30 38,-77 51,-142 13,-65 19,-143 19,-233 0,-88 -6,-165 -18,-231 -12,-65 -27,-112 -45,-139 -17,-27 -43,-40 -76,-40l-52 0zm620 -217c75,0 135,59 182,177 46,118 69,269 69,454 0,124 -10,234 -32,331 -21,96 -50,170 -87,222 -38,53 -82,79 -135,79 -70,0 -127,-50 -171,-149 -54,-120 -81,-279 -81,-479 0,-187 24,-339 71,-457 47,-119 108,-178 184,-178zm2 194c-36,0 -65,35 -86,105 -27,87 -40,200 -40,338 0,138 13,248 37,328 22,69 50,103 85,103 35,0 64,-34 85,-103 25,-82 37,-192 37,-330 0,-97 -5,-178 -16,-244 -10,-66 -25,-115 -43,-148 -18,-32 -38,-49 -59,-49zm541 498l183 0 0 209 -183 0 0 -209zm479 -671l249 0c31,0 57,9 78,25 21,17 39,42 54,76 15,34 26,74 35,120 8,46 12,96 12,147 0,105 -16,192 -47,263 -31,71 -74,106 -128,106l-80 0 0 228c0,29 0,47 2,54 2,11 5,20 9,25 4,5 11,8 21,8l24 0 0 169 -229 0 0 -169 16 0c13,0 23,-3 27,-8 5,-5 8,-14 10,-25 2,-11 3,-35 3,-70l0 -671c0,-38 -1,-63 -3,-74 -1,-12 -4,-21 -8,-27 -4,-5 -12,-8 -23,-8l-22 0 0 -169zm173 200l0 346 40 0c24,0 42,-7 54,-20 11,-13 21,-33 28,-60 6,-27 10,-59 10,-97 0,-56 -8,-100 -25,-133 -12,-24 -31,-36 -55,-36l-52 0zm281 -200l290 0c19,0 39,5 61,13 23,9 43,28 61,58 18,30 31,67 41,113 10,46 15,97 15,154 0,92 -13,168 -38,225 -26,58 -56,95 -91,113l97 292 4 13c6,20 12,35 17,44 6,10 11,16 16,21 5,4 12,6 22,6l20 0 0 169 -151 0 -151 -526 -40 0 0 243c0,42 1,69 3,80 2,12 5,20 9,26 4,5 12,8 23,8l22 0 0 169 -230 0 0 -169 21 0c11,0 18,-3 23,-9 5,-7 8,-16 10,-28 1,-7 2,-29 2,-65l0 -687c0,-27 -1,-46 -2,-58 -2,-11 -5,-19 -9,-22 -5,-6 -11,-10 -18,-10l-10 1 -17 0 0 -174zm173 201l0 315 70 0c28,0 48,-6 62,-19 14,-13 24,-32 31,-57 6,-24 10,-54 10,-89 0,-32 -3,-60 -10,-83 -6,-23 -15,-40 -27,-51 -12,-11 -31,-16 -58,-16l-78 0zm620 -222c75,0 135,59 181,177 47,118 70,269 70,454 0,124 -11,234 -32,331 -21,96 -50,170 -88,222 -37,53 -82,79 -134,79 -70,0 -127,-50 -171,-149 -54,-120 -81,-279 -81,-479 0,-187 24,-339 71,-457 47,-119 108,-178 184,-178zm1 194c-36,0 -64,35 -85,105 -27,87 -40,200 -40,338 0,138 12,248 37,328 21,69 50,103 85,103 35,0 63,-34 85,-103 25,-82 37,-192 37,-330 0,-97 -5,-178 -16,-244 -11,-66 -25,-115 -43,-148 -19,-32 -38,-49 -60,-49zm299 -173l247 0c56,0 101,23 134,69 33,46 59,115 79,205 20,90 30,199 30,326 0,88 -5,166 -15,236 -10,69 -25,132 -45,187 -20,56 -41,98 -64,126 -17,21 -41,38 -73,52 -31,13 -56,20 -75,20l-218 0 0 -169 16 0c14,0 23,-3 27,-9 5,-6 8,-16 11,-30 2,-11 3,-35 3,-72l0 -667c0,-37 -1,-61 -3,-72 -2,-11 -5,-19 -10,-25 -4,-5 -13,-8 -28,-8l-16 0 0 -169zm172 196l0 759c0,25 1,41 2,47 2,9 5,15 8,18 4,3 12,5 25,5 37,0 66,-15 87,-44 21,-30 38,-77 50,-142 13,-65 20,-143 20,-233 0,-88 -6,-165 -18,-231 -12,-65 -27,-112 -45,-139 -18,-27 -43,-40 -77,-40l-52 0zm354 -196l231 0 0 169 -23 0c-10,0 -18,3 -22,10 -5,6 -8,15 -10,27 -2,12 -3,37 -3,73l0 445c0,82 3,144 10,185 6,41 16,72 29,93 13,22 28,32 47,32 18,0 35,-11 49,-35 15,-23 25,-52 31,-89 6,-35 9,-95 9,-178l0 -489c0,-21 -1,-36 -3,-44 -2,-12 -6,-20 -10,-25 -3,-3 -12,-5 -24,-5l-19 0 0 -169 195 0 0 169 -15 0c-15,0 -24,2 -28,7 -5,7 -9,17 -12,31 -2,8 -2,33 -2,72l0 481c0,89 -5,164 -15,224 -14,81 -36,145 -66,190 -30,45 -66,68 -107,68 -29,0 -55,-12 -78,-35 -23,-23 -43,-56 -60,-99 -18,-43 -30,-88 -36,-136 -7,-48 -11,-118 -11,-212l0 -471c0,-43 -1,-71 -2,-84 -2,-12 -5,-21 -9,-27 -4,-6 -12,-9 -24,-9l-22 0 0 -169zm889 0l48 0 46 439 -62 47c-21,-105 -41,-179 -59,-222 -26,-60 -54,-91 -84,-91 -22,0 -42,16 -61,48 -19,31 -34,77 -45,139 -12,61 -17,133 -17,215 0,125 13,233 38,324 26,90 59,135 101,135 26,0 51,-19 76,-58 30,-49 56,-114 78,-196l53 101c-34,120 -65,204 -94,251 -43,73 -91,110 -145,110 -44,0 -84,-28 -120,-83 -36,-55 -65,-132 -86,-231 -22,-99 -32,-208 -32,-325 0,-117 10,-223 31,-319 21,-96 49,-171 85,-224 36,-54 76,-81 120,-81 45,0 84,25 118,74l11 -53zm512 0l48 0 46 439 -63 47c-21,-105 -40,-179 -59,-222 -25,-60 -53,-91 -83,-91 -22,0 -43,16 -62,48 -19,31 -34,77 -45,139 -11,61 -16,133 -16,215 0,125 12,233 38,324 25,90 59,135 100,135 27,0 52,-19 76,-58 31,-49 57,-114 79,-196l52 101c-34,120 -65,204 -93,251 -43,73 -92,110 -145,110 -44,0 -85,-28 -121,-83 -35,-55 -64,-132 -86,-231 -21,-99 -32,-208 -32,-325 0,-117 11,-223 32,-319 21,-96 49,-171 85,-224 36,-54 76,-81 120,-81 45,0 84,25 118,74l11 -53zm146 0l229 0 0 169 -20 0c-13,0 -21,3 -25,8 -4,6 -6,15 -8,27 -2,11 -3,34 -3,68l0 676c0,36 1,60 2,70 2,11 4,19 8,23 5,7 12,11 21,11l25 0 0 169 -229 0 0 -169 18 0c14,0 22,-3 26,-8 4,-5 7,-12 9,-23 2,-11 3,-32 3,-65l0 -678c0,-37 -1,-63 -3,-74 -2,-12 -5,-22 -9,-28 -3,-5 -11,-7 -23,-7l-21 0 0 -169zm531 -21c75,0 136,59 182,177 46,118 69,269 69,454 0,124 -10,234 -31,331 -21,96 -51,170 -88,222 -37,53 -82,79 -135,79 -70,0 -126,-50 -171,-149 -53,-120 -80,-279 -80,-479 0,-187 23,-339 70,-457 47,-119 109,-178 184,-178zm2 194c-36,0 -64,35 -86,105 -26,87 -39,200 -39,338 0,138 12,248 37,328 21,69 49,103 84,103 36,0 64,-34 85,-103 25,-82 38,-192 38,-330 0,-97 -6,-178 -16,-244 -11,-66 -25,-115 -44,-148 -18,-32 -38,-49 -59,-49zm-59 -256l-13 -88 72 -168c21,-48 40,-72 58,-72 13,0 25,12 34,38 10,25 15,56 15,93 0,28 -5,54 -13,80 -8,25 -22,44 -42,56l-111 61zm359 83l191 0 138 712 0 -435c0,-38 -1,-61 -2,-70 -2,-14 -6,-24 -9,-30 -4,-5 -12,-8 -23,-8l-23 0 0 -169 195 0 0 169 -22 0c-10,0 -18,3 -23,10 -4,6 -8,15 -9,26 -2,11 -3,35 -3,72l0 944 -97 0 -175 -900 0 629c0,37 1,60 3,69 1,10 4,18 9,24 4,6 12,9 22,9l23 0 0 169 -195 0 0 -169 20 0c11,0 19,-3 23,-8 4,-5 7,-13 10,-26 2,-12 4,-30 4,-54l0 -700c0,-27 -2,-47 -4,-60 -2,-12 -5,-21 -9,-27 -4,-5 -10,-8 -19,-8l-25 0 0 -169z"/>
  <path class="fil1" d="M282 74l12748 0c64,0 123,19 166,51 46,34 74,82 74,135l0 1889c0,53 -28,101 -74,135 -43,31 -102,51 -166,51l-12748 0c-64,0 -123,-20 -166,-51 -46,-34 -75,-82 -75,-135l0 -1889c0,-53 29,-101 75,-135 43,-32 102,-51 166,-51zm12748 70l-12748 0c-49,0 -93,15 -124,38 -29,20 -46,48 -46,78l0 1889c0,29 17,57 46,78 31,23 75,37 124,37l12748 0c49,0 93,-14 124,-37 28,-21 46,-49 46,-78l0 -1889c0,-30 -18,-58 -46,-78 -31,-23 -75,-38 -124,-38z"/>
 </g>
</svg>
