<?xml version="1.0" encoding="UTF-8" standalone="no"?>
<!-- Creator: CorelDRAW X7 -->

<svg
   xmlns:dc="http://purl.org/dc/elements/1.1/"
   xmlns:cc="http://creativecommons.org/ns#"
   xmlns:rdf="http://www.w3.org/1999/02/22-rdf-syntax-ns#"
   xmlns:svg="http://www.w3.org/2000/svg"
   xmlns="http://www.w3.org/2000/svg"
   xmlns:sodipodi="http://sodipodi.sourceforge.net/DTD/sodipodi-0.dtd"
   xmlns:inkscape="http://www.inkscape.org/namespaces/inkscape"
   xml:space="preserve"
   width="122mm"
   height="23mm"
   version="1.0"
   style="clip-rule:evenodd;fill-rule:evenodd;image-rendering:optimizeQuality;shape-rendering:geometricPrecision;text-rendering:geometricPrecision"
   viewBox="0 0 12200 2300"
   id="svg4155"
   inkscape:version="0.91 r13725"
   sodipodi:docname="titulo_presupuesto.svg"><metadata
     id="metadata4181"><rdf:RDF><cc:Work
         rdf:about=""><dc:format>image/svg+xml</dc:format><dc:type
           rdf:resource="http://purl.org/dc/dcmitype/StillImage" /><dc:title /></cc:Work></rdf:RDF></metadata><sodipodi:namedview
     pagecolor="#ffffff"
     bordercolor="#666666"
     borderopacity="1"
     objecttolerance="10"
     gridtolerance="10"
     guidetolerance="10"
     inkscape:pageopacity="0"
     inkscape:pageshadow="2"
     inkscape:window-width="1920"
     inkscape:window-height="1017"
     id="namedview4179"
     showgrid="false"
     inkscape:zoom="2.7019238"
     inkscape:cx="203.34459"
     inkscape:cy="27.370225"
     inkscape:window-x="-8"
     inkscape:window-y="-8"
     inkscape:window-maximized="1"
     inkscape:current-layer="svg4155" /><defs
     id="defs4157"><style
       type="text/css"
       id="style4159"><![CDATA[
    .fil0 {fill:#EF7F1A;fill-rule:nonzero}
   ]]></style></defs><g
     id="Capa_x0020_1"
     style="fill:#d45500"
     transform="matrix(0.94457293,0,0,1,-286.8424,12.888884)"><metadata
       id="CorelCorpID_0Corel-Layer" /><path
       class="fil0"
       d="m 1272,640 c 168,0 297,29 386,88 90,59 135,155 135,289 0,135 -46,233 -136,293 -91,60 -221,90 -389,90 l -80,0 0,376 -253,0 0,-1107 c 55,-11 114,-19 175,-23 62,-4 116,-6 162,-6 z m 17,215 c -19,0 -37,1 -55,2 -17,1 -33,2 -46,3 l 0,324 80,0 c 87,0 153,-12 197,-36 45,-23 67,-68 67,-132 0,-32 -6,-58 -17,-78 -12,-21 -28,-37 -49,-50 -21,-12 -47,-21 -77,-26 -30,-4 -64,-7 -100,-7 z"
       id="path4163"
       style="fill:#d45500;fill-rule:nonzero"
       inkscape:connector-curvature="0" /><path
       id="1"
       class="fil0"
       d="m 2308,640 c 169,0 298,30 388,90 89,59 134,153 134,279 0,79 -18,143 -54,192 -36,49 -89,88 -157,116 23,28 47,60 72,96 25,37 49,75 73,114 25,39 48,80 71,123 23,43 44,85 63,126 l -282,0 c -21,-37 -42,-74 -63,-112 -21,-38 -43,-75 -65,-110 -22,-36 -44,-70 -66,-102 -22,-31 -44,-60 -65,-86 l -125,0 0,410 -253,0 0,-1107 c 55,-11 112,-19 171,-23 59,-4 112,-6 158,-6 z m 15,215 c -19,0 -35,1 -50,2 -14,1 -28,2 -41,3 l 0,305 71,0 c 95,0 163,-12 205,-36 41,-24 61,-64 61,-122 0,-55 -21,-94 -62,-117 -42,-23 -103,-35 -184,-35 z"
       style="fill:#d45500;fill-rule:nonzero"
       inkscape:connector-curvature="0" /><polygon
       id="2"
       class="fil0"
       points="3313,865 3313,1085 3762,1085 3762,1293 3313,1293 3313,1563 3856,1563 3856,1776 3060,1776 3060,653 3819,653 3819,865 "
       style="fill:#d45500;fill-rule:nonzero" /><path
       id="3"
       class="fil0"
       d="m 4349,1583 c 35,0 65,-3 88,-9 23,-6 42,-14 56,-24 14,-11 24,-23 29,-37 6,-14 8,-30 8,-47 0,-37 -17,-67 -52,-91 -34,-25 -94,-51 -178,-79 -37,-13 -73,-28 -110,-45 -37,-16 -70,-37 -99,-63 -29,-25 -53,-56 -71,-92 -19,-36 -28,-80 -28,-132 0,-52 10,-99 29,-140 20,-42 47,-77 83,-107 36,-29 79,-51 130,-67 50,-16 108,-23 172,-23 75,0 141,8 196,24 55,16 100,34 136,53 l -73,200 c -31,-16 -66,-31 -105,-43 -38,-13 -84,-19 -138,-19 -61,0 -104,9 -131,25 -26,17 -39,43 -39,77 0,21 4,38 14,52 10,14 24,27 41,38 18,12 39,22 62,31 23,9 49,19 77,28 58,22 109,43 152,64 44,21 80,46 108,74 29,28 50,61 64,99 14,38 21,84 21,138 0,105 -36,186 -110,244 -73,58 -184,86 -332,86 -50,0 -95,-3 -135,-8 -40,-6 -75,-14 -106,-22 -31,-9 -57,-18 -79,-28 -22,-10 -41,-19 -56,-27 l 71,-201 c 34,18 75,34 124,49 49,15 109,22 181,22 z"
       style="fill:#d45500;fill-rule:nonzero"
       inkscape:connector-curvature="0" /><path
       id="4"
       class="fil0"
       d="m 5425,1798 c -79,0 -147,-11 -204,-33 -57,-22 -105,-53 -142,-92 -37,-40 -65,-87 -83,-141 -18,-55 -26,-115 -26,-181 l 0,-698 252,0 0,677 c 0,45 6,84 16,116 10,32 24,58 42,78 18,20 39,34 65,43 25,8 53,13 83,13 62,0 112,-19 150,-57 39,-38 58,-102 58,-193 l 0,-677 253,0 0,698 c 0,66 -10,127 -28,182 -18,55 -46,102 -84,141 -38,40 -86,70 -145,92 -58,22 -127,32 -207,32 z"
       style="fill:#d45500;fill-rule:nonzero"
       inkscape:connector-curvature="0" /><path
       id="5"
       class="fil0"
       d="m 6469,640 c 167,0 296,29 386,88 89,59 134,155 134,289 0,135 -45,233 -136,293 -91,60 -220,90 -389,90 l -79,0 0,376 -253,0 0,-1107 c 55,-11 113,-19 175,-23 61,-4 115,-6 162,-6 z m 16,215 c -18,0 -36,1 -54,2 -18,1 -34,2 -46,3 l 0,324 79,0 c 87,0 153,-12 198,-36 44,-23 66,-68 66,-132 0,-32 -6,-58 -17,-78 -11,-21 -27,-37 -49,-50 -21,-12 -46,-21 -77,-26 -30,-4 -63,-7 -100,-7 z"
       style="fill:#d45500;fill-rule:nonzero"
       inkscape:connector-curvature="0" /><path
       id="6"
       class="fil0"
       d="m 7615,1798 c -79,0 -147,-11 -205,-33 -57,-22 -104,-53 -141,-92 -38,-40 -65,-87 -83,-141 -18,-55 -27,-115 -27,-181 l 0,-698 253,0 0,677 c 0,45 5,84 16,116 10,32 24,58 42,78 17,20 39,34 64,43 26,8 54,13 84,13 62,0 112,-19 150,-57 38,-38 57,-102 57,-193 l 0,-677 253,0 0,698 c 0,66 -9,127 -27,182 -19,55 -47,102 -85,141 -37,40 -85,70 -144,92 -58,22 -127,32 -207,32 z"
       style="fill:#d45500;fill-rule:nonzero"
       inkscape:connector-curvature="0" /><polygon
       id="7"
       class="fil0"
       points="8574,865 8574,1085 9023,1085 9023,1293 8574,1293 8574,1563 9117,1563 9117,1776 8321,1776 8321,653 9080,653 9080,865 "
       style="fill:#d45500;fill-rule:nonzero" /><path
       id="8"
       class="fil0"
       d="m 9610,1583 c 36,0 65,-3 88,-9 23,-6 42,-14 56,-24 14,-11 24,-23 29,-37 6,-14 8,-30 8,-47 0,-37 -17,-67 -51,-91 -35,-25 -94,-51 -179,-79 -36,-13 -73,-28 -110,-45 -37,-16 -70,-37 -99,-63 -29,-25 -53,-56 -71,-92 -18,-36 -28,-80 -28,-132 0,-52 10,-99 30,-140 19,-42 47,-77 82,-107 36,-29 79,-51 130,-67 51,-16 108,-23 172,-23 75,0 141,8 196,24 55,16 100,34 136,53 l -73,200 c -31,-16 -66,-31 -105,-43 -38,-13 -84,-19 -138,-19 -61,0 -104,9 -131,25 -26,17 -39,43 -39,77 0,21 5,38 14,52 10,14 24,27 42,38 17,12 38,22 61,31 23,9 49,19 77,28 59,22 109,43 153,64 43,21 79,46 107,74 29,28 50,61 64,99 14,38 21,84 21,138 0,105 -36,186 -110,244 -73,58 -184,86 -332,86 -50,0 -95,-3 -135,-8 -40,-6 -75,-14 -106,-22 -31,-9 -57,-18 -79,-28 -22,-10 -41,-19 -56,-27 l 71,-201 c 34,18 75,34 124,49 49,15 110,22 181,22 z"
       style="fill:#d45500;fill-rule:nonzero"
       inkscape:connector-curvature="0" /><polygon
       id="9"
       class="fil0"
       points="11048,653 11048,868 10709,868 10709,1776 10456,1776 10456,868 10117,868 10117,653 "
       style="fill:#d45500;fill-rule:nonzero" /><path
       id="10"
       class="fil0"
       d="m 11385,1213 c 0,55 6,105 20,149 13,45 33,83 58,115 26,32 57,56 94,73 36,18 78,26 126,26 46,0 88,-8 126,-26 37,-17 68,-41 94,-73 25,-32 44,-70 58,-115 13,-44 20,-94 20,-149 0,-55 -7,-105 -20,-150 -14,-44 -33,-83 -58,-115 -26,-32 -57,-56 -94,-73 -38,-18 -80,-26 -126,-26 -48,0 -90,9 -126,26 -37,18 -68,43 -94,75 -25,32 -45,70 -58,115 -14,45 -20,94 -20,148 z m 857,0 c 0,96 -14,181 -43,254 -28,73 -68,134 -117,183 -50,49 -109,86 -178,111 -68,25 -142,37 -221,37 -77,0 -149,-12 -217,-37 -68,-25 -128,-62 -179,-111 -50,-49 -90,-110 -119,-183 -30,-73 -44,-158 -44,-254 0,-96 15,-180 45,-253 30,-73 71,-135 123,-184 51,-50 110,-87 178,-112 67,-25 138,-37 213,-37 77,0 149,12 217,37 68,25 128,62 178,112 51,49 91,111 120,184 30,73 44,157 44,253 z"
       style="fill:#d45500;fill-rule:nonzero"
       inkscape:connector-curvature="0" /></g><g
     id="Capa_x0020_1_0"
     style="fill:#d45500;stroke:#d45500"
     transform="matrix(0.86577296,0,0,0.93532363,108.02945,51.019294)"><metadata
       id="CorelCorpID_1Corel-Layer" /><path
       class="fil0"
       d="m 332,74 12748,0 c 64,0 123,19 166,51 46,34 74,82 74,135 l 0,1889 c 0,53 -28,101 -74,135 -43,31 -102,51 -166,51 l -12748,0 c -64,0 -123,-20 -166,-51 -46,-34 -75,-82 -75,-135 L 91,260 C 91,207 120,159 166,125 209,93 268,74 332,74 Z m 12748,70 -12748,0 c -49,0 -93,15 -124,38 -29,20 -46,48 -46,78 l 0,1889 c 0,29 17,57 46,78 31,23 75,37 124,37 l 12748,0 c 49,0 93,-14 124,-37 28,-21 46,-49 46,-78 l 0,-1889 c 0,-30 -18,-58 -46,-78 -31,-23 -75,-38 -124,-38 z"
       id="path4177"
       style="fill:#d45500;fill-rule:nonzero;stroke:#d45500"
       inkscape:connector-curvature="0" /></g></svg>